ISO-10303-21;
HEADER;
FILE_DESCRIPTION(('STEP AP203'),
    '1');
FILE_NAME('cubesatV2',
    '2026-02-16T19:04:45',
    ('dima'),
    (''),
    'C3D Converter',
    'C3D Toolkit',
    '');
/**/
FILE_SCHEMA(('CONFIG_CONTROL_DESIGN'));
ENDSEC;

DATA;
#1=PRODUCT_DEFINITION('','UNSPECIFIED',#28,#31);
#2=SHAPE_DEFINITION_REPRESENTATION(#26,#3);
#3=SHAPE_REPRESENTATION('NONE',(#4),#8);
#4=AXIS2_PLACEMENT_3D('',#5,#6,#7);
#5=CARTESIAN_POINT('',(0.,0.,0.));
#6=DIRECTION('',(0.,0.,1.));
#7=DIRECTION('',(1.,0.,0.));
#8=(GEOMETRIC_REPRESENTATION_CONTEXT(3)GLOBAL_UNCERTAINTY_ASSIGNED_CONTEXT((#10))
GLOBAL_UNIT_ASSIGNED_CONTEXT((#9,#11,#12))REPRESENTATION_CONTEXT('NONE','NONE'));
#9=(LENGTH_UNIT()NAMED_UNIT(*)SI_UNIT(.MILLI.,.METRE.));
#10=UNCERTAINTY_MEASURE_WITH_UNIT(LENGTH_MEASURE(1.E-5),#9,'NONE','NONE');
#11=(NAMED_UNIT(*)PLANE_ANGLE_UNIT()SI_UNIT($,.RADIAN.));
#12=(NAMED_UNIT(*)SI_UNIT($,.STERADIAN.)SOLID_ANGLE_UNIT());
#13=MANIFOLD_SOLID_BREP('',#14);
#14=CLOSED_SHELL('',(#53,#54,#55,#56,#57,#58,#59,#60,#61,#62,#63,#64,#65,#66,#67,
#68,#69,#70));
#15=COLOUR_RGB('',0.564705882352941,0.564705882352941,0.564705882352941);
#16=FILL_AREA_STYLE_COLOUR('',#15);
#17=FILL_AREA_STYLE($,(#16));
#18=SURFACE_STYLE_FILL_AREA(#17);
#19=SURFACE_SIDE_STYLE('',(#18));
#20=SURFACE_STYLE_USAGE(.BOTH.,#19);
#21=PRESENTATION_STYLE_ASSIGNMENT((#20));
#22=MECHANICAL_DESIGN_GEOMETRIC_PRESENTATION_REPRESENTATION('NONE',(#23),#8);
#23=STYLED_ITEM('',(#21),#13);
#24=ADVANCED_BREP_SHAPE_REPRESENTATION('NONE',(#13),#8);
#25=SHAPE_REPRESENTATION_RELATIONSHIP('','',#3,#24);
#26=PRODUCT_DEFINITION_SHAPE('NONE','NONE',#1);
#27=MECHANICAL_CONTEXT('NONE',#32,'mechanical');
#28=PRODUCT_DEFINITION_FORMATION_WITH_SPECIFIED_SOURCE('ANY','UNSPECIFIED',#29,.NOT_KNOWN.);
#29=PRODUCT('','\X2\04210431043E0440043A0430\X0\','NONE',(#27));
#30=PRODUCT_RELATED_PRODUCT_CATEGORY('assembly','',(#29));
#31=DESIGN_CONTEXT('detailed design',#32,'design');
#32=APPLICATION_CONTEXT('configuration controlled 3d designs of mechanical parts and assemblies');
#33=APPLICATION_PROTOCOL_DEFINITION('international standard','config_control_design',
1994,#32);
#34=CC_DESIGN_DATE_AND_TIME_ASSIGNMENT(#35,#39,(#1));
#35=DATE_AND_TIME(#36,#37);
#36=CALENDAR_DATE(0,1,1);
#37=LOCAL_TIME(0,0,0.,#38);
#38=COORDINATED_UNIVERSAL_TIME_OFFSET(0,0,.AHEAD.);
#39=DATE_TIME_ROLE('creation_date');
#40=CC_DESIGN_APPROVAL(#41,(#1));
#41=APPROVAL(#42,'UNSPECIFIED');
#42=APPROVAL_STATUS('not_yet_approved');
#43=APPROVAL_DATE_TIME(#44,#41);
#44=DATE_AND_TIME(#45,#46);
#45=CALENDAR_DATE(0,1,1);
#46=LOCAL_TIME(0,0,0.,#47);
#47=COORDINATED_UNIVERSAL_TIME_OFFSET(0,0,.AHEAD.);
#48=PERSON('UNSPECIFIED','dima','UNSPECIFIED',('UNSPECIFIED'),('UNSPECIFIED'),('UNSPECIFIED'));
#49=ORGANIZATION('UNSPECIFIED','UNSPECIFIED','UNSPECIFIED');
#50=PERSON_AND_ORGANIZATION(#48,#49);
#51=PERSON_AND_ORGANIZATION_ROLE('creator');
#52=CC_DESIGN_PERSON_AND_ORGANIZATION_ASSIGNMENT(#50,#51,(#28,#1));
#53=ADVANCED_FACE('',(#71,#73),#75,.T.);
#54=ADVANCED_FACE('',(#80,#82),#84,.T.);
#55=ADVANCED_FACE('',(#89,#91),#93,.F.);
#56=ADVANCED_FACE('',(#98),#100,.T.);
#57=ADVANCED_FACE('',(#105,#107,#109,#111),#113,.F.);
#58=ADVANCED_FACE('',(#118),#120,.T.);
#59=ADVANCED_FACE('',(#125),#127,.T.);
#60=ADVANCED_FACE('',(#132),#134,.T.);
#61=ADVANCED_FACE('',(#139,#141,#143,#145),#147,.T.);
#62=ADVANCED_FACE('',(#152),#154,.T.);
#63=ADVANCED_FACE('',(#159,#161,#163),#165,.T.);
#64=ADVANCED_FACE('',(#170),#172,.T.);
#65=ADVANCED_FACE('',(#177,#179,#181),#183,.T.);
#66=ADVANCED_FACE('',(#188,#190),#192,.F.);
#67=ADVANCED_FACE('',(#197,#199),#201,.F.);
#68=ADVANCED_FACE('',(#206,#208),#210,.F.);
#69=ADVANCED_FACE('',(#215,#217),#219,.F.);
#70=ADVANCED_FACE('',(#224,#226),#228,.F.);
#71=FACE_BOUND('',#72,.T.);
#72=EDGE_LOOP('',(#233,#234,#235,#236));
#73=FACE_BOUND('',#74,.T.);
#74=EDGE_LOOP('',(#237));
#75=PLANE('',#76);
#76=AXIS2_PLACEMENT_3D('',#77,#78,#79);
#77=CARTESIAN_POINT('',(-17.6482735714271,-4.85000000000002,-17.5));
#78=DIRECTION('',(-1.,-6.93889390390723E-18,1.48029739263891E-16));
#79=DIRECTION('',(6.93889390390724E-18,-1.,2.46016653319744E-17));
#80=FACE_BOUND('',#81,.T.);
#81=EDGE_LOOP('',(#238,#239,#240,#241));
#82=FACE_BOUND('',#83,.T.);
#83=EDGE_LOOP('',(#242));
#84=PLANE('',#85);
#85=AXIS2_PLACEMENT_3D('',#86,#87,#88);
#86=CARTESIAN_POINT('',(-15.1482735714271,-17.35,-14.45));
#87=DIRECTION('',(1.,6.93889390390723E-18,-1.48029739263891E-16));
#88=DIRECTION('',(-6.93889390390724E-18,1.,-3.44235989506167E-17));
#89=FACE_OUTER_BOUND('',#90,.T.);
#90=EDGE_LOOP('',(#243));
#91=FACE_OUTER_BOUND('',#92,.T.);
#92=EDGE_LOOP('',(#244));
#93=CYLINDRICAL_SURFACE('',#94,1.);
#94=AXIS2_PLACEMENT_3D('',#95,#96,#97);
#95=CARTESIAN_POINT('',(-14.6482735714271,-11.1,-0.700000000000003));
#96=DIRECTION('',(-1.,-6.93889390390723E-18,1.48029739263891E-16));
#97=DIRECTION('',(6.93889390390721E-18,-1.,-1.59095354540128E-16));
#98=FACE_BOUND('',#99,.T.);
#99=EDGE_LOOP('',(#245,#246,#247,#248,#249,#250,#251,#252,#253,#254));
#100=PLANE('',#101);
#101=AXIS2_PLACEMENT_3D('',#102,#103,#104);
#102=CARTESIAN_POINT('',(17.3517264285729,-4.85000000000002,-17.5));
#103=DIRECTION('',(-5.76919464582001E-17,1.,3.66306746253933E-17));
#104=DIRECTION('',(-1.,-5.76919464582001E-17,1.48029739263891E-16));
#105=FACE_BOUND('',#106,.T.);
#106=EDGE_LOOP('',(#255,#256,#257,#258));
#107=FACE_BOUND('',#108,.T.);
#108=EDGE_LOOP('',(#259));
#109=FACE_BOUND('',#110,.T.);
#110=EDGE_LOOP('',(#260));
#111=FACE_BOUND('',#112,.T.);
#112=EDGE_LOOP('',(#261));
#113=PLANE('',#114);
#114=AXIS2_PLACEMENT_3D('',#115,#116,#117);
#115=CARTESIAN_POINT('',(-0.148273571427108,-11.1,-17.5));
#116=DIRECTION('',(1.48029739263891E-16,2.46016653319744E-17,1.));
#117=DIRECTION('',(-6.81712338612749E-17,1.,-2.46016653319744E-17));
#118=FACE_BOUND('',#119,.T.);
#119=EDGE_LOOP('',(#262,#263,#264,#265,#266,#267,#268,#269,#270,#271));
#120=PLANE('',#121);
#121=AXIS2_PLACEMENT_3D('',#122,#123,#124);
#122=CARTESIAN_POINT('',(-17.6482735714271,-17.35,-17.5));
#123=DIRECTION('',(5.76919464582001E-17,-1.,-3.66306746253933E-17));
#124=DIRECTION('',(1.,5.76919464582001E-17,-1.48029739263891E-16));
#125=FACE_BOUND('',#126,.T.);
#126=EDGE_LOOP('',(#272,#273,#274,#275));
#127=CYLINDRICAL_SURFACE('',#128,6.25);
#128=AXIS2_PLACEMENT_3D('',#129,#130,#131);
#129=CARTESIAN_POINT('',(2.35172642857289,-11.1,-0.700000000000006));
#130=DIRECTION('',(-1.,-5.43084096212472E-17,1.48029739263891E-16));
#131=DIRECTION('',(1.48029739263891E-16,-4.64526082440355E-17,1.));
#132=FACE_BOUND('',#133,.T.);
#133=EDGE_LOOP('',(#276,#277,#278,#279));
#134=PLANE('',#135);
#135=AXIS2_PLACEMENT_3D('',#136,#137,#138);
#136=CARTESIAN_POINT('',(-14.1482735714271,-21.35,-14.45));
#137=DIRECTION('',(0.707106781186548,9.64069091967513E-18,0.707106781186547));
#138=DIRECTION('',(-6.93889390390722E-18,1.,-6.69510194534449E-18));
#139=FACE_BOUND('',#140,.T.);
#140=EDGE_LOOP('',(#280,#281,#282,#283));
#141=FACE_BOUND('',#142,.T.);
#142=EDGE_LOOP('',(#284));
#143=FACE_BOUND('',#144,.T.);
#144=EDGE_LOOP('',(#285));
#145=FACE_BOUND('',#146,.T.);
#146=EDGE_LOOP('',(#286));
#147=PLANE('',#148);
#148=AXIS2_PLACEMENT_3D('',#149,#150,#151);
#149=CARTESIAN_POINT('',(-0.148273571427108,-11.1,-14.45));
#150=DIRECTION('',(1.48029739263891E-16,2.46016653319744E-17,1.));
#151=DIRECTION('',(-6.81712338612749E-17,1.,-2.46016653319744E-17));
#152=FACE_BOUND('',#153,.T.);
#153=EDGE_LOOP('',(#287,#288,#289,#290));
#154=PLANE('',#155);
#155=AXIS2_PLACEMENT_3D('',#156,#157,#158);
#156=CARTESIAN_POINT('',(13.8517264285729,-0.850000000000019,-14.45));
#157=DIRECTION('',(-0.707106781186547,-1.72386947098417E-19,0.707106781186548));
#158=DIRECTION('',(6.93889390390721E-18,-1.,6.69510194534453E-18));
#159=FACE_BOUND('',#160,.T.);
#160=EDGE_LOOP('',(#291,#292,#293,#294));
#161=FACE_BOUND('',#162,.T.);
#162=EDGE_LOOP('',(#295));
#163=FACE_BOUND('',#164,.T.);
#164=EDGE_LOOP('',(#296));
#165=PLANE('',#166);
#166=AXIS2_PLACEMENT_3D('',#167,#168,#169);
#167=CARTESIAN_POINT('',(14.8517264285729,-4.85000000000002,-14.45));
#168=DIRECTION('',(-1.,-6.93889390390723E-18,1.48029739263891E-16));
#169=DIRECTION('',(6.93889390390724E-18,-1.,3.44235989506167E-17));
#170=FACE_BOUND('',#171,.T.);
#171=EDGE_LOOP('',(#297,#298,#299,#300));
#172=CYLINDRICAL_SURFACE('',#173,6.25);
#173=AXIS2_PLACEMENT_3D('',#174,#175,#176);
#174=CARTESIAN_POINT('',(34.8517264285729,-11.1,-0.70000000000001));
#175=DIRECTION('',(-1.,-5.43084096212472E-17,1.48029739263891E-16));
#176=DIRECTION('',(1.48029739263891E-16,-4.64526082440357E-17,1.));
#177=FACE_BOUND('',#178,.T.);
#178=EDGE_LOOP('',(#301,#302,#303,#304));
#179=FACE_BOUND('',#180,.T.);
#180=EDGE_LOOP('',(#305));
#181=FACE_BOUND('',#182,.T.);
#182=EDGE_LOOP('',(#306));
#183=PLANE('',#184);
#184=AXIS2_PLACEMENT_3D('',#185,#186,#187);
#185=CARTESIAN_POINT('',(17.3517264285729,-17.35,-17.5));
#186=DIRECTION('',(1.,6.93889390390723E-18,-1.48029739263891E-16));
#187=DIRECTION('',(-6.93889390390724E-18,1.,-2.46016653319744E-17));
#188=FACE_OUTER_BOUND('',#189,.T.);
#189=EDGE_LOOP('',(#307));
#190=FACE_OUTER_BOUND('',#191,.T.);
#191=EDGE_LOOP('',(#308));
#192=CYLINDRICAL_SURFACE('',#193,0.75);
#193=AXIS2_PLACEMENT_3D('',#194,#195,#196);
#194=CARTESIAN_POINT('',(-8.14827357142711,-11.1,-17.5));
#195=DIRECTION('',(1.48029739263891E-16,2.46016653319744E-17,1.));
#196=DIRECTION('',(1.,-1.15525786010828E-16,-1.48029739263891E-16));
#197=FACE_OUTER_BOUND('',#198,.T.);
#198=EDGE_LOOP('',(#309));
#199=FACE_OUTER_BOUND('',#200,.T.);
#200=EDGE_LOOP('',(#310));
#201=CYLINDRICAL_SURFACE('',#202,4.);
#202=AXIS2_PLACEMENT_3D('',#203,#204,#205);
#203=CARTESIAN_POINT('',(-0.148273571427108,-11.1,-17.5));
#204=DIRECTION('',(1.48029739263891E-16,2.46016653319744E-17,1.));
#205=DIRECTION('',(1.,-1.15525786010828E-16,-1.48029739263891E-16));
#206=FACE_OUTER_BOUND('',#207,.T.);
#207=EDGE_LOOP('',(#311));
#208=FACE_OUTER_BOUND('',#209,.T.);
#209=EDGE_LOOP('',(#312));
#210=CYLINDRICAL_SURFACE('',#211,0.75);
#211=AXIS2_PLACEMENT_3D('',#212,#213,#214);
#212=CARTESIAN_POINT('',(7.85172642857289,-11.1,-17.5));
#213=DIRECTION('',(1.48029739263891E-16,2.46016653319744E-17,1.));
#214=DIRECTION('',(1.,-1.15525786010828E-16,-1.48029739263891E-16));
#215=FACE_OUTER_BOUND('',#216,.T.);
#216=EDGE_LOOP('',(#313));
#217=FACE_OUTER_BOUND('',#218,.T.);
#218=EDGE_LOOP('',(#314));
#219=CYLINDRICAL_SURFACE('',#220,0.75);
#220=AXIS2_PLACEMENT_3D('',#221,#222,#223);
#221=CARTESIAN_POINT('',(14.3517264285729,-11.1,-12.25));
#222=DIRECTION('',(1.,6.93889390390723E-18,-1.48029739263891E-16));
#223=DIRECTION('',(-1.48029739263891E-16,-2.46016653319743E-17,-1.));
#224=FACE_OUTER_BOUND('',#225,.T.);
#225=EDGE_LOOP('',(#315));
#226=FACE_OUTER_BOUND('',#227,.T.);
#227=EDGE_LOOP('',(#316));
#228=CYLINDRICAL_SURFACE('',#229,3.7);
#229=AXIS2_PLACEMENT_3D('',#230,#231,#232);
#230=CARTESIAN_POINT('',(14.3517264285729,-11.1,-0.750000000000011));
#231=DIRECTION('',(1.,6.93889390390723E-18,-1.48029739263891E-16));
#232=DIRECTION('',(-6.93889390390725E-18,1.,-8.58340052893417E-17));
#233=ORIENTED_EDGE('',*,*,#317,.F.);
#234=ORIENTED_EDGE('',*,*,#318,.T.);
#235=ORIENTED_EDGE('',*,*,#319,.T.);
#236=ORIENTED_EDGE('',*,*,#320,.F.);
#237=ORIENTED_EDGE('',*,*,#321,.T.);
#238=ORIENTED_EDGE('',*,*,#322,.T.);
#239=ORIENTED_EDGE('',*,*,#323,.T.);
#240=ORIENTED_EDGE('',*,*,#324,.F.);
#241=ORIENTED_EDGE('',*,*,#325,.F.);
#242=ORIENTED_EDGE('',*,*,#326,.T.);
#243=ORIENTED_EDGE('',*,*,#326,.F.);
#244=ORIENTED_EDGE('',*,*,#321,.F.);
#245=ORIENTED_EDGE('',*,*,#327,.F.);
#246=ORIENTED_EDGE('',*,*,#328,.F.);
#247=ORIENTED_EDGE('',*,*,#329,.F.);
#248=ORIENTED_EDGE('',*,*,#330,.T.);
#249=ORIENTED_EDGE('',*,*,#331,.F.);
#250=ORIENTED_EDGE('',*,*,#332,.F.);
#251=ORIENTED_EDGE('',*,*,#333,.T.);
#252=ORIENTED_EDGE('',*,*,#317,.T.);
#253=ORIENTED_EDGE('',*,*,#334,.F.);
#254=ORIENTED_EDGE('',*,*,#323,.F.);
#255=ORIENTED_EDGE('',*,*,#335,.F.);
#256=ORIENTED_EDGE('',*,*,#336,.F.);
#257=ORIENTED_EDGE('',*,*,#318,.F.);
#258=ORIENTED_EDGE('',*,*,#333,.F.);
#259=ORIENTED_EDGE('',*,*,#337,.T.);
#260=ORIENTED_EDGE('',*,*,#338,.T.);
#261=ORIENTED_EDGE('',*,*,#339,.T.);
#262=ORIENTED_EDGE('',*,*,#340,.F.);
#263=ORIENTED_EDGE('',*,*,#325,.T.);
#264=ORIENTED_EDGE('',*,*,#341,.F.);
#265=ORIENTED_EDGE('',*,*,#319,.F.);
#266=ORIENTED_EDGE('',*,*,#336,.T.);
#267=ORIENTED_EDGE('',*,*,#342,.T.);
#268=ORIENTED_EDGE('',*,*,#343,.F.);
#269=ORIENTED_EDGE('',*,*,#344,.F.);
#270=ORIENTED_EDGE('',*,*,#345,.F.);
#271=ORIENTED_EDGE('',*,*,#346,.F.);
#272=ORIENTED_EDGE('',*,*,#334,.T.);
#273=ORIENTED_EDGE('',*,*,#320,.T.);
#274=ORIENTED_EDGE('',*,*,#341,.T.);
#275=ORIENTED_EDGE('',*,*,#324,.T.);
#276=ORIENTED_EDGE('',*,*,#347,.T.);
#277=ORIENTED_EDGE('',*,*,#327,.T.);
#278=ORIENTED_EDGE('',*,*,#322,.F.);
#279=ORIENTED_EDGE('',*,*,#340,.T.);
#280=ORIENTED_EDGE('',*,*,#347,.F.);
#281=ORIENTED_EDGE('',*,*,#346,.T.);
#282=ORIENTED_EDGE('',*,*,#348,.F.);
#283=ORIENTED_EDGE('',*,*,#328,.T.);
#284=ORIENTED_EDGE('',*,*,#349,.T.);
#285=ORIENTED_EDGE('',*,*,#350,.T.);
#286=ORIENTED_EDGE('',*,*,#351,.T.);
#287=ORIENTED_EDGE('',*,*,#348,.T.);
#288=ORIENTED_EDGE('',*,*,#345,.T.);
#289=ORIENTED_EDGE('',*,*,#352,.F.);
#290=ORIENTED_EDGE('',*,*,#329,.T.);
#291=ORIENTED_EDGE('',*,*,#352,.T.);
#292=ORIENTED_EDGE('',*,*,#344,.T.);
#293=ORIENTED_EDGE('',*,*,#353,.F.);
#294=ORIENTED_EDGE('',*,*,#330,.F.);
#295=ORIENTED_EDGE('',*,*,#354,.T.);
#296=ORIENTED_EDGE('',*,*,#355,.T.);
#297=ORIENTED_EDGE('',*,*,#331,.T.);
#298=ORIENTED_EDGE('',*,*,#353,.T.);
#299=ORIENTED_EDGE('',*,*,#343,.T.);
#300=ORIENTED_EDGE('',*,*,#356,.T.);
#301=ORIENTED_EDGE('',*,*,#356,.F.);
#302=ORIENTED_EDGE('',*,*,#342,.F.);
#303=ORIENTED_EDGE('',*,*,#335,.T.);
#304=ORIENTED_EDGE('',*,*,#332,.T.);
#305=ORIENTED_EDGE('',*,*,#357,.T.);
#306=ORIENTED_EDGE('',*,*,#358,.T.);
#307=ORIENTED_EDGE('',*,*,#349,.F.);
#308=ORIENTED_EDGE('',*,*,#337,.F.);
#309=ORIENTED_EDGE('',*,*,#350,.F.);
#310=ORIENTED_EDGE('',*,*,#338,.F.);
#311=ORIENTED_EDGE('',*,*,#351,.F.);
#312=ORIENTED_EDGE('',*,*,#339,.F.);
#313=ORIENTED_EDGE('',*,*,#358,.F.);
#314=ORIENTED_EDGE('',*,*,#354,.F.);
#315=ORIENTED_EDGE('',*,*,#357,.F.);
#316=ORIENTED_EDGE('',*,*,#355,.F.);
#317=EDGE_CURVE('',#359,#360,#361,.T.);
#318=EDGE_CURVE('',#359,#362,#363,.T.);
#319=EDGE_CURVE('',#362,#364,#365,.T.);
#320=EDGE_CURVE('',#360,#364,#366,.F.);
#321=EDGE_CURVE('',#367,#367,#368,.F.);
#322=EDGE_CURVE('',#369,#370,#371,.T.);
#323=EDGE_CURVE('',#370,#372,#373,.T.);
#324=EDGE_CURVE('',#374,#372,#375,.F.);
#325=EDGE_CURVE('',#369,#374,#376,.T.);
#326=EDGE_CURVE('',#377,#377,#378,.T.);
#327=EDGE_CURVE('',#379,#370,#380,.F.);
#328=EDGE_CURVE('',#381,#379,#382,.T.);
#329=EDGE_CURVE('',#383,#381,#384,.F.);
#330=EDGE_CURVE('',#383,#385,#386,.T.);
#331=EDGE_CURVE('',#387,#385,#388,.T.);
#332=EDGE_CURVE('',#389,#387,#390,.T.);
#333=EDGE_CURVE('',#389,#359,#391,.T.);
#334=EDGE_CURVE('',#372,#360,#392,.T.);
#335=EDGE_CURVE('',#393,#389,#394,.T.);
#336=EDGE_CURVE('',#362,#393,#395,.T.);
#337=EDGE_CURVE('',#396,#396,#397,.T.);
#338=EDGE_CURVE('',#398,#398,#399,.T.);
#339=EDGE_CURVE('',#400,#400,#401,.T.);
#340=EDGE_CURVE('',#369,#402,#403,.F.);
#341=EDGE_CURVE('',#364,#374,#404,.T.);
#342=EDGE_CURVE('',#393,#405,#406,.T.);
#343=EDGE_CURVE('',#407,#405,#408,.T.);
#344=EDGE_CURVE('',#409,#407,#410,.T.);
#345=EDGE_CURVE('',#411,#409,#412,.F.);
#346=EDGE_CURVE('',#402,#411,#413,.T.);
#347=EDGE_CURVE('',#402,#379,#414,.T.);
#348=EDGE_CURVE('',#381,#411,#415,.T.);
#349=EDGE_CURVE('',#416,#416,#417,.F.);
#350=EDGE_CURVE('',#418,#418,#419,.F.);
#351=EDGE_CURVE('',#420,#420,#421,.F.);
#352=EDGE_CURVE('',#383,#409,#422,.T.);
#353=EDGE_CURVE('',#385,#407,#423,.F.);
#354=EDGE_CURVE('',#424,#424,#425,.T.);
#355=EDGE_CURVE('',#426,#426,#427,.T.);
#356=EDGE_CURVE('',#405,#387,#428,.F.);
#357=EDGE_CURVE('',#429,#429,#430,.F.);
#358=EDGE_CURVE('',#431,#431,#432,.F.);
#359=VERTEX_POINT('',#433);
#360=VERTEX_POINT('',#434);
#361=LINE('',#435,#436);
#362=VERTEX_POINT('',#438);
#363=LINE('',#439,#440);
#364=VERTEX_POINT('',#442);
#365=LINE('',#443,#444);
#366=CIRCLE('',#446,6.25);
#367=VERTEX_POINT('',#450);
#368=CIRCLE('',#451,1.);
#369=VERTEX_POINT('',#455);
#370=VERTEX_POINT('',#456);
#371=LINE('',#457,#458);
#372=VERTEX_POINT('',#460);
#373=LINE('',#461,#462);
#374=VERTEX_POINT('',#464);
#375=CIRCLE('',#465,6.25000000000001);
#376=LINE('',#469,#470);
#377=VERTEX_POINT('',#472);
#378=CIRCLE('',#473,1.);
#379=VERTEX_POINT('',#477);
#380=LINE('',#478,#479);
#381=VERTEX_POINT('',#481);
#382=LINE('',#482,#483);
#383=VERTEX_POINT('',#485);
#384=LINE('',#486,#487);
#385=VERTEX_POINT('',#489);
#386=LINE('',#490,#491);
#387=VERTEX_POINT('',#493);
#388=LINE('',#494,#495);
#389=VERTEX_POINT('',#497);
#390=LINE('',#498,#499);
#391=LINE('',#501,#502);
#392=LINE('',#504,#505);
#393=VERTEX_POINT('',#507);
#394=LINE('',#508,#509);
#395=LINE('',#511,#512);
#396=VERTEX_POINT('',#514);
#397=CIRCLE('',#515,0.75);
#398=VERTEX_POINT('',#519);
#399=CIRCLE('',#520,4.);
#400=VERTEX_POINT('',#524);
#401=CIRCLE('',#525,0.75);
#402=VERTEX_POINT('',#529);
#403=LINE('',#530,#531);
#404=LINE('',#533,#534);
#405=VERTEX_POINT('',#536);
#406=LINE('',#537,#538);
#407=VERTEX_POINT('',#540);
#408=LINE('',#541,#542);
#409=VERTEX_POINT('',#544);
#410=LINE('',#545,#546);
#411=VERTEX_POINT('',#548);
#412=LINE('',#549,#550);
#413=LINE('',#552,#553);
#414=LINE('',#555,#556);
#415=LINE('',#558,#559);
#416=VERTEX_POINT('',#561);
#417=CIRCLE('',#562,0.75);
#418=VERTEX_POINT('',#566);
#419=CIRCLE('',#567,4.);
#420=VERTEX_POINT('',#571);
#421=CIRCLE('',#572,0.75);
#422=LINE('',#576,#577);
#423=CIRCLE('',#579,6.25);
#424=VERTEX_POINT('',#583);
#425=CIRCLE('',#584,0.75);
#426=VERTEX_POINT('',#588);
#427=CIRCLE('',#589,3.7);
#428=CIRCLE('',#593,6.25);
#429=VERTEX_POINT('',#597);
#430=CIRCLE('',#598,3.7);
#431=VERTEX_POINT('',#602);
#432=CIRCLE('',#603,0.75);
#433=CARTESIAN_POINT('',(-17.6482735714271,-4.85000000000002,-17.5));
#434=CARTESIAN_POINT('',(-17.6482735714271,-4.85000000000002,-0.700000000000003));
#435=CARTESIAN_POINT('',(-17.6482735714271,-4.85000000000002,-17.5));
#436=VECTOR('',#437,1.);
#437=DIRECTION('',(2.11471052309554E-16,-5.28677630773884E-17,1.));
#438=CARTESIAN_POINT('',(-17.6482735714271,-17.35,-17.5));
#439=CARTESIAN_POINT('',(-17.6482735714271,-4.85000000000002,-17.5));
#440=VECTOR('',#441,1.);
#441=DIRECTION('',(0.,-1.,0.));
#442=CARTESIAN_POINT('',(-17.6482735714271,-17.35,-0.700000000000003));
#443=CARTESIAN_POINT('',(-17.6482735714271,-17.35,-17.5));
#444=VECTOR('',#445,1.);
#445=DIRECTION('',(2.11471052309554E-16,0.,1.));
#446=AXIS2_PLACEMENT_3D('',#447,#448,#449);
#447=CARTESIAN_POINT('',(-17.6482735714271,-11.1,-0.700000000000003));
#448=DIRECTION('',(-1.,-6.93889390390723E-18,1.48029739263891E-16));
#449=DIRECTION('',(6.93889390390723E-18,-1.,-3.5527136788005E-17));
#450=CARTESIAN_POINT('',(-17.6482735714271,-12.1,-0.700000000000003));
#451=AXIS2_PLACEMENT_3D('',#452,#453,#454);
#452=CARTESIAN_POINT('',(-17.6482735714271,-11.1,-0.700000000000003));
#453=DIRECTION('',(-1.,-6.93889390390723E-18,1.48029739263891E-16));
#454=DIRECTION('',(6.93889390390723E-18,-1.,-3.66306746253933E-17));
#455=CARTESIAN_POINT('',(-15.1482735714271,-17.35,-13.45));
#456=CARTESIAN_POINT('',(-15.1482735714271,-4.85000000000002,-13.45));
#457=CARTESIAN_POINT('',(-15.1482735714271,-17.35,-13.45));
#458=VECTOR('',#459,1.);
#459=DIRECTION('',(0.,1.,2.8421709430404E-16));
#460=CARTESIAN_POINT('',(-15.1482735714271,-4.85000000000002,-0.700000000000003));
#461=CARTESIAN_POINT('',(-15.1482735714271,-4.85000000000002,-13.45));
#462=VECTOR('',#463,1.);
#463=DIRECTION('',(1.39322105051E-16,0.,1.));
#464=CARTESIAN_POINT('',(-15.1482735714271,-17.35,-0.700000000000003));
#465=AXIS2_PLACEMENT_3D('',#466,#467,#468);
#466=CARTESIAN_POINT('',(-15.1482735714271,-11.1,-0.700000000000005));
#467=DIRECTION('',(1.,6.93889390390723E-18,-1.48029739263891E-16));
#468=DIRECTION('',(-6.93889390390723E-18,1.,3.5527136788005E-17));
#469=CARTESIAN_POINT('',(-15.1482735714271,-17.35,-13.45));
#470=VECTOR('',#471,1.);
#471=DIRECTION('',(1.39322105051E-16,0.,1.));
#472=CARTESIAN_POINT('',(-15.1482735714271,-12.1,-0.700000000000003));
#473=AXIS2_PLACEMENT_3D('',#474,#475,#476);
#474=CARTESIAN_POINT('',(-15.1482735714271,-11.1,-0.700000000000005));
#475=DIRECTION('',(-1.,-6.93889390390723E-18,1.48029739263891E-16));
#476=DIRECTION('',(6.93889390390723E-18,-1.,-3.66306746253933E-17));
#477=CARTESIAN_POINT('',(-14.1482735714271,-4.85000000000002,-14.45));
#478=CARTESIAN_POINT('',(-15.1482735714271,-4.85000000000002,-13.45));
#479=VECTOR('',#480,1.);
#480=DIRECTION('',(0.707106781186547,0.,-0.707106781186547));
#481=CARTESIAN_POINT('',(13.8517264285729,-4.85000000000002,-14.45));
#482=CARTESIAN_POINT('',(13.8517264285729,-4.85000000000002,-14.45));
#483=VECTOR('',#484,1.);
#484=DIRECTION('',(-1.,-3.1720657846433E-17,1.26882631385732E-16));
#485=CARTESIAN_POINT('',(14.8517264285729,-4.85000000000002,-13.45));
#486=CARTESIAN_POINT('',(13.8517264285729,-4.85000000000002,-14.45));
#487=VECTOR('',#488,1.);
#488=DIRECTION('',(0.707106781186548,0.,0.707106781186547));
#489=CARTESIAN_POINT('',(14.8517264285729,-4.85000000000002,-0.70000000000001));
#490=CARTESIAN_POINT('',(14.8517264285729,-4.85000000000002,-13.45));
#491=VECTOR('',#492,1.);
#492=DIRECTION('',(1.39322105051E-16,0.,1.));
#493=CARTESIAN_POINT('',(17.3517264285729,-4.85000000000002,-0.70000000000001));
#494=CARTESIAN_POINT('',(17.3517264285729,-4.85000000000002,-0.700000000000008));
#495=VECTOR('',#496,1.);
#496=DIRECTION('',(-1.,0.,-6.21724893790088E-16));
#497=CARTESIAN_POINT('',(17.3517264285729,-4.85000000000002,-17.5));
#498=CARTESIAN_POINT('',(17.3517264285729,-4.85000000000002,-17.5));
#499=VECTOR('',#500,1.);
#500=DIRECTION('',(2.11471052309554E-16,0.,1.));
#501=CARTESIAN_POINT('',(17.3517264285729,-4.85000000000002,-17.5));
#502=VECTOR('',#503,1.);
#503=DIRECTION('',(-1.,-2.53765262771464E-17,1.01506105108586E-16));
#504=CARTESIAN_POINT('',(-15.1482735714271,-4.85000000000002,-0.700000000000005));
#505=VECTOR('',#506,1.);
#506=DIRECTION('',(-1.,0.,-6.21724893790088E-16));
#507=CARTESIAN_POINT('',(17.3517264285729,-17.35,-17.5));
#508=CARTESIAN_POINT('',(17.3517264285729,-17.35,-17.5));
#509=VECTOR('',#510,1.);
#510=DIRECTION('',(0.,1.,0.));
#511=CARTESIAN_POINT('',(-17.6482735714271,-17.35,-17.5));
#512=VECTOR('',#513,1.);
#513=DIRECTION('',(1.,1.01506105108586E-16,-1.01506105108586E-16));
#514=CARTESIAN_POINT('',(-7.39827357142711,-11.1,-17.5));
#515=AXIS2_PLACEMENT_3D('',#516,#517,#518);
#516=CARTESIAN_POINT('',(-8.14827357142711,-11.1,-17.5));
#517=DIRECTION('',(1.48029739263891E-16,2.46016653319744E-17,1.));
#518=DIRECTION('',(1.,-1.15525786010828E-16,-1.48029739263891E-16));
#519=CARTESIAN_POINT('',(3.85172642857289,-11.1,-17.5));
#520=AXIS2_PLACEMENT_3D('',#521,#522,#523);
#521=CARTESIAN_POINT('',(-0.148273571427108,-11.1,-17.5));
#522=DIRECTION('',(1.48029739263891E-16,2.46016653319744E-17,1.));
#523=DIRECTION('',(1.,-1.15525786010828E-16,-1.48029739263891E-16));
#524=CARTESIAN_POINT('',(8.60172642857289,-11.1,-17.5));
#525=AXIS2_PLACEMENT_3D('',#526,#527,#528);
#526=CARTESIAN_POINT('',(7.85172642857289,-11.1,-17.5));
#527=DIRECTION('',(1.48029739263891E-16,2.46016653319744E-17,1.));
#528=DIRECTION('',(1.,-1.15525786010828E-16,-1.48029739263891E-16));
#529=CARTESIAN_POINT('',(-14.1482735714271,-17.35,-14.45));
#530=CARTESIAN_POINT('',(-14.1482735714271,-17.35,-14.45));
#531=VECTOR('',#532,1.);
#532=DIRECTION('',(-0.707106781186547,0.,0.707106781186548));
#533=CARTESIAN_POINT('',(-17.6482735714271,-17.35,-0.700000000000003));
#534=VECTOR('',#535,1.);
#535=DIRECTION('',(1.,0.,-7.99360577730113E-16));
#536=CARTESIAN_POINT('',(17.3517264285729,-17.35,-0.70000000000001));
#537=CARTESIAN_POINT('',(17.3517264285729,-17.35,-17.5));
#538=VECTOR('',#539,1.);
#539=DIRECTION('',(2.11471052309554E-16,0.,1.));
#540=CARTESIAN_POINT('',(14.8517264285729,-17.35,-0.70000000000001));
#541=CARTESIAN_POINT('',(14.8517264285729,-17.35,-0.700000000000007));
#542=VECTOR('',#543,1.);
#543=DIRECTION('',(1.,0.,-7.99360577730113E-16));
#544=CARTESIAN_POINT('',(14.8517264285729,-17.35,-13.45));
#545=CARTESIAN_POINT('',(14.8517264285729,-17.35,-13.45));
#546=VECTOR('',#547,1.);
#547=DIRECTION('',(1.39322105051E-16,0.,1.));
#548=CARTESIAN_POINT('',(13.8517264285729,-17.35,-14.45));
#549=CARTESIAN_POINT('',(14.8517264285729,-17.35,-13.45));
#550=VECTOR('',#551,1.);
#551=DIRECTION('',(-0.707106781186547,0.,-0.707106781186547));
#552=CARTESIAN_POINT('',(-14.1482735714271,-17.35,-14.45));
#553=VECTOR('',#554,1.);
#554=DIRECTION('',(1.,1.26882631385732E-16,-2.53765262771464E-16));
#555=CARTESIAN_POINT('',(-14.1482735714271,-17.35,-14.45));
#556=VECTOR('',#557,1.);
#557=DIRECTION('',(0.,1.,1.4210854715202E-16));
#558=CARTESIAN_POINT('',(13.8517264285729,-4.85000000000002,-14.45));
#559=VECTOR('',#560,1.);
#560=DIRECTION('',(0.,-1.,1.4210854715202E-16));
#561=CARTESIAN_POINT('',(-7.39827357142711,-11.1,-14.45));
#562=AXIS2_PLACEMENT_3D('',#563,#564,#565);
#563=CARTESIAN_POINT('',(-8.14827357142711,-11.1,-14.45));
#564=DIRECTION('',(1.48029739263891E-16,2.46016653319744E-17,1.));
#565=DIRECTION('',(1.,-1.15525786010828E-16,-1.48029739263891E-16));
#566=CARTESIAN_POINT('',(3.85172642857289,-11.1,-14.45));
#567=AXIS2_PLACEMENT_3D('',#568,#569,#570);
#568=CARTESIAN_POINT('',(-0.148273571427108,-11.1,-14.45));
#569=DIRECTION('',(1.48029739263891E-16,2.46016653319744E-17,1.));
#570=DIRECTION('',(1.,-1.15525786010828E-16,-1.48029739263891E-16));
#571=CARTESIAN_POINT('',(8.60172642857289,-11.1,-14.45));
#572=AXIS2_PLACEMENT_3D('',#573,#574,#575);
#573=CARTESIAN_POINT('',(7.85172642857289,-11.1,-14.45));
#574=DIRECTION('',(1.48029739263891E-16,2.46016653319744E-17,1.));
#575=DIRECTION('',(1.,-1.15525786010828E-16,-1.48029739263891E-16));
#576=CARTESIAN_POINT('',(14.8517264285729,-4.85000000000002,-13.45));
#577=VECTOR('',#578,1.);
#578=DIRECTION('',(1.4210854715202E-16,-1.,1.4210854715202E-16));
#579=AXIS2_PLACEMENT_3D('',#580,#581,#582);
#580=CARTESIAN_POINT('',(14.8517264285729,-11.1,-0.70000000000001));
#581=DIRECTION('',(-1.,-6.93889390390723E-18,1.48029739263891E-16));
#582=DIRECTION('',(6.93889390390723E-18,-1.,-3.5527136788005E-17));
#583=CARTESIAN_POINT('',(14.8517264285729,-11.1,-13.));
#584=AXIS2_PLACEMENT_3D('',#585,#586,#587);
#585=CARTESIAN_POINT('',(14.8517264285729,-11.1,-12.25));
#586=DIRECTION('',(1.,6.93889390390723E-18,-1.48029739263891E-16));
#587=DIRECTION('',(-1.48029739263891E-16,-2.46016653319744E-17,-1.));
#588=CARTESIAN_POINT('',(14.8517264285729,-7.40000000000002,-0.750000000000011));
#589=AXIS2_PLACEMENT_3D('',#590,#591,#592);
#590=CARTESIAN_POINT('',(14.8517264285729,-11.1,-0.750000000000011));
#591=DIRECTION('',(1.,6.93889390390723E-18,-1.48029739263891E-16));
#592=DIRECTION('',(-6.93889390390723E-18,1.,3.66306746253933E-17));
#593=AXIS2_PLACEMENT_3D('',#594,#595,#596);
#594=CARTESIAN_POINT('',(17.3517264285729,-11.1,-0.70000000000001));
#595=DIRECTION('',(1.,6.93889390390723E-18,-1.48029739263891E-16));
#596=DIRECTION('',(-6.93889390390723E-18,1.,3.5527136788005E-17));
#597=CARTESIAN_POINT('',(17.3517264285729,-7.40000000000002,-0.750000000000011));
#598=AXIS2_PLACEMENT_3D('',#599,#600,#601);
#599=CARTESIAN_POINT('',(17.3517264285729,-11.1,-0.750000000000011));
#600=DIRECTION('',(1.,6.93889390390723E-18,-1.48029739263891E-16));
#601=DIRECTION('',(-6.93889390390723E-18,1.,3.66306746253933E-17));
#602=CARTESIAN_POINT('',(17.3517264285729,-11.1,-13.));
#603=AXIS2_PLACEMENT_3D('',#604,#605,#606);
#604=CARTESIAN_POINT('',(17.3517264285729,-11.1,-12.25));
#605=DIRECTION('',(1.,6.93889390390723E-18,-1.48029739263891E-16));
#606=DIRECTION('',(-1.48029739263891E-16,-2.46016653319743E-17,-1.));
ENDSEC;
END-ISO-10303-21;
