ISO-10303-21;
HEADER;
FILE_DESCRIPTION(('STEP AP203'),
    '1');
FILE_NAME('cubesatV2',
    '2026-02-16T19:05:13',
    ('dima'),
    (''),
    'C3D Converter',
    'C3D Toolkit',
    '');
/**/
FILE_SCHEMA(('CONFIG_CONTROL_DESIGN'));
ENDSEC;

DATA;
#1=PRODUCT_DEFINITION('','UNSPECIFIED',#28,#31);
#2=SHAPE_DEFINITION_REPRESENTATION(#26,#3);
#3=SHAPE_REPRESENTATION('NONE',(#4),#8);
#4=AXIS2_PLACEMENT_3D('',#5,#6,#7);
#5=CARTESIAN_POINT('',(0.,0.,0.));
#6=DIRECTION('',(0.,0.,1.));
#7=DIRECTION('',(1.,0.,0.));
#8=(GEOMETRIC_REPRESENTATION_CONTEXT(3)GLOBAL_UNCERTAINTY_ASSIGNED_CONTEXT((#10))
GLOBAL_UNIT_ASSIGNED_CONTEXT((#9,#11,#12))REPRESENTATION_CONTEXT('NONE','NONE'));
#9=(LENGTH_UNIT()NAMED_UNIT(*)SI_UNIT(.MILLI.,.METRE.));
#10=UNCERTAINTY_MEASURE_WITH_UNIT(LENGTH_MEASURE(1.E-5),#9,'NONE','NONE');
#11=(NAMED_UNIT(*)PLANE_ANGLE_UNIT()SI_UNIT($,.RADIAN.));
#12=(NAMED_UNIT(*)SI_UNIT($,.STERADIAN.)SOLID_ANGLE_UNIT());
#13=MANIFOLD_SOLID_BREP('',#14);
#14=CLOSED_SHELL('',(#53,#62,#71,#80,#89,#98,#107,#116,#125,#134,#143,#152,#161,
#170,#179,#188,#197,#206,#215,#224,#233,#242,#251,#260,#269,#278));
#15=COLOUR_RGB('',0.564705882352941,0.564705882352941,0.564705882352941);
#16=FILL_AREA_STYLE_COLOUR('',#15);
#17=FILL_AREA_STYLE($,(#16));
#18=SURFACE_STYLE_FILL_AREA(#17);
#19=SURFACE_SIDE_STYLE('',(#18));
#20=SURFACE_STYLE_USAGE(.BOTH.,#19);
#21=PRESENTATION_STYLE_ASSIGNMENT((#20));
#22=MECHANICAL_DESIGN_GEOMETRIC_PRESENTATION_REPRESENTATION('NONE',(#23,#61,#70,
#79,#88,#97,#106,#115,#124,#133,#142,#151,#160,#169,#178,#187,#196,#205,#214,#223,
#232,#241,#250,#259,#268,#277,#286),#8);
#23=STYLED_ITEM('',(#21),#13);
#24=ADVANCED_BREP_SHAPE_REPRESENTATION('NONE',(#13),#8);
#25=SHAPE_REPRESENTATION_RELATIONSHIP('','',#3,#24);
#26=PRODUCT_DEFINITION_SHAPE('NONE','NONE',#1);
#27=MECHANICAL_CONTEXT('NONE',#32,'mechanical');
#28=PRODUCT_DEFINITION_FORMATION_WITH_SPECIFIED_SOURCE('ANY','UNSPECIFIED',#29,.NOT_KNOWN.);
#29=PRODUCT('','\X2\04210431043E0440043A0430\X0\','NONE',(#27));
#30=PRODUCT_RELATED_PRODUCT_CATEGORY('assembly','',(#29));
#31=DESIGN_CONTEXT('detailed design',#32,'design');
#32=APPLICATION_CONTEXT('configuration controlled 3d designs of mechanical parts and assemblies');
#33=APPLICATION_PROTOCOL_DEFINITION('international standard','config_control_design',
1994,#32);
#34=CC_DESIGN_DATE_AND_TIME_ASSIGNMENT(#35,#39,(#1));
#35=DATE_AND_TIME(#36,#37);
#36=CALENDAR_DATE(0,1,1);
#37=LOCAL_TIME(0,0,0.,#38);
#38=COORDINATED_UNIVERSAL_TIME_OFFSET(0,0,.AHEAD.);
#39=DATE_TIME_ROLE('creation_date');
#40=CC_DESIGN_APPROVAL(#41,(#1));
#41=APPROVAL(#42,'UNSPECIFIED');
#42=APPROVAL_STATUS('not_yet_approved');
#43=APPROVAL_DATE_TIME(#44,#41);
#44=DATE_AND_TIME(#45,#46);
#45=CALENDAR_DATE(0,1,1);
#46=LOCAL_TIME(0,0,0.,#47);
#47=COORDINATED_UNIVERSAL_TIME_OFFSET(0,0,.AHEAD.);
#48=PERSON('UNSPECIFIED','dima','UNSPECIFIED',('UNSPECIFIED'),('UNSPECIFIED'),('UNSPECIFIED'));
#49=ORGANIZATION('UNSPECIFIED','UNSPECIFIED','UNSPECIFIED');
#50=PERSON_AND_ORGANIZATION(#48,#49);
#51=PERSON_AND_ORGANIZATION_ROLE('creator');
#52=CC_DESIGN_PERSON_AND_ORGANIZATION_ASSIGNMENT(#50,#51,(#28,#1));
#53=ADVANCED_FACE('',(#287,#289,#291),#293,.T.);
#54=COLOUR_RGB('',0.564705882352941,0.564705882352941,0.564705882352941);
#55=FILL_AREA_STYLE_COLOUR('',#54);
#56=FILL_AREA_STYLE($,(#55));
#57=SURFACE_STYLE_FILL_AREA(#56);
#58=SURFACE_SIDE_STYLE('',(#57));
#59=SURFACE_STYLE_USAGE(.BOTH.,#58);
#60=PRESENTATION_STYLE_ASSIGNMENT((#59));
#61=STYLED_ITEM('',(#60),#53);
#62=ADVANCED_FACE('',(#298,#300,#302),#304,.T.);
#63=COLOUR_RGB('',0.564705882352941,0.564705882352941,0.564705882352941);
#64=FILL_AREA_STYLE_COLOUR('',#63);
#65=FILL_AREA_STYLE($,(#64));
#66=SURFACE_STYLE_FILL_AREA(#65);
#67=SURFACE_SIDE_STYLE('',(#66));
#68=SURFACE_STYLE_USAGE(.BOTH.,#67);
#69=PRESENTATION_STYLE_ASSIGNMENT((#68));
#70=STYLED_ITEM('',(#69),#62);
#71=ADVANCED_FACE('',(#309,#311),#313,.F.);
#72=COLOUR_RGB('',0.564705882352941,0.564705882352941,0.564705882352941);
#73=FILL_AREA_STYLE_COLOUR('',#72);
#74=FILL_AREA_STYLE($,(#73));
#75=SURFACE_STYLE_FILL_AREA(#74);
#76=SURFACE_SIDE_STYLE('',(#75));
#77=SURFACE_STYLE_USAGE(.BOTH.,#76);
#78=PRESENTATION_STYLE_ASSIGNMENT((#77));
#79=STYLED_ITEM('',(#78),#71);
#80=ADVANCED_FACE('',(#318),#320,.T.);
#81=COLOUR_RGB('',0.564705882352941,0.564705882352941,0.564705882352941);
#82=FILL_AREA_STYLE_COLOUR('',#81);
#83=FILL_AREA_STYLE($,(#82));
#84=SURFACE_STYLE_FILL_AREA(#83);
#85=SURFACE_SIDE_STYLE('',(#84));
#86=SURFACE_STYLE_USAGE(.BOTH.,#85);
#87=PRESENTATION_STYLE_ASSIGNMENT((#86));
#88=STYLED_ITEM('',(#87),#80);
#89=ADVANCED_FACE('',(#325),#327,.T.);
#90=COLOUR_RGB('',0.564705882352941,0.564705882352941,0.564705882352941);
#91=FILL_AREA_STYLE_COLOUR('',#90);
#92=FILL_AREA_STYLE($,(#91));
#93=SURFACE_STYLE_FILL_AREA(#92);
#94=SURFACE_SIDE_STYLE('',(#93));
#95=SURFACE_STYLE_USAGE(.BOTH.,#94);
#96=PRESENTATION_STYLE_ASSIGNMENT((#95));
#97=STYLED_ITEM('',(#96),#89);
#98=ADVANCED_FACE('',(#332),#334,.T.);
#99=COLOUR_RGB('',0.564705882352941,0.564705882352941,0.564705882352941);
#100=FILL_AREA_STYLE_COLOUR('',#99);
#101=FILL_AREA_STYLE($,(#100));
#102=SURFACE_STYLE_FILL_AREA(#101);
#103=SURFACE_SIDE_STYLE('',(#102));
#104=SURFACE_STYLE_USAGE(.BOTH.,#103);
#105=PRESENTATION_STYLE_ASSIGNMENT((#104));
#106=STYLED_ITEM('',(#105),#98);
#107=ADVANCED_FACE('',(#339),#341,.T.);
#108=COLOUR_RGB('',0.564705882352941,0.564705882352941,0.564705882352941);
#109=FILL_AREA_STYLE_COLOUR('',#108);
#110=FILL_AREA_STYLE($,(#109));
#111=SURFACE_STYLE_FILL_AREA(#110);
#112=SURFACE_SIDE_STYLE('',(#111));
#113=SURFACE_STYLE_USAGE(.BOTH.,#112);
#114=PRESENTATION_STYLE_ASSIGNMENT((#113));
#115=STYLED_ITEM('',(#114),#107);
#116=ADVANCED_FACE('',(#346,#348),#350,.F.);
#117=COLOUR_RGB('',0.564705882352941,0.564705882352941,0.564705882352941);
#118=FILL_AREA_STYLE_COLOUR('',#117);
#119=FILL_AREA_STYLE($,(#118));
#120=SURFACE_STYLE_FILL_AREA(#119);
#121=SURFACE_SIDE_STYLE('',(#120));
#122=SURFACE_STYLE_USAGE(.BOTH.,#121);
#123=PRESENTATION_STYLE_ASSIGNMENT((#122));
#124=STYLED_ITEM('',(#123),#116);
#125=ADVANCED_FACE('',(#355),#357,.T.);
#126=COLOUR_RGB('',0.564705882352941,0.564705882352941,0.564705882352941);
#127=FILL_AREA_STYLE_COLOUR('',#126);
#128=FILL_AREA_STYLE($,(#127));
#129=SURFACE_STYLE_FILL_AREA(#128);
#130=SURFACE_SIDE_STYLE('',(#129));
#131=SURFACE_STYLE_USAGE(.BOTH.,#130);
#132=PRESENTATION_STYLE_ASSIGNMENT((#131));
#133=STYLED_ITEM('',(#132),#125);
#134=ADVANCED_FACE('',(#362),#364,.T.);
#135=COLOUR_RGB('',0.564705882352941,0.564705882352941,0.564705882352941);
#136=FILL_AREA_STYLE_COLOUR('',#135);
#137=FILL_AREA_STYLE($,(#136));
#138=SURFACE_STYLE_FILL_AREA(#137);
#139=SURFACE_SIDE_STYLE('',(#138));
#140=SURFACE_STYLE_USAGE(.BOTH.,#139);
#141=PRESENTATION_STYLE_ASSIGNMENT((#140));
#142=STYLED_ITEM('',(#141),#134);
#143=ADVANCED_FACE('',(#369,#371),#373,.F.);
#144=COLOUR_RGB('',0.564705882352941,0.564705882352941,0.564705882352941);
#145=FILL_AREA_STYLE_COLOUR('',#144);
#146=FILL_AREA_STYLE($,(#145));
#147=SURFACE_STYLE_FILL_AREA(#146);
#148=SURFACE_SIDE_STYLE('',(#147));
#149=SURFACE_STYLE_USAGE(.BOTH.,#148);
#150=PRESENTATION_STYLE_ASSIGNMENT((#149));
#151=STYLED_ITEM('',(#150),#143);
#152=ADVANCED_FACE('',(#378),#380,.T.);
#153=COLOUR_RGB('',0.564705882352941,0.564705882352941,0.564705882352941);
#154=FILL_AREA_STYLE_COLOUR('',#153);
#155=FILL_AREA_STYLE($,(#154));
#156=SURFACE_STYLE_FILL_AREA(#155);
#157=SURFACE_SIDE_STYLE('',(#156));
#158=SURFACE_STYLE_USAGE(.BOTH.,#157);
#159=PRESENTATION_STYLE_ASSIGNMENT((#158));
#160=STYLED_ITEM('',(#159),#152);
#161=ADVANCED_FACE('',(#385,#387),#389,.T.);
#162=COLOUR_RGB('',0.564705882352941,0.564705882352941,0.564705882352941);
#163=FILL_AREA_STYLE_COLOUR('',#162);
#164=FILL_AREA_STYLE($,(#163));
#165=SURFACE_STYLE_FILL_AREA(#164);
#166=SURFACE_SIDE_STYLE('',(#165));
#167=SURFACE_STYLE_USAGE(.BOTH.,#166);
#168=PRESENTATION_STYLE_ASSIGNMENT((#167));
#169=STYLED_ITEM('',(#168),#161);
#170=ADVANCED_FACE('',(#394,#396),#398,.T.);
#171=COLOUR_RGB('',0.564705882352941,0.564705882352941,0.564705882352941);
#172=FILL_AREA_STYLE_COLOUR('',#171);
#173=FILL_AREA_STYLE($,(#172));
#174=SURFACE_STYLE_FILL_AREA(#173);
#175=SURFACE_SIDE_STYLE('',(#174));
#176=SURFACE_STYLE_USAGE(.BOTH.,#175);
#177=PRESENTATION_STYLE_ASSIGNMENT((#176));
#178=STYLED_ITEM('',(#177),#170);
#179=ADVANCED_FACE('',(#403),#405,.T.);
#180=COLOUR_RGB('',0.564705882352941,0.564705882352941,0.564705882352941);
#181=FILL_AREA_STYLE_COLOUR('',#180);
#182=FILL_AREA_STYLE($,(#181));
#183=SURFACE_STYLE_FILL_AREA(#182);
#184=SURFACE_SIDE_STYLE('',(#183));
#185=SURFACE_STYLE_USAGE(.BOTH.,#184);
#186=PRESENTATION_STYLE_ASSIGNMENT((#185));
#187=STYLED_ITEM('',(#186),#179);
#188=ADVANCED_FACE('',(#410,#412),#414,.T.);
#189=COLOUR_RGB('',0.564705882352941,0.564705882352941,0.564705882352941);
#190=FILL_AREA_STYLE_COLOUR('',#189);
#191=FILL_AREA_STYLE($,(#190));
#192=SURFACE_STYLE_FILL_AREA(#191);
#193=SURFACE_SIDE_STYLE('',(#192));
#194=SURFACE_STYLE_USAGE(.BOTH.,#193);
#195=PRESENTATION_STYLE_ASSIGNMENT((#194));
#196=STYLED_ITEM('',(#195),#188);
#197=ADVANCED_FACE('',(#419),#421,.T.);
#198=COLOUR_RGB('',0.564705882352941,0.564705882352941,0.564705882352941);
#199=FILL_AREA_STYLE_COLOUR('',#198);
#200=FILL_AREA_STYLE($,(#199));
#201=SURFACE_STYLE_FILL_AREA(#200);
#202=SURFACE_SIDE_STYLE('',(#201));
#203=SURFACE_STYLE_USAGE(.BOTH.,#202);
#204=PRESENTATION_STYLE_ASSIGNMENT((#203));
#205=STYLED_ITEM('',(#204),#197);
#206=ADVANCED_FACE('',(#426),#428,.F.);
#207=COLOUR_RGB('',0.564705882352941,0.564705882352941,0.564705882352941);
#208=FILL_AREA_STYLE_COLOUR('',#207);
#209=FILL_AREA_STYLE($,(#208));
#210=SURFACE_STYLE_FILL_AREA(#209);
#211=SURFACE_SIDE_STYLE('',(#210));
#212=SURFACE_STYLE_USAGE(.BOTH.,#211);
#213=PRESENTATION_STYLE_ASSIGNMENT((#212));
#214=STYLED_ITEM('',(#213),#206);
#215=ADVANCED_FACE('',(#433),#435,.T.);
#216=COLOUR_RGB('',0.564705882352941,0.564705882352941,0.564705882352941);
#217=FILL_AREA_STYLE_COLOUR('',#216);
#218=FILL_AREA_STYLE($,(#217));
#219=SURFACE_STYLE_FILL_AREA(#218);
#220=SURFACE_SIDE_STYLE('',(#219));
#221=SURFACE_STYLE_USAGE(.BOTH.,#220);
#222=PRESENTATION_STYLE_ASSIGNMENT((#221));
#223=STYLED_ITEM('',(#222),#215);
#224=ADVANCED_FACE('',(#440),#442,.T.);
#225=COLOUR_RGB('',0.564705882352941,0.564705882352941,0.564705882352941);
#226=FILL_AREA_STYLE_COLOUR('',#225);
#227=FILL_AREA_STYLE($,(#226));
#228=SURFACE_STYLE_FILL_AREA(#227);
#229=SURFACE_SIDE_STYLE('',(#228));
#230=SURFACE_STYLE_USAGE(.BOTH.,#229);
#231=PRESENTATION_STYLE_ASSIGNMENT((#230));
#232=STYLED_ITEM('',(#231),#224);
#233=ADVANCED_FACE('',(#447),#449,.F.);
#234=COLOUR_RGB('',0.564705882352941,0.564705882352941,0.564705882352941);
#235=FILL_AREA_STYLE_COLOUR('',#234);
#236=FILL_AREA_STYLE($,(#235));
#237=SURFACE_STYLE_FILL_AREA(#236);
#238=SURFACE_SIDE_STYLE('',(#237));
#239=SURFACE_STYLE_USAGE(.BOTH.,#238);
#240=PRESENTATION_STYLE_ASSIGNMENT((#239));
#241=STYLED_ITEM('',(#240),#233);
#242=ADVANCED_FACE('',(#454),#456,.T.);
#243=COLOUR_RGB('',0.564705882352941,0.564705882352941,0.564705882352941);
#244=FILL_AREA_STYLE_COLOUR('',#243);
#245=FILL_AREA_STYLE($,(#244));
#246=SURFACE_STYLE_FILL_AREA(#245);
#247=SURFACE_SIDE_STYLE('',(#246));
#248=SURFACE_STYLE_USAGE(.BOTH.,#247);
#249=PRESENTATION_STYLE_ASSIGNMENT((#248));
#250=STYLED_ITEM('',(#249),#242);
#251=ADVANCED_FACE('',(#461,#463),#465,.F.);
#252=COLOUR_RGB('',0.564705882352941,0.564705882352941,0.564705882352941);
#253=FILL_AREA_STYLE_COLOUR('',#252);
#254=FILL_AREA_STYLE($,(#253));
#255=SURFACE_STYLE_FILL_AREA(#254);
#256=SURFACE_SIDE_STYLE('',(#255));
#257=SURFACE_STYLE_USAGE(.BOTH.,#256);
#258=PRESENTATION_STYLE_ASSIGNMENT((#257));
#259=STYLED_ITEM('',(#258),#251);
#260=ADVANCED_FACE('',(#470,#472),#474,.F.);
#261=COLOUR_RGB('',0.564705882352941,0.564705882352941,0.564705882352941);
#262=FILL_AREA_STYLE_COLOUR('',#261);
#263=FILL_AREA_STYLE($,(#262));
#264=SURFACE_STYLE_FILL_AREA(#263);
#265=SURFACE_SIDE_STYLE('',(#264));
#266=SURFACE_STYLE_USAGE(.BOTH.,#265);
#267=PRESENTATION_STYLE_ASSIGNMENT((#266));
#268=STYLED_ITEM('',(#267),#260);
#269=ADVANCED_FACE('',(#479,#481),#483,.F.);
#270=COLOUR_RGB('',0.564705882352941,0.564705882352941,0.564705882352941);
#271=FILL_AREA_STYLE_COLOUR('',#270);
#272=FILL_AREA_STYLE($,(#271));
#273=SURFACE_STYLE_FILL_AREA(#272);
#274=SURFACE_SIDE_STYLE('',(#273));
#275=SURFACE_STYLE_USAGE(.BOTH.,#274);
#276=PRESENTATION_STYLE_ASSIGNMENT((#275));
#277=STYLED_ITEM('',(#276),#269);
#278=ADVANCED_FACE('',(#488,#490),#492,.F.);
#279=COLOUR_RGB('',0.564705882352941,0.564705882352941,0.564705882352941);
#280=FILL_AREA_STYLE_COLOUR('',#279);
#281=FILL_AREA_STYLE($,(#280));
#282=SURFACE_STYLE_FILL_AREA(#281);
#283=SURFACE_SIDE_STYLE('',(#282));
#284=SURFACE_STYLE_USAGE(.BOTH.,#283);
#285=PRESENTATION_STYLE_ASSIGNMENT((#284));
#286=STYLED_ITEM('',(#285),#278);
#287=FACE_BOUND('',#288,.T.);
#288=EDGE_LOOP('',(#497,#498,#499,#500));
#289=FACE_BOUND('',#290,.T.);
#290=EDGE_LOOP('',(#501));
#291=FACE_BOUND('',#292,.T.);
#292=EDGE_LOOP('',(#502));
#293=PLANE('',#294);
#294=AXIS2_PLACEMENT_3D('',#295,#296,#297);
#295=CARTESIAN_POINT('',(-12.0482735714271,-17.1313813652235,-6.75));
#296=DIRECTION('',(1.,-8.23795863314363E-18,3.19189119579732E-16));
#297=DIRECTION('',(8.23795863314367E-18,1.,-1.34675119380993E-16));
#298=FACE_BOUND('',#299,.T.);
#299=EDGE_LOOP('',(#503,#504,#505,#506));
#300=FACE_BOUND('',#301,.T.);
#301=EDGE_LOOP('',(#507));
#302=FACE_BOUND('',#303,.T.);
#303=EDGE_LOOP('',(#508));
#304=PLANE('',#305);
#305=AXIS2_PLACEMENT_3D('',#306,#307,#308);
#306=CARTESIAN_POINT('',(-14.7482735714271,-4.5313813652235,-9.35000000000001));
#307=DIRECTION('',(-1.,8.23795863314363E-18,-3.19189119579733E-16));
#308=DIRECTION('',(3.19189119579733E-16,-1.2541710856851E-16,-1.));
#309=FACE_OUTER_BOUND('',#310,.T.);
#310=EDGE_LOOP('',(#509));
#311=FACE_OUTER_BOUND('',#312,.T.);
#312=EDGE_LOOP('',(#510));
#313=CYLINDRICAL_SURFACE('',#314,1.);
#314=AXIS2_PLACEMENT_3D('',#315,#316,#317);
#315=CARTESIAN_POINT('',(-22.0482735714271,-10.8313813652235,11.65));
#316=DIRECTION('',(1.,-8.23795863314363E-18,3.19189119579733E-16));
#317=DIRECTION('',(3.19189119579733E-16,-2.9524286537742E-18,-1.));
#318=FACE_BOUND('',#319,.T.);
#319=EDGE_LOOP('',(#511,#512,#513,#514,#515,#516,#517,#518,#519,#520,#521,#522));
#320=PLANE('',#321);
#321=AXIS2_PLACEMENT_3D('',#322,#323,#324);
#322=CARTESIAN_POINT('',(1.05172642857291,-17.1313813652235,-9.35));
#323=DIRECTION('',(-8.23795863314365E-18,-1.,6.41847686111419E-17));
#324=DIRECTION('',(-3.804214595371E-16,6.41847686111419E-17,1.));
#325=FACE_BOUND('',#326,.T.);
#326=EDGE_LOOP('',(#523,#524,#525,#526,#527,#528));
#327=PLANE('',#328);
#328=AXIS2_PLACEMENT_3D('',#329,#330,#331);
#329=CARTESIAN_POINT('',(-1.54827357142709,-17.1313813652235,-7.15));
#330=DIRECTION('',(-3.19189119579733E-16,1.56703353996572E-16,1.));
#331=DIRECTION('',(8.23795863314368E-18,1.,-1.56703353996572E-16));
#332=FACE_BOUND('',#333,.T.);
#333=EDGE_LOOP('',(#529,#530,#531,#532,#533,#534,#535,#536));
#334=PLANE('',#335);
#335=AXIS2_PLACEMENT_3D('',#336,#337,#338);
#336=CARTESIAN_POINT('',(-9.54827357142709,-4.5313813652235,-6.75000000000001));
#337=DIRECTION('',(8.23795863314367E-18,1.,-1.2541710856851E-16));
#338=DIRECTION('',(3.19189119579733E-16,-1.2541710856851E-16,-1.));
#339=FACE_BOUND('',#340,.T.);
#340=EDGE_LOOP('',(#537,#538,#539,#540,#541,#542));
#341=PLANE('',#342);
#342=AXIS2_PLACEMENT_3D('',#343,#344,#345);
#343=CARTESIAN_POINT('',(-12.0482735714271,-17.1313813652235,16.65));
#344=DIRECTION('',(1.63500900061696E-15,-6.41847686111419E-17,-1.));
#345=DIRECTION('',(8.23795863314365E-18,1.,-6.41847686111419E-17));
#346=FACE_OUTER_BOUND('',#347,.T.);
#347=EDGE_LOOP('',(#543));
#348=FACE_OUTER_BOUND('',#349,.T.);
#349=EDGE_LOOP('',(#544));
#350=CYLINDRICAL_SURFACE('',#351,1.);
#351=AXIS2_PLACEMENT_3D('',#352,#353,#354);
#352=CARTESIAN_POINT('',(-22.0482735714271,-10.8313813652235,-2.15000000000001));
#353=DIRECTION('',(1.,-8.23795863314363E-18,3.19189119579733E-16));
#354=DIRECTION('',(3.19189119579733E-16,-2.9524286537742E-18,-1.));
#355=FACE_BOUND('',#356,.T.);
#356=EDGE_LOOP('',(#545,#546,#547,#548,#549,#550,#551,#552));
#357=PLANE('',#358);
#358=AXIS2_PLACEMENT_3D('',#359,#360,#361);
#359=CARTESIAN_POINT('',(-1.54827357142709,-4.5313813652235,-11.95));
#360=DIRECTION('',(3.19189119579732E-16,-6.41847686111418E-17,-1.));
#361=DIRECTION('',(1.,-8.23795863314363E-18,3.19189119579733E-16));
#362=FACE_BOUND('',#363,.T.);
#363=EDGE_LOOP('',(#553,#554,#555,#556,#557,#558,#559,#560));
#364=PLANE('',#365);
#365=AXIS2_PLACEMENT_3D('',#366,#367,#368);
#366=CARTESIAN_POINT('',(1.0517264285729,-4.5313813652235,21.45));
#367=DIRECTION('',(-3.19189119579733E-16,1.34675119380993E-16,1.));
#368=DIRECTION('',(-5.2994381324224E-17,1.,-1.34675119380993E-16));
#369=FACE_BOUND('',#370,.T.);
#370=EDGE_LOOP('',(#561,#562,#563,#564,#565,#566));
#371=FACE_BOUND('',#372,.T.);
#372=EDGE_LOOP('',(#567));
#373=PLANE('',#374);
#374=AXIS2_PLACEMENT_3D('',#375,#376,#377);
#375=CARTESIAN_POINT('',(-1.34827357142709,-4.5313813652235,-9.35));
#376=DIRECTION('',(1.,-8.23795863314363E-18,3.19189119579733E-16));
#377=DIRECTION('',(8.23795863314365E-18,1.,-6.41847686111419E-17));
#378=FACE_BOUND('',#379,.T.);
#379=EDGE_LOOP('',(#568,#569,#570,#571));
#380=PLANE('',#381);
#381=AXIS2_PLACEMENT_3D('',#382,#383,#384);
#382=CARTESIAN_POINT('',(-1.3482735714271,-17.1313813652235,16.25));
#383=DIRECTION('',(3.19189119579732E-16,-6.41847686111418E-17,-1.));
#384=DIRECTION('',(8.23795863314364E-18,1.,-6.41847686111418E-17));
#385=FACE_BOUND('',#386,.T.);
#386=EDGE_LOOP('',(#572,#573,#574,#575));
#387=FACE_BOUND('',#388,.T.);
#388=EDGE_LOOP('',(#576));
#389=PLANE('',#390);
#390=AXIS2_PLACEMENT_3D('',#391,#392,#393);
#391=CARTESIAN_POINT('',(3.85172642857291,-4.5313813652235,-9.35));
#392=DIRECTION('',(1.,-8.23795863314363E-18,3.19189119579733E-16));
#393=DIRECTION('',(8.23795863314365E-18,1.,-6.41847686111419E-17));
#394=FACE_BOUND('',#395,.T.);
#395=EDGE_LOOP('',(#577,#578,#579,#580));
#396=FACE_BOUND('',#397,.T.);
#397=EDGE_LOOP('',(#581));
#398=PLANE('',#399);
#399=AXIS2_PLACEMENT_3D('',#400,#401,#402);
#400=CARTESIAN_POINT('',(3.65172642857291,-4.5313813652235,-11.95));
#401=DIRECTION('',(1.,-8.23795863314363E-18,3.19189119579732E-16));
#402=DIRECTION('',(-3.19189119579733E-16,6.41847686111419E-17,1.));
#403=FACE_BOUND('',#404,.T.);
#404=EDGE_LOOP('',(#582,#583,#584,#585));
#405=PLANE('',#406);
#406=AXIS2_PLACEMENT_3D('',#407,#408,#409);
#407=CARTESIAN_POINT('',(3.65172642857291,-4.5313813652235,-6.75));
#408=DIRECTION('',(-3.19189119579732E-16,6.41847686111418E-17,1.));
#409=DIRECTION('',(-1.,8.23795863314363E-18,-3.19189119579733E-16));
#410=FACE_BOUND('',#411,.T.);
#411=EDGE_LOOP('',(#586,#587,#588,#589,#590,#591));
#412=FACE_BOUND('',#413,.T.);
#413=EDGE_LOOP('',(#592));
#414=PLANE('',#415);
#415=AXIS2_PLACEMENT_3D('',#416,#417,#418);
#416=CARTESIAN_POINT('',(-1.54827357142709,-4.5313813652235,-6.75));
#417=DIRECTION('',(-1.,8.23795863314363E-18,-3.19189119579732E-16));
#418=DIRECTION('',(3.19189119579733E-16,-6.41847686111419E-17,-1.));
#419=FACE_BOUND('',#420,.T.);
#420=EDGE_LOOP('',(#593,#594,#595,#596));
#421=PLANE('',#422);
#422=AXIS2_PLACEMENT_3D('',#423,#424,#425);
#423=CARTESIAN_POINT('',(-1.54827357142709,-12.3313813652235,-7.15));
#424=DIRECTION('',(8.23795863314365E-18,1.,-6.41847686111419E-17));
#425=DIRECTION('',(3.19189119579733E-16,-6.41847686111419E-17,-1.));
#426=FACE_BOUND('',#427,.T.);
#427=EDGE_LOOP('',(#597,#598,#599,#600));
#428=PLANE('',#429);
#429=AXIS2_PLACEMENT_3D('',#430,#431,#432);
#430=CARTESIAN_POINT('',(-9.54827357142709,-4.5313813652235,-9.35));
#431=DIRECTION('',(-1.,8.23795863314363E-18,-3.19189119579733E-16));
#432=DIRECTION('',(3.19189119579733E-16,-1.2541710856851E-16,-1.));
#433=FACE_BOUND('',#434,.T.);
#434=EDGE_LOOP('',(#601,#602,#603,#604));
#435=PLANE('',#436);
#436=AXIS2_PLACEMENT_3D('',#437,#438,#439);
#437=CARTESIAN_POINT('',(-9.34827357142709,-4.5313813652235,-9.35));
#438=DIRECTION('',(1.,-8.23795863314363E-18,3.19189119579733E-16));
#439=DIRECTION('',(3.19189119579733E-16,-2.9524286537742E-18,-1.));
#440=FACE_BOUND('',#441,.T.);
#441=EDGE_LOOP('',(#605,#606,#607,#608));
#442=PLANE('',#443);
#443=AXIS2_PLACEMENT_3D('',#444,#445,#446);
#444=CARTESIAN_POINT('',(-9.3482735714271,-12.1313813652235,16.45));
#445=DIRECTION('',(8.23795863314365E-18,1.,-6.41847686111419E-17));
#446=DIRECTION('',(-3.19189119579733E-16,6.41847686111419E-17,1.));
#447=FACE_BOUND('',#448,.T.);
#448=EDGE_LOOP('',(#609,#610,#611,#612));
#449=PLANE('',#450);
#450=AXIS2_PLACEMENT_3D('',#451,#452,#453);
#451=CARTESIAN_POINT('',(1.05172642857291,-4.5313813652235,-9.35));
#452=DIRECTION('',(-8.23795863314365E-18,-1.,6.41847686111419E-17));
#453=DIRECTION('',(-3.804214595371E-16,6.41847686111419E-17,1.));
#454=FACE_BOUND('',#455,.T.);
#455=EDGE_LOOP('',(#613,#614,#615,#616));
#456=PLANE('',#457);
#457=AXIS2_PLACEMENT_3D('',#458,#459,#460);
#458=CARTESIAN_POINT('',(-1.3482735714271,-4.53138136522349,16.25));
#459=DIRECTION('',(8.23795863314365E-18,1.,-6.41847686111419E-17));
#460=DIRECTION('',(-3.19189119579733E-16,6.41847686111419E-17,1.));
#461=FACE_OUTER_BOUND('',#462,.T.);
#462=EDGE_LOOP('',(#617));
#463=FACE_OUTER_BOUND('',#464,.T.);
#464=EDGE_LOOP('',(#618));
#465=CYLINDRICAL_SURFACE('',#466,1.);
#466=AXIS2_PLACEMENT_3D('',#467,#468,#469);
#467=CARTESIAN_POINT('',(-6.1482735714271,-10.8313813652235,18.75));
#468=DIRECTION('',(1.,-8.23795863314363E-18,3.19189119579733E-16));
#469=DIRECTION('',(3.19189119579733E-16,-2.9524286537742E-18,-1.));
#470=FACE_OUTER_BOUND('',#471,.T.);
#471=EDGE_LOOP('',(#619));
#472=FACE_OUTER_BOUND('',#473,.T.);
#473=EDGE_LOOP('',(#620));
#474=CYLINDRICAL_SURFACE('',#475,1.);
#475=AXIS2_PLACEMENT_3D('',#476,#477,#478);
#476=CARTESIAN_POINT('',(-6.34827357142709,-10.8313813652235,-9.35));
#477=DIRECTION('',(1.,-8.23795863314363E-18,3.19189119579733E-16));
#478=DIRECTION('',(3.19189119579733E-16,-2.9524286537742E-18,-1.));
#479=FACE_OUTER_BOUND('',#480,.T.);
#480=EDGE_LOOP('',(#621));
#481=FACE_OUTER_BOUND('',#482,.T.);
#482=EDGE_LOOP('',(#622));
#483=CONICAL_SURFACE('',#484,1.25,0.261799387799149);
#484=AXIS2_PLACEMENT_3D('',#485,#486,#487);
#485=CARTESIAN_POINT('',(-12.9812862733193,-10.8313813652235,11.65));
#486=DIRECTION('',(1.,-8.23795863314363E-18,3.19189119579733E-16));
#487=DIRECTION('',(3.19189119579733E-16,6.46357967148958E-16,-1.));
#488=FACE_OUTER_BOUND('',#489,.T.);
#489=EDGE_LOOP('',(#623));
#490=FACE_OUTER_BOUND('',#491,.T.);
#491=EDGE_LOOP('',(#624));
#492=CONICAL_SURFACE('',#493,1.25,0.261799387799149);
#493=AXIS2_PLACEMENT_3D('',#494,#495,#496);
#494=CARTESIAN_POINT('',(-12.9812862733193,-10.8313813652235,-2.15000000000001));
#495=DIRECTION('',(1.,-8.23795863314363E-18,3.19189119579733E-16));
#496=DIRECTION('',(3.19189119579733E-16,6.46357967148958E-16,-1.));
#497=ORIENTED_EDGE('',*,*,#625,.F.);
#498=ORIENTED_EDGE('',*,*,#626,.F.);
#499=ORIENTED_EDGE('',*,*,#627,.T.);
#500=ORIENTED_EDGE('',*,*,#628,.F.);
#501=ORIENTED_EDGE('',*,*,#629,.T.);
#502=ORIENTED_EDGE('',*,*,#630,.T.);
#503=ORIENTED_EDGE('',*,*,#631,.T.);
#504=ORIENTED_EDGE('',*,*,#632,.T.);
#505=ORIENTED_EDGE('',*,*,#633,.F.);
#506=ORIENTED_EDGE('',*,*,#634,.F.);
#507=ORIENTED_EDGE('',*,*,#635,.T.);
#508=ORIENTED_EDGE('',*,*,#636,.T.);
#509=ORIENTED_EDGE('',*,*,#637,.F.);
#510=ORIENTED_EDGE('',*,*,#635,.F.);
#511=ORIENTED_EDGE('',*,*,#638,.T.);
#512=ORIENTED_EDGE('',*,*,#639,.T.);
#513=ORIENTED_EDGE('',*,*,#640,.F.);
#514=ORIENTED_EDGE('',*,*,#641,.F.);
#515=ORIENTED_EDGE('',*,*,#632,.F.);
#516=ORIENTED_EDGE('',*,*,#642,.F.);
#517=ORIENTED_EDGE('',*,*,#643,.T.);
#518=ORIENTED_EDGE('',*,*,#644,.T.);
#519=ORIENTED_EDGE('',*,*,#645,.T.);
#520=ORIENTED_EDGE('',*,*,#646,.T.);
#521=ORIENTED_EDGE('',*,*,#625,.T.);
#522=ORIENTED_EDGE('',*,*,#647,.T.);
#523=ORIENTED_EDGE('',*,*,#646,.F.);
#524=ORIENTED_EDGE('',*,*,#648,.T.);
#525=ORIENTED_EDGE('',*,*,#649,.T.);
#526=ORIENTED_EDGE('',*,*,#650,.F.);
#527=ORIENTED_EDGE('',*,*,#651,.F.);
#528=ORIENTED_EDGE('',*,*,#626,.T.);
#529=ORIENTED_EDGE('',*,*,#627,.F.);
#530=ORIENTED_EDGE('',*,*,#651,.T.);
#531=ORIENTED_EDGE('',*,*,#652,.T.);
#532=ORIENTED_EDGE('',*,*,#653,.T.);
#533=ORIENTED_EDGE('',*,*,#634,.T.);
#534=ORIENTED_EDGE('',*,*,#654,.T.);
#535=ORIENTED_EDGE('',*,*,#655,.F.);
#536=ORIENTED_EDGE('',*,*,#656,.T.);
#537=ORIENTED_EDGE('',*,*,#656,.F.);
#538=ORIENTED_EDGE('',*,*,#657,.F.);
#539=ORIENTED_EDGE('',*,*,#658,.F.);
#540=ORIENTED_EDGE('',*,*,#659,.F.);
#541=ORIENTED_EDGE('',*,*,#647,.F.);
#542=ORIENTED_EDGE('',*,*,#628,.T.);
#543=ORIENTED_EDGE('',*,*,#660,.F.);
#544=ORIENTED_EDGE('',*,*,#636,.F.);
#545=ORIENTED_EDGE('',*,*,#661,.T.);
#546=ORIENTED_EDGE('',*,*,#662,.T.);
#547=ORIENTED_EDGE('',*,*,#642,.T.);
#548=ORIENTED_EDGE('',*,*,#631,.F.);
#549=ORIENTED_EDGE('',*,*,#653,.F.);
#550=ORIENTED_EDGE('',*,*,#663,.T.);
#551=ORIENTED_EDGE('',*,*,#664,.F.);
#552=ORIENTED_EDGE('',*,*,#665,.F.);
#553=ORIENTED_EDGE('',*,*,#633,.T.);
#554=ORIENTED_EDGE('',*,*,#641,.T.);
#555=ORIENTED_EDGE('',*,*,#666,.F.);
#556=ORIENTED_EDGE('',*,*,#667,.F.);
#557=ORIENTED_EDGE('',*,*,#668,.T.);
#558=ORIENTED_EDGE('',*,*,#669,.F.);
#559=ORIENTED_EDGE('',*,*,#670,.F.);
#560=ORIENTED_EDGE('',*,*,#654,.F.);
#561=ORIENTED_EDGE('',*,*,#671,.T.);
#562=ORIENTED_EDGE('',*,*,#668,.F.);
#563=ORIENTED_EDGE('',*,*,#672,.F.);
#564=ORIENTED_EDGE('',*,*,#673,.F.);
#565=ORIENTED_EDGE('',*,*,#638,.F.);
#566=ORIENTED_EDGE('',*,*,#659,.T.);
#567=ORIENTED_EDGE('',*,*,#674,.T.);
#568=ORIENTED_EDGE('',*,*,#673,.T.);
#569=ORIENTED_EDGE('',*,*,#675,.T.);
#570=ORIENTED_EDGE('',*,*,#676,.F.);
#571=ORIENTED_EDGE('',*,*,#639,.F.);
#572=ORIENTED_EDGE('',*,*,#666,.T.);
#573=ORIENTED_EDGE('',*,*,#640,.T.);
#574=ORIENTED_EDGE('',*,*,#676,.T.);
#575=ORIENTED_EDGE('',*,*,#677,.T.);
#576=ORIENTED_EDGE('',*,*,#678,.T.);
#577=ORIENTED_EDGE('',*,*,#679,.T.);
#578=ORIENTED_EDGE('',*,*,#680,.T.);
#579=ORIENTED_EDGE('',*,*,#643,.F.);
#580=ORIENTED_EDGE('',*,*,#662,.F.);
#581=ORIENTED_EDGE('',*,*,#681,.T.);
#582=ORIENTED_EDGE('',*,*,#682,.T.);
#583=ORIENTED_EDGE('',*,*,#683,.T.);
#584=ORIENTED_EDGE('',*,*,#644,.F.);
#585=ORIENTED_EDGE('',*,*,#680,.F.);
#586=ORIENTED_EDGE('',*,*,#648,.F.);
#587=ORIENTED_EDGE('',*,*,#645,.F.);
#588=ORIENTED_EDGE('',*,*,#683,.F.);
#589=ORIENTED_EDGE('',*,*,#684,.T.);
#590=ORIENTED_EDGE('',*,*,#665,.T.);
#591=ORIENTED_EDGE('',*,*,#685,.F.);
#592=ORIENTED_EDGE('',*,*,#686,.T.);
#593=ORIENTED_EDGE('',*,*,#687,.F.);
#594=ORIENTED_EDGE('',*,*,#649,.F.);
#595=ORIENTED_EDGE('',*,*,#685,.T.);
#596=ORIENTED_EDGE('',*,*,#664,.T.);
#597=ORIENTED_EDGE('',*,*,#650,.T.);
#598=ORIENTED_EDGE('',*,*,#687,.T.);
#599=ORIENTED_EDGE('',*,*,#663,.F.);
#600=ORIENTED_EDGE('',*,*,#652,.F.);
#601=ORIENTED_EDGE('',*,*,#657,.T.);
#602=ORIENTED_EDGE('',*,*,#655,.T.);
#603=ORIENTED_EDGE('',*,*,#670,.T.);
#604=ORIENTED_EDGE('',*,*,#688,.F.);
#605=ORIENTED_EDGE('',*,*,#658,.T.);
#606=ORIENTED_EDGE('',*,*,#688,.T.);
#607=ORIENTED_EDGE('',*,*,#669,.T.);
#608=ORIENTED_EDGE('',*,*,#671,.F.);
#609=ORIENTED_EDGE('',*,*,#679,.F.);
#610=ORIENTED_EDGE('',*,*,#661,.F.);
#611=ORIENTED_EDGE('',*,*,#684,.F.);
#612=ORIENTED_EDGE('',*,*,#682,.F.);
#613=ORIENTED_EDGE('',*,*,#672,.T.);
#614=ORIENTED_EDGE('',*,*,#667,.T.);
#615=ORIENTED_EDGE('',*,*,#677,.F.);
#616=ORIENTED_EDGE('',*,*,#675,.F.);
#617=ORIENTED_EDGE('',*,*,#678,.F.);
#618=ORIENTED_EDGE('',*,*,#674,.F.);
#619=ORIENTED_EDGE('',*,*,#681,.F.);
#620=ORIENTED_EDGE('',*,*,#686,.F.);
#621=ORIENTED_EDGE('',*,*,#630,.F.);
#622=ORIENTED_EDGE('',*,*,#637,.T.);
#623=ORIENTED_EDGE('',*,*,#629,.F.);
#624=ORIENTED_EDGE('',*,*,#660,.T.);
#625=EDGE_CURVE('',#689,#690,#691,.T.);
#626=EDGE_CURVE('',#692,#689,#693,.T.);
#627=EDGE_CURVE('',#692,#694,#695,.T.);
#628=EDGE_CURVE('',#690,#694,#696,.T.);
#629=EDGE_CURVE('',#697,#697,#698,.F.);
#630=EDGE_CURVE('',#699,#699,#700,.F.);
#631=EDGE_CURVE('',#701,#702,#703,.T.);
#632=EDGE_CURVE('',#702,#704,#705,.T.);
#633=EDGE_CURVE('',#706,#704,#707,.T.);
#634=EDGE_CURVE('',#701,#706,#708,.T.);
#635=EDGE_CURVE('',#709,#709,#710,.T.);
#636=EDGE_CURVE('',#711,#711,#712,.T.);
#637=EDGE_CURVE('',#713,#713,#714,.F.);
#638=EDGE_CURVE('',#715,#716,#717,.F.);
#639=EDGE_CURVE('',#716,#718,#719,.T.);
#640=EDGE_CURVE('',#720,#718,#721,.T.);
#641=EDGE_CURVE('',#704,#720,#722,.T.);
#642=EDGE_CURVE('',#723,#702,#724,.T.);
#643=EDGE_CURVE('',#723,#725,#726,.T.);
#644=EDGE_CURVE('',#725,#727,#728,.T.);
#645=EDGE_CURVE('',#727,#729,#730,.T.);
#646=EDGE_CURVE('',#729,#689,#731,.T.);
#647=EDGE_CURVE('',#690,#715,#732,.F.);
#648=EDGE_CURVE('',#729,#733,#734,.T.);
#649=EDGE_CURVE('',#733,#735,#736,.T.);
#650=EDGE_CURVE('',#737,#735,#738,.F.);
#651=EDGE_CURVE('',#692,#737,#739,.T.);
#652=EDGE_CURVE('',#737,#740,#741,.T.);
#653=EDGE_CURVE('',#740,#701,#742,.T.);
#654=EDGE_CURVE('',#706,#743,#744,.T.);
#655=EDGE_CURVE('',#745,#743,#746,.T.);
#656=EDGE_CURVE('',#745,#694,#747,.T.);
#657=EDGE_CURVE('',#748,#745,#749,.T.);
#658=EDGE_CURVE('',#750,#748,#751,.F.);
#659=EDGE_CURVE('',#715,#750,#752,.T.);
#660=EDGE_CURVE('',#753,#753,#754,.F.);
#661=EDGE_CURVE('',#755,#756,#757,.T.);
#662=EDGE_CURVE('',#756,#723,#758,.T.);
#663=EDGE_CURVE('',#740,#759,#760,.T.);
#664=EDGE_CURVE('',#761,#759,#762,.T.);
#665=EDGE_CURVE('',#755,#761,#763,.T.);
#666=EDGE_CURVE('',#764,#720,#765,.T.);
#667=EDGE_CURVE('',#766,#764,#767,.T.);
#668=EDGE_CURVE('',#766,#768,#769,.T.);
#669=EDGE_CURVE('',#770,#768,#771,.T.);
#670=EDGE_CURVE('',#743,#770,#772,.T.);
#671=EDGE_CURVE('',#750,#768,#773,.F.);
#672=EDGE_CURVE('',#774,#766,#775,.T.);
#673=EDGE_CURVE('',#716,#774,#776,.T.);
#674=EDGE_CURVE('',#777,#777,#778,.T.);
#675=EDGE_CURVE('',#774,#779,#780,.T.);
#676=EDGE_CURVE('',#718,#779,#781,.T.);
#677=EDGE_CURVE('',#779,#764,#782,.T.);
#678=EDGE_CURVE('',#783,#783,#784,.F.);
#679=EDGE_CURVE('',#756,#785,#786,.T.);
#680=EDGE_CURVE('',#785,#725,#787,.T.);
#681=EDGE_CURVE('',#788,#788,#789,.F.);
#682=EDGE_CURVE('',#785,#790,#791,.T.);
#683=EDGE_CURVE('',#790,#727,#792,.T.);
#684=EDGE_CURVE('',#790,#755,#793,.T.);
#685=EDGE_CURVE('',#733,#761,#794,.T.);
#686=EDGE_CURVE('',#795,#795,#796,.T.);
#687=EDGE_CURVE('',#735,#759,#797,.F.);
#688=EDGE_CURVE('',#748,#770,#798,.T.);
#689=VERTEX_POINT('',#799);
#690=VERTEX_POINT('',#800);
#691=LINE('',#801,#802);
#692=VERTEX_POINT('',#804);
#693=LINE('',#805,#806);
#694=VERTEX_POINT('',#808);
#695=LINE('',#809,#810);
#696=LINE('',#812,#813);
#697=VERTEX_POINT('',#815);
#698=CIRCLE('',#816,1.5);
#699=VERTEX_POINT('',#820);
#700=CIRCLE('',#821,1.49999999999999);
#701=VERTEX_POINT('',#825);
#702=VERTEX_POINT('',#826);
#703=LINE('',#827,#828);
#704=VERTEX_POINT('',#830);
#705=LINE('',#831,#832);
#706=VERTEX_POINT('',#834);
#707=LINE('',#835,#836);
#708=LINE('',#838,#839);
#709=VERTEX_POINT('',#841);
#710=CIRCLE('',#842,1.);
#711=VERTEX_POINT('',#846);
#712=CIRCLE('',#847,1.);
#713=VERTEX_POINT('',#851);
#714=CIRCLE('',#852,1.);
#715=VERTEX_POINT('',#856);
#716=VERTEX_POINT('',#857);
#717=LINE('',#858,#859);
#718=VERTEX_POINT('',#861);
#719=LINE('',#862,#863);
#720=VERTEX_POINT('',#865);
#721=LINE('',#866,#867);
#722=LINE('',#869,#870);
#723=VERTEX_POINT('',#872);
#724=LINE('',#873,#874);
#725=VERTEX_POINT('',#876);
#726=LINE('',#877,#878);
#727=VERTEX_POINT('',#880);
#728=LINE('',#881,#882);
#729=VERTEX_POINT('',#884);
#730=LINE('',#885,#886);
#731=LINE('',#888,#889);
#732=LINE('',#891,#892);
#733=VERTEX_POINT('',#894);
#734=LINE('',#895,#896);
#735=VERTEX_POINT('',#898);
#736=LINE('',#899,#900);
#737=VERTEX_POINT('',#902);
#738=LINE('',#903,#904);
#739=LINE('',#906,#907);
#740=VERTEX_POINT('',#909);
#741=LINE('',#910,#911);
#742=LINE('',#913,#914);
#743=VERTEX_POINT('',#916);
#744=LINE('',#917,#918);
#745=VERTEX_POINT('',#920);
#746=LINE('',#921,#922);
#747=LINE('',#924,#925);
#748=VERTEX_POINT('',#927);
#749=LINE('',#928,#929);
#750=VERTEX_POINT('',#931);
#751=LINE('',#932,#933);
#752=LINE('',#935,#936);
#753=VERTEX_POINT('',#938);
#754=CIRCLE('',#939,1.);
#755=VERTEX_POINT('',#943);
#756=VERTEX_POINT('',#944);
#757=LINE('',#945,#946);
#758=LINE('',#948,#949);
#759=VERTEX_POINT('',#951);
#760=LINE('',#952,#953);
#761=VERTEX_POINT('',#955);
#762=LINE('',#956,#957);
#763=LINE('',#959,#960);
#764=VERTEX_POINT('',#962);
#765=LINE('',#963,#964);
#766=VERTEX_POINT('',#966);
#767=LINE('',#967,#968);
#768=VERTEX_POINT('',#970);
#769=LINE('',#971,#972);
#770=VERTEX_POINT('',#974);
#771=LINE('',#975,#976);
#772=LINE('',#978,#979);
#773=LINE('',#981,#982);
#774=VERTEX_POINT('',#984);
#775=LINE('',#985,#986);
#776=LINE('',#988,#989);
#777=VERTEX_POINT('',#991);
#778=CIRCLE('',#992,1.);
#779=VERTEX_POINT('',#996);
#780=LINE('',#997,#998);
#781=LINE('',#1000,#1001);
#782=LINE('',#1003,#1004);
#783=VERTEX_POINT('',#1006);
#784=CIRCLE('',#1007,1.);
#785=VERTEX_POINT('',#1011);
#786=LINE('',#1012,#1013);
#787=LINE('',#1015,#1016);
#788=VERTEX_POINT('',#1018);
#789=CIRCLE('',#1019,1.);
#790=VERTEX_POINT('',#1023);
#791=LINE('',#1024,#1025);
#792=LINE('',#1027,#1028);
#793=LINE('',#1030,#1031);
#794=LINE('',#1033,#1034);
#795=VERTEX_POINT('',#1036);
#796=CIRCLE('',#1037,1.);
#797=LINE('',#1041,#1042);
#798=LINE('',#1044,#1045);
#799=CARTESIAN_POINT('',(-12.0482735714271,-17.1313813652235,-7.15));
#800=CARTESIAN_POINT('',(-12.0482735714271,-17.1313813652235,16.65));
#801=CARTESIAN_POINT('',(-12.0482735714271,-17.1313813652235,-7.15000000000001));
#802=VECTOR('',#803,1.);
#803=DIRECTION('',(-3.73184209958036E-16,0.,1.));
#804=CARTESIAN_POINT('',(-12.0482735714271,-4.5313813652235,-7.15000000000001));
#805=CARTESIAN_POINT('',(-12.0482735714271,-4.5313813652235,-7.15000000000001));
#806=VECTOR('',#807,1.);
#807=DIRECTION('',(0.,-1.,1.40980701539702E-16));
#808=CARTESIAN_POINT('',(-12.0482735714271,-4.5313813652235,16.65));
#809=CARTESIAN_POINT('',(-12.0482735714271,-4.5313813652235,-7.15000000000001));
#810=VECTOR('',#811,1.);
#811=DIRECTION('',(-2.98547367966429E-16,7.46368419916072E-17,1.));
#812=CARTESIAN_POINT('',(-12.0482735714271,-17.1313813652235,16.65));
#813=VECTOR('',#814,1.);
#814=DIRECTION('',(0.,1.,0.));
#815=CARTESIAN_POINT('',(-12.0482735714271,-10.8313813652235,-3.65000000000001));
#816=AXIS2_PLACEMENT_3D('',#817,#818,#819);
#817=CARTESIAN_POINT('',(-12.0482735714271,-10.8313813652235,-2.15000000000001));
#818=DIRECTION('',(1.,-8.23795863314363E-18,3.19189119579732E-16));
#819=DIRECTION('',(3.19189119579732E-16,1.45798470014715E-15,-1.));
#820=CARTESIAN_POINT('',(-12.0482735714271,-10.8313813652235,10.15));
#821=AXIS2_PLACEMENT_3D('',#822,#823,#824);
#822=CARTESIAN_POINT('',(-12.0482735714271,-10.8313813652235,11.65));
#823=DIRECTION('',(1.,-8.23795863314363E-18,3.19189119579732E-16));
#824=DIRECTION('',(3.19189119579732E-16,1.45798470014715E-15,-1.));
#825=CARTESIAN_POINT('',(-14.7482735714271,-4.5313813652235,-11.95));
#826=CARTESIAN_POINT('',(-14.7482735714271,-17.1313813652235,-11.95));
#827=CARTESIAN_POINT('',(-14.7482735714271,-4.5313813652235,-11.95));
#828=VECTOR('',#829,1.);
#829=DIRECTION('',(0.,-1.,0.));
#830=CARTESIAN_POINT('',(-14.7482735714271,-17.1313813652235,21.45));
#831=CARTESIAN_POINT('',(-14.7482735714271,-17.1313813652235,-11.95));
#832=VECTOR('',#833,1.);
#833=DIRECTION('',(-3.19106019053937E-16,2.12737346035958E-16,1.));
#834=CARTESIAN_POINT('',(-14.7482735714271,-4.53138136522349,21.45));
#835=CARTESIAN_POINT('',(-14.7482735714271,-4.53138136522349,21.45));
#836=VECTOR('',#837,1.);
#837=DIRECTION('',(0.,-1.,0.));
#838=CARTESIAN_POINT('',(-14.7482735714271,-4.5313813652235,-11.95));
#839=VECTOR('',#840,1.);
#840=DIRECTION('',(-3.19106019053937E-16,1.06368673017979E-16,1.));
#841=CARTESIAN_POINT('',(-14.7482735714271,-10.8313813652235,10.65));
#842=AXIS2_PLACEMENT_3D('',#843,#844,#845);
#843=CARTESIAN_POINT('',(-14.7482735714271,-10.8313813652235,11.65));
#844=DIRECTION('',(1.,-8.23795863314363E-18,3.19189119579733E-16));
#845=DIRECTION('',(3.19189119579733E-16,-2.95242865377421E-18,-1.));
#846=CARTESIAN_POINT('',(-14.7482735714271,-10.8313813652235,-3.15000000000001));
#847=AXIS2_PLACEMENT_3D('',#848,#849,#850);
#848=CARTESIAN_POINT('',(-14.7482735714271,-10.8313813652235,-2.15000000000001));
#849=DIRECTION('',(1.,-8.23795863314363E-18,3.19189119579733E-16));
#850=DIRECTION('',(3.19189119579733E-16,-2.95242865377421E-18,-1.));
#851=CARTESIAN_POINT('',(-13.9142989752115,-10.8313813652235,10.65));
#852=AXIS2_PLACEMENT_3D('',#853,#854,#855);
#853=CARTESIAN_POINT('',(-13.9142989752115,-10.8313813652235,11.65));
#854=DIRECTION('',(1.,-8.23795863314363E-18,3.19189119579733E-16));
#855=DIRECTION('',(3.19189119579733E-16,-2.62946676324737E-33,-1.));
#856=CARTESIAN_POINT('',(-1.3482735714271,-17.1313813652235,16.65));
#857=CARTESIAN_POINT('',(-1.3482735714271,-17.1313813652235,16.25));
#858=CARTESIAN_POINT('',(-1.3482735714271,-17.1313813652235,16.25));
#859=VECTOR('',#860,1.);
#860=DIRECTION('',(5.5511151231258E-16,0.,1.));
#861=CARTESIAN_POINT('',(3.8517264285729,-17.1313813652235,16.25));
#862=CARTESIAN_POINT('',(-1.3482735714271,-17.1313813652235,16.25));
#863=VECTOR('',#864,1.);
#864=DIRECTION('',(1.,0.,0.));
#865=CARTESIAN_POINT('',(3.8517264285729,-17.1313813652235,21.45));
#866=CARTESIAN_POINT('',(3.8517264285729,-17.1313813652235,21.45));
#867=VECTOR('',#868,1.);
#868=DIRECTION('',(3.41607084500048E-16,-6.83214169000097E-16,-1.));
#869=CARTESIAN_POINT('',(-14.7482735714271,-17.1313813652235,21.45));
#870=VECTOR('',#871,1.);
#871=DIRECTION('',(1.,1.91006111763468E-16,3.82012223526936E-16));
#872=CARTESIAN_POINT('',(3.65172642857291,-17.1313813652235,-11.95));
#873=CARTESIAN_POINT('',(3.65172642857291,-17.1313813652235,-11.95));
#874=VECTOR('',#875,1.);
#875=DIRECTION('',(-1.,0.,-3.86164530304402E-16));
#876=CARTESIAN_POINT('',(3.65172642857291,-17.1313813652235,-6.75));
#877=CARTESIAN_POINT('',(3.65172642857291,-17.1313813652235,-11.95));
#878=VECTOR('',#879,1.);
#879=DIRECTION('',(-3.41607084500048E-16,0.,1.));
#880=CARTESIAN_POINT('',(-1.54827357142709,-17.1313813652235,-6.75));
#881=CARTESIAN_POINT('',(3.65172642857291,-17.1313813652235,-6.75));
#882=VECTOR('',#883,1.);
#883=DIRECTION('',(-1.,0.,-3.41607084500048E-16));
#884=CARTESIAN_POINT('',(-1.54827357142709,-17.1313813652235,-7.15));
#885=CARTESIAN_POINT('',(-1.54827357142709,-17.1313813652235,-6.75));
#886=VECTOR('',#887,1.);
#887=DIRECTION('',(0.,0.,-1.));
#888=CARTESIAN_POINT('',(-1.54827357142709,-17.1313813652235,-7.15));
#889=VECTOR('',#890,1.);
#890=DIRECTION('',(-1.,0.,-3.38353683695286E-16));
#891=CARTESIAN_POINT('',(-1.3482735714271,-17.1313813652235,16.65));
#892=VECTOR('',#893,1.);
#893=DIRECTION('',(-1.,0.,-9.96087947327243E-16));
#894=CARTESIAN_POINT('',(-1.54827357142709,-12.3313813652235,-7.15));
#895=CARTESIAN_POINT('',(-1.54827357142709,-17.1313813652235,-7.15));
#896=VECTOR('',#897,1.);
#897=DIRECTION('',(0.,1.,0.));
#898=CARTESIAN_POINT('',(-9.54827357142709,-12.3313813652235,-7.15000000000001));
#899=CARTESIAN_POINT('',(-1.54827357142709,-12.3313813652235,-7.15));
#900=VECTOR('',#901,1.);
#901=DIRECTION('',(-1.,0.,-4.44089209850063E-16));
#902=CARTESIAN_POINT('',(-9.54827357142709,-4.5313813652235,-7.15000000000001));
#903=CARTESIAN_POINT('',(-9.54827357142709,-12.3313813652235,-7.15000000000001));
#904=VECTOR('',#905,1.);
#905=DIRECTION('',(0.,1.,0.));
#906=CARTESIAN_POINT('',(-12.0482735714271,-4.5313813652235,-7.15000000000001));
#907=VECTOR('',#908,1.);
#908=DIRECTION('',(1.,0.,7.105427357601E-16));
#909=CARTESIAN_POINT('',(-9.54827357142709,-4.5313813652235,-11.95));
#910=CARTESIAN_POINT('',(-9.54827357142709,-4.5313813652235,-7.15000000000001));
#911=VECTOR('',#912,1.);
#912=DIRECTION('',(3.70074341541719E-16,0.,-1.));
#913=CARTESIAN_POINT('',(-9.54827357142709,-4.5313813652235,-11.95));
#914=VECTOR('',#915,1.);
#915=DIRECTION('',(-1.,0.,0.));
#916=CARTESIAN_POINT('',(-9.3482735714271,-4.53138136522349,21.45));
#917=CARTESIAN_POINT('',(-14.7482735714271,-4.5313813652235,21.45));
#918=VECTOR('',#919,1.);
#919=DIRECTION('',(1.,0.,0.));
#920=CARTESIAN_POINT('',(-9.3482735714271,-4.53138136522349,16.65));
#921=CARTESIAN_POINT('',(-9.3482735714271,-4.5313813652235,16.65));
#922=VECTOR('',#923,1.);
#923=DIRECTION('',(-7.40148683083437E-16,1.85037170770859E-16,1.));
#924=CARTESIAN_POINT('',(-9.3482735714271,-4.5313813652235,16.65));
#925=VECTOR('',#926,1.);
#926=DIRECTION('',(-1.,0.,0.));
#927=CARTESIAN_POINT('',(-9.3482735714271,-12.1313813652235,16.65));
#928=CARTESIAN_POINT('',(-9.3482735714271,-12.1313813652235,16.65));
#929=VECTOR('',#930,1.);
#930=DIRECTION('',(0.,1.,0.));
#931=CARTESIAN_POINT('',(-1.3482735714271,-12.1313813652235,16.65));
#932=CARTESIAN_POINT('',(-9.3482735714271,-12.1313813652235,16.65));
#933=VECTOR('',#934,1.);
#934=DIRECTION('',(1.,0.,8.88178419700125E-16));
#935=CARTESIAN_POINT('',(-1.3482735714271,-17.1313813652235,16.65));
#936=VECTOR('',#937,1.);
#937=DIRECTION('',(0.,1.,0.));
#938=CARTESIAN_POINT('',(-13.9142989752115,-10.8313813652235,-3.15000000000001));
#939=AXIS2_PLACEMENT_3D('',#940,#941,#942);
#940=CARTESIAN_POINT('',(-13.9142989752115,-10.8313813652235,-2.15000000000001));
#941=DIRECTION('',(1.,-8.23795863314363E-18,3.19189119579733E-16));
#942=DIRECTION('',(3.19189119579733E-16,-2.62946676324737E-33,-1.));
#943=CARTESIAN_POINT('',(-1.54827357142709,-4.5313813652235,-11.95));
#944=CARTESIAN_POINT('',(3.65172642857291,-4.5313813652235,-11.95));
#945=CARTESIAN_POINT('',(-1.54827357142709,-4.5313813652235,-11.95));
#946=VECTOR('',#947,1.);
#947=DIRECTION('',(1.,0.,6.83214169000096E-16));
#948=CARTESIAN_POINT('',(3.65172642857291,-4.5313813652235,-11.95));
#949=VECTOR('',#950,1.);
#950=DIRECTION('',(0.,-1.,0.));
#951=CARTESIAN_POINT('',(-9.54827357142709,-12.3313813652235,-11.95));
#952=CARTESIAN_POINT('',(-9.54827357142709,-4.5313813652235,-11.95));
#953=VECTOR('',#954,1.);
#954=DIRECTION('',(0.,-1.,2.27738056333365E-16));
#955=CARTESIAN_POINT('',(-1.54827357142709,-12.3313813652235,-11.95));
#956=CARTESIAN_POINT('',(-1.54827357142709,-12.3313813652235,-11.95));
#957=VECTOR('',#958,1.);
#958=DIRECTION('',(-1.,0.,-2.22044604925031E-16));
#959=CARTESIAN_POINT('',(-1.54827357142709,-4.5313813652235,-11.95));
#960=VECTOR('',#961,1.);
#961=DIRECTION('',(0.,-1.,0.));
#962=CARTESIAN_POINT('',(3.8517264285729,-4.53138136522349,21.45));
#963=CARTESIAN_POINT('',(3.8517264285729,-4.53138136522349,21.45));
#964=VECTOR('',#965,1.);
#965=DIRECTION('',(0.,-1.,0.));
#966=CARTESIAN_POINT('',(-1.3482735714271,-4.53138136522349,21.45));
#967=CARTESIAN_POINT('',(-1.3482735714271,-4.53138136522349,21.45));
#968=VECTOR('',#969,1.);
#969=DIRECTION('',(1.,0.,0.));
#970=CARTESIAN_POINT('',(-1.3482735714271,-12.1313813652235,21.45));
#971=CARTESIAN_POINT('',(-1.3482735714271,-4.53138136522349,21.45));
#972=VECTOR('',#973,1.);
#973=DIRECTION('',(0.,-1.,0.));
#974=CARTESIAN_POINT('',(-9.3482735714271,-12.1313813652235,21.45));
#975=CARTESIAN_POINT('',(-9.3482735714271,-12.1313813652235,21.45));
#976=VECTOR('',#977,1.);
#977=DIRECTION('',(1.,0.,4.44089209850063E-16));
#978=CARTESIAN_POINT('',(-9.3482735714271,-4.53138136522349,21.45));
#979=VECTOR('',#980,1.);
#980=DIRECTION('',(0.,-1.,0.));
#981=CARTESIAN_POINT('',(-1.3482735714271,-12.1313813652235,21.45));
#982=VECTOR('',#983,1.);
#983=DIRECTION('',(3.70074341541719E-16,0.,-1.));
#984=CARTESIAN_POINT('',(-1.3482735714271,-4.53138136522349,16.25));
#985=CARTESIAN_POINT('',(-1.3482735714271,-4.53138136522349,16.25));
#986=VECTOR('',#987,1.);
#987=DIRECTION('',(-3.41607084500048E-16,0.,1.));
#988=CARTESIAN_POINT('',(-1.3482735714271,-17.1313813652235,16.25));
#989=VECTOR('',#990,1.);
#990=DIRECTION('',(0.,1.,0.));
#991=CARTESIAN_POINT('',(-1.3482735714271,-10.8313813652235,17.75));
#992=AXIS2_PLACEMENT_3D('',#993,#994,#995);
#993=CARTESIAN_POINT('',(-1.3482735714271,-10.8313813652235,18.75));
#994=DIRECTION('',(1.,-8.23795863314363E-18,3.19189119579733E-16));
#995=DIRECTION('',(3.19189119579733E-16,-2.9524286537742E-18,-1.));
#996=CARTESIAN_POINT('',(3.8517264285729,-4.53138136522349,16.25));
#997=CARTESIAN_POINT('',(-1.3482735714271,-4.5313813652235,16.25));
#998=VECTOR('',#999,1.);
#999=DIRECTION('',(1.,0.,0.));
#1000=CARTESIAN_POINT('',(3.8517264285729,-17.1313813652235,16.25));
#1001=VECTOR('',#1002,1.);
#1002=DIRECTION('',(0.,1.,0.));
#1003=CARTESIAN_POINT('',(3.8517264285729,-4.53138136522349,16.25));
#1004=VECTOR('',#1005,1.);
#1005=DIRECTION('',(-3.41607084500048E-16,0.,1.));
#1006=CARTESIAN_POINT('',(3.8517264285729,-10.8313813652235,17.75));
#1007=AXIS2_PLACEMENT_3D('',#1008,#1009,#1010);
#1008=CARTESIAN_POINT('',(3.8517264285729,-10.8313813652235,18.75));
#1009=DIRECTION('',(1.,-8.23795863314363E-18,3.19189119579733E-16));
#1010=DIRECTION('',(3.19189119579733E-16,-2.9524286537742E-18,-1.));
#1011=CARTESIAN_POINT('',(3.65172642857291,-4.5313813652235,-6.75));
#1012=CARTESIAN_POINT('',(3.65172642857291,-4.5313813652235,-11.95));
#1013=VECTOR('',#1014,1.);
#1014=DIRECTION('',(-3.41607084500048E-16,0.,1.));
#1015=CARTESIAN_POINT('',(3.65172642857291,-4.5313813652235,-6.75));
#1016=VECTOR('',#1017,1.);
#1017=DIRECTION('',(0.,-1.,0.));
#1018=CARTESIAN_POINT('',(3.65172642857291,-10.8313813652235,-10.35));
#1019=AXIS2_PLACEMENT_3D('',#1020,#1021,#1022);
#1020=CARTESIAN_POINT('',(3.65172642857291,-10.8313813652235,-9.35));
#1021=DIRECTION('',(1.,-8.23795863314363E-18,3.19189119579732E-16));
#1022=DIRECTION('',(3.19189119579733E-16,-2.95242865377421E-18,-1.));
#1023=CARTESIAN_POINT('',(-1.54827357142709,-4.5313813652235,-6.75));
#1024=CARTESIAN_POINT('',(3.65172642857291,-4.5313813652235,-6.75));
#1025=VECTOR('',#1026,1.);
#1026=DIRECTION('',(-1.,0.,-3.41607084500048E-16));
#1027=CARTESIAN_POINT('',(-1.54827357142709,-4.5313813652235,-6.75));
#1028=VECTOR('',#1029,1.);
#1029=DIRECTION('',(0.,-1.,7.04903507698512E-17));
#1030=CARTESIAN_POINT('',(-1.54827357142709,-4.5313813652235,-6.75));
#1031=VECTOR('',#1032,1.);
#1032=DIRECTION('',(3.41607084500048E-16,0.,-1.));
#1033=CARTESIAN_POINT('',(-1.54827357142709,-12.3313813652235,-7.15));
#1034=VECTOR('',#1035,1.);
#1035=DIRECTION('',(3.23815048849004E-16,0.,-1.));
#1036=CARTESIAN_POINT('',(-1.54827357142709,-10.8313813652235,-10.35));
#1037=AXIS2_PLACEMENT_3D('',#1038,#1039,#1040);
#1038=CARTESIAN_POINT('',(-1.54827357142709,-10.8313813652235,-9.35));
#1039=DIRECTION('',(1.,-8.23795863314363E-18,3.19189119579732E-16));
#1040=DIRECTION('',(3.19189119579733E-16,-2.95242865377421E-18,-1.));
#1041=CARTESIAN_POINT('',(-9.54827357142709,-12.3313813652235,-11.95));
#1042=VECTOR('',#1043,1.);
#1043=DIRECTION('',(-3.70074341541719E-16,0.,1.));
#1044=CARTESIAN_POINT('',(-9.3482735714271,-12.1313813652235,16.65));
#1045=VECTOR('',#1046,1.);
#1046=DIRECTION('',(-3.70074341541719E-16,0.,1.));
ENDSEC;
END-ISO-10303-21;
