ISO-10303-21;
HEADER;
FILE_DESCRIPTION(('STEP AP203'),
    '1');
FILE_NAME('cubesatV2',
    '2026-02-09T18:33:19',
    ('dima'),
    (''),
    'C3D Converter',
    'C3D Toolkit',
    '');
/**/
FILE_SCHEMA(('CONFIG_CONTROL_DESIGN'));
ENDSEC;

DATA;
#1=PRODUCT_DEFINITION('','UNSPECIFIED',#38,#41);
#2=SHAPE_DEFINITION_REPRESENTATION(#36,#3);
#3=SHAPE_REPRESENTATION('NONE',(#4),#8);
#4=AXIS2_PLACEMENT_3D('',#5,#6,#7);
#5=CARTESIAN_POINT('',(0.,0.,0.));
#6=DIRECTION('',(0.,0.,1.));
#7=DIRECTION('',(1.,0.,0.));
#8=(GEOMETRIC_REPRESENTATION_CONTEXT(3)GLOBAL_UNCERTAINTY_ASSIGNED_CONTEXT((#10))
GLOBAL_UNIT_ASSIGNED_CONTEXT((#9,#11,#12))REPRESENTATION_CONTEXT('NONE','NONE'));
#9=(LENGTH_UNIT()NAMED_UNIT(*)SI_UNIT(.MILLI.,.METRE.));
#10=UNCERTAINTY_MEASURE_WITH_UNIT(LENGTH_MEASURE(1.E-5),#9,'NONE','NONE');
#11=(NAMED_UNIT(*)PLANE_ANGLE_UNIT()SI_UNIT($,.RADIAN.));
#12=(NAMED_UNIT(*)SI_UNIT($,.STERADIAN.)SOLID_ANGLE_UNIT());
#13=MANIFOLD_SOLID_BREP('',#14);
#14=CLOSED_SHELL('',(#63,#72,#81,#90,#99,#108,#117,#126,#135,#144,#153,#162,#171,
#180,#189,#198,#207,#216,#225,#234,#243,#252,#261,#270,#279,#288,#297,#306,#315,
#324,#333,#342,#351,#360,#369,#378,#387,#396,#405,#414,#423,#432,#441,#450,#459,
#468,#477,#486));
#15=COLOUR_RGB('',0.564705882352941,0.564705882352941,0.564705882352941);
#16=FILL_AREA_STYLE_COLOUR('',#15);
#17=FILL_AREA_STYLE($,(#16));
#18=SURFACE_STYLE_FILL_AREA(#17);
#19=SURFACE_SIDE_STYLE('',(#18));
#20=SURFACE_STYLE_USAGE(.BOTH.,#19);
#21=PRESENTATION_STYLE_ASSIGNMENT((#20));
#22=MECHANICAL_DESIGN_GEOMETRIC_PRESENTATION_REPRESENTATION('NONE',(#23,#33,#71,
#80,#89,#98,#107,#116,#125,#134,#143,#152,#161,#170,#179,#188,#197,#206,#215,#224,
#233,#242,#251,#260,#269,#278,#287,#296,#305,#314,#323,#332,#341,#350,#359,#368,
#377,#386,#395,#404,#413,#422,#431,#440,#449,#458,#467,#476,#485,#494,#503,#512,
#521,#530,#539,#548,#557,#566,#575,#584,#593,#602,#611,#620),#8);
#23=STYLED_ITEM('',(#21),#13);
#24=MANIFOLD_SOLID_BREP('',#25);
#25=CLOSED_SHELL('',(#495,#504,#513,#522,#531,#540,#549,#558,#567,#576,#585,#594,
#603,#612));
#26=COLOUR_RGB('',0.564705882352941,0.564705882352941,0.564705882352941);
#27=FILL_AREA_STYLE_COLOUR('',#26);
#28=FILL_AREA_STYLE($,(#27));
#29=SURFACE_STYLE_FILL_AREA(#28);
#30=SURFACE_SIDE_STYLE('',(#29));
#31=SURFACE_STYLE_USAGE(.BOTH.,#30);
#32=PRESENTATION_STYLE_ASSIGNMENT((#31));
#33=STYLED_ITEM('',(#32),#24);
#34=ADVANCED_BREP_SHAPE_REPRESENTATION('NONE',(#13,#24),#8);
#35=SHAPE_REPRESENTATION_RELATIONSHIP('','',#3,#34);
#36=PRODUCT_DEFINITION_SHAPE('NONE','NONE',#1);
#37=MECHANICAL_CONTEXT('NONE',#42,'mechanical');
#38=PRODUCT_DEFINITION_FORMATION_WITH_SPECIFIED_SOURCE('ANY','UNSPECIFIED',#39,.NOT_KNOWN.);
#39=PRODUCT('','\X2\04210431043E0440043A0430\X0\','NONE',(#37));
#40=PRODUCT_RELATED_PRODUCT_CATEGORY('assembly','',(#39));
#41=DESIGN_CONTEXT('detailed design',#42,'design');
#42=APPLICATION_CONTEXT('configuration controlled 3d designs of mechanical parts and assemblies');
#43=APPLICATION_PROTOCOL_DEFINITION('international standard','config_control_design',
1994,#42);
#44=CC_DESIGN_DATE_AND_TIME_ASSIGNMENT(#45,#49,(#1));
#45=DATE_AND_TIME(#46,#47);
#46=CALENDAR_DATE(0,1,1);
#47=LOCAL_TIME(0,0,0.,#48);
#48=COORDINATED_UNIVERSAL_TIME_OFFSET(0,0,.AHEAD.);
#49=DATE_TIME_ROLE('creation_date');
#50=CC_DESIGN_APPROVAL(#51,(#1));
#51=APPROVAL(#52,'UNSPECIFIED');
#52=APPROVAL_STATUS('not_yet_approved');
#53=APPROVAL_DATE_TIME(#54,#51);
#54=DATE_AND_TIME(#55,#56);
#55=CALENDAR_DATE(0,1,1);
#56=LOCAL_TIME(0,0,0.,#57);
#57=COORDINATED_UNIVERSAL_TIME_OFFSET(0,0,.AHEAD.);
#58=PERSON('UNSPECIFIED','dima','UNSPECIFIED',('UNSPECIFIED'),('UNSPECIFIED'),('UNSPECIFIED'));
#59=ORGANIZATION('UNSPECIFIED','UNSPECIFIED','UNSPECIFIED');
#60=PERSON_AND_ORGANIZATION(#58,#59);
#61=PERSON_AND_ORGANIZATION_ROLE('creator');
#62=CC_DESIGN_PERSON_AND_ORGANIZATION_ASSIGNMENT(#60,#61,(#38,#1));
#63=ADVANCED_FACE('',(#621),#623,.F.);
#64=COLOUR_RGB('',0.564705882352941,0.564705882352941,0.564705882352941);
#65=FILL_AREA_STYLE_COLOUR('',#64);
#66=FILL_AREA_STYLE($,(#65));
#67=SURFACE_STYLE_FILL_AREA(#66);
#68=SURFACE_SIDE_STYLE('',(#67));
#69=SURFACE_STYLE_USAGE(.BOTH.,#68);
#70=PRESENTATION_STYLE_ASSIGNMENT((#69));
#71=STYLED_ITEM('',(#70),#63);
#72=ADVANCED_FACE('',(#628),#630,.F.);
#73=COLOUR_RGB('',0.564705882352941,0.564705882352941,0.564705882352941);
#74=FILL_AREA_STYLE_COLOUR('',#73);
#75=FILL_AREA_STYLE($,(#74));
#76=SURFACE_STYLE_FILL_AREA(#75);
#77=SURFACE_SIDE_STYLE('',(#76));
#78=SURFACE_STYLE_USAGE(.BOTH.,#77);
#79=PRESENTATION_STYLE_ASSIGNMENT((#78));
#80=STYLED_ITEM('',(#79),#72);
#81=ADVANCED_FACE('',(#635),#637,.T.);
#82=COLOUR_RGB('',0.564705882352941,0.564705882352941,0.564705882352941);
#83=FILL_AREA_STYLE_COLOUR('',#82);
#84=FILL_AREA_STYLE($,(#83));
#85=SURFACE_STYLE_FILL_AREA(#84);
#86=SURFACE_SIDE_STYLE('',(#85));
#87=SURFACE_STYLE_USAGE(.BOTH.,#86);
#88=PRESENTATION_STYLE_ASSIGNMENT((#87));
#89=STYLED_ITEM('',(#88),#81);
#90=ADVANCED_FACE('',(#642),#644,.T.);
#91=COLOUR_RGB('',0.564705882352941,0.564705882352941,0.564705882352941);
#92=FILL_AREA_STYLE_COLOUR('',#91);
#93=FILL_AREA_STYLE($,(#92));
#94=SURFACE_STYLE_FILL_AREA(#93);
#95=SURFACE_SIDE_STYLE('',(#94));
#96=SURFACE_STYLE_USAGE(.BOTH.,#95);
#97=PRESENTATION_STYLE_ASSIGNMENT((#96));
#98=STYLED_ITEM('',(#97),#90);
#99=ADVANCED_FACE('',(#649),#651,.T.);
#100=COLOUR_RGB('',0.564705882352941,0.564705882352941,0.564705882352941);
#101=FILL_AREA_STYLE_COLOUR('',#100);
#102=FILL_AREA_STYLE($,(#101));
#103=SURFACE_STYLE_FILL_AREA(#102);
#104=SURFACE_SIDE_STYLE('',(#103));
#105=SURFACE_STYLE_USAGE(.BOTH.,#104);
#106=PRESENTATION_STYLE_ASSIGNMENT((#105));
#107=STYLED_ITEM('',(#106),#99);
#108=ADVANCED_FACE('',(#656),#658,.T.);
#109=COLOUR_RGB('',0.564705882352941,0.564705882352941,0.564705882352941);
#110=FILL_AREA_STYLE_COLOUR('',#109);
#111=FILL_AREA_STYLE($,(#110));
#112=SURFACE_STYLE_FILL_AREA(#111);
#113=SURFACE_SIDE_STYLE('',(#112));
#114=SURFACE_STYLE_USAGE(.BOTH.,#113);
#115=PRESENTATION_STYLE_ASSIGNMENT((#114));
#116=STYLED_ITEM('',(#115),#108);
#117=ADVANCED_FACE('',(#663),#665,.T.);
#118=COLOUR_RGB('',0.564705882352941,0.564705882352941,0.564705882352941);
#119=FILL_AREA_STYLE_COLOUR('',#118);
#120=FILL_AREA_STYLE($,(#119));
#121=SURFACE_STYLE_FILL_AREA(#120);
#122=SURFACE_SIDE_STYLE('',(#121));
#123=SURFACE_STYLE_USAGE(.BOTH.,#122);
#124=PRESENTATION_STYLE_ASSIGNMENT((#123));
#125=STYLED_ITEM('',(#124),#117);
#126=ADVANCED_FACE('',(#670),#672,.T.);
#127=COLOUR_RGB('',0.564705882352941,0.564705882352941,0.564705882352941);
#128=FILL_AREA_STYLE_COLOUR('',#127);
#129=FILL_AREA_STYLE($,(#128));
#130=SURFACE_STYLE_FILL_AREA(#129);
#131=SURFACE_SIDE_STYLE('',(#130));
#132=SURFACE_STYLE_USAGE(.BOTH.,#131);
#133=PRESENTATION_STYLE_ASSIGNMENT((#132));
#134=STYLED_ITEM('',(#133),#126);
#135=ADVANCED_FACE('',(#677),#679,.T.);
#136=COLOUR_RGB('',0.564705882352941,0.564705882352941,0.564705882352941);
#137=FILL_AREA_STYLE_COLOUR('',#136);
#138=FILL_AREA_STYLE($,(#137));
#139=SURFACE_STYLE_FILL_AREA(#138);
#140=SURFACE_SIDE_STYLE('',(#139));
#141=SURFACE_STYLE_USAGE(.BOTH.,#140);
#142=PRESENTATION_STYLE_ASSIGNMENT((#141));
#143=STYLED_ITEM('',(#142),#135);
#144=ADVANCED_FACE('',(#684),#686,.T.);
#145=COLOUR_RGB('',0.564705882352941,0.564705882352941,0.564705882352941);
#146=FILL_AREA_STYLE_COLOUR('',#145);
#147=FILL_AREA_STYLE($,(#146));
#148=SURFACE_STYLE_FILL_AREA(#147);
#149=SURFACE_SIDE_STYLE('',(#148));
#150=SURFACE_STYLE_USAGE(.BOTH.,#149);
#151=PRESENTATION_STYLE_ASSIGNMENT((#150));
#152=STYLED_ITEM('',(#151),#144);
#153=ADVANCED_FACE('',(#691),#693,.T.);
#154=COLOUR_RGB('',0.564705882352941,0.564705882352941,0.564705882352941);
#155=FILL_AREA_STYLE_COLOUR('',#154);
#156=FILL_AREA_STYLE($,(#155));
#157=SURFACE_STYLE_FILL_AREA(#156);
#158=SURFACE_SIDE_STYLE('',(#157));
#159=SURFACE_STYLE_USAGE(.BOTH.,#158);
#160=PRESENTATION_STYLE_ASSIGNMENT((#159));
#161=STYLED_ITEM('',(#160),#153);
#162=ADVANCED_FACE('',(#698),#700,.T.);
#163=COLOUR_RGB('',0.564705882352941,0.564705882352941,0.564705882352941);
#164=FILL_AREA_STYLE_COLOUR('',#163);
#165=FILL_AREA_STYLE($,(#164));
#166=SURFACE_STYLE_FILL_AREA(#165);
#167=SURFACE_SIDE_STYLE('',(#166));
#168=SURFACE_STYLE_USAGE(.BOTH.,#167);
#169=PRESENTATION_STYLE_ASSIGNMENT((#168));
#170=STYLED_ITEM('',(#169),#162);
#171=ADVANCED_FACE('',(#705),#707,.T.);
#172=COLOUR_RGB('',0.564705882352941,0.564705882352941,0.564705882352941);
#173=FILL_AREA_STYLE_COLOUR('',#172);
#174=FILL_AREA_STYLE($,(#173));
#175=SURFACE_STYLE_FILL_AREA(#174);
#176=SURFACE_SIDE_STYLE('',(#175));
#177=SURFACE_STYLE_USAGE(.BOTH.,#176);
#178=PRESENTATION_STYLE_ASSIGNMENT((#177));
#179=STYLED_ITEM('',(#178),#171);
#180=ADVANCED_FACE('',(#712),#714,.F.);
#181=COLOUR_RGB('',0.564705882352941,0.564705882352941,0.564705882352941);
#182=FILL_AREA_STYLE_COLOUR('',#181);
#183=FILL_AREA_STYLE($,(#182));
#184=SURFACE_STYLE_FILL_AREA(#183);
#185=SURFACE_SIDE_STYLE('',(#184));
#186=SURFACE_STYLE_USAGE(.BOTH.,#185);
#187=PRESENTATION_STYLE_ASSIGNMENT((#186));
#188=STYLED_ITEM('',(#187),#180);
#189=ADVANCED_FACE('',(#719),#721,.F.);
#190=COLOUR_RGB('',0.564705882352941,0.564705882352941,0.564705882352941);
#191=FILL_AREA_STYLE_COLOUR('',#190);
#192=FILL_AREA_STYLE($,(#191));
#193=SURFACE_STYLE_FILL_AREA(#192);
#194=SURFACE_SIDE_STYLE('',(#193));
#195=SURFACE_STYLE_USAGE(.BOTH.,#194);
#196=PRESENTATION_STYLE_ASSIGNMENT((#195));
#197=STYLED_ITEM('',(#196),#189);
#198=ADVANCED_FACE('',(#726),#728,.T.);
#199=COLOUR_RGB('',0.564705882352941,0.564705882352941,0.564705882352941);
#200=FILL_AREA_STYLE_COLOUR('',#199);
#201=FILL_AREA_STYLE($,(#200));
#202=SURFACE_STYLE_FILL_AREA(#201);
#203=SURFACE_SIDE_STYLE('',(#202));
#204=SURFACE_STYLE_USAGE(.BOTH.,#203);
#205=PRESENTATION_STYLE_ASSIGNMENT((#204));
#206=STYLED_ITEM('',(#205),#198);
#207=ADVANCED_FACE('',(#733),#735,.F.);
#208=COLOUR_RGB('',0.564705882352941,0.564705882352941,0.564705882352941);
#209=FILL_AREA_STYLE_COLOUR('',#208);
#210=FILL_AREA_STYLE($,(#209));
#211=SURFACE_STYLE_FILL_AREA(#210);
#212=SURFACE_SIDE_STYLE('',(#211));
#213=SURFACE_STYLE_USAGE(.BOTH.,#212);
#214=PRESENTATION_STYLE_ASSIGNMENT((#213));
#215=STYLED_ITEM('',(#214),#207);
#216=ADVANCED_FACE('',(#740),#742,.T.);
#217=COLOUR_RGB('',0.564705882352941,0.564705882352941,0.564705882352941);
#218=FILL_AREA_STYLE_COLOUR('',#217);
#219=FILL_AREA_STYLE($,(#218));
#220=SURFACE_STYLE_FILL_AREA(#219);
#221=SURFACE_SIDE_STYLE('',(#220));
#222=SURFACE_STYLE_USAGE(.BOTH.,#221);
#223=PRESENTATION_STYLE_ASSIGNMENT((#222));
#224=STYLED_ITEM('',(#223),#216);
#225=ADVANCED_FACE('',(#747),#749,.F.);
#226=COLOUR_RGB('',0.564705882352941,0.564705882352941,0.564705882352941);
#227=FILL_AREA_STYLE_COLOUR('',#226);
#228=FILL_AREA_STYLE($,(#227));
#229=SURFACE_STYLE_FILL_AREA(#228);
#230=SURFACE_SIDE_STYLE('',(#229));
#231=SURFACE_STYLE_USAGE(.BOTH.,#230);
#232=PRESENTATION_STYLE_ASSIGNMENT((#231));
#233=STYLED_ITEM('',(#232),#225);
#234=ADVANCED_FACE('',(#754),#756,.F.);
#235=COLOUR_RGB('',0.564705882352941,0.564705882352941,0.564705882352941);
#236=FILL_AREA_STYLE_COLOUR('',#235);
#237=FILL_AREA_STYLE($,(#236));
#238=SURFACE_STYLE_FILL_AREA(#237);
#239=SURFACE_SIDE_STYLE('',(#238));
#240=SURFACE_STYLE_USAGE(.BOTH.,#239);
#241=PRESENTATION_STYLE_ASSIGNMENT((#240));
#242=STYLED_ITEM('',(#241),#234);
#243=ADVANCED_FACE('',(#761),#763,.F.);
#244=COLOUR_RGB('',0.564705882352941,0.564705882352941,0.564705882352941);
#245=FILL_AREA_STYLE_COLOUR('',#244);
#246=FILL_AREA_STYLE($,(#245));
#247=SURFACE_STYLE_FILL_AREA(#246);
#248=SURFACE_SIDE_STYLE('',(#247));
#249=SURFACE_STYLE_USAGE(.BOTH.,#248);
#250=PRESENTATION_STYLE_ASSIGNMENT((#249));
#251=STYLED_ITEM('',(#250),#243);
#252=ADVANCED_FACE('',(#768),#770,.F.);
#253=COLOUR_RGB('',0.564705882352941,0.564705882352941,0.564705882352941);
#254=FILL_AREA_STYLE_COLOUR('',#253);
#255=FILL_AREA_STYLE($,(#254));
#256=SURFACE_STYLE_FILL_AREA(#255);
#257=SURFACE_SIDE_STYLE('',(#256));
#258=SURFACE_STYLE_USAGE(.BOTH.,#257);
#259=PRESENTATION_STYLE_ASSIGNMENT((#258));
#260=STYLED_ITEM('',(#259),#252);
#261=ADVANCED_FACE('',(#775),#777,.F.);
#262=COLOUR_RGB('',0.564705882352941,0.564705882352941,0.564705882352941);
#263=FILL_AREA_STYLE_COLOUR('',#262);
#264=FILL_AREA_STYLE($,(#263));
#265=SURFACE_STYLE_FILL_AREA(#264);
#266=SURFACE_SIDE_STYLE('',(#265));
#267=SURFACE_STYLE_USAGE(.BOTH.,#266);
#268=PRESENTATION_STYLE_ASSIGNMENT((#267));
#269=STYLED_ITEM('',(#268),#261);
#270=ADVANCED_FACE('',(#782),#784,.T.);
#271=COLOUR_RGB('',0.564705882352941,0.564705882352941,0.564705882352941);
#272=FILL_AREA_STYLE_COLOUR('',#271);
#273=FILL_AREA_STYLE($,(#272));
#274=SURFACE_STYLE_FILL_AREA(#273);
#275=SURFACE_SIDE_STYLE('',(#274));
#276=SURFACE_STYLE_USAGE(.BOTH.,#275);
#277=PRESENTATION_STYLE_ASSIGNMENT((#276));
#278=STYLED_ITEM('',(#277),#270);
#279=ADVANCED_FACE('',(#789),#791,.F.);
#280=COLOUR_RGB('',0.564705882352941,0.564705882352941,0.564705882352941);
#281=FILL_AREA_STYLE_COLOUR('',#280);
#282=FILL_AREA_STYLE($,(#281));
#283=SURFACE_STYLE_FILL_AREA(#282);
#284=SURFACE_SIDE_STYLE('',(#283));
#285=SURFACE_STYLE_USAGE(.BOTH.,#284);
#286=PRESENTATION_STYLE_ASSIGNMENT((#285));
#287=STYLED_ITEM('',(#286),#279);
#288=ADVANCED_FACE('',(#796),#798,.F.);
#289=COLOUR_RGB('',0.564705882352941,0.564705882352941,0.564705882352941);
#290=FILL_AREA_STYLE_COLOUR('',#289);
#291=FILL_AREA_STYLE($,(#290));
#292=SURFACE_STYLE_FILL_AREA(#291);
#293=SURFACE_SIDE_STYLE('',(#292));
#294=SURFACE_STYLE_USAGE(.BOTH.,#293);
#295=PRESENTATION_STYLE_ASSIGNMENT((#294));
#296=STYLED_ITEM('',(#295),#288);
#297=ADVANCED_FACE('',(#803),#805,.F.);
#298=COLOUR_RGB('',0.564705882352941,0.564705882352941,0.564705882352941);
#299=FILL_AREA_STYLE_COLOUR('',#298);
#300=FILL_AREA_STYLE($,(#299));
#301=SURFACE_STYLE_FILL_AREA(#300);
#302=SURFACE_SIDE_STYLE('',(#301));
#303=SURFACE_STYLE_USAGE(.BOTH.,#302);
#304=PRESENTATION_STYLE_ASSIGNMENT((#303));
#305=STYLED_ITEM('',(#304),#297);
#306=ADVANCED_FACE('',(#810),#812,.F.);
#307=COLOUR_RGB('',0.564705882352941,0.564705882352941,0.564705882352941);
#308=FILL_AREA_STYLE_COLOUR('',#307);
#309=FILL_AREA_STYLE($,(#308));
#310=SURFACE_STYLE_FILL_AREA(#309);
#311=SURFACE_SIDE_STYLE('',(#310));
#312=SURFACE_STYLE_USAGE(.BOTH.,#311);
#313=PRESENTATION_STYLE_ASSIGNMENT((#312));
#314=STYLED_ITEM('',(#313),#306);
#315=ADVANCED_FACE('',(#817),#819,.F.);
#316=COLOUR_RGB('',0.564705882352941,0.564705882352941,0.564705882352941);
#317=FILL_AREA_STYLE_COLOUR('',#316);
#318=FILL_AREA_STYLE($,(#317));
#319=SURFACE_STYLE_FILL_AREA(#318);
#320=SURFACE_SIDE_STYLE('',(#319));
#321=SURFACE_STYLE_USAGE(.BOTH.,#320);
#322=PRESENTATION_STYLE_ASSIGNMENT((#321));
#323=STYLED_ITEM('',(#322),#315);
#324=ADVANCED_FACE('',(#824),#826,.T.);
#325=COLOUR_RGB('',0.564705882352941,0.564705882352941,0.564705882352941);
#326=FILL_AREA_STYLE_COLOUR('',#325);
#327=FILL_AREA_STYLE($,(#326));
#328=SURFACE_STYLE_FILL_AREA(#327);
#329=SURFACE_SIDE_STYLE('',(#328));
#330=SURFACE_STYLE_USAGE(.BOTH.,#329);
#331=PRESENTATION_STYLE_ASSIGNMENT((#330));
#332=STYLED_ITEM('',(#331),#324);
#333=ADVANCED_FACE('',(#831),#833,.F.);
#334=COLOUR_RGB('',0.564705882352941,0.564705882352941,0.564705882352941);
#335=FILL_AREA_STYLE_COLOUR('',#334);
#336=FILL_AREA_STYLE($,(#335));
#337=SURFACE_STYLE_FILL_AREA(#336);
#338=SURFACE_SIDE_STYLE('',(#337));
#339=SURFACE_STYLE_USAGE(.BOTH.,#338);
#340=PRESENTATION_STYLE_ASSIGNMENT((#339));
#341=STYLED_ITEM('',(#340),#333);
#342=ADVANCED_FACE('',(#838),#840,.F.);
#343=COLOUR_RGB('',0.564705882352941,0.564705882352941,0.564705882352941);
#344=FILL_AREA_STYLE_COLOUR('',#343);
#345=FILL_AREA_STYLE($,(#344));
#346=SURFACE_STYLE_FILL_AREA(#345);
#347=SURFACE_SIDE_STYLE('',(#346));
#348=SURFACE_STYLE_USAGE(.BOTH.,#347);
#349=PRESENTATION_STYLE_ASSIGNMENT((#348));
#350=STYLED_ITEM('',(#349),#342);
#351=ADVANCED_FACE('',(#845),#847,.T.);
#352=COLOUR_RGB('',0.564705882352941,0.564705882352941,0.564705882352941);
#353=FILL_AREA_STYLE_COLOUR('',#352);
#354=FILL_AREA_STYLE($,(#353));
#355=SURFACE_STYLE_FILL_AREA(#354);
#356=SURFACE_SIDE_STYLE('',(#355));
#357=SURFACE_STYLE_USAGE(.BOTH.,#356);
#358=PRESENTATION_STYLE_ASSIGNMENT((#357));
#359=STYLED_ITEM('',(#358),#351);
#360=ADVANCED_FACE('',(#852),#854,.T.);
#361=COLOUR_RGB('',0.564705882352941,0.564705882352941,0.564705882352941);
#362=FILL_AREA_STYLE_COLOUR('',#361);
#363=FILL_AREA_STYLE($,(#362));
#364=SURFACE_STYLE_FILL_AREA(#363);
#365=SURFACE_SIDE_STYLE('',(#364));
#366=SURFACE_STYLE_USAGE(.BOTH.,#365);
#367=PRESENTATION_STYLE_ASSIGNMENT((#366));
#368=STYLED_ITEM('',(#367),#360);
#369=ADVANCED_FACE('',(#859),#861,.T.);
#370=COLOUR_RGB('',0.564705882352941,0.564705882352941,0.564705882352941);
#371=FILL_AREA_STYLE_COLOUR('',#370);
#372=FILL_AREA_STYLE($,(#371));
#373=SURFACE_STYLE_FILL_AREA(#372);
#374=SURFACE_SIDE_STYLE('',(#373));
#375=SURFACE_STYLE_USAGE(.BOTH.,#374);
#376=PRESENTATION_STYLE_ASSIGNMENT((#375));
#377=STYLED_ITEM('',(#376),#369);
#378=ADVANCED_FACE('',(#866),#868,.T.);
#379=COLOUR_RGB('',0.564705882352941,0.564705882352941,0.564705882352941);
#380=FILL_AREA_STYLE_COLOUR('',#379);
#381=FILL_AREA_STYLE($,(#380));
#382=SURFACE_STYLE_FILL_AREA(#381);
#383=SURFACE_SIDE_STYLE('',(#382));
#384=SURFACE_STYLE_USAGE(.BOTH.,#383);
#385=PRESENTATION_STYLE_ASSIGNMENT((#384));
#386=STYLED_ITEM('',(#385),#378);
#387=ADVANCED_FACE('',(#873),#875,.T.);
#388=COLOUR_RGB('',0.564705882352941,0.564705882352941,0.564705882352941);
#389=FILL_AREA_STYLE_COLOUR('',#388);
#390=FILL_AREA_STYLE($,(#389));
#391=SURFACE_STYLE_FILL_AREA(#390);
#392=SURFACE_SIDE_STYLE('',(#391));
#393=SURFACE_STYLE_USAGE(.BOTH.,#392);
#394=PRESENTATION_STYLE_ASSIGNMENT((#393));
#395=STYLED_ITEM('',(#394),#387);
#396=ADVANCED_FACE('',(#880),#882,.F.);
#397=COLOUR_RGB('',0.564705882352941,0.564705882352941,0.564705882352941);
#398=FILL_AREA_STYLE_COLOUR('',#397);
#399=FILL_AREA_STYLE($,(#398));
#400=SURFACE_STYLE_FILL_AREA(#399);
#401=SURFACE_SIDE_STYLE('',(#400));
#402=SURFACE_STYLE_USAGE(.BOTH.,#401);
#403=PRESENTATION_STYLE_ASSIGNMENT((#402));
#404=STYLED_ITEM('',(#403),#396);
#405=ADVANCED_FACE('',(#887),#889,.F.);
#406=COLOUR_RGB('',0.564705882352941,0.564705882352941,0.564705882352941);
#407=FILL_AREA_STYLE_COLOUR('',#406);
#408=FILL_AREA_STYLE($,(#407));
#409=SURFACE_STYLE_FILL_AREA(#408);
#410=SURFACE_SIDE_STYLE('',(#409));
#411=SURFACE_STYLE_USAGE(.BOTH.,#410);
#412=PRESENTATION_STYLE_ASSIGNMENT((#411));
#413=STYLED_ITEM('',(#412),#405);
#414=ADVANCED_FACE('',(#894),#896,.T.);
#415=COLOUR_RGB('',0.564705882352941,0.564705882352941,0.564705882352941);
#416=FILL_AREA_STYLE_COLOUR('',#415);
#417=FILL_AREA_STYLE($,(#416));
#418=SURFACE_STYLE_FILL_AREA(#417);
#419=SURFACE_SIDE_STYLE('',(#418));
#420=SURFACE_STYLE_USAGE(.BOTH.,#419);
#421=PRESENTATION_STYLE_ASSIGNMENT((#420));
#422=STYLED_ITEM('',(#421),#414);
#423=ADVANCED_FACE('',(#901),#903,.T.);
#424=COLOUR_RGB('',0.564705882352941,0.564705882352941,0.564705882352941);
#425=FILL_AREA_STYLE_COLOUR('',#424);
#426=FILL_AREA_STYLE($,(#425));
#427=SURFACE_STYLE_FILL_AREA(#426);
#428=SURFACE_SIDE_STYLE('',(#427));
#429=SURFACE_STYLE_USAGE(.BOTH.,#428);
#430=PRESENTATION_STYLE_ASSIGNMENT((#429));
#431=STYLED_ITEM('',(#430),#423);
#432=ADVANCED_FACE('',(#908),#910,.F.);
#433=COLOUR_RGB('',0.564705882352941,0.564705882352941,0.564705882352941);
#434=FILL_AREA_STYLE_COLOUR('',#433);
#435=FILL_AREA_STYLE($,(#434));
#436=SURFACE_STYLE_FILL_AREA(#435);
#437=SURFACE_SIDE_STYLE('',(#436));
#438=SURFACE_STYLE_USAGE(.BOTH.,#437);
#439=PRESENTATION_STYLE_ASSIGNMENT((#438));
#440=STYLED_ITEM('',(#439),#432);
#441=ADVANCED_FACE('',(#915),#917,.F.);
#442=COLOUR_RGB('',0.564705882352941,0.564705882352941,0.564705882352941);
#443=FILL_AREA_STYLE_COLOUR('',#442);
#444=FILL_AREA_STYLE($,(#443));
#445=SURFACE_STYLE_FILL_AREA(#444);
#446=SURFACE_SIDE_STYLE('',(#445));
#447=SURFACE_STYLE_USAGE(.BOTH.,#446);
#448=PRESENTATION_STYLE_ASSIGNMENT((#447));
#449=STYLED_ITEM('',(#448),#441);
#450=ADVANCED_FACE('',(#922),#924,.F.);
#451=COLOUR_RGB('',0.564705882352941,0.564705882352941,0.564705882352941);
#452=FILL_AREA_STYLE_COLOUR('',#451);
#453=FILL_AREA_STYLE($,(#452));
#454=SURFACE_STYLE_FILL_AREA(#453);
#455=SURFACE_SIDE_STYLE('',(#454));
#456=SURFACE_STYLE_USAGE(.BOTH.,#455);
#457=PRESENTATION_STYLE_ASSIGNMENT((#456));
#458=STYLED_ITEM('',(#457),#450);
#459=ADVANCED_FACE('',(#929),#931,.T.);
#460=COLOUR_RGB('',0.564705882352941,0.564705882352941,0.564705882352941);
#461=FILL_AREA_STYLE_COLOUR('',#460);
#462=FILL_AREA_STYLE($,(#461));
#463=SURFACE_STYLE_FILL_AREA(#462);
#464=SURFACE_SIDE_STYLE('',(#463));
#465=SURFACE_STYLE_USAGE(.BOTH.,#464);
#466=PRESENTATION_STYLE_ASSIGNMENT((#465));
#467=STYLED_ITEM('',(#466),#459);
#468=ADVANCED_FACE('',(#936),#938,.F.);
#469=COLOUR_RGB('',0.564705882352941,0.564705882352941,0.564705882352941);
#470=FILL_AREA_STYLE_COLOUR('',#469);
#471=FILL_AREA_STYLE($,(#470));
#472=SURFACE_STYLE_FILL_AREA(#471);
#473=SURFACE_SIDE_STYLE('',(#472));
#474=SURFACE_STYLE_USAGE(.BOTH.,#473);
#475=PRESENTATION_STYLE_ASSIGNMENT((#474));
#476=STYLED_ITEM('',(#475),#468);
#477=ADVANCED_FACE('',(#943),#945,.F.);
#478=COLOUR_RGB('',0.564705882352941,0.564705882352941,0.564705882352941);
#479=FILL_AREA_STYLE_COLOUR('',#478);
#480=FILL_AREA_STYLE($,(#479));
#481=SURFACE_STYLE_FILL_AREA(#480);
#482=SURFACE_SIDE_STYLE('',(#481));
#483=SURFACE_STYLE_USAGE(.BOTH.,#482);
#484=PRESENTATION_STYLE_ASSIGNMENT((#483));
#485=STYLED_ITEM('',(#484),#477);
#486=ADVANCED_FACE('',(#950),#952,.T.);
#487=COLOUR_RGB('',0.564705882352941,0.564705882352941,0.564705882352941);
#488=FILL_AREA_STYLE_COLOUR('',#487);
#489=FILL_AREA_STYLE($,(#488));
#490=SURFACE_STYLE_FILL_AREA(#489);
#491=SURFACE_SIDE_STYLE('',(#490));
#492=SURFACE_STYLE_USAGE(.BOTH.,#491);
#493=PRESENTATION_STYLE_ASSIGNMENT((#492));
#494=STYLED_ITEM('',(#493),#486);
#495=ADVANCED_FACE('',(#957,#959),#961,.T.);
#496=COLOUR_RGB('',0.564705882352941,0.564705882352941,0.564705882352941);
#497=FILL_AREA_STYLE_COLOUR('',#496);
#498=FILL_AREA_STYLE($,(#497));
#499=SURFACE_STYLE_FILL_AREA(#498);
#500=SURFACE_SIDE_STYLE('',(#499));
#501=SURFACE_STYLE_USAGE(.BOTH.,#500);
#502=PRESENTATION_STYLE_ASSIGNMENT((#501));
#503=STYLED_ITEM('',(#502),#495);
#504=ADVANCED_FACE('',(#966,#968),#970,.F.);
#505=COLOUR_RGB('',0.564705882352941,0.564705882352941,0.564705882352941);
#506=FILL_AREA_STYLE_COLOUR('',#505);
#507=FILL_AREA_STYLE($,(#506));
#508=SURFACE_STYLE_FILL_AREA(#507);
#509=SURFACE_SIDE_STYLE('',(#508));
#510=SURFACE_STYLE_USAGE(.BOTH.,#509);
#511=PRESENTATION_STYLE_ASSIGNMENT((#510));
#512=STYLED_ITEM('',(#511),#504);
#513=ADVANCED_FACE('',(#975),#977,.T.);
#514=COLOUR_RGB('',0.564705882352941,0.564705882352941,0.564705882352941);
#515=FILL_AREA_STYLE_COLOUR('',#514);
#516=FILL_AREA_STYLE($,(#515));
#517=SURFACE_STYLE_FILL_AREA(#516);
#518=SURFACE_SIDE_STYLE('',(#517));
#519=SURFACE_STYLE_USAGE(.BOTH.,#518);
#520=PRESENTATION_STYLE_ASSIGNMENT((#519));
#521=STYLED_ITEM('',(#520),#513);
#522=ADVANCED_FACE('',(#982),#984,.T.);
#523=COLOUR_RGB('',0.564705882352941,0.564705882352941,0.564705882352941);
#524=FILL_AREA_STYLE_COLOUR('',#523);
#525=FILL_AREA_STYLE($,(#524));
#526=SURFACE_STYLE_FILL_AREA(#525);
#527=SURFACE_SIDE_STYLE('',(#526));
#528=SURFACE_STYLE_USAGE(.BOTH.,#527);
#529=PRESENTATION_STYLE_ASSIGNMENT((#528));
#530=STYLED_ITEM('',(#529),#522);
#531=ADVANCED_FACE('',(#989),#991,.T.);
#532=COLOUR_RGB('',0.564705882352941,0.564705882352941,0.564705882352941);
#533=FILL_AREA_STYLE_COLOUR('',#532);
#534=FILL_AREA_STYLE($,(#533));
#535=SURFACE_STYLE_FILL_AREA(#534);
#536=SURFACE_SIDE_STYLE('',(#535));
#537=SURFACE_STYLE_USAGE(.BOTH.,#536);
#538=PRESENTATION_STYLE_ASSIGNMENT((#537));
#539=STYLED_ITEM('',(#538),#531);
#540=ADVANCED_FACE('',(#996),#998,.T.);
#541=COLOUR_RGB('',0.564705882352941,0.564705882352941,0.564705882352941);
#542=FILL_AREA_STYLE_COLOUR('',#541);
#543=FILL_AREA_STYLE($,(#542));
#544=SURFACE_STYLE_FILL_AREA(#543);
#545=SURFACE_SIDE_STYLE('',(#544));
#546=SURFACE_STYLE_USAGE(.BOTH.,#545);
#547=PRESENTATION_STYLE_ASSIGNMENT((#546));
#548=STYLED_ITEM('',(#547),#540);
#549=ADVANCED_FACE('',(#1003),#1005,.F.);
#550=COLOUR_RGB('',0.564705882352941,0.564705882352941,0.564705882352941);
#551=FILL_AREA_STYLE_COLOUR('',#550);
#552=FILL_AREA_STYLE($,(#551));
#553=SURFACE_STYLE_FILL_AREA(#552);
#554=SURFACE_SIDE_STYLE('',(#553));
#555=SURFACE_STYLE_USAGE(.BOTH.,#554);
#556=PRESENTATION_STYLE_ASSIGNMENT((#555));
#557=STYLED_ITEM('',(#556),#549);
#558=ADVANCED_FACE('',(#1010),#1012,.T.);
#559=COLOUR_RGB('',0.564705882352941,0.564705882352941,0.564705882352941);
#560=FILL_AREA_STYLE_COLOUR('',#559);
#561=FILL_AREA_STYLE($,(#560));
#562=SURFACE_STYLE_FILL_AREA(#561);
#563=SURFACE_SIDE_STYLE('',(#562));
#564=SURFACE_STYLE_USAGE(.BOTH.,#563);
#565=PRESENTATION_STYLE_ASSIGNMENT((#564));
#566=STYLED_ITEM('',(#565),#558);
#567=ADVANCED_FACE('',(#1017),#1019,.F.);
#568=COLOUR_RGB('',0.564705882352941,0.564705882352941,0.564705882352941);
#569=FILL_AREA_STYLE_COLOUR('',#568);
#570=FILL_AREA_STYLE($,(#569));
#571=SURFACE_STYLE_FILL_AREA(#570);
#572=SURFACE_SIDE_STYLE('',(#571));
#573=SURFACE_STYLE_USAGE(.BOTH.,#572);
#574=PRESENTATION_STYLE_ASSIGNMENT((#573));
#575=STYLED_ITEM('',(#574),#567);
#576=ADVANCED_FACE('',(#1024),#1026,.T.);
#577=COLOUR_RGB('',0.564705882352941,0.564705882352941,0.564705882352941);
#578=FILL_AREA_STYLE_COLOUR('',#577);
#579=FILL_AREA_STYLE($,(#578));
#580=SURFACE_STYLE_FILL_AREA(#579);
#581=SURFACE_SIDE_STYLE('',(#580));
#582=SURFACE_STYLE_USAGE(.BOTH.,#581);
#583=PRESENTATION_STYLE_ASSIGNMENT((#582));
#584=STYLED_ITEM('',(#583),#576);
#585=ADVANCED_FACE('',(#1031,#1033),#1035,.T.);
#586=COLOUR_RGB('',0.564705882352941,0.564705882352941,0.564705882352941);
#587=FILL_AREA_STYLE_COLOUR('',#586);
#588=FILL_AREA_STYLE($,(#587));
#589=SURFACE_STYLE_FILL_AREA(#588);
#590=SURFACE_SIDE_STYLE('',(#589));
#591=SURFACE_STYLE_USAGE(.BOTH.,#590);
#592=PRESENTATION_STYLE_ASSIGNMENT((#591));
#593=STYLED_ITEM('',(#592),#585);
#594=ADVANCED_FACE('',(#1040),#1042,.T.);
#595=COLOUR_RGB('',0.564705882352941,0.564705882352941,0.564705882352941);
#596=FILL_AREA_STYLE_COLOUR('',#595);
#597=FILL_AREA_STYLE($,(#596));
#598=SURFACE_STYLE_FILL_AREA(#597);
#599=SURFACE_SIDE_STYLE('',(#598));
#600=SURFACE_STYLE_USAGE(.BOTH.,#599);
#601=PRESENTATION_STYLE_ASSIGNMENT((#600));
#602=STYLED_ITEM('',(#601),#594);
#603=ADVANCED_FACE('',(#1047,#1049),#1051,.F.);
#604=COLOUR_RGB('',0.564705882352941,0.564705882352941,0.564705882352941);
#605=FILL_AREA_STYLE_COLOUR('',#604);
#606=FILL_AREA_STYLE($,(#605));
#607=SURFACE_STYLE_FILL_AREA(#606);
#608=SURFACE_SIDE_STYLE('',(#607));
#609=SURFACE_STYLE_USAGE(.BOTH.,#608);
#610=PRESENTATION_STYLE_ASSIGNMENT((#609));
#611=STYLED_ITEM('',(#610),#603);
#612=ADVANCED_FACE('',(#1056),#1058,.F.);
#613=COLOUR_RGB('',0.564705882352941,0.564705882352941,0.564705882352941);
#614=FILL_AREA_STYLE_COLOUR('',#613);
#615=FILL_AREA_STYLE($,(#614));
#616=SURFACE_STYLE_FILL_AREA(#615);
#617=SURFACE_SIDE_STYLE('',(#616));
#618=SURFACE_STYLE_USAGE(.BOTH.,#617);
#619=PRESENTATION_STYLE_ASSIGNMENT((#618));
#620=STYLED_ITEM('',(#619),#612);
#621=FACE_BOUND('',#622,.T.);
#622=EDGE_LOOP('',(#1063,#1064,#1065,#1066,#1067,#1068));
#623=PLANE('',#624);
#624=AXIS2_PLACEMENT_3D('',#625,#626,#627);
#625=CARTESIAN_POINT('',(-50.,48.,-41.5));
#626=DIRECTION('',(0.,-1.,1.71215117050626E-16));
#627=DIRECTION('',(1.,0.,0.));
#628=FACE_BOUND('',#629,.T.);
#629=EDGE_LOOP('',(#1069,#1070,#1071,#1072,#1073,#1074));
#630=PLANE('',#631);
#631=AXIS2_PLACEMENT_3D('',#632,#633,#634);
#632=CARTESIAN_POINT('',(44.,48.,-41.5));
#633=DIRECTION('',(0.,-1.,1.71215117050627E-16));
#634=DIRECTION('',(1.,0.,0.));
#635=FACE_BOUND('',#636,.T.);
#636=EDGE_LOOP('',(#1075,#1076,#1077,#1078,#1079,#1080,#1081,#1082));
#637=PLANE('',#638);
#638=AXIS2_PLACEMENT_3D('',#639,#640,#641);
#639=CARTESIAN_POINT('',(-44.,46.,-44.));
#640=DIRECTION('',(1.,-1.54465812121761E-16,1.54465812121761E-16));
#641=DIRECTION('',(-1.54465812121761E-16,1.71215117050627E-16,1.));
#642=FACE_BOUND('',#643,.T.);
#643=EDGE_LOOP('',(#1083,#1084,#1085,#1086,#1087,#1088,#1089,#1090));
#644=PLANE('',#645);
#645=AXIS2_PLACEMENT_3D('',#646,#647,#648);
#646=CARTESIAN_POINT('',(-50.,50.,-50.));
#647=DIRECTION('',(-1.,0.,0.));
#648=DIRECTION('',(0.,-1.,0.));
#649=FACE_BOUND('',#650,.T.);
#650=EDGE_LOOP('',(#1091,#1092,#1093,#1094,#1095,#1096,#1097,#1098,#1099,#1100,#1101,
#1102,#1103,#1104,#1105,#1106));
#651=PLANE('',#652);
#652=AXIS2_PLACEMENT_3D('',#653,#654,#655);
#653=CARTESIAN_POINT('',(-50.,-50.,-50.));
#654=DIRECTION('',(0.,-1.,0.));
#655=DIRECTION('',(1.,0.,0.));
#656=FACE_BOUND('',#657,.T.);
#657=EDGE_LOOP('',(#1107,#1108,#1109,#1110,#1111,#1112,#1113,#1114));
#658=PLANE('',#659);
#659=AXIS2_PLACEMENT_3D('',#660,#661,#662);
#660=CARTESIAN_POINT('',(50.,-50.,-50.));
#661=DIRECTION('',(1.,0.,0.));
#662=DIRECTION('',(0.,1.,0.));
#663=FACE_BOUND('',#664,.T.);
#664=EDGE_LOOP('',(#1115,#1116,#1117,#1118,#1119,#1120,#1121,#1122));
#665=PLANE('',#666);
#666=AXIS2_PLACEMENT_3D('',#667,#668,#669);
#667=CARTESIAN_POINT('',(44.,46.,-41.5));
#668=DIRECTION('',(-1.,-5.52980262148354E-32,-3.22973970800046E-16));
#669=DIRECTION('',(3.22973970800046E-16,-1.71215117050627E-16,-1.));
#670=FACE_BOUND('',#671,.T.);
#671=EDGE_LOOP('',(#1123,#1124,#1125,#1126));
#672=PLANE('',#673);
#673=AXIS2_PLACEMENT_3D('',#674,#675,#676);
#674=CARTESIAN_POINT('',(47.,-52.005,-1.5));
#675=DIRECTION('',(2.22044604925031E-16,0.,1.));
#676=DIRECTION('',(1.,0.,-2.22044604925031E-16));
#677=FACE_BOUND('',#678,.T.);
#678=EDGE_LOOP('',(#1127,#1128,#1129,#1130));
#679=PLANE('',#680);
#680=AXIS2_PLACEMENT_3D('',#681,#682,#683);
#681=CARTESIAN_POINT('',(47.,-52.005,1.5));
#682=DIRECTION('',(1.,0.,0.));
#683=DIRECTION('',(0.,0.,-1.));
#684=FACE_BOUND('',#685,.T.);
#685=EDGE_LOOP('',(#1131,#1132,#1133,#1134));
#686=PLANE('',#687);
#687=AXIS2_PLACEMENT_3D('',#688,#689,#690);
#688=CARTESIAN_POINT('',(-47.,-52.005,1.5));
#689=DIRECTION('',(0.,0.,1.));
#690=DIRECTION('',(1.,0.,0.));
#691=FACE_BOUND('',#692,.T.);
#692=EDGE_LOOP('',(#1135,#1136,#1137,#1138));
#693=PLANE('',#694);
#694=AXIS2_PLACEMENT_3D('',#695,#696,#697);
#695=CARTESIAN_POINT('',(-47.,-52.005,1.5));
#696=DIRECTION('',(0.,0.,1.));
#697=DIRECTION('',(1.,0.,0.));
#698=FACE_BOUND('',#699,.T.);
#699=EDGE_LOOP('',(#1139,#1140,#1141,#1142));
#700=PLANE('',#701);
#701=AXIS2_PLACEMENT_3D('',#702,#703,#704);
#702=CARTESIAN_POINT('',(-47.,-52.005,-1.5));
#703=DIRECTION('',(-1.,0.,0.));
#704=DIRECTION('',(0.,0.,1.));
#705=FACE_BOUND('',#706,.T.);
#706=EDGE_LOOP('',(#1143,#1144,#1145,#1146));
#707=PLANE('',#708);
#708=AXIS2_PLACEMENT_3D('',#709,#710,#711);
#709=CARTESIAN_POINT('',(-50.,-52.005,-1.5));
#710=DIRECTION('',(0.,0.,1.));
#711=DIRECTION('',(1.,0.,0.));
#712=FACE_BOUND('',#713,.T.);
#713=EDGE_LOOP('',(#1147,#1148,#1149,#1150,#1151,#1152,#1153,#1154,#1155,#1156,#1157,
#1158));
#714=PLANE('',#715);
#715=AXIS2_PLACEMENT_3D('',#716,#717,#718);
#716=CARTESIAN_POINT('',(-50.,-41.5,-41.5));
#717=DIRECTION('',(0.,-6.4205668893985E-17,-1.));
#718=DIRECTION('',(0.,1.,-6.4205668893985E-17));
#719=FACE_BOUND('',#720,.T.);
#720=EDGE_LOOP('',(#1159,#1160,#1161,#1162));
#721=PLANE('',#722);
#722=AXIS2_PLACEMENT_3D('',#723,#724,#725);
#723=CARTESIAN_POINT('',(46.,-56.,-41.5));
#724=DIRECTION('',(0.,0.,-1.));
#725=DIRECTION('',(-1.,0.,0.));
#726=FACE_BOUND('',#727,.T.);
#727=EDGE_LOOP('',(#1163,#1164,#1165,#1166));
#728=PLANE('',#729);
#729=AXIS2_PLACEMENT_3D('',#730,#731,#732);
#730=CARTESIAN_POINT('',(0.,-46.,7.87589538432882E-15));
#731=DIRECTION('',(0.,1.,-1.71215117050627E-16));
#732=DIRECTION('',(-1.,-2.09678045061689E-32,-1.22464679914735E-16));
#733=FACE_BOUND('',#734,.T.);
#734=EDGE_LOOP('',(#1167,#1168,#1169,#1170));
#735=PLANE('',#736);
#736=AXIS2_PLACEMENT_3D('',#737,#738,#739);
#737=CARTESIAN_POINT('',(50.,46.,-44.));
#738=DIRECTION('',(-1.48029736616688E-16,-6.4205668893985E-17,-1.));
#739=DIRECTION('',(0.,-1.,6.4205668893985E-17));
#740=FACE_BOUND('',#741,.T.);
#741=EDGE_LOOP('',(#1171,#1172,#1173,#1174));
#742=PLANE('',#743);
#743=AXIS2_PLACEMENT_3D('',#744,#745,#746);
#744=CARTESIAN_POINT('',(0.,46.,-7.87589538432882E-15));
#745=DIRECTION('',(0.,-1.,1.71215117050627E-16));
#746=DIRECTION('',(1.,0.,0.));
#747=FACE_BOUND('',#748,.T.);
#748=EDGE_LOOP('',(#1175,#1176,#1177,#1178));
#749=PLANE('',#750);
#750=AXIS2_PLACEMENT_3D('',#751,#752,#753);
#751=CARTESIAN_POINT('',(-50.,41.5,-41.5));
#752=DIRECTION('',(0.,1.,-1.71215117050627E-16));
#753=DIRECTION('',(0.,1.71215117050627E-16,1.));
#754=FACE_BOUND('',#755,.T.);
#755=EDGE_LOOP('',(#1179,#1180,#1181,#1182,#1183,#1184,#1185,#1186,#1187,#1188,#1189,
#1190));
#756=PLANE('',#757);
#757=AXIS2_PLACEMENT_3D('',#758,#759,#760);
#758=CARTESIAN_POINT('',(0.,0.,-50.));
#759=DIRECTION('',(0.,0.,1.));
#760=DIRECTION('',(1.,0.,0.));
#761=FACE_BOUND('',#762,.T.);
#762=EDGE_LOOP('',(#1191,#1192,#1193,#1194));
#763=PLANE('',#764);
#764=AXIS2_PLACEMENT_3D('',#765,#766,#767);
#765=CARTESIAN_POINT('',(-50.,-41.5,41.5));
#766=DIRECTION('',(0.,-1.,1.71215117050627E-16));
#767=DIRECTION('',(0.,-1.71215117050627E-16,-1.));
#768=FACE_BOUND('',#769,.T.);
#769=EDGE_LOOP('',(#1195,#1196,#1197,#1198));
#770=PLANE('',#771);
#771=AXIS2_PLACEMENT_3D('',#772,#773,#774);
#772=CARTESIAN_POINT('',(-50.,-41.5,-41.5));
#773=DIRECTION('',(0.,-6.4205668893985E-17,-1.));
#774=DIRECTION('',(0.,1.,-6.4205668893985E-17));
#775=FACE_BOUND('',#776,.T.);
#776=EDGE_LOOP('',(#1199,#1200,#1201,#1202,#1203));
#777=PLANE('',#778);
#778=AXIS2_PLACEMENT_3D('',#779,#780,#781);
#779=CARTESIAN_POINT('',(-55.75,-50.,-37.5));
#780=DIRECTION('',(0.707106781186547,0.707106781186547,0.));
#781=DIRECTION('',(0.,0.,-1.));
#782=FACE_BOUND('',#783,.T.);
#783=EDGE_LOOP('',(#1204,#1205,#1206,#1207,#1208,#1209));
#784=CYLINDRICAL_SURFACE('',#785,1.);
#785=AXIS2_PLACEMENT_3D('',#786,#787,#788);
#786=CARTESIAN_POINT('',(59.75,-49.,-49.));
#787=DIRECTION('',(-1.,0.,0.));
#788=DIRECTION('',(0.,-7.105427357601E-15,-1.));
#789=FACE_BOUND('',#790,.T.);
#790=EDGE_LOOP('',(#1210,#1211,#1212,#1213,#1214));
#791=PLANE('',#792);
#792=AXIS2_PLACEMENT_3D('',#793,#794,#795);
#793=CARTESIAN_POINT('',(56.75,-49.,-37.5));
#794=DIRECTION('',(-0.707106781186553,0.707106781186542,0.));
#795=DIRECTION('',(0.,0.,-1.));
#796=FACE_BOUND('',#797,.T.);
#797=EDGE_LOOP('',(#1215,#1216,#1217,#1218));
#798=PLANE('',#799);
#799=AXIS2_PLACEMENT_3D('',#800,#801,#802);
#800=CARTESIAN_POINT('',(-50.,-41.5,-41.5));
#801=DIRECTION('',(0.,-6.4205668893985E-17,-1.));
#802=DIRECTION('',(0.,1.,-6.4205668893985E-17));
#803=FACE_BOUND('',#804,.T.);
#804=EDGE_LOOP('',(#1219,#1220,#1221,#1222));
#805=PLANE('',#806);
#806=AXIS2_PLACEMENT_3D('',#807,#808,#809);
#807=CARTESIAN_POINT('',(-50.,-41.5,41.5));
#808=DIRECTION('',(0.,-1.,1.71215117050627E-16));
#809=DIRECTION('',(0.,-1.71215117050627E-16,-1.));
#810=FACE_BOUND('',#811,.T.);
#811=EDGE_LOOP('',(#1223,#1224,#1225,#1226));
#812=PLANE('',#813);
#813=AXIS2_PLACEMENT_3D('',#814,#815,#816);
#814=CARTESIAN_POINT('',(-50.,41.5,-41.5));
#815=DIRECTION('',(0.,1.,-1.71215117050627E-16));
#816=DIRECTION('',(0.,1.71215117050627E-16,1.));
#817=FACE_BOUND('',#818,.T.);
#818=EDGE_LOOP('',(#1227,#1228,#1229,#1230));
#819=PLANE('',#820);
#820=AXIS2_PLACEMENT_3D('',#821,#822,#823);
#821=CARTESIAN_POINT('',(56.75,54.,-42.5));
#822=DIRECTION('',(-0.707106781186553,0.,-0.707106781186542));
#823=DIRECTION('',(0.,-1.,0.));
#824=FACE_BOUND('',#825,.T.);
#825=EDGE_LOOP('',(#1231,#1232,#1233,#1234));
#826=PLANE('',#827);
#827=AXIS2_PLACEMENT_3D('',#828,#829,#830);
#828=CARTESIAN_POINT('',(50.,50.,-50.));
#829=DIRECTION('',(0.,1.,0.));
#830=DIRECTION('',(-1.,0.,0.));
#831=FACE_BOUND('',#832,.T.);
#832=EDGE_LOOP('',(#1235,#1236,#1237,#1238));
#833=PLANE('',#834);
#834=AXIS2_PLACEMENT_3D('',#835,#836,#837);
#835=CARTESIAN_POINT('',(-56.75,37.5,-42.5));
#836=DIRECTION('',(0.707106781186547,0.,-0.707106781186547));
#837=DIRECTION('',(0.,1.,0.));
#838=FACE_BOUND('',#839,.T.);
#839=EDGE_LOOP('',(#1239,#1240,#1241,#1242));
#840=PLANE('',#841);
#841=AXIS2_PLACEMENT_3D('',#842,#843,#844);
#842=CARTESIAN_POINT('',(-55.75,41.5,-37.5));
#843=DIRECTION('',(0.707106781186547,0.707106781186547,0.));
#844=DIRECTION('',(0.,0.,-1.));
#845=FACE_BOUND('',#846,.T.);
#846=EDGE_LOOP('',(#1243,#1244,#1245,#1246,#1247,#1248));
#847=CYLINDRICAL_SURFACE('',#848,1.);
#848=AXIS2_PLACEMENT_3D('',#849,#850,#851);
#849=CARTESIAN_POINT('',(-59.75,49.,-49.));
#850=DIRECTION('',(1.,0.,0.));
#851=DIRECTION('',(0.,7.105427357601E-15,-1.));
#852=FACE_BOUND('',#853,.T.);
#853=EDGE_LOOP('',(#1249,#1250,#1251,#1252,#1253));
#854=PLANE('',#855);
#855=AXIS2_PLACEMENT_3D('',#856,#857,#858);
#856=CARTESIAN_POINT('',(56.75,54.,-49.));
#857=DIRECTION('',(0.707106781186547,0.,-0.707106781186547));
#858=DIRECTION('',(0.,-1.,0.));
#859=FACE_BOUND('',#860,.T.);
#860=EDGE_LOOP('',(#1254,#1255,#1256,#1257,#1258));
#861=PLANE('',#862);
#862=AXIS2_PLACEMENT_3D('',#863,#864,#865);
#863=CARTESIAN_POINT('',(56.75,-37.5,-49.));
#864=DIRECTION('',(0.707106781186547,0.,-0.707106781186547));
#865=DIRECTION('',(0.,-1.,0.));
#866=FACE_BOUND('',#867,.T.);
#867=EDGE_LOOP('',(#1259,#1260,#1261,#1262,#1263));
#868=PLANE('',#869);
#869=AXIS2_PLACEMENT_3D('',#870,#871,#872);
#870=CARTESIAN_POINT('',(-56.75,-54.,-49.));
#871=DIRECTION('',(-0.707106781186547,0.,-0.707106781186547));
#872=DIRECTION('',(0.,1.,0.));
#873=FACE_BOUND('',#874,.T.);
#874=EDGE_LOOP('',(#1264,#1265,#1266,#1267,#1268));
#875=PLANE('',#876);
#876=AXIS2_PLACEMENT_3D('',#877,#878,#879);
#877=CARTESIAN_POINT('',(-56.75,37.5,-49.));
#878=DIRECTION('',(-0.707106781186547,0.,-0.707106781186547));
#879=DIRECTION('',(0.,1.,0.));
#880=FACE_BOUND('',#881,.T.);
#881=EDGE_LOOP('',(#1269,#1270,#1271,#1272));
#882=PLANE('',#883);
#883=AXIS2_PLACEMENT_3D('',#884,#885,#886);
#884=CARTESIAN_POINT('',(-56.75,-42.5,-37.5));
#885=DIRECTION('',(0.707106781186547,-0.707106781186547,0.));
#886=DIRECTION('',(0.,0.,-1.));
#887=FACE_BOUND('',#888,.T.);
#888=EDGE_LOOP('',(#1273,#1274,#1275,#1276));
#889=PLANE('',#890);
#890=AXIS2_PLACEMENT_3D('',#891,#892,#893);
#891=CARTESIAN_POINT('',(-56.75,-54.,-42.5));
#892=DIRECTION('',(0.707106781186547,0.,-0.707106781186547));
#893=DIRECTION('',(0.,1.,0.));
#894=FACE_BOUND('',#895,.T.);
#895=EDGE_LOOP('',(#1277,#1278,#1279,#1280));
#896=PLANE('',#897);
#897=AXIS2_PLACEMENT_3D('',#898,#899,#900);
#898=CARTESIAN_POINT('',(-56.75,-50.,-41.5));
#899=DIRECTION('',(-1.,0.,0.));
#900=DIRECTION('',(0.,1.,0.));
#901=FACE_BOUND('',#902,.T.);
#902=EDGE_LOOP('',(#1281,#1282,#1283,#1284));
#903=PLANE('',#904);
#904=AXIS2_PLACEMENT_3D('',#905,#906,#907);
#905=CARTESIAN_POINT('',(56.75,-41.5,-41.5));
#906=DIRECTION('',(1.,0.,0.));
#907=DIRECTION('',(0.,-1.,0.));
#908=FACE_BOUND('',#909,.T.);
#909=EDGE_LOOP('',(#1285,#1286,#1287,#1288));
#910=PLANE('',#911);
#911=AXIS2_PLACEMENT_3D('',#912,#913,#914);
#912=CARTESIAN_POINT('',(56.75,-37.5,-42.5));
#913=DIRECTION('',(-0.707106781186553,0.,-0.707106781186542));
#914=DIRECTION('',(0.,-1.,0.));
#915=FACE_BOUND('',#916,.T.);
#916=EDGE_LOOP('',(#1289,#1290,#1291,#1292));
#917=PLANE('',#918);
#918=AXIS2_PLACEMENT_3D('',#919,#920,#921);
#919=CARTESIAN_POINT('',(55.75,-41.5,-37.5));
#920=DIRECTION('',(-0.707106781186553,-0.707106781186542,6.09005559731893E-16));
#921=DIRECTION('',(-8.61263922133455E-16,0.,-1.));
#922=FACE_BOUND('',#923,.T.);
#923=EDGE_LOOP('',(#1293,#1294,#1295,#1296));
#924=PLANE('',#925);
#925=AXIS2_PLACEMENT_3D('',#926,#927,#928);
#926=CARTESIAN_POINT('',(56.75,42.5,-37.5));
#927=DIRECTION('',(-0.707106781186553,0.707106781186542,0.));
#928=DIRECTION('',(0.,0.,-1.));
#929=FACE_BOUND('',#930,.T.);
#930=EDGE_LOOP('',(#1297,#1298,#1299,#1300));
#931=PLANE('',#932);
#932=AXIS2_PLACEMENT_3D('',#933,#934,#935);
#933=CARTESIAN_POINT('',(56.75,50.,-41.5));
#934=DIRECTION('',(1.,0.,0.));
#935=DIRECTION('',(0.,-1.,0.));
#936=FACE_BOUND('',#937,.T.);
#937=EDGE_LOOP('',(#1301,#1302,#1303,#1304,#1305));
#938=PLANE('',#939);
#939=AXIS2_PLACEMENT_3D('',#940,#941,#942);
#940=CARTESIAN_POINT('',(55.75,50.,-37.5));
#941=DIRECTION('',(-0.707106781186547,-0.707106781186547,0.));
#942=DIRECTION('',(0.,0.,-1.));
#943=FACE_BOUND('',#944,.T.);
#944=EDGE_LOOP('',(#1306,#1307,#1308,#1309,#1310));
#945=PLANE('',#946);
#946=AXIS2_PLACEMENT_3D('',#947,#948,#949);
#947=CARTESIAN_POINT('',(-56.75,49.,-37.5));
#948=DIRECTION('',(0.707106781186553,-0.707106781186542,0.));
#949=DIRECTION('',(0.,0.,-1.));
#950=FACE_BOUND('',#951,.T.);
#951=EDGE_LOOP('',(#1311,#1312,#1313,#1314));
#952=PLANE('',#953);
#953=AXIS2_PLACEMENT_3D('',#954,#955,#956);
#954=CARTESIAN_POINT('',(-56.75,41.5,-41.5));
#955=DIRECTION('',(-1.,0.,0.));
#956=DIRECTION('',(0.,1.,0.));
#957=FACE_BOUND('',#958,.T.);
#958=EDGE_LOOP('',(#1315,#1316,#1317,#1318));
#959=FACE_BOUND('',#960,.T.);
#960=EDGE_LOOP('',(#1319));
#961=PLANE('',#962);
#962=AXIS2_PLACEMENT_3D('',#963,#964,#965);
#963=CARTESIAN_POINT('',(-6.51330841113425E-15,-5.40000000000001,-28.1));
#964=DIRECTION('',(0.,-6.12323399573677E-17,1.));
#965=DIRECTION('',(6.12323399573677E-17,1.,6.12323399573677E-17));
#966=FACE_OUTER_BOUND('',#967,.T.);
#967=EDGE_LOOP('',(#1320));
#968=FACE_OUTER_BOUND('',#969,.T.);
#969=EDGE_LOOP('',(#1321));
#970=CYLINDRICAL_SURFACE('',#971,0.783493649);
#971=AXIS2_PLACEMENT_3D('',#972,#973,#974);
#972=CARTESIAN_POINT('',(-7.82398997654021E-15,8.29999999999999,-38.1));
#973=DIRECTION('',(0.,-6.12323399573677E-17,1.));
#974=DIRECTION('',(1.,0.,0.));
#975=FACE_BOUND('',#976,.T.);
#976=EDGE_LOOP('',(#1322,#1323,#1324,#1325));
#977=PLANE('',#978);
#978=AXIS2_PLACEMENT_3D('',#979,#980,#981);
#979=CARTESIAN_POINT('',(-5.90000000000001,5.89999999999999,-44.));
#980=DIRECTION('',(0.,-1.,-1.11720555937123E-16));
#981=DIRECTION('',(1.,0.,0.));
#982=FACE_BOUND('',#983,.T.);
#983=EDGE_LOOP('',(#1326,#1327,#1328,#1329,#1330,#1331,#1332,#1333));
#984=PLANE('',#985);
#985=AXIS2_PLACEMENT_3D('',#986,#987,#988);
#986=CARTESIAN_POINT('',(5.89999999999999,-21.4,-47.));
#987=DIRECTION('',(1.,-5.55111512312578E-17,0.));
#988=DIRECTION('',(5.55111512312578E-17,1.,5.55111512312578E-17));
#989=FACE_BOUND('',#990,.T.);
#990=EDGE_LOOP('',(#1334,#1335,#1336,#1337));
#991=PLANE('',#992);
#992=AXIS2_PLACEMENT_3D('',#993,#994,#995);
#993=CARTESIAN_POINT('',(5.9,10.6,-47.));
#994=DIRECTION('',(0.,1.,0.));
#995=DIRECTION('',(-1.,0.,0.));
#996=FACE_BOUND('',#997,.T.);
#997=EDGE_LOOP('',(#1338,#1339,#1340,#1341,#1342,#1343,#1344,#1345));
#998=PLANE('',#999);
#999=AXIS2_PLACEMENT_3D('',#1000,#1001,#1002);
#1000=CARTESIAN_POINT('',(-5.90000000000001,10.6,-47.));
#1001=DIRECTION('',(-1.,5.55111512312578E-17,0.));
#1002=DIRECTION('',(-5.55111512312578E-17,-1.,-5.55111512312578E-17));
#1003=FACE_BOUND('',#1004,.T.);
#1004=EDGE_LOOP('',(#1346));
#1005=PLANE('',#1006);
#1006=AXIS2_PLACEMENT_3D('',#1007,#1008,#1009);
#1007=CARTESIAN_POINT('',(-7.82398997654021E-15,8.29999999999999,-38.1));
#1008=DIRECTION('',(0.,6.12323399573677E-17,-1.));
#1009=DIRECTION('',(1.,0.,0.));
#1010=FACE_BOUND('',#1011,.T.);
#1011=EDGE_LOOP('',(#1347,#1348,#1349,#1350));
#1012=PLANE('',#1013);
#1013=AXIS2_PLACEMENT_3D('',#1014,#1015,#1016);
#1014=CARTESIAN_POINT('',(-6.51330841113425E-15,-5.40000000000001,-44.));
#1015=DIRECTION('',(0.,-6.12323399573677E-17,1.));
#1016=DIRECTION('',(6.12323399573677E-17,1.,6.12323399573677E-17));
#1017=FACE_BOUND('',#1018,.T.);
#1018=EDGE_LOOP('',(#1351,#1352,#1353,#1354));
#1019=PLANE('',#1020);
#1020=AXIS2_PLACEMENT_3D('',#1021,#1022,#1023);
#1021=CARTESIAN_POINT('',(-6.51330841113425E-15,-5.40000000000001,-47.));
#1022=DIRECTION('',(0.,-6.12323399573677E-17,1.));
#1023=DIRECTION('',(6.12323399573677E-17,1.,6.12323399573677E-17));
#1024=FACE_BOUND('',#1025,.T.);
#1025=EDGE_LOOP('',(#1355,#1356,#1357,#1358));
#1026=PLANE('',#1027);
#1027=AXIS2_PLACEMENT_3D('',#1028,#1029,#1030);
#1028=CARTESIAN_POINT('',(5.89999999999999,-16.7,-44.));
#1029=DIRECTION('',(0.,1.,1.11720555937123E-16));
#1030=DIRECTION('',(-1.,0.,0.));
#1031=FACE_BOUND('',#1032,.T.);
#1032=EDGE_LOOP('',(#1359,#1360,#1361,#1362));
#1033=FACE_BOUND('',#1034,.T.);
#1034=EDGE_LOOP('',(#1363));
#1035=PLANE('',#1036);
#1036=AXIS2_PLACEMENT_3D('',#1037,#1038,#1039);
#1037=CARTESIAN_POINT('',(-6.51330841113425E-15,-5.40000000000001,-28.1));
#1038=DIRECTION('',(0.,-6.12323399573677E-17,1.));
#1039=DIRECTION('',(6.12323399573677E-17,1.,6.12323399573677E-17));
#1040=FACE_BOUND('',#1041,.T.);
#1041=EDGE_LOOP('',(#1364,#1365,#1366,#1367));
#1042=PLANE('',#1043);
#1043=AXIS2_PLACEMENT_3D('',#1044,#1045,#1046);
#1044=CARTESIAN_POINT('',(-5.90000000000001,-21.4,-47.));
#1045=DIRECTION('',(0.,-1.,0.));
#1046=DIRECTION('',(1.,0.,0.));
#1047=FACE_OUTER_BOUND('',#1048,.T.);
#1048=EDGE_LOOP('',(#1368));
#1049=FACE_OUTER_BOUND('',#1050,.T.);
#1050=EDGE_LOOP('',(#1369));
#1051=CYLINDRICAL_SURFACE('',#1052,0.783493649);
#1052=AXIS2_PLACEMENT_3D('',#1053,#1054,#1055);
#1053=CARTESIAN_POINT('',(-5.39346886846319E-15,-19.088367608534,-38.1));
#1054=DIRECTION('',(0.,-6.12323399573677E-17,1.));
#1055=DIRECTION('',(1.,0.,0.));
#1056=FACE_BOUND('',#1057,.T.);
#1057=EDGE_LOOP('',(#1370));
#1058=PLANE('',#1059);
#1059=AXIS2_PLACEMENT_3D('',#1060,#1061,#1062);
#1060=CARTESIAN_POINT('',(-5.39346886846319E-15,-19.088367608534,-38.1));
#1061=DIRECTION('',(0.,6.12323399573677E-17,-1.));
#1062=DIRECTION('',(1.,0.,0.));
#1063=ORIENTED_EDGE('',*,*,#1371,.T.);
#1064=ORIENTED_EDGE('',*,*,#1372,.T.);
#1065=ORIENTED_EDGE('',*,*,#1373,.T.);
#1066=ORIENTED_EDGE('',*,*,#1374,.F.);
#1067=ORIENTED_EDGE('',*,*,#1375,.T.);
#1068=ORIENTED_EDGE('',*,*,#1376,.F.);
#1069=ORIENTED_EDGE('',*,*,#1377,.T.);
#1070=ORIENTED_EDGE('',*,*,#1378,.T.);
#1071=ORIENTED_EDGE('',*,*,#1379,.T.);
#1072=ORIENTED_EDGE('',*,*,#1380,.F.);
#1073=ORIENTED_EDGE('',*,*,#1381,.T.);
#1074=ORIENTED_EDGE('',*,*,#1382,.F.);
#1075=ORIENTED_EDGE('',*,*,#1383,.T.);
#1076=ORIENTED_EDGE('',*,*,#1384,.T.);
#1077=ORIENTED_EDGE('',*,*,#1385,.T.);
#1078=ORIENTED_EDGE('',*,*,#1386,.T.);
#1079=ORIENTED_EDGE('',*,*,#1387,.T.);
#1080=ORIENTED_EDGE('',*,*,#1388,.T.);
#1081=ORIENTED_EDGE('',*,*,#1389,.T.);
#1082=ORIENTED_EDGE('',*,*,#1374,.T.);
#1083=ORIENTED_EDGE('',*,*,#1390,.T.);
#1084=ORIENTED_EDGE('',*,*,#1376,.T.);
#1085=ORIENTED_EDGE('',*,*,#1391,.T.);
#1086=ORIENTED_EDGE('',*,*,#1392,.F.);
#1087=ORIENTED_EDGE('',*,*,#1393,.T.);
#1088=ORIENTED_EDGE('',*,*,#1394,.F.);
#1089=ORIENTED_EDGE('',*,*,#1395,.T.);
#1090=ORIENTED_EDGE('',*,*,#1396,.T.);
#1091=ORIENTED_EDGE('',*,*,#1397,.T.);
#1092=ORIENTED_EDGE('',*,*,#1396,.F.);
#1093=ORIENTED_EDGE('',*,*,#1398,.T.);
#1094=ORIENTED_EDGE('',*,*,#1399,.T.);
#1095=ORIENTED_EDGE('',*,*,#1400,.F.);
#1096=ORIENTED_EDGE('',*,*,#1401,.F.);
#1097=ORIENTED_EDGE('',*,*,#1402,.T.);
#1098=ORIENTED_EDGE('',*,*,#1403,.T.);
#1099=ORIENTED_EDGE('',*,*,#1404,.T.);
#1100=ORIENTED_EDGE('',*,*,#1405,.T.);
#1101=ORIENTED_EDGE('',*,*,#1406,.T.);
#1102=ORIENTED_EDGE('',*,*,#1407,.F.);
#1103=ORIENTED_EDGE('',*,*,#1408,.T.);
#1104=ORIENTED_EDGE('',*,*,#1384,.F.);
#1105=ORIENTED_EDGE('',*,*,#1409,.T.);
#1106=ORIENTED_EDGE('',*,*,#1410,.T.);
#1107=ORIENTED_EDGE('',*,*,#1411,.T.);
#1108=ORIENTED_EDGE('',*,*,#1403,.F.);
#1109=ORIENTED_EDGE('',*,*,#1412,.T.);
#1110=ORIENTED_EDGE('',*,*,#1413,.F.);
#1111=ORIENTED_EDGE('',*,*,#1414,.T.);
#1112=ORIENTED_EDGE('',*,*,#1415,.F.);
#1113=ORIENTED_EDGE('',*,*,#1416,.T.);
#1114=ORIENTED_EDGE('',*,*,#1380,.T.);
#1115=ORIENTED_EDGE('',*,*,#1417,.T.);
#1116=ORIENTED_EDGE('',*,*,#1382,.T.);
#1117=ORIENTED_EDGE('',*,*,#1418,.T.);
#1118=ORIENTED_EDGE('',*,*,#1419,.T.);
#1119=ORIENTED_EDGE('',*,*,#1420,.T.);
#1120=ORIENTED_EDGE('',*,*,#1421,.T.);
#1121=ORIENTED_EDGE('',*,*,#1422,.T.);
#1122=ORIENTED_EDGE('',*,*,#1407,.T.);
#1123=ORIENTED_EDGE('',*,*,#1411,.F.);
#1124=ORIENTED_EDGE('',*,*,#1379,.F.);
#1125=ORIENTED_EDGE('',*,*,#1423,.F.);
#1126=ORIENTED_EDGE('',*,*,#1404,.F.);
#1127=ORIENTED_EDGE('',*,*,#1405,.F.);
#1128=ORIENTED_EDGE('',*,*,#1423,.T.);
#1129=ORIENTED_EDGE('',*,*,#1378,.F.);
#1130=ORIENTED_EDGE('',*,*,#1424,.F.);
#1131=ORIENTED_EDGE('',*,*,#1417,.F.);
#1132=ORIENTED_EDGE('',*,*,#1406,.F.);
#1133=ORIENTED_EDGE('',*,*,#1424,.T.);
#1134=ORIENTED_EDGE('',*,*,#1377,.F.);
#1135=ORIENTED_EDGE('',*,*,#1409,.F.);
#1136=ORIENTED_EDGE('',*,*,#1383,.F.);
#1137=ORIENTED_EDGE('',*,*,#1373,.F.);
#1138=ORIENTED_EDGE('',*,*,#1425,.F.);
#1139=ORIENTED_EDGE('',*,*,#1410,.F.);
#1140=ORIENTED_EDGE('',*,*,#1425,.T.);
#1141=ORIENTED_EDGE('',*,*,#1372,.F.);
#1142=ORIENTED_EDGE('',*,*,#1426,.F.);
#1143=ORIENTED_EDGE('',*,*,#1397,.F.);
#1144=ORIENTED_EDGE('',*,*,#1426,.T.);
#1145=ORIENTED_EDGE('',*,*,#1371,.F.);
#1146=ORIENTED_EDGE('',*,*,#1390,.F.);
#1147=ORIENTED_EDGE('',*,*,#1416,.F.);
#1148=ORIENTED_EDGE('',*,*,#1427,.F.);
#1149=ORIENTED_EDGE('',*,*,#1428,.F.);
#1150=ORIENTED_EDGE('',*,*,#1429,.F.);
#1151=ORIENTED_EDGE('',*,*,#1430,.F.);
#1152=ORIENTED_EDGE('',*,*,#1431,.F.);
#1153=ORIENTED_EDGE('',*,*,#1391,.F.);
#1154=ORIENTED_EDGE('',*,*,#1375,.F.);
#1155=ORIENTED_EDGE('',*,*,#1389,.F.);
#1156=ORIENTED_EDGE('',*,*,#1432,.F.);
#1157=ORIENTED_EDGE('',*,*,#1418,.F.);
#1158=ORIENTED_EDGE('',*,*,#1381,.F.);
#1159=ORIENTED_EDGE('',*,*,#1422,.F.);
#1160=ORIENTED_EDGE('',*,*,#1433,.F.);
#1161=ORIENTED_EDGE('',*,*,#1385,.F.);
#1162=ORIENTED_EDGE('',*,*,#1408,.F.);
#1163=ORIENTED_EDGE('',*,*,#1421,.F.);
#1164=ORIENTED_EDGE('',*,*,#1434,.F.);
#1165=ORIENTED_EDGE('',*,*,#1386,.F.);
#1166=ORIENTED_EDGE('',*,*,#1433,.T.);
#1167=ORIENTED_EDGE('',*,*,#1420,.F.);
#1168=ORIENTED_EDGE('',*,*,#1435,.T.);
#1169=ORIENTED_EDGE('',*,*,#1387,.F.);
#1170=ORIENTED_EDGE('',*,*,#1434,.T.);
#1171=ORIENTED_EDGE('',*,*,#1419,.F.);
#1172=ORIENTED_EDGE('',*,*,#1432,.T.);
#1173=ORIENTED_EDGE('',*,*,#1388,.F.);
#1174=ORIENTED_EDGE('',*,*,#1435,.F.);
#1175=ORIENTED_EDGE('',*,*,#1431,.T.);
#1176=ORIENTED_EDGE('',*,*,#1436,.T.);
#1177=ORIENTED_EDGE('',*,*,#1437,.F.);
#1178=ORIENTED_EDGE('',*,*,#1392,.T.);
#1179=ORIENTED_EDGE('',*,*,#1438,.T.);
#1180=ORIENTED_EDGE('',*,*,#1439,.T.);
#1181=ORIENTED_EDGE('',*,*,#1440,.T.);
#1182=ORIENTED_EDGE('',*,*,#1414,.F.);
#1183=ORIENTED_EDGE('',*,*,#1441,.T.);
#1184=ORIENTED_EDGE('',*,*,#1442,.T.);
#1185=ORIENTED_EDGE('',*,*,#1443,.T.);
#1186=ORIENTED_EDGE('',*,*,#1444,.T.);
#1187=ORIENTED_EDGE('',*,*,#1445,.T.);
#1188=ORIENTED_EDGE('',*,*,#1393,.F.);
#1189=ORIENTED_EDGE('',*,*,#1437,.T.);
#1190=ORIENTED_EDGE('',*,*,#1446,.T.);
#1191=ORIENTED_EDGE('',*,*,#1394,.T.);
#1192=ORIENTED_EDGE('',*,*,#1445,.F.);
#1193=ORIENTED_EDGE('',*,*,#1447,.F.);
#1194=ORIENTED_EDGE('',*,*,#1448,.T.);
#1195=ORIENTED_EDGE('',*,*,#1395,.F.);
#1196=ORIENTED_EDGE('',*,*,#1448,.F.);
#1197=ORIENTED_EDGE('',*,*,#1449,.F.);
#1198=ORIENTED_EDGE('',*,*,#1398,.F.);
#1199=ORIENTED_EDGE('',*,*,#1450,.F.);
#1200=ORIENTED_EDGE('',*,*,#1399,.F.);
#1201=ORIENTED_EDGE('',*,*,#1451,.T.);
#1202=ORIENTED_EDGE('',*,*,#1452,.T.);
#1203=ORIENTED_EDGE('',*,*,#1453,.F.);
#1204=ORIENTED_EDGE('',*,*,#1400,.T.);
#1205=ORIENTED_EDGE('',*,*,#1450,.T.);
#1206=ORIENTED_EDGE('',*,*,#1454,.T.);
#1207=ORIENTED_EDGE('',*,*,#1443,.F.);
#1208=ORIENTED_EDGE('',*,*,#1455,.T.);
#1209=ORIENTED_EDGE('',*,*,#1456,.T.);
#1210=ORIENTED_EDGE('',*,*,#1456,.F.);
#1211=ORIENTED_EDGE('',*,*,#1457,.F.);
#1212=ORIENTED_EDGE('',*,*,#1458,.F.);
#1213=ORIENTED_EDGE('',*,*,#1459,.T.);
#1214=ORIENTED_EDGE('',*,*,#1401,.T.);
#1215=ORIENTED_EDGE('',*,*,#1412,.F.);
#1216=ORIENTED_EDGE('',*,*,#1402,.F.);
#1217=ORIENTED_EDGE('',*,*,#1460,.F.);
#1218=ORIENTED_EDGE('',*,*,#1461,.F.);
#1219=ORIENTED_EDGE('',*,*,#1461,.T.);
#1220=ORIENTED_EDGE('',*,*,#1462,.T.);
#1221=ORIENTED_EDGE('',*,*,#1441,.F.);
#1222=ORIENTED_EDGE('',*,*,#1413,.T.);
#1223=ORIENTED_EDGE('',*,*,#1415,.T.);
#1224=ORIENTED_EDGE('',*,*,#1440,.F.);
#1225=ORIENTED_EDGE('',*,*,#1463,.F.);
#1226=ORIENTED_EDGE('',*,*,#1427,.T.);
#1227=ORIENTED_EDGE('',*,*,#1464,.F.);
#1228=ORIENTED_EDGE('',*,*,#1465,.F.);
#1229=ORIENTED_EDGE('',*,*,#1428,.T.);
#1230=ORIENTED_EDGE('',*,*,#1466,.T.);
#1231=ORIENTED_EDGE('',*,*,#1429,.T.);
#1232=ORIENTED_EDGE('',*,*,#1467,.T.);
#1233=ORIENTED_EDGE('',*,*,#1468,.F.);
#1234=ORIENTED_EDGE('',*,*,#1469,.F.);
#1235=ORIENTED_EDGE('',*,*,#1470,.F.);
#1236=ORIENTED_EDGE('',*,*,#1471,.T.);
#1237=ORIENTED_EDGE('',*,*,#1430,.T.);
#1238=ORIENTED_EDGE('',*,*,#1472,.F.);
#1239=ORIENTED_EDGE('',*,*,#1436,.F.);
#1240=ORIENTED_EDGE('',*,*,#1471,.F.);
#1241=ORIENTED_EDGE('',*,*,#1473,.T.);
#1242=ORIENTED_EDGE('',*,*,#1474,.T.);
#1243=ORIENTED_EDGE('',*,*,#1468,.T.);
#1244=ORIENTED_EDGE('',*,*,#1475,.T.);
#1245=ORIENTED_EDGE('',*,*,#1476,.T.);
#1246=ORIENTED_EDGE('',*,*,#1438,.F.);
#1247=ORIENTED_EDGE('',*,*,#1477,.T.);
#1248=ORIENTED_EDGE('',*,*,#1478,.T.);
#1249=ORIENTED_EDGE('',*,*,#1476,.F.);
#1250=ORIENTED_EDGE('',*,*,#1479,.T.);
#1251=ORIENTED_EDGE('',*,*,#1480,.T.);
#1252=ORIENTED_EDGE('',*,*,#1481,.F.);
#1253=ORIENTED_EDGE('',*,*,#1439,.F.);
#1254=ORIENTED_EDGE('',*,*,#1455,.F.);
#1255=ORIENTED_EDGE('',*,*,#1442,.F.);
#1256=ORIENTED_EDGE('',*,*,#1482,.F.);
#1257=ORIENTED_EDGE('',*,*,#1483,.T.);
#1258=ORIENTED_EDGE('',*,*,#1457,.T.);
#1259=ORIENTED_EDGE('',*,*,#1454,.F.);
#1260=ORIENTED_EDGE('',*,*,#1453,.T.);
#1261=ORIENTED_EDGE('',*,*,#1484,.T.);
#1262=ORIENTED_EDGE('',*,*,#1485,.F.);
#1263=ORIENTED_EDGE('',*,*,#1444,.F.);
#1264=ORIENTED_EDGE('',*,*,#1477,.F.);
#1265=ORIENTED_EDGE('',*,*,#1446,.F.);
#1266=ORIENTED_EDGE('',*,*,#1474,.F.);
#1267=ORIENTED_EDGE('',*,*,#1486,.T.);
#1268=ORIENTED_EDGE('',*,*,#1487,.T.);
#1269=ORIENTED_EDGE('',*,*,#1488,.F.);
#1270=ORIENTED_EDGE('',*,*,#1489,.F.);
#1271=ORIENTED_EDGE('',*,*,#1447,.T.);
#1272=ORIENTED_EDGE('',*,*,#1485,.T.);
#1273=ORIENTED_EDGE('',*,*,#1490,.F.);
#1274=ORIENTED_EDGE('',*,*,#1451,.F.);
#1275=ORIENTED_EDGE('',*,*,#1449,.T.);
#1276=ORIENTED_EDGE('',*,*,#1489,.T.);
#1277=ORIENTED_EDGE('',*,*,#1488,.T.);
#1278=ORIENTED_EDGE('',*,*,#1484,.F.);
#1279=ORIENTED_EDGE('',*,*,#1452,.F.);
#1280=ORIENTED_EDGE('',*,*,#1490,.T.);
#1281=ORIENTED_EDGE('',*,*,#1491,.F.);
#1282=ORIENTED_EDGE('',*,*,#1492,.T.);
#1283=ORIENTED_EDGE('',*,*,#1458,.T.);
#1284=ORIENTED_EDGE('',*,*,#1483,.F.);
#1285=ORIENTED_EDGE('',*,*,#1492,.F.);
#1286=ORIENTED_EDGE('',*,*,#1493,.T.);
#1287=ORIENTED_EDGE('',*,*,#1460,.T.);
#1288=ORIENTED_EDGE('',*,*,#1459,.F.);
#1289=ORIENTED_EDGE('',*,*,#1462,.F.);
#1290=ORIENTED_EDGE('',*,*,#1493,.F.);
#1291=ORIENTED_EDGE('',*,*,#1491,.T.);
#1292=ORIENTED_EDGE('',*,*,#1482,.T.);
#1293=ORIENTED_EDGE('',*,*,#1494,.F.);
#1294=ORIENTED_EDGE('',*,*,#1466,.F.);
#1295=ORIENTED_EDGE('',*,*,#1463,.T.);
#1296=ORIENTED_EDGE('',*,*,#1481,.T.);
#1297=ORIENTED_EDGE('',*,*,#1494,.T.);
#1298=ORIENTED_EDGE('',*,*,#1480,.F.);
#1299=ORIENTED_EDGE('',*,*,#1495,.F.);
#1300=ORIENTED_EDGE('',*,*,#1464,.T.);
#1301=ORIENTED_EDGE('',*,*,#1475,.F.);
#1302=ORIENTED_EDGE('',*,*,#1467,.F.);
#1303=ORIENTED_EDGE('',*,*,#1465,.T.);
#1304=ORIENTED_EDGE('',*,*,#1495,.T.);
#1305=ORIENTED_EDGE('',*,*,#1479,.F.);
#1306=ORIENTED_EDGE('',*,*,#1478,.F.);
#1307=ORIENTED_EDGE('',*,*,#1487,.F.);
#1308=ORIENTED_EDGE('',*,*,#1496,.F.);
#1309=ORIENTED_EDGE('',*,*,#1472,.T.);
#1310=ORIENTED_EDGE('',*,*,#1469,.T.);
#1311=ORIENTED_EDGE('',*,*,#1473,.F.);
#1312=ORIENTED_EDGE('',*,*,#1470,.T.);
#1313=ORIENTED_EDGE('',*,*,#1496,.T.);
#1314=ORIENTED_EDGE('',*,*,#1486,.F.);
#1315=ORIENTED_EDGE('',*,*,#1497,.T.);
#1316=ORIENTED_EDGE('',*,*,#1498,.T.);
#1317=ORIENTED_EDGE('',*,*,#1499,.T.);
#1318=ORIENTED_EDGE('',*,*,#1500,.T.);
#1319=ORIENTED_EDGE('',*,*,#1501,.T.);
#1320=ORIENTED_EDGE('',*,*,#1501,.F.);
#1321=ORIENTED_EDGE('',*,*,#1502,.F.);
#1322=ORIENTED_EDGE('',*,*,#1503,.T.);
#1323=ORIENTED_EDGE('',*,*,#1504,.T.);
#1324=ORIENTED_EDGE('',*,*,#1497,.F.);
#1325=ORIENTED_EDGE('',*,*,#1505,.F.);
#1326=ORIENTED_EDGE('',*,*,#1506,.T.);
#1327=ORIENTED_EDGE('',*,*,#1507,.T.);
#1328=ORIENTED_EDGE('',*,*,#1498,.F.);
#1329=ORIENTED_EDGE('',*,*,#1504,.F.);
#1330=ORIENTED_EDGE('',*,*,#1508,.F.);
#1331=ORIENTED_EDGE('',*,*,#1509,.T.);
#1332=ORIENTED_EDGE('',*,*,#1510,.F.);
#1333=ORIENTED_EDGE('',*,*,#1511,.F.);
#1334=ORIENTED_EDGE('',*,*,#1512,.T.);
#1335=ORIENTED_EDGE('',*,*,#1513,.T.);
#1336=ORIENTED_EDGE('',*,*,#1499,.F.);
#1337=ORIENTED_EDGE('',*,*,#1507,.F.);
#1338=ORIENTED_EDGE('',*,*,#1514,.T.);
#1339=ORIENTED_EDGE('',*,*,#1515,.T.);
#1340=ORIENTED_EDGE('',*,*,#1516,.F.);
#1341=ORIENTED_EDGE('',*,*,#1517,.F.);
#1342=ORIENTED_EDGE('',*,*,#1518,.F.);
#1343=ORIENTED_EDGE('',*,*,#1505,.T.);
#1344=ORIENTED_EDGE('',*,*,#1500,.F.);
#1345=ORIENTED_EDGE('',*,*,#1513,.F.);
#1346=ORIENTED_EDGE('',*,*,#1502,.T.);
#1347=ORIENTED_EDGE('',*,*,#1519,.F.);
#1348=ORIENTED_EDGE('',*,*,#1508,.T.);
#1349=ORIENTED_EDGE('',*,*,#1503,.F.);
#1350=ORIENTED_EDGE('',*,*,#1518,.T.);
#1351=ORIENTED_EDGE('',*,*,#1506,.F.);
#1352=ORIENTED_EDGE('',*,*,#1520,.F.);
#1353=ORIENTED_EDGE('',*,*,#1514,.F.);
#1354=ORIENTED_EDGE('',*,*,#1512,.F.);
#1355=ORIENTED_EDGE('',*,*,#1519,.T.);
#1356=ORIENTED_EDGE('',*,*,#1517,.T.);
#1357=ORIENTED_EDGE('',*,*,#1521,.F.);
#1358=ORIENTED_EDGE('',*,*,#1509,.F.);
#1359=ORIENTED_EDGE('',*,*,#1516,.T.);
#1360=ORIENTED_EDGE('',*,*,#1522,.T.);
#1361=ORIENTED_EDGE('',*,*,#1510,.T.);
#1362=ORIENTED_EDGE('',*,*,#1521,.T.);
#1363=ORIENTED_EDGE('',*,*,#1523,.T.);
#1364=ORIENTED_EDGE('',*,*,#1520,.T.);
#1365=ORIENTED_EDGE('',*,*,#1511,.T.);
#1366=ORIENTED_EDGE('',*,*,#1522,.F.);
#1367=ORIENTED_EDGE('',*,*,#1515,.F.);
#1368=ORIENTED_EDGE('',*,*,#1523,.F.);
#1369=ORIENTED_EDGE('',*,*,#1524,.F.);
#1370=ORIENTED_EDGE('',*,*,#1524,.T.);
#1371=EDGE_CURVE('',#1525,#1526,#1527,.F.);
#1372=EDGE_CURVE('',#1526,#1528,#1529,.F.);
#1373=EDGE_CURVE('',#1528,#1530,#1531,.F.);
#1374=EDGE_CURVE('',#1532,#1530,#1533,.T.);
#1375=EDGE_CURVE('',#1532,#1534,#1535,.T.);
#1376=EDGE_CURVE('',#1525,#1534,#1536,.T.);
#1377=EDGE_CURVE('',#1537,#1538,#1539,.F.);
#1378=EDGE_CURVE('',#1538,#1540,#1541,.F.);
#1379=EDGE_CURVE('',#1540,#1542,#1543,.F.);
#1380=EDGE_CURVE('',#1544,#1542,#1545,.T.);
#1381=EDGE_CURVE('',#1544,#1546,#1547,.T.);
#1382=EDGE_CURVE('',#1537,#1546,#1548,.T.);
#1383=EDGE_CURVE('',#1530,#1549,#1550,.T.);
#1384=EDGE_CURVE('',#1549,#1551,#1552,.T.);
#1385=EDGE_CURVE('',#1551,#1553,#1554,.F.);
#1386=EDGE_CURVE('',#1553,#1555,#1556,.T.);
#1387=EDGE_CURVE('',#1555,#1557,#1558,.F.);
#1388=EDGE_CURVE('',#1557,#1559,#1560,.T.);
#1389=EDGE_CURVE('',#1559,#1532,#1561,.F.);
#1390=EDGE_CURVE('',#1562,#1525,#1563,.T.);
#1391=EDGE_CURVE('',#1534,#1564,#1565,.F.);
#1392=EDGE_CURVE('',#1566,#1564,#1567,.T.);
#1393=EDGE_CURVE('',#1566,#1568,#1569,.T.);
#1394=EDGE_CURVE('',#1570,#1568,#1571,.T.);
#1395=EDGE_CURVE('',#1570,#1572,#1573,.F.);
#1396=EDGE_CURVE('',#1572,#1562,#1574,.T.);
#1397=EDGE_CURVE('',#1575,#1562,#1576,.T.);
#1398=EDGE_CURVE('',#1572,#1577,#1578,.T.);
#1399=EDGE_CURVE('',#1577,#1579,#1580,.T.);
#1400=EDGE_CURVE('',#1581,#1579,#1582,.T.);
#1401=EDGE_CURVE('',#1583,#1581,#1584,.T.);
#1402=EDGE_CURVE('',#1583,#1585,#1586,.T.);
#1403=EDGE_CURVE('',#1585,#1587,#1588,.T.);
#1404=EDGE_CURVE('',#1587,#1589,#1590,.T.);
#1405=EDGE_CURVE('',#1589,#1591,#1592,.T.);
#1406=EDGE_CURVE('',#1591,#1593,#1594,.T.);
#1407=EDGE_CURVE('',#1595,#1593,#1596,.T.);
#1408=EDGE_CURVE('',#1595,#1551,#1597,.F.);
#1409=EDGE_CURVE('',#1549,#1598,#1599,.T.);
#1410=EDGE_CURVE('',#1598,#1575,#1600,.T.);
#1411=EDGE_CURVE('',#1542,#1587,#1601,.T.);
#1412=EDGE_CURVE('',#1585,#1602,#1603,.F.);
#1413=EDGE_CURVE('',#1604,#1602,#1605,.T.);
#1414=EDGE_CURVE('',#1604,#1606,#1607,.T.);
#1415=EDGE_CURVE('',#1608,#1606,#1609,.T.);
#1416=EDGE_CURVE('',#1608,#1544,#1610,.F.);
#1417=EDGE_CURVE('',#1593,#1537,#1611,.T.);
#1418=EDGE_CURVE('',#1546,#1612,#1613,.F.);
#1419=EDGE_CURVE('',#1612,#1614,#1615,.T.);
#1420=EDGE_CURVE('',#1614,#1616,#1617,.F.);
#1421=EDGE_CURVE('',#1616,#1618,#1619,.T.);
#1422=EDGE_CURVE('',#1618,#1595,#1620,.F.);
#1423=EDGE_CURVE('',#1589,#1540,#1621,.T.);
#1424=EDGE_CURVE('',#1591,#1538,#1622,.T.);
#1425=EDGE_CURVE('',#1598,#1528,#1623,.T.);
#1426=EDGE_CURVE('',#1575,#1526,#1624,.T.);
#1427=EDGE_CURVE('',#1625,#1608,#1626,.T.);
#1428=EDGE_CURVE('',#1627,#1625,#1628,.T.);
#1429=EDGE_CURVE('',#1629,#1627,#1630,.F.);
#1430=EDGE_CURVE('',#1631,#1629,#1632,.T.);
#1431=EDGE_CURVE('',#1564,#1631,#1633,.T.);
#1432=EDGE_CURVE('',#1612,#1559,#1634,.F.);
#1433=EDGE_CURVE('',#1553,#1618,#1635,.F.);
#1434=EDGE_CURVE('',#1555,#1616,#1636,.F.);
#1435=EDGE_CURVE('',#1614,#1557,#1637,.F.);
#1436=EDGE_CURVE('',#1631,#1638,#1639,.T.);
#1437=EDGE_CURVE('',#1566,#1638,#1640,.T.);
#1438=EDGE_CURVE('',#1641,#1642,#1643,.T.);
#1439=EDGE_CURVE('',#1642,#1644,#1645,.T.);
#1440=EDGE_CURVE('',#1644,#1606,#1646,.T.);
#1441=EDGE_CURVE('',#1604,#1647,#1648,.T.);
#1442=EDGE_CURVE('',#1647,#1649,#1650,.T.);
#1443=EDGE_CURVE('',#1649,#1651,#1652,.T.);
#1444=EDGE_CURVE('',#1651,#1653,#1654,.T.);
#1445=EDGE_CURVE('',#1653,#1568,#1655,.T.);
#1446=EDGE_CURVE('',#1638,#1641,#1656,.T.);
#1447=EDGE_CURVE('',#1657,#1653,#1658,.T.);
#1448=EDGE_CURVE('',#1657,#1570,#1659,.T.);
#1449=EDGE_CURVE('',#1577,#1657,#1660,.T.);
#1450=EDGE_CURVE('',#1579,#1661,#1662,.F.);
#1451=EDGE_CURVE('',#1577,#1663,#1664,.T.);
#1452=EDGE_CURVE('',#1663,#1665,#1666,.T.);
#1453=EDGE_CURVE('',#1661,#1665,#1667,.F.);
#1454=EDGE_CURVE('',#1661,#1651,#1668,.T.);
#1455=EDGE_CURVE('',#1649,#1669,#1670,.F.);
#1456=EDGE_CURVE('',#1669,#1581,#1671,.T.);
#1457=EDGE_CURVE('',#1672,#1669,#1673,.T.);
#1458=EDGE_CURVE('',#1674,#1672,#1675,.T.);
#1459=EDGE_CURVE('',#1674,#1583,#1676,.T.);
#1460=EDGE_CURVE('',#1677,#1583,#1678,.T.);
#1461=EDGE_CURVE('',#1602,#1677,#1679,.T.);
#1462=EDGE_CURVE('',#1677,#1647,#1680,.T.);
#1463=EDGE_CURVE('',#1625,#1644,#1681,.T.);
#1464=EDGE_CURVE('',#1682,#1683,#1684,.T.);
#1465=EDGE_CURVE('',#1627,#1682,#1685,.T.);
#1466=EDGE_CURVE('',#1625,#1683,#1686,.F.);
#1467=EDGE_CURVE('',#1627,#1687,#1688,.T.);
#1468=EDGE_CURVE('',#1689,#1687,#1690,.T.);
#1469=EDGE_CURVE('',#1629,#1689,#1691,.T.);
#1470=EDGE_CURVE('',#1692,#1693,#1694,.T.);
#1471=EDGE_CURVE('',#1692,#1631,#1695,.T.);
#1472=EDGE_CURVE('',#1693,#1629,#1696,.T.);
#1473=EDGE_CURVE('',#1692,#1697,#1698,.T.);
#1474=EDGE_CURVE('',#1697,#1638,#1699,.F.);
#1475=EDGE_CURVE('',#1687,#1700,#1701,.F.);
#1476=EDGE_CURVE('',#1700,#1642,#1702,.T.);
#1477=EDGE_CURVE('',#1641,#1703,#1704,.F.);
#1478=EDGE_CURVE('',#1703,#1689,#1705,.T.);
#1479=EDGE_CURVE('',#1700,#1706,#1707,.F.);
#1480=EDGE_CURVE('',#1706,#1708,#1709,.T.);
#1481=EDGE_CURVE('',#1644,#1708,#1710,.F.);
#1482=EDGE_CURVE('',#1711,#1647,#1712,.F.);
#1483=EDGE_CURVE('',#1711,#1672,#1713,.T.);
#1484=EDGE_CURVE('',#1665,#1714,#1715,.T.);
#1485=EDGE_CURVE('',#1653,#1714,#1716,.F.);
#1486=EDGE_CURVE('',#1697,#1717,#1718,.T.);
#1487=EDGE_CURVE('',#1717,#1703,#1719,.T.);
#1488=EDGE_CURVE('',#1720,#1714,#1721,.T.);
#1489=EDGE_CURVE('',#1657,#1720,#1722,.F.);
#1490=EDGE_CURVE('',#1663,#1720,#1723,.T.);
#1491=EDGE_CURVE('',#1724,#1711,#1725,.T.);
#1492=EDGE_CURVE('',#1724,#1674,#1726,.T.);
#1493=EDGE_CURVE('',#1724,#1677,#1727,.T.);
#1494=EDGE_CURVE('',#1683,#1708,#1728,.T.);
#1495=EDGE_CURVE('',#1682,#1706,#1729,.T.);
#1496=EDGE_CURVE('',#1693,#1717,#1730,.T.);
#1497=EDGE_CURVE('',#1731,#1732,#1733,.T.);
#1498=EDGE_CURVE('',#1732,#1734,#1735,.T.);
#1499=EDGE_CURVE('',#1734,#1736,#1737,.T.);
#1500=EDGE_CURVE('',#1736,#1731,#1738,.T.);
#1501=EDGE_CURVE('',#1739,#1739,#1740,.F.);
#1502=EDGE_CURVE('',#1741,#1741,#1742,.T.);
#1503=EDGE_CURVE('',#1743,#1744,#1745,.T.);
#1504=EDGE_CURVE('',#1744,#1732,#1746,.T.);
#1505=EDGE_CURVE('',#1743,#1731,#1747,.T.);
#1506=EDGE_CURVE('',#1748,#1749,#1750,.T.);
#1507=EDGE_CURVE('',#1749,#1734,#1751,.T.);
#1508=EDGE_CURVE('',#1752,#1744,#1753,.T.);
#1509=EDGE_CURVE('',#1752,#1754,#1755,.T.);
#1510=EDGE_CURVE('',#1756,#1754,#1757,.T.);
#1511=EDGE_CURVE('',#1748,#1756,#1758,.T.);
#1512=EDGE_CURVE('',#1749,#1759,#1760,.T.);
#1513=EDGE_CURVE('',#1759,#1736,#1761,.T.);
#1514=EDGE_CURVE('',#1759,#1762,#1763,.T.);
#1515=EDGE_CURVE('',#1762,#1764,#1765,.T.);
#1516=EDGE_CURVE('',#1766,#1764,#1767,.T.);
#1517=EDGE_CURVE('',#1768,#1766,#1769,.T.);
#1518=EDGE_CURVE('',#1743,#1768,#1770,.T.);
#1519=EDGE_CURVE('',#1752,#1768,#1771,.T.);
#1520=EDGE_CURVE('',#1762,#1748,#1772,.T.);
#1521=EDGE_CURVE('',#1754,#1766,#1773,.T.);
#1522=EDGE_CURVE('',#1764,#1756,#1774,.T.);
#1523=EDGE_CURVE('',#1775,#1775,#1776,.F.);
#1524=EDGE_CURVE('',#1777,#1777,#1778,.T.);
#1525=VERTEX_POINT('',#1779);
#1526=VERTEX_POINT('',#1780);
#1527=LINE('',#1781,#1782);
#1528=VERTEX_POINT('',#1784);
#1529=LINE('',#1785,#1786);
#1530=VERTEX_POINT('',#1788);
#1531=LINE('',#1789,#1790);
#1532=VERTEX_POINT('',#1792);
#1533=LINE('',#1793,#1794);
#1534=VERTEX_POINT('',#1796);
#1535=LINE('',#1797,#1798);
#1536=LINE('',#1800,#1801);
#1537=VERTEX_POINT('',#1803);
#1538=VERTEX_POINT('',#1804);
#1539=LINE('',#1805,#1806);
#1540=VERTEX_POINT('',#1808);
#1541=LINE('',#1809,#1810);
#1542=VERTEX_POINT('',#1812);
#1543=LINE('',#1813,#1814);
#1544=VERTEX_POINT('',#1816);
#1545=LINE('',#1817,#1818);
#1546=VERTEX_POINT('',#1820);
#1547=LINE('',#1821,#1822);
#1548=LINE('',#1824,#1825);
#1549=VERTEX_POINT('',#1827);
#1550=LINE('',#1828,#1829);
#1551=VERTEX_POINT('',#1831);
#1552=LINE('',#1832,#1833);
#1553=VERTEX_POINT('',#1835);
#1554=LINE('',#1836,#1837);
#1555=VERTEX_POINT('',#1839);
#1556=LINE('',#1840,#1841);
#1557=VERTEX_POINT('',#1843);
#1558=LINE('',#1844,#1845);
#1559=VERTEX_POINT('',#1847);
#1560=LINE('',#1848,#1849);
#1561=LINE('',#1851,#1852);
#1562=VERTEX_POINT('',#1854);
#1563=LINE('',#1855,#1856);
#1564=VERTEX_POINT('',#1858);
#1565=LINE('',#1859,#1860);
#1566=VERTEX_POINT('',#1862);
#1567=LINE('',#1863,#1864);
#1568=VERTEX_POINT('',#1866);
#1569=LINE('',#1867,#1868);
#1570=VERTEX_POINT('',#1870);
#1571=LINE('',#1871,#1872);
#1572=VERTEX_POINT('',#1874);
#1573=LINE('',#1875,#1876);
#1574=LINE('',#1878,#1879);
#1575=VERTEX_POINT('',#1881);
#1576=LINE('',#1882,#1883);
#1577=VERTEX_POINT('',#1885);
#1578=LINE('',#1886,#1887);
#1579=VERTEX_POINT('',#1889);
#1580=LINE('',#1890,#1891);
#1581=VERTEX_POINT('',#1893);
#1582=LINE('',#1894,#1895);
#1583=VERTEX_POINT('',#1897);
#1584=LINE('',#1898,#1899);
#1585=VERTEX_POINT('',#1901);
#1586=LINE('',#1902,#1903);
#1587=VERTEX_POINT('',#1905);
#1588=LINE('',#1906,#1907);
#1589=VERTEX_POINT('',#1909);
#1590=LINE('',#1910,#1911);
#1591=VERTEX_POINT('',#1913);
#1592=LINE('',#1914,#1915);
#1593=VERTEX_POINT('',#1917);
#1594=LINE('',#1918,#1919);
#1595=VERTEX_POINT('',#1921);
#1596=LINE('',#1922,#1923);
#1597=LINE('',#1925,#1926);
#1598=VERTEX_POINT('',#1928);
#1599=LINE('',#1929,#1930);
#1600=LINE('',#1932,#1933);
#1601=LINE('',#1935,#1936);
#1602=VERTEX_POINT('',#1938);
#1603=LINE('',#1939,#1940);
#1604=VERTEX_POINT('',#1942);
#1605=LINE('',#1943,#1944);
#1606=VERTEX_POINT('',#1946);
#1607=LINE('',#1947,#1948);
#1608=VERTEX_POINT('',#1950);
#1609=LINE('',#1951,#1952);
#1610=LINE('',#1954,#1955);
#1611=LINE('',#1957,#1958);
#1612=VERTEX_POINT('',#1960);
#1613=LINE('',#1961,#1962);
#1614=VERTEX_POINT('',#1964);
#1615=LINE('',#1965,#1966);
#1616=VERTEX_POINT('',#1968);
#1617=LINE('',#1969,#1970);
#1618=VERTEX_POINT('',#1972);
#1619=LINE('',#1973,#1974);
#1620=LINE('',#1976,#1977);
#1621=LINE('',#1979,#1980);
#1622=LINE('',#1982,#1983);
#1623=LINE('',#1985,#1986);
#1624=LINE('',#1988,#1989);
#1625=VERTEX_POINT('',#1991);
#1626=LINE('',#1992,#1993);
#1627=VERTEX_POINT('',#1995);
#1628=LINE('',#1996,#1997);
#1629=VERTEX_POINT('',#1999);
#1630=LINE('',#2000,#2001);
#1631=VERTEX_POINT('',#2003);
#1632=LINE('',#2004,#2005);
#1633=LINE('',#2007,#2008);
#1634=LINE('',#2010,#2011);
#1635=LINE('',#2013,#2014);
#1636=LINE('',#2016,#2017);
#1637=LINE('',#2019,#2020);
#1638=VERTEX_POINT('',#2022);
#1639=LINE('',#2023,#2024);
#1640=LINE('',#2026,#2027);
#1641=VERTEX_POINT('',#2029);
#1642=VERTEX_POINT('',#2030);
#1643=LINE('',#2031,#2032);
#1644=VERTEX_POINT('',#2034);
#1645=LINE('',#2035,#2036);
#1646=LINE('',#2038,#2039);
#1647=VERTEX_POINT('',#2041);
#1648=LINE('',#2042,#2043);
#1649=VERTEX_POINT('',#2045);
#1650=LINE('',#2046,#2047);
#1651=VERTEX_POINT('',#2049);
#1652=LINE('',#2050,#2051);
#1653=VERTEX_POINT('',#2053);
#1654=LINE('',#2054,#2055);
#1655=LINE('',#2057,#2058);
#1656=LINE('',#2060,#2061);
#1657=VERTEX_POINT('',#2063);
#1658=LINE('',#2064,#2065);
#1659=LINE('',#2067,#2068);
#1660=LINE('',#2070,#2071);
#1661=VERTEX_POINT('',#2073);
#1662=(BOUNDED_CURVE()B_SPLINE_CURVE(3,
(#2074,#2075,#2076,#2077),
.UNSPECIFIED.,.F.,.F.)B_SPLINE_CURVE_WITH_KNOTS((4,4),
(0.,1.),
.UNSPECIFIED.)CURVE()GEOMETRIC_REPRESENTATION_ITEM()RATIONAL_B_SPLINE_CURVE((1.,
0.94925302167419,0.94925302167419,1.))REPRESENTATION_ITEM(''));
#1663=VERTEX_POINT('',#2078);
#1664=LINE('',#2079,#2080);
#1665=VERTEX_POINT('',#2082);
#1666=LINE('',#2083,#2084);
#1667=LINE('',#2086,#2087);
#1668=(BOUNDED_CURVE()B_SPLINE_CURVE(3,
(#2089,#2090,#2091,#2092),
.UNSPECIFIED.,.F.,.F.)B_SPLINE_CURVE_WITH_KNOTS((4,4),
(0.,1.),
.UNSPECIFIED.)CURVE()GEOMETRIC_REPRESENTATION_ITEM()RATIONAL_B_SPLINE_CURVE((1.,
0.949253021674192,0.949253021674192,1.))REPRESENTATION_ITEM(''));
#1669=VERTEX_POINT('',#2093);
#1670=(BOUNDED_CURVE()B_SPLINE_CURVE(3,
(#2094,#2095,#2096,#2097),
.UNSPECIFIED.,.F.,.F.)B_SPLINE_CURVE_WITH_KNOTS((4,4),
(0.,1.),
.UNSPECIFIED.)CURVE()GEOMETRIC_REPRESENTATION_ITEM()RATIONAL_B_SPLINE_CURVE((1.,
0.949253021674192,0.949253021674192,1.))REPRESENTATION_ITEM(''));
#1671=(BOUNDED_CURVE()B_SPLINE_CURVE(3,
(#2098,#2099,#2100,#2101),
.UNSPECIFIED.,.F.,.F.)B_SPLINE_CURVE_WITH_KNOTS((4,4),
(0.,1.),
.UNSPECIFIED.)CURVE()GEOMETRIC_REPRESENTATION_ITEM()RATIONAL_B_SPLINE_CURVE((1.,
0.949253021674191,0.949253021674191,1.))REPRESENTATION_ITEM(''));
#1672=VERTEX_POINT('',#2102);
#1673=LINE('',#2103,#2104);
#1674=VERTEX_POINT('',#2106);
#1675=LINE('',#2107,#2108);
#1676=LINE('',#2110,#2111);
#1677=VERTEX_POINT('',#2113);
#1678=LINE('',#2114,#2115);
#1679=LINE('',#2117,#2118);
#1680=LINE('',#2120,#2121);
#1681=LINE('',#2123,#2124);
#1682=VERTEX_POINT('',#2126);
#1683=VERTEX_POINT('',#2127);
#1684=LINE('',#2128,#2129);
#1685=LINE('',#2131,#2132);
#1686=LINE('',#2134,#2135);
#1687=VERTEX_POINT('',#2137);
#1688=LINE('',#2138,#2139);
#1689=VERTEX_POINT('',#2141);
#1690=LINE('',#2142,#2143);
#1691=LINE('',#2145,#2146);
#1692=VERTEX_POINT('',#2148);
#1693=VERTEX_POINT('',#2149);
#1694=LINE('',#2150,#2151);
#1695=LINE('',#2153,#2154);
#1696=LINE('',#2156,#2157);
#1697=VERTEX_POINT('',#2159);
#1698=LINE('',#2160,#2161);
#1699=LINE('',#2163,#2164);
#1700=VERTEX_POINT('',#2166);
#1701=(BOUNDED_CURVE()B_SPLINE_CURVE(3,
(#2167,#2168,#2169,#2170),
.UNSPECIFIED.,.F.,.F.)B_SPLINE_CURVE_WITH_KNOTS((4,4),
(0.,1.),
.UNSPECIFIED.)CURVE()GEOMETRIC_REPRESENTATION_ITEM()RATIONAL_B_SPLINE_CURVE((1.,
0.94925302167419,0.94925302167419,1.))REPRESENTATION_ITEM(''));
#1702=(BOUNDED_CURVE()B_SPLINE_CURVE(3,
(#2171,#2172,#2173,#2174),
.UNSPECIFIED.,.F.,.F.)B_SPLINE_CURVE_WITH_KNOTS((4,4),
(0.,1.),
.UNSPECIFIED.)CURVE()GEOMETRIC_REPRESENTATION_ITEM()RATIONAL_B_SPLINE_CURVE((1.,
0.949253021674192,0.949253021674192,1.))REPRESENTATION_ITEM(''));
#1703=VERTEX_POINT('',#2175);
#1704=(BOUNDED_CURVE()B_SPLINE_CURVE(3,
(#2176,#2177,#2178,#2179),
.UNSPECIFIED.,.F.,.F.)B_SPLINE_CURVE_WITH_KNOTS((4,4),
(0.,1.),
.UNSPECIFIED.)CURVE()GEOMETRIC_REPRESENTATION_ITEM()RATIONAL_B_SPLINE_CURVE((1.,
0.949253021674192,0.949253021674192,1.))REPRESENTATION_ITEM(''));
#1705=(BOUNDED_CURVE()B_SPLINE_CURVE(3,
(#2180,#2181,#2182,#2183),
.UNSPECIFIED.,.F.,.F.)B_SPLINE_CURVE_WITH_KNOTS((4,4),
(0.,1.),
.UNSPECIFIED.)CURVE()GEOMETRIC_REPRESENTATION_ITEM()RATIONAL_B_SPLINE_CURVE((1.,
0.949253021674191,0.949253021674191,1.))REPRESENTATION_ITEM(''));
#1706=VERTEX_POINT('',#2184);
#1707=LINE('',#2185,#2186);
#1708=VERTEX_POINT('',#2188);
#1709=LINE('',#2189,#2190);
#1710=LINE('',#2192,#2193);
#1711=VERTEX_POINT('',#2195);
#1712=LINE('',#2196,#2197);
#1713=LINE('',#2199,#2200);
#1714=VERTEX_POINT('',#2202);
#1715=LINE('',#2203,#2204);
#1716=LINE('',#2206,#2207);
#1717=VERTEX_POINT('',#2209);
#1718=LINE('',#2210,#2211);
#1719=LINE('',#2213,#2214);
#1720=VERTEX_POINT('',#2216);
#1721=LINE('',#2217,#2218);
#1722=LINE('',#2220,#2221);
#1723=LINE('',#2223,#2224);
#1724=VERTEX_POINT('',#2226);
#1725=LINE('',#2227,#2228);
#1726=LINE('',#2230,#2231);
#1727=LINE('',#2233,#2234);
#1728=LINE('',#2236,#2237);
#1729=LINE('',#2239,#2240);
#1730=LINE('',#2242,#2243);
#1731=VERTEX_POINT('',#2245);
#1732=VERTEX_POINT('',#2246);
#1733=LINE('',#2247,#2248);
#1734=VERTEX_POINT('',#2250);
#1735=LINE('',#2251,#2252);
#1736=VERTEX_POINT('',#2254);
#1737=LINE('',#2255,#2256);
#1738=LINE('',#2258,#2259);
#1739=VERTEX_POINT('',#2261);
#1740=CIRCLE('',#2262,0.783493649);
#1741=VERTEX_POINT('',#2266);
#1742=CIRCLE('',#2267,0.783493649);
#1743=VERTEX_POINT('',#2271);
#1744=VERTEX_POINT('',#2272);
#1745=LINE('',#2273,#2274);
#1746=LINE('',#2276,#2277);
#1747=LINE('',#2279,#2280);
#1748=VERTEX_POINT('',#2282);
#1749=VERTEX_POINT('',#2283);
#1750=LINE('',#2284,#2285);
#1751=LINE('',#2287,#2288);
#1752=VERTEX_POINT('',#2290);
#1753=LINE('',#2291,#2292);
#1754=VERTEX_POINT('',#2294);
#1755=LINE('',#2295,#2296);
#1756=VERTEX_POINT('',#2298);
#1757=LINE('',#2299,#2300);
#1758=LINE('',#2302,#2303);
#1759=VERTEX_POINT('',#2305);
#1760=LINE('',#2306,#2307);
#1761=LINE('',#2309,#2310);
#1762=VERTEX_POINT('',#2312);
#1763=LINE('',#2313,#2314);
#1764=VERTEX_POINT('',#2316);
#1765=LINE('',#2317,#2318);
#1766=VERTEX_POINT('',#2320);
#1767=LINE('',#2321,#2322);
#1768=VERTEX_POINT('',#2324);
#1769=LINE('',#2325,#2326);
#1770=LINE('',#2328,#2329);
#1771=LINE('',#2331,#2332);
#1772=LINE('',#2334,#2335);
#1773=LINE('',#2337,#2338);
#1774=LINE('',#2340,#2341);
#1775=VERTEX_POINT('',#2343);
#1776=CIRCLE('',#2344,0.783493649);
#1777=VERTEX_POINT('',#2348);
#1778=CIRCLE('',#2349,0.783493649);
#1779=CARTESIAN_POINT('',(-50.,48.,-1.50000000000001));
#1780=CARTESIAN_POINT('',(-47.,48.,-1.5));
#1781=CARTESIAN_POINT('',(-47.,48.,-1.5));
#1782=VECTOR('',#1783,1.);
#1783=DIRECTION('',(-1.,0.,0.));
#1784=CARTESIAN_POINT('',(-47.,48.,1.5));
#1785=CARTESIAN_POINT('',(-47.,48.,1.5));
#1786=VECTOR('',#1787,1.);
#1787=DIRECTION('',(0.,0.,-1.));
#1788=CARTESIAN_POINT('',(-44.,48.,1.5));
#1789=CARTESIAN_POINT('',(-44.,48.,1.5));
#1790=VECTOR('',#1791,1.);
#1791=DIRECTION('',(-1.,0.,0.));
#1792=CARTESIAN_POINT('',(-44.,48.,-41.5));
#1793=CARTESIAN_POINT('',(-44.,48.,-41.5));
#1794=VECTOR('',#1795,1.);
#1795=DIRECTION('',(-1.65242496688395E-16,1.65242496688395E-16,1.));
#1796=CARTESIAN_POINT('',(-50.,48.,-41.5));
#1797=CARTESIAN_POINT('',(-44.,48.,-41.5));
#1798=VECTOR('',#1799,1.);
#1799=DIRECTION('',(-1.,0.,0.));
#1800=CARTESIAN_POINT('',(-50.,48.,-1.50000000000001));
#1801=VECTOR('',#1802,1.);
#1802=DIRECTION('',(0.,-1.77635683940025E-16,-1.));
#1803=CARTESIAN_POINT('',(44.,48.,1.49999999999999));
#1804=CARTESIAN_POINT('',(47.,48.,1.5));
#1805=CARTESIAN_POINT('',(47.,48.,1.5));
#1806=VECTOR('',#1807,1.);
#1807=DIRECTION('',(-1.,0.,0.));
#1808=CARTESIAN_POINT('',(47.,48.,-1.5));
#1809=CARTESIAN_POINT('',(47.,48.,-1.5));
#1810=VECTOR('',#1811,1.);
#1811=DIRECTION('',(0.,0.,1.));
#1812=CARTESIAN_POINT('',(50.,48.,-1.5));
#1813=CARTESIAN_POINT('',(50.,48.,-1.5));
#1814=VECTOR('',#1815,1.);
#1815=DIRECTION('',(-1.,0.,1.48029736616688E-16));
#1816=CARTESIAN_POINT('',(50.,48.,-41.5));
#1817=CARTESIAN_POINT('',(50.,48.,-41.5));
#1818=VECTOR('',#1819,1.);
#1819=DIRECTION('',(0.,0.,1.));
#1820=CARTESIAN_POINT('',(44.,48.,-41.5));
#1821=CARTESIAN_POINT('',(50.,48.,-41.5));
#1822=VECTOR('',#1823,1.);
#1823=DIRECTION('',(-1.,0.,0.));
#1824=CARTESIAN_POINT('',(44.,48.,1.49999999999999));
#1825=VECTOR('',#1826,1.);
#1826=DIRECTION('',(3.30484993376791E-16,-1.65242496688395E-16,-1.));
#1827=CARTESIAN_POINT('',(-44.,-50.,1.5));
#1828=CARTESIAN_POINT('',(-44.,48.,1.5));
#1829=VECTOR('',#1830,1.);
#1830=DIRECTION('',(-1.45008721583694E-16,-1.,1.35945676484713E-17));
#1831=CARTESIAN_POINT('',(-44.,-50.,-41.5));
#1832=CARTESIAN_POINT('',(-44.,-50.,1.5));
#1833=VECTOR('',#1834,1.);
#1834=DIRECTION('',(1.65242496688396E-16,0.,-1.));
#1835=CARTESIAN_POINT('',(-44.,-46.,-41.5));
#1836=CARTESIAN_POINT('',(-44.,-46.,-41.5));
#1837=VECTOR('',#1838,1.);
#1838=DIRECTION('',(0.,-1.,0.));
#1839=CARTESIAN_POINT('',(-44.,-46.,-44.));
#1840=CARTESIAN_POINT('',(-44.,-46.,-41.5));
#1841=VECTOR('',#1842,1.);
#1842=DIRECTION('',(0.,0.,-1.));
#1843=CARTESIAN_POINT('',(-44.,46.,-44.));
#1844=CARTESIAN_POINT('',(-44.,46.,-44.));
#1845=VECTOR('',#1846,1.);
#1846=DIRECTION('',(-1.54465812121761E-16,-1.,7.72329060608805E-17));
#1847=CARTESIAN_POINT('',(-44.,46.,-41.5));
#1848=CARTESIAN_POINT('',(-44.,46.,-44.));
#1849=VECTOR('',#1850,1.);
#1850=DIRECTION('',(0.,0.,1.));
#1851=CARTESIAN_POINT('',(-44.,48.,-41.5));
#1852=VECTOR('',#1853,1.);
#1853=DIRECTION('',(0.,-1.,0.));
#1854=CARTESIAN_POINT('',(-50.,-50.,-1.5));
#1855=CARTESIAN_POINT('',(-50.,-50.,-1.5));
#1856=VECTOR('',#1857,1.);
#1857=DIRECTION('',(0.,1.,0.));
#1858=CARTESIAN_POINT('',(-50.,41.5,-41.5));
#1859=CARTESIAN_POINT('',(-50.,41.5,-41.5));
#1860=VECTOR('',#1861,1.);
#1861=DIRECTION('',(0.,1.,1.09314267040015E-15));
#1862=CARTESIAN_POINT('',(-50.,41.5,-50.));
#1863=CARTESIAN_POINT('',(-50.,41.5,-50.));
#1864=VECTOR('',#1865,1.);
#1865=DIRECTION('',(0.,-8.35932630306E-16,1.));
#1866=CARTESIAN_POINT('',(-50.,-41.5,-50.));
#1867=CARTESIAN_POINT('',(-50.,41.5,-50.));
#1868=VECTOR('',#1869,1.);
#1869=DIRECTION('',(0.,-1.,0.));
#1870=CARTESIAN_POINT('',(-50.,-41.5,-41.5));
#1871=CARTESIAN_POINT('',(-50.,-41.5,-41.5));
#1872=VECTOR('',#1873,1.);
#1873=DIRECTION('',(0.,0.,-1.));
#1874=CARTESIAN_POINT('',(-50.,-50.,-41.5));
#1875=CARTESIAN_POINT('',(-50.,-50.,-41.5));
#1876=VECTOR('',#1877,1.);
#1877=DIRECTION('',(0.,1.,0.));
#1878=CARTESIAN_POINT('',(-50.,-50.,-41.5));
#1879=VECTOR('',#1880,1.);
#1880=DIRECTION('',(0.,0.,1.));
#1881=CARTESIAN_POINT('',(-47.,-50.,-1.5));
#1882=CARTESIAN_POINT('',(-47.,-50.,-1.5));
#1883=VECTOR('',#1884,1.);
#1884=DIRECTION('',(-1.,0.,0.));
#1885=CARTESIAN_POINT('',(-55.75,-50.,-41.5));
#1886=CARTESIAN_POINT('',(-50.,-50.,-41.5));
#1887=VECTOR('',#1888,1.);
#1888=DIRECTION('',(-1.,0.,0.));
#1889=CARTESIAN_POINT('',(-55.75,-50.,-49.));
#1890=CARTESIAN_POINT('',(-55.75,-50.,-41.5));
#1891=VECTOR('',#1892,1.);
#1892=DIRECTION('',(0.,0.,-1.));
#1893=CARTESIAN_POINT('',(55.75,-50.,-49.));
#1894=CARTESIAN_POINT('',(55.75,-50.,-49.));
#1895=VECTOR('',#1896,1.);
#1896=DIRECTION('',(-1.,0.,0.));
#1897=CARTESIAN_POINT('',(55.75,-50.,-41.5));
#1898=CARTESIAN_POINT('',(55.75,-50.,-41.5));
#1899=VECTOR('',#1900,1.);
#1900=DIRECTION('',(0.,0.,-1.));
#1901=CARTESIAN_POINT('',(50.,-50.,-41.5));
#1902=CARTESIAN_POINT('',(55.75,-50.,-41.5));
#1903=VECTOR('',#1904,1.);
#1904=DIRECTION('',(-1.,0.,0.));
#1905=CARTESIAN_POINT('',(50.,-50.,-1.5));
#1906=CARTESIAN_POINT('',(50.,-50.,-41.5));
#1907=VECTOR('',#1908,1.);
#1908=DIRECTION('',(0.,0.,1.));
#1909=CARTESIAN_POINT('',(47.,-50.,-1.5));
#1910=CARTESIAN_POINT('',(50.,-50.,-1.5));
#1911=VECTOR('',#1912,1.);
#1912=DIRECTION('',(-1.,0.,1.48029736616688E-16));
#1913=CARTESIAN_POINT('',(47.,-50.,1.5));
#1914=CARTESIAN_POINT('',(47.,-50.,-1.5));
#1915=VECTOR('',#1916,1.);
#1916=DIRECTION('',(0.,0.,1.));
#1917=CARTESIAN_POINT('',(44.,-50.,1.5));
#1918=CARTESIAN_POINT('',(47.,-50.,1.5));
#1919=VECTOR('',#1920,1.);
#1920=DIRECTION('',(-1.,0.,0.));
#1921=CARTESIAN_POINT('',(44.,-50.,-41.5));
#1922=CARTESIAN_POINT('',(44.,-50.,-41.5));
#1923=VECTOR('',#1924,1.);
#1924=DIRECTION('',(-3.30484993376791E-16,0.,1.));
#1925=CARTESIAN_POINT('',(-44.,-50.,-41.5));
#1926=VECTOR('',#1927,1.);
#1927=DIRECTION('',(1.,0.,0.));
#1928=CARTESIAN_POINT('',(-47.,-50.,1.5));
#1929=CARTESIAN_POINT('',(-44.,-50.,1.5));
#1930=VECTOR('',#1931,1.);
#1931=DIRECTION('',(-1.,0.,0.));
#1932=CARTESIAN_POINT('',(-47.,-50.,1.5));
#1933=VECTOR('',#1934,1.);
#1934=DIRECTION('',(0.,0.,-1.));
#1935=CARTESIAN_POINT('',(50.,48.,-1.5));
#1936=VECTOR('',#1937,1.);
#1937=DIRECTION('',(0.,-1.,0.));
#1938=CARTESIAN_POINT('',(50.,-41.5,-41.5));
#1939=CARTESIAN_POINT('',(50.,-41.5,-41.5));
#1940=VECTOR('',#1941,1.);
#1941=DIRECTION('',(-1.671865260612E-15,-1.,0.));
#1942=CARTESIAN_POINT('',(50.,-41.5,-50.));
#1943=CARTESIAN_POINT('',(50.,-41.5,-50.));
#1944=VECTOR('',#1945,1.);
#1945=DIRECTION('',(1.671865260612E-15,0.,1.));
#1946=CARTESIAN_POINT('',(50.,41.5,-50.));
#1947=CARTESIAN_POINT('',(50.,-41.5,-50.));
#1948=VECTOR('',#1949,1.);
#1949=DIRECTION('',(0.,1.,0.));
#1950=CARTESIAN_POINT('',(50.,41.5,-41.5));
#1951=CARTESIAN_POINT('',(50.,41.5,-41.5));
#1952=VECTOR('',#1953,1.);
#1953=DIRECTION('',(-1.67186526061199E-15,8.35932630305997E-16,-1.));
#1954=CARTESIAN_POINT('',(50.,48.,-41.5));
#1955=VECTOR('',#1956,1.);
#1956=DIRECTION('',(2.18628534080031E-15,-1.,1.09314267040015E-15));
#1957=CARTESIAN_POINT('',(44.,-50.,1.5));
#1958=VECTOR('',#1959,1.);
#1959=DIRECTION('',(0.,1.,-1.35945676484713E-17));
#1960=CARTESIAN_POINT('',(44.,46.,-41.5));
#1961=CARTESIAN_POINT('',(44.,46.,-41.5));
#1962=VECTOR('',#1963,1.);
#1963=DIRECTION('',(0.,1.,0.));
#1964=CARTESIAN_POINT('',(44.,46.,-44.));
#1965=CARTESIAN_POINT('',(44.,46.,-41.5));
#1966=VECTOR('',#1967,1.);
#1967=DIRECTION('',(0.,0.,-1.));
#1968=CARTESIAN_POINT('',(44.,-46.,-44.));
#1969=CARTESIAN_POINT('',(44.,-46.,-44.));
#1970=VECTOR('',#1971,1.);
#1971=DIRECTION('',(0.,1.,-7.72329060608805E-17));
#1972=CARTESIAN_POINT('',(44.,-46.,-41.5));
#1973=CARTESIAN_POINT('',(44.,-46.,-44.));
#1974=VECTOR('',#1975,1.);
#1975=DIRECTION('',(0.,0.,1.));
#1976=CARTESIAN_POINT('',(44.,-50.,-41.5));
#1977=VECTOR('',#1978,1.);
#1978=DIRECTION('',(0.,1.,0.));
#1979=CARTESIAN_POINT('',(47.,-50.,-1.5));
#1980=VECTOR('',#1981,1.);
#1981=DIRECTION('',(0.,1.,0.));
#1982=CARTESIAN_POINT('',(47.,-50.,1.5));
#1983=VECTOR('',#1984,1.);
#1984=DIRECTION('',(0.,1.,0.));
#1985=CARTESIAN_POINT('',(-47.,-50.,1.5));
#1986=VECTOR('',#1987,1.);
#1987=DIRECTION('',(0.,1.,0.));
#1988=CARTESIAN_POINT('',(-47.,-50.,-1.5));
#1989=VECTOR('',#1990,1.);
#1990=DIRECTION('',(0.,1.,0.));
#1991=CARTESIAN_POINT('',(55.75,41.5,-41.5));
#1992=CARTESIAN_POINT('',(55.75,41.5,-41.5));
#1993=VECTOR('',#1994,1.);
#1994=DIRECTION('',(-1.,0.,0.));
#1995=CARTESIAN_POINT('',(55.75,50.,-41.5));
#1996=CARTESIAN_POINT('',(55.75,50.,-41.5));
#1997=VECTOR('',#1998,1.);
#1998=DIRECTION('',(0.,-1.,0.));
#1999=CARTESIAN_POINT('',(-55.75,50.,-41.5));
#2000=CARTESIAN_POINT('',(55.75,50.,-41.5));
#2001=VECTOR('',#2002,1.);
#2002=DIRECTION('',(-1.,0.,0.));
#2003=CARTESIAN_POINT('',(-55.75,41.5,-41.5));
#2004=CARTESIAN_POINT('',(-55.75,41.5,-41.5));
#2005=VECTOR('',#2006,1.);
#2006=DIRECTION('',(0.,1.,0.));
#2007=CARTESIAN_POINT('',(-50.,41.5,-41.5));
#2008=VECTOR('',#2009,1.);
#2009=DIRECTION('',(-1.,0.,0.));
#2010=CARTESIAN_POINT('',(-44.,46.,-41.5));
#2011=VECTOR('',#2012,1.);
#2012=DIRECTION('',(1.,-8.07434927000114E-17,0.));
#2013=CARTESIAN_POINT('',(44.,-46.,-41.5));
#2014=VECTOR('',#2015,1.);
#2015=DIRECTION('',(-1.,0.,-8.07434927000114E-17));
#2016=CARTESIAN_POINT('',(44.,-46.,-44.));
#2017=VECTOR('',#2018,1.);
#2018=DIRECTION('',(-1.,-8.07434927000114E-17,8.07434927000114E-17));
#2019=CARTESIAN_POINT('',(-44.,46.,-44.));
#2020=VECTOR('',#2021,1.);
#2021=DIRECTION('',(1.,0.,-1.61486985400023E-16));
#2022=CARTESIAN_POINT('',(-55.75,41.5,-50.));
#2023=CARTESIAN_POINT('',(-55.75,41.5,-41.5));
#2024=VECTOR('',#2025,1.);
#2025=DIRECTION('',(0.,0.,-1.));
#2026=CARTESIAN_POINT('',(-50.,41.5,-50.));
#2027=VECTOR('',#2028,1.);
#2028=DIRECTION('',(-1.,0.,0.));
#2029=CARTESIAN_POINT('',(-55.75,49.,-50.));
#2030=CARTESIAN_POINT('',(55.75,49.,-50.));
#2031=CARTESIAN_POINT('',(-55.75,49.,-50.));
#2032=VECTOR('',#2033,1.);
#2033=DIRECTION('',(1.,-6.37258058977668E-17,0.));
#2034=CARTESIAN_POINT('',(55.75,41.5,-50.));
#2035=CARTESIAN_POINT('',(55.75,49.,-50.));
#2036=VECTOR('',#2037,1.);
#2037=DIRECTION('',(0.,-1.,0.));
#2038=CARTESIAN_POINT('',(55.75,41.5,-50.));
#2039=VECTOR('',#2040,1.);
#2040=DIRECTION('',(-1.,0.,0.));
#2041=CARTESIAN_POINT('',(55.75,-41.5,-50.));
#2042=CARTESIAN_POINT('',(50.,-41.5,-50.));
#2043=VECTOR('',#2044,1.);
#2044=DIRECTION('',(1.,0.,0.));
#2045=CARTESIAN_POINT('',(55.75,-49.,-50.));
#2046=CARTESIAN_POINT('',(55.75,-41.5,-50.));
#2047=VECTOR('',#2048,1.);
#2048=DIRECTION('',(0.,-1.,0.));
#2049=CARTESIAN_POINT('',(-55.75,-49.,-50.));
#2050=CARTESIAN_POINT('',(55.75,-49.,-50.));
#2051=VECTOR('',#2052,1.);
#2052=DIRECTION('',(-1.,6.37258058977668E-17,0.));
#2053=CARTESIAN_POINT('',(-55.75,-41.5,-50.));
#2054=CARTESIAN_POINT('',(-55.75,-49.,-50.));
#2055=VECTOR('',#2056,1.);
#2056=DIRECTION('',(0.,1.,0.));
#2057=CARTESIAN_POINT('',(-55.75,-41.5,-50.));
#2058=VECTOR('',#2059,1.);
#2059=DIRECTION('',(1.,0.,0.));
#2060=CARTESIAN_POINT('',(-55.75,41.5,-50.));
#2061=VECTOR('',#2062,1.);
#2062=DIRECTION('',(0.,1.,0.));
#2063=CARTESIAN_POINT('',(-55.75,-41.5,-41.5));
#2064=CARTESIAN_POINT('',(-55.75,-41.5,-41.5));
#2065=VECTOR('',#2066,1.);
#2066=DIRECTION('',(0.,0.,-1.));
#2067=CARTESIAN_POINT('',(-55.75,-41.5,-41.5));
#2068=VECTOR('',#2069,1.);
#2069=DIRECTION('',(1.,0.,0.));
#2070=CARTESIAN_POINT('',(-55.75,-50.,-41.5));
#2071=VECTOR('',#2072,1.);
#2072=DIRECTION('',(0.,1.,0.));
#2073=CARTESIAN_POINT('',(-56.0428932188135,-49.7071067811865,-49.7071067811865));
#2074=CARTESIAN_POINT('',(-56.0428932188135,-49.7071067811865,-49.7071067811865));
#2075=CARTESIAN_POINT('',(-55.8528504210243,-49.8971495789757,-49.5170639833974));
#2076=CARTESIAN_POINT('',(-55.75,-50.,-49.2687611020647));
#2077=CARTESIAN_POINT('',(-55.75,-50.,-49.));
#2078=CARTESIAN_POINT('',(-56.75,-49.,-42.5));
#2079=CARTESIAN_POINT('',(-55.75,-50.,-41.5));
#2080=VECTOR('',#2081,1.);
#2081=DIRECTION('',(-0.577350269189626,0.577350269189626,-0.577350269189626));
#2082=CARTESIAN_POINT('',(-56.75,-49.,-49.));
#2083=CARTESIAN_POINT('',(-56.75,-49.,-42.5));
#2084=VECTOR('',#2085,1.);
#2085=DIRECTION('',(0.,0.,-1.));
#2086=CARTESIAN_POINT('',(-56.75,-49.,-49.));
#2087=VECTOR('',#2088,1.);
#2088=DIRECTION('',(0.577350269189626,-0.577350269189626,-0.577350269189626));
#2089=CARTESIAN_POINT('',(-56.0428932188135,-49.7071067811865,-49.7071067811865));
#2090=CARTESIAN_POINT('',(-55.8528504210243,-49.5170639833974,-49.8971495789757));
#2091=CARTESIAN_POINT('',(-55.75,-49.2687611020647,-50.));
#2092=CARTESIAN_POINT('',(-55.75,-49.,-50.));
#2093=CARTESIAN_POINT('',(56.0428932188135,-49.7071067811865,-49.7071067811866));
#2094=CARTESIAN_POINT('',(56.0428932188134,-49.7071067811865,-49.7071067811866));
#2095=CARTESIAN_POINT('',(55.8528504210243,-49.5170639833974,-49.8971495789757));
#2096=CARTESIAN_POINT('',(55.75,-49.2687611020647,-50.));
#2097=CARTESIAN_POINT('',(55.75,-49.,-50.));
#2098=CARTESIAN_POINT('',(56.0428932188135,-49.7071067811865,-49.7071067811865));
#2099=CARTESIAN_POINT('',(55.8528504210243,-49.8971495789757,-49.5170639833974));
#2100=CARTESIAN_POINT('',(55.75,-50.,-49.2687611020647));
#2101=CARTESIAN_POINT('',(55.75,-50.,-49.));
#2102=CARTESIAN_POINT('',(56.75,-49.,-49.));
#2103=CARTESIAN_POINT('',(56.75,-49.,-49.));
#2104=VECTOR('',#2105,1.);
#2105=DIRECTION('',(-0.577350269189622,-0.577350269189628,-0.577350269189628));
#2106=CARTESIAN_POINT('',(56.75,-49.,-42.5));
#2107=CARTESIAN_POINT('',(56.75,-49.,-42.5));
#2108=VECTOR('',#2109,1.);
#2109=DIRECTION('',(0.,0.,-1.));
#2110=CARTESIAN_POINT('',(56.75,-49.,-42.5));
#2111=VECTOR('',#2112,1.);
#2112=DIRECTION('',(-0.577350269189623,-0.577350269189627,0.577350269189627));
#2113=CARTESIAN_POINT('',(55.75,-41.5,-41.5));
#2114=CARTESIAN_POINT('',(55.75,-41.5,-41.5));
#2115=VECTOR('',#2116,1.);
#2116=DIRECTION('',(0.,-1.,0.));
#2117=CARTESIAN_POINT('',(50.,-41.5,-41.5));
#2118=VECTOR('',#2119,1.);
#2119=DIRECTION('',(1.,0.,0.));
#2120=CARTESIAN_POINT('',(55.75,-41.5,-41.5));
#2121=VECTOR('',#2122,1.);
#2122=DIRECTION('',(-8.35932630306E-16,0.,-1.));
#2123=CARTESIAN_POINT('',(55.75,41.5,-41.5));
#2124=VECTOR('',#2125,1.);
#2125=DIRECTION('',(0.,0.,-1.));
#2126=CARTESIAN_POINT('',(56.75,49.,-42.5));
#2127=CARTESIAN_POINT('',(56.75,42.5,-42.5));
#2128=CARTESIAN_POINT('',(56.75,49.,-42.5));
#2129=VECTOR('',#2130,1.);
#2130=DIRECTION('',(0.,-1.,0.));
#2131=CARTESIAN_POINT('',(55.75,50.,-41.5));
#2132=VECTOR('',#2133,1.);
#2133=DIRECTION('',(0.577350269189624,-0.577350269189624,-0.577350269189628));
#2134=CARTESIAN_POINT('',(56.75,42.5,-42.5));
#2135=VECTOR('',#2136,1.);
#2136=DIRECTION('',(-0.577350269189622,-0.577350269189626,0.57735026918963));
#2137=CARTESIAN_POINT('',(55.75,50.,-49.));
#2138=CARTESIAN_POINT('',(55.75,50.,-41.5));
#2139=VECTOR('',#2140,1.);
#2140=DIRECTION('',(0.,0.,-1.));
#2141=CARTESIAN_POINT('',(-55.75,50.,-49.));
#2142=CARTESIAN_POINT('',(-55.75,50.,-49.));
#2143=VECTOR('',#2144,1.);
#2144=DIRECTION('',(1.,0.,0.));
#2145=CARTESIAN_POINT('',(-55.75,50.,-41.5));
#2146=VECTOR('',#2147,1.);
#2147=DIRECTION('',(0.,0.,-1.));
#2148=CARTESIAN_POINT('',(-56.75,42.5,-42.5));
#2149=CARTESIAN_POINT('',(-56.75,49.,-42.5));
#2150=CARTESIAN_POINT('',(-56.75,42.5,-42.5));
#2151=VECTOR('',#2152,1.);
#2152=DIRECTION('',(0.,1.,0.));
#2153=CARTESIAN_POINT('',(-56.75,42.5,-42.5));
#2154=VECTOR('',#2155,1.);
#2155=DIRECTION('',(0.577350269189626,-0.577350269189622,0.57735026918963));
#2156=CARTESIAN_POINT('',(-56.75,49.,-42.5));
#2157=VECTOR('',#2158,1.);
#2158=DIRECTION('',(0.577350269189624,0.577350269189624,0.577350269189628));
#2159=CARTESIAN_POINT('',(-56.75,42.5,-49.));
#2160=CARTESIAN_POINT('',(-56.75,42.5,-42.5));
#2161=VECTOR('',#2162,1.);
#2162=DIRECTION('',(0.,0.,-1.));
#2163=CARTESIAN_POINT('',(-55.75,41.5,-50.));
#2164=VECTOR('',#2165,1.);
#2165=DIRECTION('',(-0.577350269189627,0.577350269189623,0.577350269189627));
#2166=CARTESIAN_POINT('',(56.0428932188135,49.7071067811865,-49.7071067811865));
#2167=CARTESIAN_POINT('',(56.0428932188135,49.7071067811865,-49.7071067811865));
#2168=CARTESIAN_POINT('',(55.8528504210243,49.8971495789757,-49.5170639833974));
#2169=CARTESIAN_POINT('',(55.75,50.,-49.2687611020647));
#2170=CARTESIAN_POINT('',(55.75,50.,-49.));
#2171=CARTESIAN_POINT('',(56.0428932188135,49.7071067811865,-49.7071067811865));
#2172=CARTESIAN_POINT('',(55.8528504210243,49.5170639833974,-49.8971495789757));
#2173=CARTESIAN_POINT('',(55.75,49.2687611020647,-50.));
#2174=CARTESIAN_POINT('',(55.75,49.,-50.));
#2175=CARTESIAN_POINT('',(-56.0428932188135,49.7071067811865,-49.7071067811866));
#2176=CARTESIAN_POINT('',(-56.0428932188134,49.7071067811865,-49.7071067811866));
#2177=CARTESIAN_POINT('',(-55.8528504210243,49.5170639833974,-49.8971495789757));
#2178=CARTESIAN_POINT('',(-55.75,49.2687611020647,-50.));
#2179=CARTESIAN_POINT('',(-55.75,49.,-50.));
#2180=CARTESIAN_POINT('',(-56.0428932188135,49.7071067811865,-49.7071067811865));
#2181=CARTESIAN_POINT('',(-55.8528504210243,49.8971495789757,-49.5170639833974));
#2182=CARTESIAN_POINT('',(-55.75,50.,-49.2687611020647));
#2183=CARTESIAN_POINT('',(-55.75,50.,-49.));
#2184=CARTESIAN_POINT('',(56.75,49.,-49.));
#2185=CARTESIAN_POINT('',(56.75,49.,-49.));
#2186=VECTOR('',#2187,1.);
#2187=DIRECTION('',(-0.577350269189626,0.577350269189626,-0.577350269189626));
#2188=CARTESIAN_POINT('',(56.75,42.5,-49.));
#2189=CARTESIAN_POINT('',(56.75,49.,-49.));
#2190=VECTOR('',#2191,1.);
#2191=DIRECTION('',(0.,-1.,0.));
#2192=CARTESIAN_POINT('',(56.75,42.5,-49.));
#2193=VECTOR('',#2194,1.);
#2194=DIRECTION('',(-0.577350269189626,-0.577350269189626,-0.577350269189626));
#2195=CARTESIAN_POINT('',(56.75,-42.5,-49.));
#2196=CARTESIAN_POINT('',(55.75,-41.5,-50.));
#2197=VECTOR('',#2198,1.);
#2198=DIRECTION('',(0.577350269189626,-0.577350269189626,0.577350269189626));
#2199=CARTESIAN_POINT('',(56.75,-42.5,-49.));
#2200=VECTOR('',#2201,1.);
#2201=DIRECTION('',(0.,-1.,0.));
#2202=CARTESIAN_POINT('',(-56.75,-42.5,-49.));
#2203=CARTESIAN_POINT('',(-56.75,-49.,-49.));
#2204=VECTOR('',#2205,1.);
#2205=DIRECTION('',(0.,1.,0.));
#2206=CARTESIAN_POINT('',(-56.75,-42.5,-49.));
#2207=VECTOR('',#2208,1.);
#2208=DIRECTION('',(0.577350269189626,0.577350269189626,-0.577350269189626));
#2209=CARTESIAN_POINT('',(-56.75,49.,-49.));
#2210=CARTESIAN_POINT('',(-56.75,42.5,-49.));
#2211=VECTOR('',#2212,1.);
#2212=DIRECTION('',(0.,1.,0.));
#2213=CARTESIAN_POINT('',(-56.75,49.,-49.));
#2214=VECTOR('',#2215,1.);
#2215=DIRECTION('',(0.577350269189622,0.577350269189628,-0.577350269189628));
#2216=CARTESIAN_POINT('',(-56.75,-42.5,-42.5));
#2217=CARTESIAN_POINT('',(-56.75,-42.5,-42.5));
#2218=VECTOR('',#2219,1.);
#2219=DIRECTION('',(0.,0.,-1.));
#2220=CARTESIAN_POINT('',(-56.75,-42.5,-42.5));
#2221=VECTOR('',#2222,1.);
#2222=DIRECTION('',(0.577350269189626,0.577350269189626,0.577350269189626));
#2223=CARTESIAN_POINT('',(-56.75,-49.,-42.5));
#2224=VECTOR('',#2225,1.);
#2225=DIRECTION('',(0.,1.,0.));
#2226=CARTESIAN_POINT('',(56.75,-42.5,-42.5));
#2227=CARTESIAN_POINT('',(56.75,-42.5,-42.5));
#2228=VECTOR('',#2229,1.);
#2229=DIRECTION('',(0.,0.,-1.));
#2230=CARTESIAN_POINT('',(56.75,-42.5,-42.5));
#2231=VECTOR('',#2232,1.);
#2232=DIRECTION('',(0.,-1.,0.));
#2233=CARTESIAN_POINT('',(56.75,-42.5,-42.5));
#2234=VECTOR('',#2235,1.);
#2235=DIRECTION('',(-0.57735026918962,0.577350269189628,0.577350269189628));
#2236=CARTESIAN_POINT('',(56.75,42.5,-42.5));
#2237=VECTOR('',#2238,1.);
#2238=DIRECTION('',(0.,0.,-1.));
#2239=CARTESIAN_POINT('',(56.75,49.,-42.5));
#2240=VECTOR('',#2241,1.);
#2241=DIRECTION('',(0.,0.,-1.));
#2242=CARTESIAN_POINT('',(-56.75,49.,-42.5));
#2243=VECTOR('',#2244,1.);
#2244=DIRECTION('',(0.,0.,-1.));
#2245=CARTESIAN_POINT('',(-5.90000000000001,5.89999999999999,-28.1));
#2246=CARTESIAN_POINT('',(5.9,5.89999999999999,-28.1));
#2247=CARTESIAN_POINT('',(-5.90000000000001,5.89999999999999,-28.1));
#2248=VECTOR('',#2249,1.);
#2249=DIRECTION('',(1.,0.,0.));
#2250=CARTESIAN_POINT('',(5.9,10.6,-28.1));
#2251=CARTESIAN_POINT('',(5.9,5.89999999999999,-28.1));
#2252=VECTOR('',#2253,1.);
#2253=DIRECTION('',(0.,1.,0.));
#2254=CARTESIAN_POINT('',(-5.90000000000001,10.6,-28.1));
#2255=CARTESIAN_POINT('',(5.9,10.6,-28.1));
#2256=VECTOR('',#2257,1.);
#2257=DIRECTION('',(-1.,0.,0.));
#2258=CARTESIAN_POINT('',(-5.90000000000001,10.6,-28.1));
#2259=VECTOR('',#2260,1.);
#2260=DIRECTION('',(0.,-1.,0.));
#2261=CARTESIAN_POINT('',(0.783493648999992,8.29999999999999,-28.1));
#2262=AXIS2_PLACEMENT_3D('',#2263,#2264,#2265);
#2263=CARTESIAN_POINT('',(-7.82398997654021E-15,8.29999999999999,-28.1));
#2264=DIRECTION('',(0.,-6.12323399573677E-17,1.));
#2265=DIRECTION('',(1.,0.,0.));
#2266=CARTESIAN_POINT('',(0.783493648999992,8.29999999999999,-38.1));
#2267=AXIS2_PLACEMENT_3D('',#2268,#2269,#2270);
#2268=CARTESIAN_POINT('',(-7.82398997654021E-15,8.29999999999999,-38.1));
#2269=DIRECTION('',(0.,-6.12323399573677E-17,1.));
#2270=DIRECTION('',(1.,0.,0.));
#2271=CARTESIAN_POINT('',(-5.90000000000001,5.89999999999999,-44.));
#2272=CARTESIAN_POINT('',(5.89999999999999,5.89999999999999,-44.));
#2273=CARTESIAN_POINT('',(-5.90000000000001,5.89999999999999,-44.));
#2274=VECTOR('',#2275,1.);
#2275=DIRECTION('',(1.,0.,0.));
#2276=CARTESIAN_POINT('',(5.9,5.89999999999999,-44.));
#2277=VECTOR('',#2278,1.);
#2278=DIRECTION('',(0.,-1.11720555937123E-16,1.));
#2279=CARTESIAN_POINT('',(-5.90000000000001,5.89999999999999,-44.));
#2280=VECTOR('',#2281,1.);
#2281=DIRECTION('',(0.,-1.11720555937123E-16,1.));
#2282=CARTESIAN_POINT('',(5.89999999999999,-21.4,-47.));
#2283=CARTESIAN_POINT('',(5.9,10.6,-47.));
#2284=CARTESIAN_POINT('',(5.89999999999999,-21.4,-47.));
#2285=VECTOR('',#2286,1.);
#2286=DIRECTION('',(5.55111512312578E-17,1.,0.));
#2287=CARTESIAN_POINT('',(5.9,10.6,-47.));
#2288=VECTOR('',#2289,1.);
#2289=DIRECTION('',(0.,0.,1.));
#2290=CARTESIAN_POINT('',(5.89999999999999,-16.7,-44.));
#2291=CARTESIAN_POINT('',(5.89999999999999,-16.7,-44.));
#2292=VECTOR('',#2293,1.);
#2293=DIRECTION('',(7.85998601504536E-17,1.,0.));
#2294=CARTESIAN_POINT('',(5.89999999999999,-16.7,-28.1));
#2295=CARTESIAN_POINT('',(5.89999999999999,-16.7,-44.));
#2296=VECTOR('',#2297,1.);
#2297=DIRECTION('',(0.,0.,1.));
#2298=CARTESIAN_POINT('',(5.89999999999999,-21.4,-28.1));
#2299=CARTESIAN_POINT('',(5.89999999999999,-21.4,-28.1));
#2300=VECTOR('',#2301,1.);
#2301=DIRECTION('',(0.,1.,0.));
#2302=CARTESIAN_POINT('',(5.89999999999999,-21.4,-47.));
#2303=VECTOR('',#2304,1.);
#2304=DIRECTION('',(0.,0.,1.));
#2305=CARTESIAN_POINT('',(-5.90000000000001,10.6,-47.));
#2306=CARTESIAN_POINT('',(5.9,10.6,-47.));
#2307=VECTOR('',#2308,1.);
#2308=DIRECTION('',(-1.,0.,0.));
#2309=CARTESIAN_POINT('',(-5.90000000000001,10.6,-47.));
#2310=VECTOR('',#2311,1.);
#2311=DIRECTION('',(0.,0.,1.));
#2312=CARTESIAN_POINT('',(-5.90000000000001,-21.4,-47.));
#2313=CARTESIAN_POINT('',(-5.90000000000001,10.6,-47.));
#2314=VECTOR('',#2315,1.);
#2315=DIRECTION('',(-5.55111512312578E-17,-1.,0.));
#2316=CARTESIAN_POINT('',(-5.90000000000001,-21.4,-28.1));
#2317=CARTESIAN_POINT('',(-5.90000000000001,-21.4,-47.));
#2318=VECTOR('',#2319,1.);
#2319=DIRECTION('',(0.,0.,1.));
#2320=CARTESIAN_POINT('',(-5.90000000000001,-16.7,-28.1));
#2321=CARTESIAN_POINT('',(-5.90000000000001,-16.7,-28.1));
#2322=VECTOR('',#2323,1.);
#2323=DIRECTION('',(0.,-1.,0.));
#2324=CARTESIAN_POINT('',(-5.90000000000001,-16.7,-44.));
#2325=CARTESIAN_POINT('',(-5.90000000000001,-16.7,-44.));
#2326=VECTOR('',#2327,1.);
#2327=DIRECTION('',(0.,0.,1.));
#2328=CARTESIAN_POINT('',(-5.90000000000001,5.89999999999999,-44.));
#2329=VECTOR('',#2330,1.);
#2330=DIRECTION('',(-7.85998601504536E-17,-1.,0.));
#2331=CARTESIAN_POINT('',(5.89999999999999,-16.7,-44.));
#2332=VECTOR('',#2333,1.);
#2333=DIRECTION('',(-1.,0.,0.));
#2334=CARTESIAN_POINT('',(-5.90000000000001,-21.4,-47.));
#2335=VECTOR('',#2336,1.);
#2336=DIRECTION('',(1.,0.,0.));
#2337=CARTESIAN_POINT('',(5.89999999999999,-16.7,-28.1));
#2338=VECTOR('',#2339,1.);
#2339=DIRECTION('',(-1.,0.,0.));
#2340=CARTESIAN_POINT('',(-5.90000000000001,-21.4,-28.1));
#2341=VECTOR('',#2342,1.);
#2342=DIRECTION('',(1.,0.,0.));
#2343=CARTESIAN_POINT('',(0.783493648999995,-19.088367608534,-28.1));
#2344=AXIS2_PLACEMENT_3D('',#2345,#2346,#2347);
#2345=CARTESIAN_POINT('',(-5.39346886846319E-15,-19.088367608534,-28.1));
#2346=DIRECTION('',(0.,-6.12323399573677E-17,1.));
#2347=DIRECTION('',(1.,0.,0.));
#2348=CARTESIAN_POINT('',(0.783493648999995,-19.088367608534,-38.1));
#2349=AXIS2_PLACEMENT_3D('',#2350,#2351,#2352);
#2350=CARTESIAN_POINT('',(-5.39346886846319E-15,-19.088367608534,-38.1));
#2351=DIRECTION('',(0.,-6.12323399573677E-17,1.));
#2352=DIRECTION('',(1.,0.,0.));
ENDSEC;
END-ISO-10303-21;
