ISO-10303-21;
HEADER;
FILE_DESCRIPTION(('STEP AP203'),
    '1');
FILE_NAME('cubesatV2',
    '2026-02-09T18:34:15',
    ('dima'),
    (''),
    'C3D Converter',
    'C3D Toolkit',
    '');
/**/
FILE_SCHEMA(('CONFIG_CONTROL_DESIGN'));
ENDSEC;

DATA;
#1=PRODUCT_DEFINITION('','UNSPECIFIED',#28,#31);
#2=SHAPE_DEFINITION_REPRESENTATION(#26,#3);
#3=SHAPE_REPRESENTATION('NONE',(#4),#8);
#4=AXIS2_PLACEMENT_3D('',#5,#6,#7);
#5=CARTESIAN_POINT('',(0.,0.,0.));
#6=DIRECTION('',(0.,0.,1.));
#7=DIRECTION('',(1.,0.,0.));
#8=(GEOMETRIC_REPRESENTATION_CONTEXT(3)GLOBAL_UNCERTAINTY_ASSIGNED_CONTEXT((#10))
GLOBAL_UNIT_ASSIGNED_CONTEXT((#9,#11,#12))REPRESENTATION_CONTEXT('NONE','NONE'));
#9=(LENGTH_UNIT()NAMED_UNIT(*)SI_UNIT(.MILLI.,.METRE.));
#10=UNCERTAINTY_MEASURE_WITH_UNIT(LENGTH_MEASURE(1.E-5),#9,'NONE','NONE');
#11=(NAMED_UNIT(*)PLANE_ANGLE_UNIT()SI_UNIT($,.RADIAN.));
#12=(NAMED_UNIT(*)SI_UNIT($,.STERADIAN.)SOLID_ANGLE_UNIT());
#13=MANIFOLD_SOLID_BREP('',#14);
#14=CLOSED_SHELL('',(#53,#62,#71,#80,#89,#98,#107,#116,#125,#134,#143,#152,#161,
#170,#179,#188,#197,#206,#215,#224,#233,#242,#251,#260,#269,#278,#287,#296,#305,
#314,#323,#332,#341,#350,#359,#368,#377,#386,#395,#404,#413,#422,#431,#440,#449,
#458,#467,#476));
#15=COLOUR_RGB('',0.564705882352941,0.564705882352941,0.564705882352941);
#16=FILL_AREA_STYLE_COLOUR('',#15);
#17=FILL_AREA_STYLE($,(#16));
#18=SURFACE_STYLE_FILL_AREA(#17);
#19=SURFACE_SIDE_STYLE('',(#18));
#20=SURFACE_STYLE_USAGE(.BOTH.,#19);
#21=PRESENTATION_STYLE_ASSIGNMENT((#20));
#22=MECHANICAL_DESIGN_GEOMETRIC_PRESENTATION_REPRESENTATION('NONE',(#23,#61,#70,
#79,#88,#97,#106,#115,#124,#133,#142,#151,#160,#169,#178,#187,#196,#205,#214,#223,
#232,#241,#250,#259,#268,#277,#286,#295,#304,#313,#322,#331,#340,#349,#358,#367,
#376,#385,#394,#403,#412,#421,#430,#439,#448,#457,#466,#475,#484),#8);
#23=STYLED_ITEM('',(#21),#13);
#24=ADVANCED_BREP_SHAPE_REPRESENTATION('NONE',(#13),#8);
#25=SHAPE_REPRESENTATION_RELATIONSHIP('','',#3,#24);
#26=PRODUCT_DEFINITION_SHAPE('NONE','NONE',#1);
#27=MECHANICAL_CONTEXT('NONE',#32,'mechanical');
#28=PRODUCT_DEFINITION_FORMATION_WITH_SPECIFIED_SOURCE('ANY','UNSPECIFIED',#29,.NOT_KNOWN.);
#29=PRODUCT('','\X2\04210431043E0440043A0430\X0\','NONE',(#27));
#30=PRODUCT_RELATED_PRODUCT_CATEGORY('assembly','',(#29));
#31=DESIGN_CONTEXT('detailed design',#32,'design');
#32=APPLICATION_CONTEXT('configuration controlled 3d designs of mechanical parts and assemblies');
#33=APPLICATION_PROTOCOL_DEFINITION('international standard','config_control_design',
1994,#32);
#34=CC_DESIGN_DATE_AND_TIME_ASSIGNMENT(#35,#39,(#1));
#35=DATE_AND_TIME(#36,#37);
#36=CALENDAR_DATE(0,1,1);
#37=LOCAL_TIME(0,0,0.,#38);
#38=COORDINATED_UNIVERSAL_TIME_OFFSET(0,0,.AHEAD.);
#39=DATE_TIME_ROLE('creation_date');
#40=CC_DESIGN_APPROVAL(#41,(#1));
#41=APPROVAL(#42,'UNSPECIFIED');
#42=APPROVAL_STATUS('not_yet_approved');
#43=APPROVAL_DATE_TIME(#44,#41);
#44=DATE_AND_TIME(#45,#46);
#45=CALENDAR_DATE(0,1,1);
#46=LOCAL_TIME(0,0,0.,#47);
#47=COORDINATED_UNIVERSAL_TIME_OFFSET(0,0,.AHEAD.);
#48=PERSON('UNSPECIFIED','dima','UNSPECIFIED',('UNSPECIFIED'),('UNSPECIFIED'),('UNSPECIFIED'));
#49=ORGANIZATION('UNSPECIFIED','UNSPECIFIED','UNSPECIFIED');
#50=PERSON_AND_ORGANIZATION(#48,#49);
#51=PERSON_AND_ORGANIZATION_ROLE('creator');
#52=CC_DESIGN_PERSON_AND_ORGANIZATION_ASSIGNMENT(#50,#51,(#28,#1));
#53=ADVANCED_FACE('',(#485),#487,.F.);
#54=COLOUR_RGB('',0.564705882352941,0.564705882352941,0.564705882352941);
#55=FILL_AREA_STYLE_COLOUR('',#54);
#56=FILL_AREA_STYLE($,(#55));
#57=SURFACE_STYLE_FILL_AREA(#56);
#58=SURFACE_SIDE_STYLE('',(#57));
#59=SURFACE_STYLE_USAGE(.BOTH.,#58);
#60=PRESENTATION_STYLE_ASSIGNMENT((#59));
#61=STYLED_ITEM('',(#60),#53);
#62=ADVANCED_FACE('',(#492),#494,.F.);
#63=COLOUR_RGB('',0.564705882352941,0.564705882352941,0.564705882352941);
#64=FILL_AREA_STYLE_COLOUR('',#63);
#65=FILL_AREA_STYLE($,(#64));
#66=SURFACE_STYLE_FILL_AREA(#65);
#67=SURFACE_SIDE_STYLE('',(#66));
#68=SURFACE_STYLE_USAGE(.BOTH.,#67);
#69=PRESENTATION_STYLE_ASSIGNMENT((#68));
#70=STYLED_ITEM('',(#69),#62);
#71=ADVANCED_FACE('',(#499),#501,.T.);
#72=COLOUR_RGB('',0.564705882352941,0.564705882352941,0.564705882352941);
#73=FILL_AREA_STYLE_COLOUR('',#72);
#74=FILL_AREA_STYLE($,(#73));
#75=SURFACE_STYLE_FILL_AREA(#74);
#76=SURFACE_SIDE_STYLE('',(#75));
#77=SURFACE_STYLE_USAGE(.BOTH.,#76);
#78=PRESENTATION_STYLE_ASSIGNMENT((#77));
#79=STYLED_ITEM('',(#78),#71);
#80=ADVANCED_FACE('',(#506),#508,.F.);
#81=COLOUR_RGB('',0.564705882352941,0.564705882352941,0.564705882352941);
#82=FILL_AREA_STYLE_COLOUR('',#81);
#83=FILL_AREA_STYLE($,(#82));
#84=SURFACE_STYLE_FILL_AREA(#83);
#85=SURFACE_SIDE_STYLE('',(#84));
#86=SURFACE_STYLE_USAGE(.BOTH.,#85);
#87=PRESENTATION_STYLE_ASSIGNMENT((#86));
#88=STYLED_ITEM('',(#87),#80);
#89=ADVANCED_FACE('',(#513),#515,.T.);
#90=COLOUR_RGB('',0.564705882352941,0.564705882352941,0.564705882352941);
#91=FILL_AREA_STYLE_COLOUR('',#90);
#92=FILL_AREA_STYLE($,(#91));
#93=SURFACE_STYLE_FILL_AREA(#92);
#94=SURFACE_SIDE_STYLE('',(#93));
#95=SURFACE_STYLE_USAGE(.BOTH.,#94);
#96=PRESENTATION_STYLE_ASSIGNMENT((#95));
#97=STYLED_ITEM('',(#96),#89);
#98=ADVANCED_FACE('',(#520),#522,.F.);
#99=COLOUR_RGB('',0.564705882352941,0.564705882352941,0.564705882352941);
#100=FILL_AREA_STYLE_COLOUR('',#99);
#101=FILL_AREA_STYLE($,(#100));
#102=SURFACE_STYLE_FILL_AREA(#101);
#103=SURFACE_SIDE_STYLE('',(#102));
#104=SURFACE_STYLE_USAGE(.BOTH.,#103);
#105=PRESENTATION_STYLE_ASSIGNMENT((#104));
#106=STYLED_ITEM('',(#105),#98);
#107=ADVANCED_FACE('',(#527),#529,.F.);
#108=COLOUR_RGB('',0.564705882352941,0.564705882352941,0.564705882352941);
#109=FILL_AREA_STYLE_COLOUR('',#108);
#110=FILL_AREA_STYLE($,(#109));
#111=SURFACE_STYLE_FILL_AREA(#110);
#112=SURFACE_SIDE_STYLE('',(#111));
#113=SURFACE_STYLE_USAGE(.BOTH.,#112);
#114=PRESENTATION_STYLE_ASSIGNMENT((#113));
#115=STYLED_ITEM('',(#114),#107);
#116=ADVANCED_FACE('',(#534),#536,.T.);
#117=COLOUR_RGB('',0.564705882352941,0.564705882352941,0.564705882352941);
#118=FILL_AREA_STYLE_COLOUR('',#117);
#119=FILL_AREA_STYLE($,(#118));
#120=SURFACE_STYLE_FILL_AREA(#119);
#121=SURFACE_SIDE_STYLE('',(#120));
#122=SURFACE_STYLE_USAGE(.BOTH.,#121);
#123=PRESENTATION_STYLE_ASSIGNMENT((#122));
#124=STYLED_ITEM('',(#123),#116);
#125=ADVANCED_FACE('',(#541),#543,.F.);
#126=COLOUR_RGB('',0.564705882352941,0.564705882352941,0.564705882352941);
#127=FILL_AREA_STYLE_COLOUR('',#126);
#128=FILL_AREA_STYLE($,(#127));
#129=SURFACE_STYLE_FILL_AREA(#128);
#130=SURFACE_SIDE_STYLE('',(#129));
#131=SURFACE_STYLE_USAGE(.BOTH.,#130);
#132=PRESENTATION_STYLE_ASSIGNMENT((#131));
#133=STYLED_ITEM('',(#132),#125);
#134=ADVANCED_FACE('',(#548),#550,.F.);
#135=COLOUR_RGB('',0.564705882352941,0.564705882352941,0.564705882352941);
#136=FILL_AREA_STYLE_COLOUR('',#135);
#137=FILL_AREA_STYLE($,(#136));
#138=SURFACE_STYLE_FILL_AREA(#137);
#139=SURFACE_SIDE_STYLE('',(#138));
#140=SURFACE_STYLE_USAGE(.BOTH.,#139);
#141=PRESENTATION_STYLE_ASSIGNMENT((#140));
#142=STYLED_ITEM('',(#141),#134);
#143=ADVANCED_FACE('',(#555),#557,.T.);
#144=COLOUR_RGB('',0.564705882352941,0.564705882352941,0.564705882352941);
#145=FILL_AREA_STYLE_COLOUR('',#144);
#146=FILL_AREA_STYLE($,(#145));
#147=SURFACE_STYLE_FILL_AREA(#146);
#148=SURFACE_SIDE_STYLE('',(#147));
#149=SURFACE_STYLE_USAGE(.BOTH.,#148);
#150=PRESENTATION_STYLE_ASSIGNMENT((#149));
#151=STYLED_ITEM('',(#150),#143);
#152=ADVANCED_FACE('',(#562),#564,.F.);
#153=COLOUR_RGB('',0.564705882352941,0.564705882352941,0.564705882352941);
#154=FILL_AREA_STYLE_COLOUR('',#153);
#155=FILL_AREA_STYLE($,(#154));
#156=SURFACE_STYLE_FILL_AREA(#155);
#157=SURFACE_SIDE_STYLE('',(#156));
#158=SURFACE_STYLE_USAGE(.BOTH.,#157);
#159=PRESENTATION_STYLE_ASSIGNMENT((#158));
#160=STYLED_ITEM('',(#159),#152);
#161=ADVANCED_FACE('',(#569),#571,.F.);
#162=COLOUR_RGB('',0.564705882352941,0.564705882352941,0.564705882352941);
#163=FILL_AREA_STYLE_COLOUR('',#162);
#164=FILL_AREA_STYLE($,(#163));
#165=SURFACE_STYLE_FILL_AREA(#164);
#166=SURFACE_SIDE_STYLE('',(#165));
#167=SURFACE_STYLE_USAGE(.BOTH.,#166);
#168=PRESENTATION_STYLE_ASSIGNMENT((#167));
#169=STYLED_ITEM('',(#168),#161);
#170=ADVANCED_FACE('',(#576),#578,.T.);
#171=COLOUR_RGB('',0.564705882352941,0.564705882352941,0.564705882352941);
#172=FILL_AREA_STYLE_COLOUR('',#171);
#173=FILL_AREA_STYLE($,(#172));
#174=SURFACE_STYLE_FILL_AREA(#173);
#175=SURFACE_SIDE_STYLE('',(#174));
#176=SURFACE_STYLE_USAGE(.BOTH.,#175);
#177=PRESENTATION_STYLE_ASSIGNMENT((#176));
#178=STYLED_ITEM('',(#177),#170);
#179=ADVANCED_FACE('',(#583),#585,.T.);
#180=COLOUR_RGB('',0.564705882352941,0.564705882352941,0.564705882352941);
#181=FILL_AREA_STYLE_COLOUR('',#180);
#182=FILL_AREA_STYLE($,(#181));
#183=SURFACE_STYLE_FILL_AREA(#182);
#184=SURFACE_SIDE_STYLE('',(#183));
#185=SURFACE_STYLE_USAGE(.BOTH.,#184);
#186=PRESENTATION_STYLE_ASSIGNMENT((#185));
#187=STYLED_ITEM('',(#186),#179);
#188=ADVANCED_FACE('',(#590),#592,.F.);
#189=COLOUR_RGB('',0.564705882352941,0.564705882352941,0.564705882352941);
#190=FILL_AREA_STYLE_COLOUR('',#189);
#191=FILL_AREA_STYLE($,(#190));
#192=SURFACE_STYLE_FILL_AREA(#191);
#193=SURFACE_SIDE_STYLE('',(#192));
#194=SURFACE_STYLE_USAGE(.BOTH.,#193);
#195=PRESENTATION_STYLE_ASSIGNMENT((#194));
#196=STYLED_ITEM('',(#195),#188);
#197=ADVANCED_FACE('',(#597),#599,.T.);
#198=COLOUR_RGB('',0.564705882352941,0.564705882352941,0.564705882352941);
#199=FILL_AREA_STYLE_COLOUR('',#198);
#200=FILL_AREA_STYLE($,(#199));
#201=SURFACE_STYLE_FILL_AREA(#200);
#202=SURFACE_SIDE_STYLE('',(#201));
#203=SURFACE_STYLE_USAGE(.BOTH.,#202);
#204=PRESENTATION_STYLE_ASSIGNMENT((#203));
#205=STYLED_ITEM('',(#204),#197);
#206=ADVANCED_FACE('',(#604),#606,.F.);
#207=COLOUR_RGB('',0.564705882352941,0.564705882352941,0.564705882352941);
#208=FILL_AREA_STYLE_COLOUR('',#207);
#209=FILL_AREA_STYLE($,(#208));
#210=SURFACE_STYLE_FILL_AREA(#209);
#211=SURFACE_SIDE_STYLE('',(#210));
#212=SURFACE_STYLE_USAGE(.BOTH.,#211);
#213=PRESENTATION_STYLE_ASSIGNMENT((#212));
#214=STYLED_ITEM('',(#213),#206);
#215=ADVANCED_FACE('',(#611),#613,.F.);
#216=COLOUR_RGB('',0.564705882352941,0.564705882352941,0.564705882352941);
#217=FILL_AREA_STYLE_COLOUR('',#216);
#218=FILL_AREA_STYLE($,(#217));
#219=SURFACE_STYLE_FILL_AREA(#218);
#220=SURFACE_SIDE_STYLE('',(#219));
#221=SURFACE_STYLE_USAGE(.BOTH.,#220);
#222=PRESENTATION_STYLE_ASSIGNMENT((#221));
#223=STYLED_ITEM('',(#222),#215);
#224=ADVANCED_FACE('',(#618),#620,.T.);
#225=COLOUR_RGB('',0.564705882352941,0.564705882352941,0.564705882352941);
#226=FILL_AREA_STYLE_COLOUR('',#225);
#227=FILL_AREA_STYLE($,(#226));
#228=SURFACE_STYLE_FILL_AREA(#227);
#229=SURFACE_SIDE_STYLE('',(#228));
#230=SURFACE_STYLE_USAGE(.BOTH.,#229);
#231=PRESENTATION_STYLE_ASSIGNMENT((#230));
#232=STYLED_ITEM('',(#231),#224);
#233=ADVANCED_FACE('',(#625),#627,.F.);
#234=COLOUR_RGB('',0.564705882352941,0.564705882352941,0.564705882352941);
#235=FILL_AREA_STYLE_COLOUR('',#234);
#236=FILL_AREA_STYLE($,(#235));
#237=SURFACE_STYLE_FILL_AREA(#236);
#238=SURFACE_SIDE_STYLE('',(#237));
#239=SURFACE_STYLE_USAGE(.BOTH.,#238);
#240=PRESENTATION_STYLE_ASSIGNMENT((#239));
#241=STYLED_ITEM('',(#240),#233);
#242=ADVANCED_FACE('',(#632),#634,.T.);
#243=COLOUR_RGB('',0.564705882352941,0.564705882352941,0.564705882352941);
#244=FILL_AREA_STYLE_COLOUR('',#243);
#245=FILL_AREA_STYLE($,(#244));
#246=SURFACE_STYLE_FILL_AREA(#245);
#247=SURFACE_SIDE_STYLE('',(#246));
#248=SURFACE_STYLE_USAGE(.BOTH.,#247);
#249=PRESENTATION_STYLE_ASSIGNMENT((#248));
#250=STYLED_ITEM('',(#249),#242);
#251=ADVANCED_FACE('',(#639),#641,.F.);
#252=COLOUR_RGB('',0.564705882352941,0.564705882352941,0.564705882352941);
#253=FILL_AREA_STYLE_COLOUR('',#252);
#254=FILL_AREA_STYLE($,(#253));
#255=SURFACE_STYLE_FILL_AREA(#254);
#256=SURFACE_SIDE_STYLE('',(#255));
#257=SURFACE_STYLE_USAGE(.BOTH.,#256);
#258=PRESENTATION_STYLE_ASSIGNMENT((#257));
#259=STYLED_ITEM('',(#258),#251);
#260=ADVANCED_FACE('',(#646),#648,.F.);
#261=COLOUR_RGB('',0.564705882352941,0.564705882352941,0.564705882352941);
#262=FILL_AREA_STYLE_COLOUR('',#261);
#263=FILL_AREA_STYLE($,(#262));
#264=SURFACE_STYLE_FILL_AREA(#263);
#265=SURFACE_SIDE_STYLE('',(#264));
#266=SURFACE_STYLE_USAGE(.BOTH.,#265);
#267=PRESENTATION_STYLE_ASSIGNMENT((#266));
#268=STYLED_ITEM('',(#267),#260);
#269=ADVANCED_FACE('',(#653),#655,.F.);
#270=COLOUR_RGB('',0.564705882352941,0.564705882352941,0.564705882352941);
#271=FILL_AREA_STYLE_COLOUR('',#270);
#272=FILL_AREA_STYLE($,(#271));
#273=SURFACE_STYLE_FILL_AREA(#272);
#274=SURFACE_SIDE_STYLE('',(#273));
#275=SURFACE_STYLE_USAGE(.BOTH.,#274);
#276=PRESENTATION_STYLE_ASSIGNMENT((#275));
#277=STYLED_ITEM('',(#276),#269);
#278=ADVANCED_FACE('',(#660),#662,.F.);
#279=COLOUR_RGB('',0.564705882352941,0.564705882352941,0.564705882352941);
#280=FILL_AREA_STYLE_COLOUR('',#279);
#281=FILL_AREA_STYLE($,(#280));
#282=SURFACE_STYLE_FILL_AREA(#281);
#283=SURFACE_SIDE_STYLE('',(#282));
#284=SURFACE_STYLE_USAGE(.BOTH.,#283);
#285=PRESENTATION_STYLE_ASSIGNMENT((#284));
#286=STYLED_ITEM('',(#285),#278);
#287=ADVANCED_FACE('',(#667),#669,.F.);
#288=COLOUR_RGB('',0.564705882352941,0.564705882352941,0.564705882352941);
#289=FILL_AREA_STYLE_COLOUR('',#288);
#290=FILL_AREA_STYLE($,(#289));
#291=SURFACE_STYLE_FILL_AREA(#290);
#292=SURFACE_SIDE_STYLE('',(#291));
#293=SURFACE_STYLE_USAGE(.BOTH.,#292);
#294=PRESENTATION_STYLE_ASSIGNMENT((#293));
#295=STYLED_ITEM('',(#294),#287);
#296=ADVANCED_FACE('',(#674),#676,.F.);
#297=COLOUR_RGB('',0.564705882352941,0.564705882352941,0.564705882352941);
#298=FILL_AREA_STYLE_COLOUR('',#297);
#299=FILL_AREA_STYLE($,(#298));
#300=SURFACE_STYLE_FILL_AREA(#299);
#301=SURFACE_SIDE_STYLE('',(#300));
#302=SURFACE_STYLE_USAGE(.BOTH.,#301);
#303=PRESENTATION_STYLE_ASSIGNMENT((#302));
#304=STYLED_ITEM('',(#303),#296);
#305=ADVANCED_FACE('',(#681),#683,.T.);
#306=COLOUR_RGB('',0.564705882352941,0.564705882352941,0.564705882352941);
#307=FILL_AREA_STYLE_COLOUR('',#306);
#308=FILL_AREA_STYLE($,(#307));
#309=SURFACE_STYLE_FILL_AREA(#308);
#310=SURFACE_SIDE_STYLE('',(#309));
#311=SURFACE_STYLE_USAGE(.BOTH.,#310);
#312=PRESENTATION_STYLE_ASSIGNMENT((#311));
#313=STYLED_ITEM('',(#312),#305);
#314=ADVANCED_FACE('',(#688),#690,.F.);
#315=COLOUR_RGB('',0.564705882352941,0.564705882352941,0.564705882352941);
#316=FILL_AREA_STYLE_COLOUR('',#315);
#317=FILL_AREA_STYLE($,(#316));
#318=SURFACE_STYLE_FILL_AREA(#317);
#319=SURFACE_SIDE_STYLE('',(#318));
#320=SURFACE_STYLE_USAGE(.BOTH.,#319);
#321=PRESENTATION_STYLE_ASSIGNMENT((#320));
#322=STYLED_ITEM('',(#321),#314);
#323=ADVANCED_FACE('',(#695),#697,.F.);
#324=COLOUR_RGB('',0.564705882352941,0.564705882352941,0.564705882352941);
#325=FILL_AREA_STYLE_COLOUR('',#324);
#326=FILL_AREA_STYLE($,(#325));
#327=SURFACE_STYLE_FILL_AREA(#326);
#328=SURFACE_SIDE_STYLE('',(#327));
#329=SURFACE_STYLE_USAGE(.BOTH.,#328);
#330=PRESENTATION_STYLE_ASSIGNMENT((#329));
#331=STYLED_ITEM('',(#330),#323);
#332=ADVANCED_FACE('',(#702),#704,.F.);
#333=COLOUR_RGB('',0.564705882352941,0.564705882352941,0.564705882352941);
#334=FILL_AREA_STYLE_COLOUR('',#333);
#335=FILL_AREA_STYLE($,(#334));
#336=SURFACE_STYLE_FILL_AREA(#335);
#337=SURFACE_SIDE_STYLE('',(#336));
#338=SURFACE_STYLE_USAGE(.BOTH.,#337);
#339=PRESENTATION_STYLE_ASSIGNMENT((#338));
#340=STYLED_ITEM('',(#339),#332);
#341=ADVANCED_FACE('',(#709),#711,.T.);
#342=COLOUR_RGB('',0.564705882352941,0.564705882352941,0.564705882352941);
#343=FILL_AREA_STYLE_COLOUR('',#342);
#344=FILL_AREA_STYLE($,(#343));
#345=SURFACE_STYLE_FILL_AREA(#344);
#346=SURFACE_SIDE_STYLE('',(#345));
#347=SURFACE_STYLE_USAGE(.BOTH.,#346);
#348=PRESENTATION_STYLE_ASSIGNMENT((#347));
#349=STYLED_ITEM('',(#348),#341);
#350=ADVANCED_FACE('',(#716),#718,.T.);
#351=COLOUR_RGB('',0.564705882352941,0.564705882352941,0.564705882352941);
#352=FILL_AREA_STYLE_COLOUR('',#351);
#353=FILL_AREA_STYLE($,(#352));
#354=SURFACE_STYLE_FILL_AREA(#353);
#355=SURFACE_SIDE_STYLE('',(#354));
#356=SURFACE_STYLE_USAGE(.BOTH.,#355);
#357=PRESENTATION_STYLE_ASSIGNMENT((#356));
#358=STYLED_ITEM('',(#357),#350);
#359=ADVANCED_FACE('',(#723),#725,.T.);
#360=COLOUR_RGB('',0.564705882352941,0.564705882352941,0.564705882352941);
#361=FILL_AREA_STYLE_COLOUR('',#360);
#362=FILL_AREA_STYLE($,(#361));
#363=SURFACE_STYLE_FILL_AREA(#362);
#364=SURFACE_SIDE_STYLE('',(#363));
#365=SURFACE_STYLE_USAGE(.BOTH.,#364);
#366=PRESENTATION_STYLE_ASSIGNMENT((#365));
#367=STYLED_ITEM('',(#366),#359);
#368=ADVANCED_FACE('',(#730),#732,.T.);
#369=COLOUR_RGB('',0.564705882352941,0.564705882352941,0.564705882352941);
#370=FILL_AREA_STYLE_COLOUR('',#369);
#371=FILL_AREA_STYLE($,(#370));
#372=SURFACE_STYLE_FILL_AREA(#371);
#373=SURFACE_SIDE_STYLE('',(#372));
#374=SURFACE_STYLE_USAGE(.BOTH.,#373);
#375=PRESENTATION_STYLE_ASSIGNMENT((#374));
#376=STYLED_ITEM('',(#375),#368);
#377=ADVANCED_FACE('',(#737),#739,.F.);
#378=COLOUR_RGB('',0.564705882352941,0.564705882352941,0.564705882352941);
#379=FILL_AREA_STYLE_COLOUR('',#378);
#380=FILL_AREA_STYLE($,(#379));
#381=SURFACE_STYLE_FILL_AREA(#380);
#382=SURFACE_SIDE_STYLE('',(#381));
#383=SURFACE_STYLE_USAGE(.BOTH.,#382);
#384=PRESENTATION_STYLE_ASSIGNMENT((#383));
#385=STYLED_ITEM('',(#384),#377);
#386=ADVANCED_FACE('',(#744),#746,.T.);
#387=COLOUR_RGB('',0.564705882352941,0.564705882352941,0.564705882352941);
#388=FILL_AREA_STYLE_COLOUR('',#387);
#389=FILL_AREA_STYLE($,(#388));
#390=SURFACE_STYLE_FILL_AREA(#389);
#391=SURFACE_SIDE_STYLE('',(#390));
#392=SURFACE_STYLE_USAGE(.BOTH.,#391);
#393=PRESENTATION_STYLE_ASSIGNMENT((#392));
#394=STYLED_ITEM('',(#393),#386);
#395=ADVANCED_FACE('',(#751),#753,.F.);
#396=COLOUR_RGB('',0.564705882352941,0.564705882352941,0.564705882352941);
#397=FILL_AREA_STYLE_COLOUR('',#396);
#398=FILL_AREA_STYLE($,(#397));
#399=SURFACE_STYLE_FILL_AREA(#398);
#400=SURFACE_SIDE_STYLE('',(#399));
#401=SURFACE_STYLE_USAGE(.BOTH.,#400);
#402=PRESENTATION_STYLE_ASSIGNMENT((#401));
#403=STYLED_ITEM('',(#402),#395);
#404=ADVANCED_FACE('',(#758),#760,.T.);
#405=COLOUR_RGB('',0.564705882352941,0.564705882352941,0.564705882352941);
#406=FILL_AREA_STYLE_COLOUR('',#405);
#407=FILL_AREA_STYLE($,(#406));
#408=SURFACE_STYLE_FILL_AREA(#407);
#409=SURFACE_SIDE_STYLE('',(#408));
#410=SURFACE_STYLE_USAGE(.BOTH.,#409);
#411=PRESENTATION_STYLE_ASSIGNMENT((#410));
#412=STYLED_ITEM('',(#411),#404);
#413=ADVANCED_FACE('',(#765),#767,.F.);
#414=COLOUR_RGB('',0.564705882352941,0.564705882352941,0.564705882352941);
#415=FILL_AREA_STYLE_COLOUR('',#414);
#416=FILL_AREA_STYLE($,(#415));
#417=SURFACE_STYLE_FILL_AREA(#416);
#418=SURFACE_SIDE_STYLE('',(#417));
#419=SURFACE_STYLE_USAGE(.BOTH.,#418);
#420=PRESENTATION_STYLE_ASSIGNMENT((#419));
#421=STYLED_ITEM('',(#420),#413);
#422=ADVANCED_FACE('',(#772),#774,.F.);
#423=COLOUR_RGB('',0.564705882352941,0.564705882352941,0.564705882352941);
#424=FILL_AREA_STYLE_COLOUR('',#423);
#425=FILL_AREA_STYLE($,(#424));
#426=SURFACE_STYLE_FILL_AREA(#425);
#427=SURFACE_SIDE_STYLE('',(#426));
#428=SURFACE_STYLE_USAGE(.BOTH.,#427);
#429=PRESENTATION_STYLE_ASSIGNMENT((#428));
#430=STYLED_ITEM('',(#429),#422);
#431=ADVANCED_FACE('',(#779),#781,.T.);
#432=COLOUR_RGB('',0.564705882352941,0.564705882352941,0.564705882352941);
#433=FILL_AREA_STYLE_COLOUR('',#432);
#434=FILL_AREA_STYLE($,(#433));
#435=SURFACE_STYLE_FILL_AREA(#434);
#436=SURFACE_SIDE_STYLE('',(#435));
#437=SURFACE_STYLE_USAGE(.BOTH.,#436);
#438=PRESENTATION_STYLE_ASSIGNMENT((#437));
#439=STYLED_ITEM('',(#438),#431);
#440=ADVANCED_FACE('',(#786),#788,.F.);
#441=COLOUR_RGB('',0.564705882352941,0.564705882352941,0.564705882352941);
#442=FILL_AREA_STYLE_COLOUR('',#441);
#443=FILL_AREA_STYLE($,(#442));
#444=SURFACE_STYLE_FILL_AREA(#443);
#445=SURFACE_SIDE_STYLE('',(#444));
#446=SURFACE_STYLE_USAGE(.BOTH.,#445);
#447=PRESENTATION_STYLE_ASSIGNMENT((#446));
#448=STYLED_ITEM('',(#447),#440);
#449=ADVANCED_FACE('',(#793),#795,.F.);
#450=COLOUR_RGB('',0.564705882352941,0.564705882352941,0.564705882352941);
#451=FILL_AREA_STYLE_COLOUR('',#450);
#452=FILL_AREA_STYLE($,(#451));
#453=SURFACE_STYLE_FILL_AREA(#452);
#454=SURFACE_SIDE_STYLE('',(#453));
#455=SURFACE_STYLE_USAGE(.BOTH.,#454);
#456=PRESENTATION_STYLE_ASSIGNMENT((#455));
#457=STYLED_ITEM('',(#456),#449);
#458=ADVANCED_FACE('',(#800),#802,.T.);
#459=COLOUR_RGB('',0.564705882352941,0.564705882352941,0.564705882352941);
#460=FILL_AREA_STYLE_COLOUR('',#459);
#461=FILL_AREA_STYLE($,(#460));
#462=SURFACE_STYLE_FILL_AREA(#461);
#463=SURFACE_SIDE_STYLE('',(#462));
#464=SURFACE_STYLE_USAGE(.BOTH.,#463);
#465=PRESENTATION_STYLE_ASSIGNMENT((#464));
#466=STYLED_ITEM('',(#465),#458);
#467=ADVANCED_FACE('',(#807),#809,.T.);
#468=COLOUR_RGB('',0.564705882352941,0.564705882352941,0.564705882352941);
#469=FILL_AREA_STYLE_COLOUR('',#468);
#470=FILL_AREA_STYLE($,(#469));
#471=SURFACE_STYLE_FILL_AREA(#470);
#472=SURFACE_SIDE_STYLE('',(#471));
#473=SURFACE_STYLE_USAGE(.BOTH.,#472);
#474=PRESENTATION_STYLE_ASSIGNMENT((#473));
#475=STYLED_ITEM('',(#474),#467);
#476=ADVANCED_FACE('',(#814),#816,.F.);
#477=COLOUR_RGB('',0.564705882352941,0.564705882352941,0.564705882352941);
#478=FILL_AREA_STYLE_COLOUR('',#477);
#479=FILL_AREA_STYLE($,(#478));
#480=SURFACE_STYLE_FILL_AREA(#479);
#481=SURFACE_SIDE_STYLE('',(#480));
#482=SURFACE_STYLE_USAGE(.BOTH.,#481);
#483=PRESENTATION_STYLE_ASSIGNMENT((#482));
#484=STYLED_ITEM('',(#483),#476);
#485=FACE_BOUND('',#486,.T.);
#486=EDGE_LOOP('',(#821,#822,#823,#824,#825,#826));
#487=PLANE('',#488);
#488=AXIS2_PLACEMENT_3D('',#489,#490,#491);
#489=CARTESIAN_POINT('',(-50.,48.,-41.5));
#490=DIRECTION('',(0.,-1.,1.71215117050626E-16));
#491=DIRECTION('',(1.,0.,0.));
#492=FACE_BOUND('',#493,.T.);
#493=EDGE_LOOP('',(#827,#828,#829,#830));
#494=PLANE('',#495);
#495=AXIS2_PLACEMENT_3D('',#496,#497,#498);
#496=CARTESIAN_POINT('',(-50.,-52.005,-1.5));
#497=DIRECTION('',(0.,0.,1.));
#498=DIRECTION('',(1.,0.,0.));
#499=FACE_BOUND('',#500,.T.);
#500=EDGE_LOOP('',(#831,#832,#833,#834,#835,#836,#837,#838));
#501=PLANE('',#502);
#502=AXIS2_PLACEMENT_3D('',#503,#504,#505);
#503=CARTESIAN_POINT('',(-50.,50.,-50.));
#504=DIRECTION('',(-1.,0.,0.));
#505=DIRECTION('',(0.,-1.,0.));
#506=FACE_BOUND('',#507,.T.);
#507=EDGE_LOOP('',(#839,#840,#841,#842,#843,#844,#845,#846,#847,#848,#849,#850));
#508=PLANE('',#509);
#509=AXIS2_PLACEMENT_3D('',#510,#511,#512);
#510=CARTESIAN_POINT('',(-50.,41.5,41.5));
#511=DIRECTION('',(0.,0.,1.));
#512=DIRECTION('',(0.,-1.,0.));
#513=FACE_BOUND('',#514,.T.);
#514=EDGE_LOOP('',(#851,#852,#853,#854,#855,#856,#857,#858));
#515=PLANE('',#516);
#516=AXIS2_PLACEMENT_3D('',#517,#518,#519);
#517=CARTESIAN_POINT('',(-44.,46.,-44.));
#518=DIRECTION('',(1.,-1.54465812121761E-16,1.54465812121761E-16));
#519=DIRECTION('',(-1.54465812121761E-16,1.71215117050627E-16,1.));
#520=FACE_BOUND('',#521,.T.);
#521=EDGE_LOOP('',(#859,#860,#861,#862));
#522=PLANE('',#523);
#523=AXIS2_PLACEMENT_3D('',#524,#525,#526);
#524=CARTESIAN_POINT('',(-47.,-52.005,1.5));
#525=DIRECTION('',(0.,0.,1.));
#526=DIRECTION('',(1.,0.,0.));
#527=FACE_BOUND('',#528,.T.);
#528=EDGE_LOOP('',(#863,#864,#865,#866));
#529=PLANE('',#530);
#530=AXIS2_PLACEMENT_3D('',#531,#532,#533);
#531=CARTESIAN_POINT('',(-47.,-52.005,-1.5));
#532=DIRECTION('',(-1.,0.,0.));
#533=DIRECTION('',(0.,0.,1.));
#534=FACE_BOUND('',#535,.T.);
#535=EDGE_LOOP('',(#867,#868,#869,#870,#871,#872,#873,#874,#875,#876,#877,#878,#879,
#880,#881,#882));
#536=PLANE('',#537);
#537=AXIS2_PLACEMENT_3D('',#538,#539,#540);
#538=CARTESIAN_POINT('',(-50.,-50.,-50.));
#539=DIRECTION('',(0.,-1.,0.));
#540=DIRECTION('',(1.,0.,0.));
#541=FACE_BOUND('',#542,.T.);
#542=EDGE_LOOP('',(#883,#884,#885,#886));
#543=PLANE('',#544);
#544=AXIS2_PLACEMENT_3D('',#545,#546,#547);
#545=CARTESIAN_POINT('',(-50.,41.5,41.5));
#546=DIRECTION('',(0.,0.,1.));
#547=DIRECTION('',(0.,-1.,0.));
#548=FACE_BOUND('',#549,.T.);
#549=EDGE_LOOP('',(#887,#888,#889,#890));
#550=PLANE('',#551);
#551=AXIS2_PLACEMENT_3D('',#552,#553,#554);
#552=CARTESIAN_POINT('',(-50.,-41.5,41.5));
#553=DIRECTION('',(0.,-1.,1.71215117050627E-16));
#554=DIRECTION('',(0.,-1.71215117050627E-16,-1.));
#555=FACE_BOUND('',#556,.T.);
#556=EDGE_LOOP('',(#891,#892,#893,#894,#895,#896,#897,#898,#899,#900,#901,#902));
#557=PLANE('',#558);
#558=AXIS2_PLACEMENT_3D('',#559,#560,#561);
#559=CARTESIAN_POINT('',(0.,0.,50.));
#560=DIRECTION('',(0.,0.,1.));
#561=DIRECTION('',(1.,0.,0.));
#562=FACE_BOUND('',#563,.T.);
#563=EDGE_LOOP('',(#903,#904,#905,#906));
#564=PLANE('',#565);
#565=AXIS2_PLACEMENT_3D('',#566,#567,#568);
#566=CARTESIAN_POINT('',(-50.,41.5,-41.5));
#567=DIRECTION('',(0.,1.,-1.71215117050627E-16));
#568=DIRECTION('',(0.,1.71215117050627E-16,1.));
#569=FACE_BOUND('',#570,.T.);
#570=EDGE_LOOP('',(#907,#908,#909,#910,#911,#912));
#571=PLANE('',#572);
#572=AXIS2_PLACEMENT_3D('',#573,#574,#575);
#573=CARTESIAN_POINT('',(44.,48.,-41.5));
#574=DIRECTION('',(0.,-1.,1.71215117050627E-16));
#575=DIRECTION('',(1.,0.,0.));
#576=FACE_BOUND('',#577,.T.);
#577=EDGE_LOOP('',(#913,#914,#915,#916,#917,#918,#919,#920));
#578=PLANE('',#579);
#579=AXIS2_PLACEMENT_3D('',#580,#581,#582);
#580=CARTESIAN_POINT('',(44.,46.,-41.5));
#581=DIRECTION('',(-1.,-5.52980262148354E-32,-3.22973970800046E-16));
#582=DIRECTION('',(3.22973970800046E-16,-1.71215117050627E-16,-1.));
#583=FACE_BOUND('',#584,.T.);
#584=EDGE_LOOP('',(#921,#922,#923,#924));
#585=PLANE('',#586);
#586=AXIS2_PLACEMENT_3D('',#587,#588,#589);
#587=CARTESIAN_POINT('',(0.,46.,-7.87589538432882E-15));
#588=DIRECTION('',(0.,-1.,1.71215117050627E-16));
#589=DIRECTION('',(1.,0.,0.));
#590=FACE_BOUND('',#591,.T.);
#591=EDGE_LOOP('',(#925,#926,#927,#928));
#592=PLANE('',#593);
#593=AXIS2_PLACEMENT_3D('',#594,#595,#596);
#594=CARTESIAN_POINT('',(-56.75,54.,42.5));
#595=DIRECTION('',(0.707106781186547,0.,0.707106781186547));
#596=DIRECTION('',(0.,-1.,0.));
#597=FACE_BOUND('',#598,.T.);
#598=EDGE_LOOP('',(#929,#930,#931,#932));
#599=PLANE('',#600);
#600=AXIS2_PLACEMENT_3D('',#601,#602,#603);
#601=CARTESIAN_POINT('',(50.,50.,-50.));
#602=DIRECTION('',(0.,1.,0.));
#603=DIRECTION('',(-1.,0.,0.));
#604=FACE_BOUND('',#605,.T.);
#605=EDGE_LOOP('',(#933,#934,#935,#936));
#606=PLANE('',#607);
#607=AXIS2_PLACEMENT_3D('',#608,#609,#610);
#608=CARTESIAN_POINT('',(56.75,37.5,42.5));
#609=DIRECTION('',(-0.707106781186553,0.,0.707106781186542));
#610=DIRECTION('',(0.,1.,0.));
#611=FACE_BOUND('',#612,.T.);
#612=EDGE_LOOP('',(#937,#938,#939,#940));
#613=PLANE('',#614);
#614=AXIS2_PLACEMENT_3D('',#615,#616,#617);
#615=CARTESIAN_POINT('',(-50.,41.5,-41.5));
#616=DIRECTION('',(0.,1.,-1.71215117050627E-16));
#617=DIRECTION('',(0.,1.71215117050627E-16,1.));
#618=FACE_BOUND('',#619,.T.);
#619=EDGE_LOOP('',(#941,#942,#943,#944,#945,#946,#947,#948));
#620=PLANE('',#621);
#621=AXIS2_PLACEMENT_3D('',#622,#623,#624);
#622=CARTESIAN_POINT('',(50.,-50.,-50.));
#623=DIRECTION('',(1.,0.,0.));
#624=DIRECTION('',(0.,1.,0.));
#625=FACE_BOUND('',#626,.T.);
#626=EDGE_LOOP('',(#949,#950,#951,#952));
#627=PLANE('',#628);
#628=AXIS2_PLACEMENT_3D('',#629,#630,#631);
#629=CARTESIAN_POINT('',(-50.,41.5,44.));
#630=DIRECTION('',(0.,0.,1.));
#631=DIRECTION('',(0.,-1.,0.));
#632=FACE_BOUND('',#633,.T.);
#633=EDGE_LOOP('',(#953,#954,#955,#956));
#634=PLANE('',#635);
#635=AXIS2_PLACEMENT_3D('',#636,#637,#638);
#636=CARTESIAN_POINT('',(0.,-46.,7.87589538432882E-15));
#637=DIRECTION('',(0.,1.,-1.71215117050627E-16));
#638=DIRECTION('',(-1.,-2.09678045061689E-32,-1.22464679914735E-16));
#639=FACE_BOUND('',#640,.T.);
#640=EDGE_LOOP('',(#957,#958,#959,#960));
#641=PLANE('',#642);
#642=AXIS2_PLACEMENT_3D('',#643,#644,#645);
#643=CARTESIAN_POINT('',(-46.,-56.,41.5));
#644=DIRECTION('',(0.,0.,1.));
#645=DIRECTION('',(1.,0.,0.));
#646=FACE_BOUND('',#647,.T.);
#647=EDGE_LOOP('',(#961,#962,#963,#964));
#648=PLANE('',#649);
#649=AXIS2_PLACEMENT_3D('',#650,#651,#652);
#650=CARTESIAN_POINT('',(-47.,-52.005,1.5));
#651=DIRECTION('',(0.,0.,1.));
#652=DIRECTION('',(1.,0.,0.));
#653=FACE_BOUND('',#654,.T.);
#654=EDGE_LOOP('',(#965,#966,#967,#968));
#655=PLANE('',#656);
#656=AXIS2_PLACEMENT_3D('',#657,#658,#659);
#657=CARTESIAN_POINT('',(47.,-52.005,1.5));
#658=DIRECTION('',(1.,0.,0.));
#659=DIRECTION('',(0.,0.,-1.));
#660=FACE_BOUND('',#661,.T.);
#661=EDGE_LOOP('',(#969,#970,#971,#972));
#662=PLANE('',#663);
#663=AXIS2_PLACEMENT_3D('',#664,#665,#666);
#664=CARTESIAN_POINT('',(47.,-52.005,-1.5));
#665=DIRECTION('',(2.22044604925031E-16,0.,1.));
#666=DIRECTION('',(1.,0.,-2.22044604925031E-16));
#667=FACE_BOUND('',#668,.T.);
#668=EDGE_LOOP('',(#973,#974,#975,#976));
#669=PLANE('',#670);
#670=AXIS2_PLACEMENT_3D('',#671,#672,#673);
#671=CARTESIAN_POINT('',(-50.,41.5,41.5));
#672=DIRECTION('',(0.,0.,1.));
#673=DIRECTION('',(0.,-1.,0.));
#674=FACE_BOUND('',#675,.T.);
#675=EDGE_LOOP('',(#977,#978,#979,#980,#981));
#676=PLANE('',#677);
#677=AXIS2_PLACEMENT_3D('',#678,#679,#680);
#678=CARTESIAN_POINT('',(55.75,-50.,37.5));
#679=DIRECTION('',(-0.707106781186553,0.707106781186542,-6.09005559731893E-16));
#680=DIRECTION('',(-8.61263922133455E-16,0.,1.));
#681=FACE_BOUND('',#682,.T.);
#682=EDGE_LOOP('',(#982,#983,#984,#985,#986,#987));
#683=CYLINDRICAL_SURFACE('',#684,1.);
#684=AXIS2_PLACEMENT_3D('',#685,#686,#687);
#685=CARTESIAN_POINT('',(-59.75,-49.,49.));
#686=DIRECTION('',(1.,0.,-5.9459643159841E-17));
#687=DIRECTION('',(5.94596431598392E-17,-7.10542735760105E-15,1.));
#688=FACE_BOUND('',#689,.T.);
#689=EDGE_LOOP('',(#988,#989,#990,#991,#992));
#690=PLANE('',#691);
#691=AXIS2_PLACEMENT_3D('',#692,#693,#694);
#692=CARTESIAN_POINT('',(-56.75,-49.,37.5));
#693=DIRECTION('',(0.707106781186547,0.707106781186547,0.));
#694=DIRECTION('',(0.,0.,1.));
#695=FACE_BOUND('',#696,.T.);
#696=EDGE_LOOP('',(#993,#994,#995,#996));
#697=PLANE('',#698);
#698=AXIS2_PLACEMENT_3D('',#699,#700,#701);
#699=CARTESIAN_POINT('',(-56.75,-37.5,42.5));
#700=DIRECTION('',(0.707106781186547,0.,0.707106781186547));
#701=DIRECTION('',(0.,-1.,0.));
#702=FACE_BOUND('',#703,.T.);
#703=EDGE_LOOP('',(#997,#998,#999,#1000));
#704=PLANE('',#705);
#705=AXIS2_PLACEMENT_3D('',#706,#707,#708);
#706=CARTESIAN_POINT('',(-55.75,-41.5,37.5));
#707=DIRECTION('',(0.707106781186547,-0.707106781186547,0.));
#708=DIRECTION('',(0.,0.,1.));
#709=FACE_BOUND('',#710,.T.);
#710=EDGE_LOOP('',(#1001,#1002,#1003,#1004,#1005,#1006));
#711=CYLINDRICAL_SURFACE('',#712,1.);
#712=AXIS2_PLACEMENT_3D('',#713,#714,#715);
#713=CARTESIAN_POINT('',(59.75,49.,49.));
#714=DIRECTION('',(-1.,0.,-5.9459643159841E-17));
#715=DIRECTION('',(-5.94596431598392E-17,7.10542735760105E-15,1.));
#716=FACE_BOUND('',#717,.T.);
#717=EDGE_LOOP('',(#1007,#1008,#1009,#1010,#1011));
#718=PLANE('',#719);
#719=AXIS2_PLACEMENT_3D('',#720,#721,#722);
#720=CARTESIAN_POINT('',(-56.75,54.,49.));
#721=DIRECTION('',(-0.707106781186547,0.,0.707106781186547));
#722=DIRECTION('',(0.,-1.,0.));
#723=FACE_BOUND('',#724,.T.);
#724=EDGE_LOOP('',(#1012,#1013,#1014,#1015,#1016));
#725=PLANE('',#726);
#726=AXIS2_PLACEMENT_3D('',#727,#728,#729);
#727=CARTESIAN_POINT('',(-56.75,-37.5,49.));
#728=DIRECTION('',(-0.707106781186547,0.,0.707106781186547));
#729=DIRECTION('',(0.,-1.,0.));
#730=FACE_BOUND('',#731,.T.);
#731=EDGE_LOOP('',(#1017,#1018,#1019,#1020,#1021));
#732=PLANE('',#733);
#733=AXIS2_PLACEMENT_3D('',#734,#735,#736);
#734=CARTESIAN_POINT('',(56.75,-54.,49.));
#735=DIRECTION('',(0.707106781186547,0.,0.707106781186547));
#736=DIRECTION('',(0.,1.,0.));
#737=FACE_BOUND('',#738,.T.);
#738=EDGE_LOOP('',(#1022,#1023,#1024,#1025));
#739=PLANE('',#740);
#740=AXIS2_PLACEMENT_3D('',#741,#742,#743);
#741=CARTESIAN_POINT('',(-50.,-41.5,41.5));
#742=DIRECTION('',(0.,-1.,1.71215117050627E-16));
#743=DIRECTION('',(0.,-1.71215117050627E-16,-1.));
#744=FACE_BOUND('',#745,.T.);
#745=EDGE_LOOP('',(#1026,#1027,#1028,#1029,#1030));
#746=PLANE('',#747);
#747=AXIS2_PLACEMENT_3D('',#748,#749,#750);
#748=CARTESIAN_POINT('',(56.75,37.5,49.));
#749=DIRECTION('',(0.707106781186547,0.,0.707106781186547));
#750=DIRECTION('',(0.,1.,0.));
#751=FACE_BOUND('',#752,.T.);
#752=EDGE_LOOP('',(#1031,#1032,#1033,#1034));
#753=PLANE('',#754);
#754=AXIS2_PLACEMENT_3D('',#755,#756,#757);
#755=CARTESIAN_POINT('',(-56.75,42.5,37.5));
#756=DIRECTION('',(0.707106781186547,0.707106781186547,0.));
#757=DIRECTION('',(0.,0.,1.));
#758=FACE_BOUND('',#759,.T.);
#759=EDGE_LOOP('',(#1035,#1036,#1037,#1038));
#760=PLANE('',#761);
#761=AXIS2_PLACEMENT_3D('',#762,#763,#764);
#762=CARTESIAN_POINT('',(-56.75,50.,41.5));
#763=DIRECTION('',(-1.,0.,0.));
#764=DIRECTION('',(0.,-1.,0.));
#765=FACE_BOUND('',#766,.T.);
#766=EDGE_LOOP('',(#1039,#1040,#1041,#1042,#1043));
#767=PLANE('',#768);
#768=AXIS2_PLACEMENT_3D('',#769,#770,#771);
#769=CARTESIAN_POINT('',(-55.75,50.,37.5));
#770=DIRECTION('',(0.707106781186553,-0.707106781186542,-6.09005559731893E-16));
#771=DIRECTION('',(8.61263922133455E-16,0.,1.));
#772=FACE_BOUND('',#773,.T.);
#773=EDGE_LOOP('',(#1044,#1045,#1046,#1047,#1048));
#774=PLANE('',#775);
#775=AXIS2_PLACEMENT_3D('',#776,#777,#778);
#776=CARTESIAN_POINT('',(56.75,49.,37.5));
#777=DIRECTION('',(-0.707106781186547,-0.707106781186547,0.));
#778=DIRECTION('',(0.,0.,1.));
#779=FACE_BOUND('',#780,.T.);
#780=EDGE_LOOP('',(#1049,#1050,#1051,#1052));
#781=PLANE('',#782);
#782=AXIS2_PLACEMENT_3D('',#783,#784,#785);
#783=CARTESIAN_POINT('',(56.75,41.5,41.5));
#784=DIRECTION('',(1.,0.,0.));
#785=DIRECTION('',(0.,1.,0.));
#786=FACE_BOUND('',#787,.T.);
#787=EDGE_LOOP('',(#1053,#1054,#1055,#1056));
#788=PLANE('',#789);
#789=AXIS2_PLACEMENT_3D('',#790,#791,#792);
#790=CARTESIAN_POINT('',(55.75,41.5,37.5));
#791=DIRECTION('',(-0.707106781186553,0.707106781186542,-6.09005559731893E-16));
#792=DIRECTION('',(-8.61263922133455E-16,0.,1.));
#793=FACE_BOUND('',#794,.T.);
#794=EDGE_LOOP('',(#1057,#1058,#1059,#1060));
#795=PLANE('',#796);
#796=AXIS2_PLACEMENT_3D('',#797,#798,#799);
#797=CARTESIAN_POINT('',(56.75,-54.,42.5));
#798=DIRECTION('',(-0.707106781186553,0.,0.707106781186542));
#799=DIRECTION('',(0.,1.,0.));
#800=FACE_BOUND('',#801,.T.);
#801=EDGE_LOOP('',(#1061,#1062,#1063,#1064));
#802=PLANE('',#803);
#803=AXIS2_PLACEMENT_3D('',#804,#805,#806);
#804=CARTESIAN_POINT('',(56.75,-50.,41.5));
#805=DIRECTION('',(1.,0.,0.));
#806=DIRECTION('',(0.,1.,0.));
#807=FACE_BOUND('',#808,.T.);
#808=EDGE_LOOP('',(#1065,#1066,#1067,#1068));
#809=PLANE('',#810);
#810=AXIS2_PLACEMENT_3D('',#811,#812,#813);
#811=CARTESIAN_POINT('',(-56.75,-41.5,41.5));
#812=DIRECTION('',(-1.,0.,0.));
#813=DIRECTION('',(0.,-1.,0.));
#814=FACE_BOUND('',#815,.T.);
#815=EDGE_LOOP('',(#1069,#1070,#1071,#1072));
#816=PLANE('',#817);
#817=AXIS2_PLACEMENT_3D('',#818,#819,#820);
#818=CARTESIAN_POINT('',(56.75,-42.5,37.5));
#819=DIRECTION('',(-0.707106781186553,-0.707106781186542,0.));
#820=DIRECTION('',(0.,0.,1.));
#821=ORIENTED_EDGE('',*,*,#1073,.T.);
#822=ORIENTED_EDGE('',*,*,#1074,.F.);
#823=ORIENTED_EDGE('',*,*,#1075,.T.);
#824=ORIENTED_EDGE('',*,*,#1076,.F.);
#825=ORIENTED_EDGE('',*,*,#1077,.T.);
#826=ORIENTED_EDGE('',*,*,#1078,.T.);
#827=ORIENTED_EDGE('',*,*,#1079,.F.);
#828=ORIENTED_EDGE('',*,*,#1080,.F.);
#829=ORIENTED_EDGE('',*,*,#1073,.F.);
#830=ORIENTED_EDGE('',*,*,#1081,.F.);
#831=ORIENTED_EDGE('',*,*,#1080,.T.);
#832=ORIENTED_EDGE('',*,*,#1082,.T.);
#833=ORIENTED_EDGE('',*,*,#1083,.T.);
#834=ORIENTED_EDGE('',*,*,#1084,.F.);
#835=ORIENTED_EDGE('',*,*,#1085,.F.);
#836=ORIENTED_EDGE('',*,*,#1086,.F.);
#837=ORIENTED_EDGE('',*,*,#1087,.T.);
#838=ORIENTED_EDGE('',*,*,#1074,.T.);
#839=ORIENTED_EDGE('',*,*,#1088,.F.);
#840=ORIENTED_EDGE('',*,*,#1089,.F.);
#841=ORIENTED_EDGE('',*,*,#1090,.F.);
#842=ORIENTED_EDGE('',*,*,#1091,.F.);
#843=ORIENTED_EDGE('',*,*,#1075,.F.);
#844=ORIENTED_EDGE('',*,*,#1087,.F.);
#845=ORIENTED_EDGE('',*,*,#1092,.F.);
#846=ORIENTED_EDGE('',*,*,#1093,.F.);
#847=ORIENTED_EDGE('',*,*,#1094,.F.);
#848=ORIENTED_EDGE('',*,*,#1095,.F.);
#849=ORIENTED_EDGE('',*,*,#1096,.F.);
#850=ORIENTED_EDGE('',*,*,#1097,.F.);
#851=ORIENTED_EDGE('',*,*,#1098,.T.);
#852=ORIENTED_EDGE('',*,*,#1076,.T.);
#853=ORIENTED_EDGE('',*,*,#1091,.T.);
#854=ORIENTED_EDGE('',*,*,#1099,.T.);
#855=ORIENTED_EDGE('',*,*,#1100,.T.);
#856=ORIENTED_EDGE('',*,*,#1101,.T.);
#857=ORIENTED_EDGE('',*,*,#1102,.T.);
#858=ORIENTED_EDGE('',*,*,#1103,.T.);
#859=ORIENTED_EDGE('',*,*,#1104,.F.);
#860=ORIENTED_EDGE('',*,*,#1105,.T.);
#861=ORIENTED_EDGE('',*,*,#1077,.F.);
#862=ORIENTED_EDGE('',*,*,#1098,.F.);
#863=ORIENTED_EDGE('',*,*,#1106,.F.);
#864=ORIENTED_EDGE('',*,*,#1081,.T.);
#865=ORIENTED_EDGE('',*,*,#1078,.F.);
#866=ORIENTED_EDGE('',*,*,#1105,.F.);
#867=ORIENTED_EDGE('',*,*,#1079,.T.);
#868=ORIENTED_EDGE('',*,*,#1106,.T.);
#869=ORIENTED_EDGE('',*,*,#1104,.T.);
#870=ORIENTED_EDGE('',*,*,#1103,.F.);
#871=ORIENTED_EDGE('',*,*,#1107,.T.);
#872=ORIENTED_EDGE('',*,*,#1108,.F.);
#873=ORIENTED_EDGE('',*,*,#1109,.T.);
#874=ORIENTED_EDGE('',*,*,#1110,.T.);
#875=ORIENTED_EDGE('',*,*,#1111,.T.);
#876=ORIENTED_EDGE('',*,*,#1112,.T.);
#877=ORIENTED_EDGE('',*,*,#1113,.T.);
#878=ORIENTED_EDGE('',*,*,#1114,.T.);
#879=ORIENTED_EDGE('',*,*,#1115,.F.);
#880=ORIENTED_EDGE('',*,*,#1116,.F.);
#881=ORIENTED_EDGE('',*,*,#1117,.T.);
#882=ORIENTED_EDGE('',*,*,#1082,.F.);
#883=ORIENTED_EDGE('',*,*,#1083,.F.);
#884=ORIENTED_EDGE('',*,*,#1117,.F.);
#885=ORIENTED_EDGE('',*,*,#1118,.F.);
#886=ORIENTED_EDGE('',*,*,#1119,.F.);
#887=ORIENTED_EDGE('',*,*,#1119,.T.);
#888=ORIENTED_EDGE('',*,*,#1120,.T.);
#889=ORIENTED_EDGE('',*,*,#1121,.F.);
#890=ORIENTED_EDGE('',*,*,#1084,.T.);
#891=ORIENTED_EDGE('',*,*,#1122,.T.);
#892=ORIENTED_EDGE('',*,*,#1123,.T.);
#893=ORIENTED_EDGE('',*,*,#1124,.T.);
#894=ORIENTED_EDGE('',*,*,#1085,.T.);
#895=ORIENTED_EDGE('',*,*,#1121,.T.);
#896=ORIENTED_EDGE('',*,*,#1125,.T.);
#897=ORIENTED_EDGE('',*,*,#1126,.T.);
#898=ORIENTED_EDGE('',*,*,#1127,.T.);
#899=ORIENTED_EDGE('',*,*,#1128,.T.);
#900=ORIENTED_EDGE('',*,*,#1129,.T.);
#901=ORIENTED_EDGE('',*,*,#1130,.T.);
#902=ORIENTED_EDGE('',*,*,#1131,.T.);
#903=ORIENTED_EDGE('',*,*,#1086,.T.);
#904=ORIENTED_EDGE('',*,*,#1124,.F.);
#905=ORIENTED_EDGE('',*,*,#1132,.F.);
#906=ORIENTED_EDGE('',*,*,#1092,.T.);
#907=ORIENTED_EDGE('',*,*,#1133,.T.);
#908=ORIENTED_EDGE('',*,*,#1134,.F.);
#909=ORIENTED_EDGE('',*,*,#1088,.T.);
#910=ORIENTED_EDGE('',*,*,#1135,.F.);
#911=ORIENTED_EDGE('',*,*,#1136,.T.);
#912=ORIENTED_EDGE('',*,*,#1137,.T.);
#913=ORIENTED_EDGE('',*,*,#1138,.T.);
#914=ORIENTED_EDGE('',*,*,#1108,.T.);
#915=ORIENTED_EDGE('',*,*,#1139,.T.);
#916=ORIENTED_EDGE('',*,*,#1140,.T.);
#917=ORIENTED_EDGE('',*,*,#1141,.T.);
#918=ORIENTED_EDGE('',*,*,#1142,.T.);
#919=ORIENTED_EDGE('',*,*,#1089,.T.);
#920=ORIENTED_EDGE('',*,*,#1134,.T.);
#921=ORIENTED_EDGE('',*,*,#1142,.F.);
#922=ORIENTED_EDGE('',*,*,#1143,.F.);
#923=ORIENTED_EDGE('',*,*,#1099,.F.);
#924=ORIENTED_EDGE('',*,*,#1090,.T.);
#925=ORIENTED_EDGE('',*,*,#1144,.F.);
#926=ORIENTED_EDGE('',*,*,#1145,.T.);
#927=ORIENTED_EDGE('',*,*,#1093,.T.);
#928=ORIENTED_EDGE('',*,*,#1146,.F.);
#929=ORIENTED_EDGE('',*,*,#1094,.T.);
#930=ORIENTED_EDGE('',*,*,#1147,.T.);
#931=ORIENTED_EDGE('',*,*,#1148,.F.);
#932=ORIENTED_EDGE('',*,*,#1149,.F.);
#933=ORIENTED_EDGE('',*,*,#1150,.F.);
#934=ORIENTED_EDGE('',*,*,#1151,.F.);
#935=ORIENTED_EDGE('',*,*,#1095,.T.);
#936=ORIENTED_EDGE('',*,*,#1152,.T.);
#937=ORIENTED_EDGE('',*,*,#1096,.T.);
#938=ORIENTED_EDGE('',*,*,#1153,.T.);
#939=ORIENTED_EDGE('',*,*,#1130,.F.);
#940=ORIENTED_EDGE('',*,*,#1154,.T.);
#941=ORIENTED_EDGE('',*,*,#1155,.T.);
#942=ORIENTED_EDGE('',*,*,#1135,.T.);
#943=ORIENTED_EDGE('',*,*,#1097,.T.);
#944=ORIENTED_EDGE('',*,*,#1154,.F.);
#945=ORIENTED_EDGE('',*,*,#1129,.F.);
#946=ORIENTED_EDGE('',*,*,#1156,.F.);
#947=ORIENTED_EDGE('',*,*,#1157,.T.);
#948=ORIENTED_EDGE('',*,*,#1112,.F.);
#949=ORIENTED_EDGE('',*,*,#1141,.F.);
#950=ORIENTED_EDGE('',*,*,#1158,.T.);
#951=ORIENTED_EDGE('',*,*,#1100,.F.);
#952=ORIENTED_EDGE('',*,*,#1143,.T.);
#953=ORIENTED_EDGE('',*,*,#1140,.F.);
#954=ORIENTED_EDGE('',*,*,#1159,.T.);
#955=ORIENTED_EDGE('',*,*,#1101,.F.);
#956=ORIENTED_EDGE('',*,*,#1158,.F.);
#957=ORIENTED_EDGE('',*,*,#1139,.F.);
#958=ORIENTED_EDGE('',*,*,#1107,.F.);
#959=ORIENTED_EDGE('',*,*,#1102,.F.);
#960=ORIENTED_EDGE('',*,*,#1159,.F.);
#961=ORIENTED_EDGE('',*,*,#1138,.F.);
#962=ORIENTED_EDGE('',*,*,#1133,.F.);
#963=ORIENTED_EDGE('',*,*,#1160,.F.);
#964=ORIENTED_EDGE('',*,*,#1109,.F.);
#965=ORIENTED_EDGE('',*,*,#1110,.F.);
#966=ORIENTED_EDGE('',*,*,#1160,.T.);
#967=ORIENTED_EDGE('',*,*,#1137,.F.);
#968=ORIENTED_EDGE('',*,*,#1161,.F.);
#969=ORIENTED_EDGE('',*,*,#1155,.F.);
#970=ORIENTED_EDGE('',*,*,#1111,.F.);
#971=ORIENTED_EDGE('',*,*,#1161,.T.);
#972=ORIENTED_EDGE('',*,*,#1136,.F.);
#973=ORIENTED_EDGE('',*,*,#1157,.F.);
#974=ORIENTED_EDGE('',*,*,#1162,.F.);
#975=ORIENTED_EDGE('',*,*,#1163,.F.);
#976=ORIENTED_EDGE('',*,*,#1113,.F.);
#977=ORIENTED_EDGE('',*,*,#1164,.F.);
#978=ORIENTED_EDGE('',*,*,#1114,.F.);
#979=ORIENTED_EDGE('',*,*,#1165,.F.);
#980=ORIENTED_EDGE('',*,*,#1166,.T.);
#981=ORIENTED_EDGE('',*,*,#1167,.T.);
#982=ORIENTED_EDGE('',*,*,#1115,.T.);
#983=ORIENTED_EDGE('',*,*,#1164,.T.);
#984=ORIENTED_EDGE('',*,*,#1168,.T.);
#985=ORIENTED_EDGE('',*,*,#1126,.F.);
#986=ORIENTED_EDGE('',*,*,#1169,.T.);
#987=ORIENTED_EDGE('',*,*,#1170,.T.);
#988=ORIENTED_EDGE('',*,*,#1170,.F.);
#989=ORIENTED_EDGE('',*,*,#1171,.T.);
#990=ORIENTED_EDGE('',*,*,#1172,.F.);
#991=ORIENTED_EDGE('',*,*,#1173,.F.);
#992=ORIENTED_EDGE('',*,*,#1116,.T.);
#993=ORIENTED_EDGE('',*,*,#1174,.F.);
#994=ORIENTED_EDGE('',*,*,#1175,.F.);
#995=ORIENTED_EDGE('',*,*,#1118,.T.);
#996=ORIENTED_EDGE('',*,*,#1173,.T.);
#997=ORIENTED_EDGE('',*,*,#1120,.F.);
#998=ORIENTED_EDGE('',*,*,#1175,.T.);
#999=ORIENTED_EDGE('',*,*,#1176,.T.);
#1000=ORIENTED_EDGE('',*,*,#1177,.F.);
#1001=ORIENTED_EDGE('',*,*,#1148,.T.);
#1002=ORIENTED_EDGE('',*,*,#1178,.T.);
#1003=ORIENTED_EDGE('',*,*,#1179,.T.);
#1004=ORIENTED_EDGE('',*,*,#1122,.F.);
#1005=ORIENTED_EDGE('',*,*,#1180,.T.);
#1006=ORIENTED_EDGE('',*,*,#1181,.T.);
#1007=ORIENTED_EDGE('',*,*,#1179,.F.);
#1008=ORIENTED_EDGE('',*,*,#1182,.F.);
#1009=ORIENTED_EDGE('',*,*,#1183,.T.);
#1010=ORIENTED_EDGE('',*,*,#1184,.T.);
#1011=ORIENTED_EDGE('',*,*,#1123,.F.);
#1012=ORIENTED_EDGE('',*,*,#1169,.F.);
#1013=ORIENTED_EDGE('',*,*,#1125,.F.);
#1014=ORIENTED_EDGE('',*,*,#1177,.T.);
#1015=ORIENTED_EDGE('',*,*,#1185,.T.);
#1016=ORIENTED_EDGE('',*,*,#1171,.F.);
#1017=ORIENTED_EDGE('',*,*,#1168,.F.);
#1018=ORIENTED_EDGE('',*,*,#1167,.F.);
#1019=ORIENTED_EDGE('',*,*,#1186,.T.);
#1020=ORIENTED_EDGE('',*,*,#1187,.T.);
#1021=ORIENTED_EDGE('',*,*,#1127,.F.);
#1022=ORIENTED_EDGE('',*,*,#1156,.T.);
#1023=ORIENTED_EDGE('',*,*,#1128,.F.);
#1024=ORIENTED_EDGE('',*,*,#1188,.F.);
#1025=ORIENTED_EDGE('',*,*,#1162,.T.);
#1026=ORIENTED_EDGE('',*,*,#1180,.F.);
#1027=ORIENTED_EDGE('',*,*,#1131,.F.);
#1028=ORIENTED_EDGE('',*,*,#1189,.T.);
#1029=ORIENTED_EDGE('',*,*,#1190,.T.);
#1030=ORIENTED_EDGE('',*,*,#1191,.F.);
#1031=ORIENTED_EDGE('',*,*,#1192,.F.);
#1032=ORIENTED_EDGE('',*,*,#1146,.T.);
#1033=ORIENTED_EDGE('',*,*,#1132,.T.);
#1034=ORIENTED_EDGE('',*,*,#1184,.F.);
#1035=ORIENTED_EDGE('',*,*,#1144,.T.);
#1036=ORIENTED_EDGE('',*,*,#1192,.T.);
#1037=ORIENTED_EDGE('',*,*,#1183,.F.);
#1038=ORIENTED_EDGE('',*,*,#1193,.F.);
#1039=ORIENTED_EDGE('',*,*,#1178,.F.);
#1040=ORIENTED_EDGE('',*,*,#1147,.F.);
#1041=ORIENTED_EDGE('',*,*,#1145,.F.);
#1042=ORIENTED_EDGE('',*,*,#1193,.T.);
#1043=ORIENTED_EDGE('',*,*,#1182,.T.);
#1044=ORIENTED_EDGE('',*,*,#1181,.F.);
#1045=ORIENTED_EDGE('',*,*,#1191,.T.);
#1046=ORIENTED_EDGE('',*,*,#1194,.F.);
#1047=ORIENTED_EDGE('',*,*,#1152,.F.);
#1048=ORIENTED_EDGE('',*,*,#1149,.T.);
#1049=ORIENTED_EDGE('',*,*,#1150,.T.);
#1050=ORIENTED_EDGE('',*,*,#1194,.T.);
#1051=ORIENTED_EDGE('',*,*,#1190,.F.);
#1052=ORIENTED_EDGE('',*,*,#1195,.F.);
#1053=ORIENTED_EDGE('',*,*,#1153,.F.);
#1054=ORIENTED_EDGE('',*,*,#1151,.T.);
#1055=ORIENTED_EDGE('',*,*,#1195,.T.);
#1056=ORIENTED_EDGE('',*,*,#1189,.F.);
#1057=ORIENTED_EDGE('',*,*,#1196,.F.);
#1058=ORIENTED_EDGE('',*,*,#1165,.T.);
#1059=ORIENTED_EDGE('',*,*,#1163,.T.);
#1060=ORIENTED_EDGE('',*,*,#1197,.F.);
#1061=ORIENTED_EDGE('',*,*,#1198,.T.);
#1062=ORIENTED_EDGE('',*,*,#1186,.F.);
#1063=ORIENTED_EDGE('',*,*,#1166,.F.);
#1064=ORIENTED_EDGE('',*,*,#1196,.T.);
#1065=ORIENTED_EDGE('',*,*,#1174,.T.);
#1066=ORIENTED_EDGE('',*,*,#1172,.T.);
#1067=ORIENTED_EDGE('',*,*,#1185,.F.);
#1068=ORIENTED_EDGE('',*,*,#1176,.F.);
#1069=ORIENTED_EDGE('',*,*,#1198,.F.);
#1070=ORIENTED_EDGE('',*,*,#1197,.T.);
#1071=ORIENTED_EDGE('',*,*,#1188,.T.);
#1072=ORIENTED_EDGE('',*,*,#1187,.F.);
#1073=EDGE_CURVE('',#1199,#1200,#1201,.T.);
#1074=EDGE_CURVE('',#1202,#1200,#1203,.T.);
#1075=EDGE_CURVE('',#1202,#1204,#1205,.T.);
#1076=EDGE_CURVE('',#1206,#1204,#1207,.T.);
#1077=EDGE_CURVE('',#1206,#1208,#1209,.T.);
#1078=EDGE_CURVE('',#1208,#1199,#1210,.T.);
#1079=EDGE_CURVE('',#1211,#1212,#1213,.F.);
#1080=EDGE_CURVE('',#1200,#1211,#1214,.F.);
#1081=EDGE_CURVE('',#1212,#1199,#1215,.T.);
#1082=EDGE_CURVE('',#1211,#1216,#1217,.T.);
#1083=EDGE_CURVE('',#1216,#1218,#1219,.F.);
#1084=EDGE_CURVE('',#1220,#1218,#1221,.T.);
#1085=EDGE_CURVE('',#1222,#1220,#1223,.T.);
#1086=EDGE_CURVE('',#1224,#1222,#1225,.T.);
#1087=EDGE_CURVE('',#1224,#1202,#1226,.F.);
#1088=EDGE_CURVE('',#1227,#1228,#1229,.T.);
#1089=EDGE_CURVE('',#1230,#1227,#1231,.F.);
#1090=EDGE_CURVE('',#1232,#1230,#1233,.F.);
#1091=EDGE_CURVE('',#1204,#1232,#1234,.F.);
#1092=EDGE_CURVE('',#1235,#1224,#1236,.T.);
#1093=EDGE_CURVE('',#1237,#1235,#1238,.T.);
#1094=EDGE_CURVE('',#1239,#1237,#1240,.F.);
#1095=EDGE_CURVE('',#1241,#1239,#1242,.T.);
#1096=EDGE_CURVE('',#1243,#1241,#1244,.T.);
#1097=EDGE_CURVE('',#1228,#1243,#1245,.F.);
#1098=EDGE_CURVE('',#1246,#1206,#1247,.F.);
#1099=EDGE_CURVE('',#1232,#1248,#1249,.T.);
#1100=EDGE_CURVE('',#1248,#1250,#1251,.F.);
#1101=EDGE_CURVE('',#1250,#1252,#1253,.T.);
#1102=EDGE_CURVE('',#1252,#1254,#1255,.F.);
#1103=EDGE_CURVE('',#1254,#1246,#1256,.T.);
#1104=EDGE_CURVE('',#1257,#1246,#1258,.F.);
#1105=EDGE_CURVE('',#1257,#1208,#1259,.T.);
#1106=EDGE_CURVE('',#1212,#1257,#1260,.F.);
#1107=EDGE_CURVE('',#1254,#1261,#1262,.F.);
#1108=EDGE_CURVE('',#1263,#1261,#1264,.T.);
#1109=EDGE_CURVE('',#1263,#1265,#1266,.F.);
#1110=EDGE_CURVE('',#1265,#1267,#1268,.F.);
#1111=EDGE_CURVE('',#1267,#1269,#1270,.F.);
#1112=EDGE_CURVE('',#1269,#1271,#1272,.T.);
#1113=EDGE_CURVE('',#1271,#1273,#1274,.T.);
#1114=EDGE_CURVE('',#1273,#1275,#1276,.T.);
#1115=EDGE_CURVE('',#1277,#1275,#1278,.T.);
#1116=EDGE_CURVE('',#1279,#1277,#1280,.T.);
#1117=EDGE_CURVE('',#1279,#1216,#1281,.T.);
#1118=EDGE_CURVE('',#1282,#1279,#1283,.T.);
#1119=EDGE_CURVE('',#1218,#1282,#1284,.T.);
#1120=EDGE_CURVE('',#1282,#1285,#1286,.T.);
#1121=EDGE_CURVE('',#1220,#1285,#1287,.T.);
#1122=EDGE_CURVE('',#1288,#1289,#1290,.T.);
#1123=EDGE_CURVE('',#1289,#1291,#1292,.T.);
#1124=EDGE_CURVE('',#1291,#1222,#1293,.T.);
#1125=EDGE_CURVE('',#1285,#1294,#1295,.T.);
#1126=EDGE_CURVE('',#1294,#1296,#1297,.T.);
#1127=EDGE_CURVE('',#1296,#1298,#1299,.T.);
#1128=EDGE_CURVE('',#1298,#1300,#1301,.T.);
#1129=EDGE_CURVE('',#1300,#1302,#1303,.T.);
#1130=EDGE_CURVE('',#1302,#1304,#1305,.T.);
#1131=EDGE_CURVE('',#1304,#1288,#1306,.T.);
#1132=EDGE_CURVE('',#1235,#1291,#1307,.T.);
#1133=EDGE_CURVE('',#1308,#1309,#1310,.T.);
#1134=EDGE_CURVE('',#1227,#1309,#1311,.T.);
#1135=EDGE_CURVE('',#1312,#1228,#1313,.T.);
#1136=EDGE_CURVE('',#1312,#1314,#1315,.T.);
#1137=EDGE_CURVE('',#1314,#1308,#1316,.T.);
#1138=EDGE_CURVE('',#1309,#1263,#1317,.F.);
#1139=EDGE_CURVE('',#1261,#1318,#1319,.F.);
#1140=EDGE_CURVE('',#1318,#1320,#1321,.T.);
#1141=EDGE_CURVE('',#1320,#1322,#1323,.F.);
#1142=EDGE_CURVE('',#1322,#1230,#1324,.T.);
#1143=EDGE_CURVE('',#1248,#1322,#1325,.F.);
#1144=EDGE_CURVE('',#1326,#1327,#1328,.T.);
#1145=EDGE_CURVE('',#1326,#1237,#1329,.T.);
#1146=EDGE_CURVE('',#1327,#1235,#1330,.T.);
#1147=EDGE_CURVE('',#1237,#1331,#1332,.T.);
#1148=EDGE_CURVE('',#1333,#1331,#1334,.T.);
#1149=EDGE_CURVE('',#1239,#1333,#1335,.T.);
#1150=EDGE_CURVE('',#1336,#1337,#1338,.T.);
#1151=EDGE_CURVE('',#1241,#1336,#1339,.T.);
#1152=EDGE_CURVE('',#1239,#1337,#1340,.F.);
#1153=EDGE_CURVE('',#1241,#1304,#1341,.T.);
#1154=EDGE_CURVE('',#1302,#1243,#1342,.T.);
#1155=EDGE_CURVE('',#1269,#1312,#1343,.F.);
#1156=EDGE_CURVE('',#1344,#1300,#1345,.T.);
#1157=EDGE_CURVE('',#1344,#1271,#1346,.F.);
#1158=EDGE_CURVE('',#1320,#1250,#1347,.F.);
#1159=EDGE_CURVE('',#1318,#1252,#1348,.F.);
#1160=EDGE_CURVE('',#1265,#1308,#1349,.T.);
#1161=EDGE_CURVE('',#1267,#1314,#1350,.T.);
#1162=EDGE_CURVE('',#1351,#1344,#1352,.T.);
#1163=EDGE_CURVE('',#1273,#1351,#1353,.T.);
#1164=EDGE_CURVE('',#1275,#1354,#1355,.F.);
#1165=EDGE_CURVE('',#1356,#1273,#1357,.T.);
#1166=EDGE_CURVE('',#1356,#1358,#1359,.T.);
#1167=EDGE_CURVE('',#1358,#1354,#1360,.F.);
#1168=EDGE_CURVE('',#1354,#1296,#1361,.T.);
#1169=EDGE_CURVE('',#1294,#1362,#1363,.F.);
#1170=EDGE_CURVE('',#1362,#1277,#1364,.T.);
#1171=EDGE_CURVE('',#1362,#1365,#1366,.F.);
#1172=EDGE_CURVE('',#1367,#1365,#1368,.T.);
#1173=EDGE_CURVE('',#1279,#1367,#1369,.F.);
#1174=EDGE_CURVE('',#1370,#1367,#1371,.T.);
#1175=EDGE_CURVE('',#1282,#1370,#1372,.T.);
#1176=EDGE_CURVE('',#1370,#1373,#1374,.T.);
#1177=EDGE_CURVE('',#1285,#1373,#1375,.F.);
#1178=EDGE_CURVE('',#1331,#1376,#1377,.F.);
#1179=EDGE_CURVE('',#1376,#1289,#1378,.T.);
#1180=EDGE_CURVE('',#1288,#1379,#1380,.F.);
#1181=EDGE_CURVE('',#1379,#1333,#1381,.T.);
#1182=EDGE_CURVE('',#1382,#1376,#1383,.F.);
#1183=EDGE_CURVE('',#1382,#1384,#1385,.T.);
#1184=EDGE_CURVE('',#1384,#1291,#1386,.T.);
#1185=EDGE_CURVE('',#1373,#1365,#1387,.T.);
#1186=EDGE_CURVE('',#1358,#1388,#1389,.T.);
#1187=EDGE_CURVE('',#1388,#1298,#1390,.T.);
#1188=EDGE_CURVE('',#1351,#1298,#1391,.T.);
#1189=EDGE_CURVE('',#1304,#1392,#1393,.F.);
#1190=EDGE_CURVE('',#1392,#1394,#1395,.T.);
#1191=EDGE_CURVE('',#1379,#1394,#1396,.F.);
#1192=EDGE_CURVE('',#1327,#1384,#1397,.T.);
#1193=EDGE_CURVE('',#1326,#1382,#1398,.T.);
#1194=EDGE_CURVE('',#1337,#1394,#1399,.T.);
#1195=EDGE_CURVE('',#1336,#1392,#1400,.T.);
#1196=EDGE_CURVE('',#1356,#1401,#1402,.T.);
#1197=EDGE_CURVE('',#1401,#1351,#1403,.T.);
#1198=EDGE_CURVE('',#1401,#1388,#1404,.T.);
#1199=VERTEX_POINT('',#1405);
#1200=VERTEX_POINT('',#1406);
#1201=LINE('',#1407,#1408);
#1202=VERTEX_POINT('',#1410);
#1203=LINE('',#1411,#1412);
#1204=VERTEX_POINT('',#1414);
#1205=LINE('',#1415,#1416);
#1206=VERTEX_POINT('',#1418);
#1207=LINE('',#1419,#1420);
#1208=VERTEX_POINT('',#1422);
#1209=LINE('',#1423,#1424);
#1210=LINE('',#1426,#1427);
#1211=VERTEX_POINT('',#1429);
#1212=VERTEX_POINT('',#1430);
#1213=LINE('',#1431,#1432);
#1214=LINE('',#1434,#1435);
#1215=LINE('',#1437,#1438);
#1216=VERTEX_POINT('',#1440);
#1217=LINE('',#1441,#1442);
#1218=VERTEX_POINT('',#1444);
#1219=LINE('',#1445,#1446);
#1220=VERTEX_POINT('',#1448);
#1221=LINE('',#1449,#1450);
#1222=VERTEX_POINT('',#1452);
#1223=LINE('',#1453,#1454);
#1224=VERTEX_POINT('',#1456);
#1225=LINE('',#1457,#1458);
#1226=LINE('',#1460,#1461);
#1227=VERTEX_POINT('',#1463);
#1228=VERTEX_POINT('',#1464);
#1229=LINE('',#1465,#1466);
#1230=VERTEX_POINT('',#1468);
#1231=LINE('',#1469,#1470);
#1232=VERTEX_POINT('',#1472);
#1233=LINE('',#1473,#1474);
#1234=LINE('',#1476,#1477);
#1235=VERTEX_POINT('',#1479);
#1236=LINE('',#1480,#1481);
#1237=VERTEX_POINT('',#1483);
#1238=LINE('',#1484,#1485);
#1239=VERTEX_POINT('',#1487);
#1240=LINE('',#1488,#1489);
#1241=VERTEX_POINT('',#1491);
#1242=LINE('',#1492,#1493);
#1243=VERTEX_POINT('',#1495);
#1244=LINE('',#1496,#1497);
#1245=LINE('',#1499,#1500);
#1246=VERTEX_POINT('',#1502);
#1247=LINE('',#1503,#1504);
#1248=VERTEX_POINT('',#1506);
#1249=LINE('',#1507,#1508);
#1250=VERTEX_POINT('',#1510);
#1251=LINE('',#1511,#1512);
#1252=VERTEX_POINT('',#1514);
#1253=LINE('',#1515,#1516);
#1254=VERTEX_POINT('',#1518);
#1255=LINE('',#1519,#1520);
#1256=LINE('',#1522,#1523);
#1257=VERTEX_POINT('',#1525);
#1258=LINE('',#1526,#1527);
#1259=LINE('',#1529,#1530);
#1260=LINE('',#1532,#1533);
#1261=VERTEX_POINT('',#1535);
#1262=LINE('',#1536,#1537);
#1263=VERTEX_POINT('',#1539);
#1264=LINE('',#1540,#1541);
#1265=VERTEX_POINT('',#1543);
#1266=LINE('',#1544,#1545);
#1267=VERTEX_POINT('',#1547);
#1268=LINE('',#1548,#1549);
#1269=VERTEX_POINT('',#1551);
#1270=LINE('',#1552,#1553);
#1271=VERTEX_POINT('',#1555);
#1272=LINE('',#1556,#1557);
#1273=VERTEX_POINT('',#1559);
#1274=LINE('',#1560,#1561);
#1275=VERTEX_POINT('',#1563);
#1276=LINE('',#1564,#1565);
#1277=VERTEX_POINT('',#1567);
#1278=LINE('',#1568,#1569);
#1279=VERTEX_POINT('',#1571);
#1280=LINE('',#1572,#1573);
#1281=LINE('',#1575,#1576);
#1282=VERTEX_POINT('',#1578);
#1283=LINE('',#1579,#1580);
#1284=LINE('',#1582,#1583);
#1285=VERTEX_POINT('',#1585);
#1286=LINE('',#1586,#1587);
#1287=LINE('',#1589,#1590);
#1288=VERTEX_POINT('',#1592);
#1289=VERTEX_POINT('',#1593);
#1290=LINE('',#1594,#1595);
#1291=VERTEX_POINT('',#1597);
#1292=LINE('',#1598,#1599);
#1293=LINE('',#1601,#1602);
#1294=VERTEX_POINT('',#1604);
#1295=LINE('',#1605,#1606);
#1296=VERTEX_POINT('',#1608);
#1297=LINE('',#1609,#1610);
#1298=VERTEX_POINT('',#1612);
#1299=LINE('',#1613,#1614);
#1300=VERTEX_POINT('',#1616);
#1301=LINE('',#1617,#1618);
#1302=VERTEX_POINT('',#1620);
#1303=LINE('',#1621,#1622);
#1304=VERTEX_POINT('',#1624);
#1305=LINE('',#1625,#1626);
#1306=LINE('',#1628,#1629);
#1307=LINE('',#1631,#1632);
#1308=VERTEX_POINT('',#1634);
#1309=VERTEX_POINT('',#1635);
#1310=LINE('',#1636,#1637);
#1311=LINE('',#1639,#1640);
#1312=VERTEX_POINT('',#1642);
#1313=LINE('',#1643,#1644);
#1314=VERTEX_POINT('',#1646);
#1315=LINE('',#1647,#1648);
#1316=LINE('',#1650,#1651);
#1317=LINE('',#1653,#1654);
#1318=VERTEX_POINT('',#1656);
#1319=LINE('',#1657,#1658);
#1320=VERTEX_POINT('',#1660);
#1321=LINE('',#1661,#1662);
#1322=VERTEX_POINT('',#1664);
#1323=LINE('',#1665,#1666);
#1324=LINE('',#1668,#1669);
#1325=LINE('',#1671,#1672);
#1326=VERTEX_POINT('',#1674);
#1327=VERTEX_POINT('',#1675);
#1328=LINE('',#1676,#1677);
#1329=LINE('',#1679,#1680);
#1330=LINE('',#1682,#1683);
#1331=VERTEX_POINT('',#1685);
#1332=LINE('',#1686,#1687);
#1333=VERTEX_POINT('',#1689);
#1334=LINE('',#1690,#1691);
#1335=LINE('',#1693,#1694);
#1336=VERTEX_POINT('',#1696);
#1337=VERTEX_POINT('',#1697);
#1338=LINE('',#1698,#1699);
#1339=LINE('',#1701,#1702);
#1340=LINE('',#1704,#1705);
#1341=LINE('',#1707,#1708);
#1342=LINE('',#1710,#1711);
#1343=LINE('',#1713,#1714);
#1344=VERTEX_POINT('',#1716);
#1345=LINE('',#1717,#1718);
#1346=LINE('',#1720,#1721);
#1347=LINE('',#1723,#1724);
#1348=LINE('',#1726,#1727);
#1349=LINE('',#1729,#1730);
#1350=LINE('',#1732,#1733);
#1351=VERTEX_POINT('',#1735);
#1352=LINE('',#1736,#1737);
#1353=LINE('',#1739,#1740);
#1354=VERTEX_POINT('',#1742);
#1355=(BOUNDED_CURVE()B_SPLINE_CURVE(3,
(#1743,#1744,#1745,#1746),
.UNSPECIFIED.,.F.,.F.)B_SPLINE_CURVE_WITH_KNOTS((4,4),
(0.,1.),
.UNSPECIFIED.)CURVE()GEOMETRIC_REPRESENTATION_ITEM()RATIONAL_B_SPLINE_CURVE((1.,
0.94925302167419,0.94925302167419,1.))REPRESENTATION_ITEM(''));
#1356=VERTEX_POINT('',#1747);
#1357=LINE('',#1748,#1749);
#1358=VERTEX_POINT('',#1751);
#1359=LINE('',#1752,#1753);
#1360=LINE('',#1755,#1756);
#1361=(BOUNDED_CURVE()B_SPLINE_CURVE(3,
(#1758,#1759,#1760,#1761),
.UNSPECIFIED.,.F.,.F.)B_SPLINE_CURVE_WITH_KNOTS((4,4),
(0.,1.),
.UNSPECIFIED.)CURVE()GEOMETRIC_REPRESENTATION_ITEM()RATIONAL_B_SPLINE_CURVE((1.,
0.949253021674192,0.949253021674192,1.))REPRESENTATION_ITEM(''));
#1362=VERTEX_POINT('',#1762);
#1363=(BOUNDED_CURVE()B_SPLINE_CURVE(3,
(#1763,#1764,#1765,#1766),
.UNSPECIFIED.,.F.,.F.)B_SPLINE_CURVE_WITH_KNOTS((4,4),
(0.,1.),
.UNSPECIFIED.)CURVE()GEOMETRIC_REPRESENTATION_ITEM()RATIONAL_B_SPLINE_CURVE((1.,
0.949253021674192,0.949253021674192,1.))REPRESENTATION_ITEM(''));
#1364=(BOUNDED_CURVE()B_SPLINE_CURVE(3,
(#1767,#1768,#1769,#1770),
.UNSPECIFIED.,.F.,.F.)B_SPLINE_CURVE_WITH_KNOTS((4,4),
(0.,1.),
.UNSPECIFIED.)CURVE()GEOMETRIC_REPRESENTATION_ITEM()RATIONAL_B_SPLINE_CURVE((1.,
0.949253021674192,0.949253021674192,1.))REPRESENTATION_ITEM(''));
#1365=VERTEX_POINT('',#1771);
#1366=LINE('',#1772,#1773);
#1367=VERTEX_POINT('',#1775);
#1368=LINE('',#1776,#1777);
#1369=LINE('',#1779,#1780);
#1370=VERTEX_POINT('',#1782);
#1371=LINE('',#1783,#1784);
#1372=LINE('',#1786,#1787);
#1373=VERTEX_POINT('',#1789);
#1374=LINE('',#1790,#1791);
#1375=LINE('',#1793,#1794);
#1376=VERTEX_POINT('',#1796);
#1377=(BOUNDED_CURVE()B_SPLINE_CURVE(3,
(#1797,#1798,#1799,#1800),
.UNSPECIFIED.,.F.,.F.)B_SPLINE_CURVE_WITH_KNOTS((4,4),
(0.,1.),
.UNSPECIFIED.)CURVE()GEOMETRIC_REPRESENTATION_ITEM()RATIONAL_B_SPLINE_CURVE((1.,
0.94925302167419,0.94925302167419,1.))REPRESENTATION_ITEM(''));
#1378=(BOUNDED_CURVE()B_SPLINE_CURVE(3,
(#1801,#1802,#1803,#1804),
.UNSPECIFIED.,.F.,.F.)B_SPLINE_CURVE_WITH_KNOTS((4,4),
(0.,1.),
.UNSPECIFIED.)CURVE()GEOMETRIC_REPRESENTATION_ITEM()RATIONAL_B_SPLINE_CURVE((1.,
0.949253021674192,0.949253021674192,1.))REPRESENTATION_ITEM(''));
#1379=VERTEX_POINT('',#1805);
#1380=(BOUNDED_CURVE()B_SPLINE_CURVE(3,
(#1806,#1807,#1808,#1809),
.UNSPECIFIED.,.F.,.F.)B_SPLINE_CURVE_WITH_KNOTS((4,4),
(0.,1.),
.UNSPECIFIED.)CURVE()GEOMETRIC_REPRESENTATION_ITEM()RATIONAL_B_SPLINE_CURVE((1.,
0.949253021674192,0.949253021674192,1.))REPRESENTATION_ITEM(''));
#1381=(BOUNDED_CURVE()B_SPLINE_CURVE(3,
(#1810,#1811,#1812,#1813),
.UNSPECIFIED.,.F.,.F.)B_SPLINE_CURVE_WITH_KNOTS((4,4),
(0.,1.),
.UNSPECIFIED.)CURVE()GEOMETRIC_REPRESENTATION_ITEM()RATIONAL_B_SPLINE_CURVE((1.,
0.949253021674192,0.949253021674192,1.))REPRESENTATION_ITEM(''));
#1382=VERTEX_POINT('',#1814);
#1383=LINE('',#1815,#1816);
#1384=VERTEX_POINT('',#1818);
#1385=LINE('',#1819,#1820);
#1386=LINE('',#1822,#1823);
#1387=LINE('',#1825,#1826);
#1388=VERTEX_POINT('',#1828);
#1389=LINE('',#1829,#1830);
#1390=LINE('',#1832,#1833);
#1391=LINE('',#1835,#1836);
#1392=VERTEX_POINT('',#1838);
#1393=LINE('',#1839,#1840);
#1394=VERTEX_POINT('',#1842);
#1395=LINE('',#1843,#1844);
#1396=LINE('',#1846,#1847);
#1397=LINE('',#1849,#1850);
#1398=LINE('',#1852,#1853);
#1399=LINE('',#1855,#1856);
#1400=LINE('',#1858,#1859);
#1401=VERTEX_POINT('',#1861);
#1402=LINE('',#1862,#1863);
#1403=LINE('',#1865,#1866);
#1404=LINE('',#1868,#1869);
#1405=CARTESIAN_POINT('',(-47.,48.,-1.5));
#1406=CARTESIAN_POINT('',(-50.,48.,-1.5));
#1407=CARTESIAN_POINT('',(-47.,48.,-1.5));
#1408=VECTOR('',#1409,1.);
#1409=DIRECTION('',(-1.,0.,0.));
#1410=CARTESIAN_POINT('',(-50.,48.,41.5));
#1411=CARTESIAN_POINT('',(-50.,48.,41.5));
#1412=VECTOR('',#1413,1.);
#1413=DIRECTION('',(0.,-1.65242496688395E-16,-1.));
#1414=CARTESIAN_POINT('',(-44.,48.,41.5));
#1415=CARTESIAN_POINT('',(-50.,48.,41.5));
#1416=VECTOR('',#1417,1.);
#1417=DIRECTION('',(1.,0.,0.));
#1418=CARTESIAN_POINT('',(-44.,48.,1.5));
#1419=CARTESIAN_POINT('',(-44.,48.,1.5));
#1420=VECTOR('',#1421,1.);
#1421=DIRECTION('',(-1.77635683940025E-16,1.77635683940025E-16,1.));
#1422=CARTESIAN_POINT('',(-47.,48.,1.5));
#1423=CARTESIAN_POINT('',(-44.,48.,1.5));
#1424=VECTOR('',#1425,1.);
#1425=DIRECTION('',(-1.,0.,0.));
#1426=CARTESIAN_POINT('',(-47.,48.,1.5));
#1427=VECTOR('',#1428,1.);
#1428=DIRECTION('',(0.,0.,-1.));
#1429=CARTESIAN_POINT('',(-50.,-50.,-1.5));
#1430=CARTESIAN_POINT('',(-47.,-50.,-1.5));
#1431=CARTESIAN_POINT('',(-47.,-50.,-1.5));
#1432=VECTOR('',#1433,1.);
#1433=DIRECTION('',(-1.,0.,0.));
#1434=CARTESIAN_POINT('',(-50.,-50.,-1.5));
#1435=VECTOR('',#1436,1.);
#1436=DIRECTION('',(0.,1.,0.));
#1437=CARTESIAN_POINT('',(-47.,-50.,-1.5));
#1438=VECTOR('',#1439,1.);
#1439=DIRECTION('',(0.,1.,0.));
#1440=CARTESIAN_POINT('',(-50.,-50.,41.5));
#1441=CARTESIAN_POINT('',(-50.,-50.,-1.5));
#1442=VECTOR('',#1443,1.);
#1443=DIRECTION('',(0.,0.,1.));
#1444=CARTESIAN_POINT('',(-50.,-41.5,41.5));
#1445=CARTESIAN_POINT('',(-50.,-41.5,41.5));
#1446=VECTOR('',#1447,1.);
#1447=DIRECTION('',(8.35932630306E-16,-1.,0.));
#1448=CARTESIAN_POINT('',(-50.,-41.5,50.));
#1449=CARTESIAN_POINT('',(-50.,-41.5,50.));
#1450=VECTOR('',#1451,1.);
#1451=DIRECTION('',(-8.35932630306E-16,8.35932630306E-16,-1.));
#1452=CARTESIAN_POINT('',(-50.,41.5,50.));
#1453=CARTESIAN_POINT('',(-50.,41.5,50.));
#1454=VECTOR('',#1455,1.);
#1455=DIRECTION('',(0.,-1.,0.));
#1456=CARTESIAN_POINT('',(-50.,41.5,41.5));
#1457=CARTESIAN_POINT('',(-50.,41.5,41.5));
#1458=VECTOR('',#1459,1.);
#1459=DIRECTION('',(8.35932630306E-16,0.,1.));
#1460=CARTESIAN_POINT('',(-50.,48.,41.5));
#1461=VECTOR('',#1462,1.);
#1462=DIRECTION('',(-1.09314267040015E-15,-1.,0.));
#1463=CARTESIAN_POINT('',(44.,48.,41.5));
#1464=CARTESIAN_POINT('',(50.,48.,41.5));
#1465=CARTESIAN_POINT('',(44.,48.,41.5));
#1466=VECTOR('',#1467,1.);
#1467=DIRECTION('',(1.,0.,0.));
#1468=CARTESIAN_POINT('',(44.,46.,41.5));
#1469=CARTESIAN_POINT('',(44.,48.,41.5));
#1470=VECTOR('',#1471,1.);
#1471=DIRECTION('',(0.,-1.,0.));
#1472=CARTESIAN_POINT('',(-44.,46.,41.5));
#1473=CARTESIAN_POINT('',(44.,46.,41.5));
#1474=VECTOR('',#1475,1.);
#1475=DIRECTION('',(-1.,0.,0.));
#1476=CARTESIAN_POINT('',(-44.,46.,41.5));
#1477=VECTOR('',#1478,1.);
#1478=DIRECTION('',(0.,1.,0.));
#1479=CARTESIAN_POINT('',(-55.75,41.5,41.5));
#1480=CARTESIAN_POINT('',(-55.75,41.5,41.5));
#1481=VECTOR('',#1482,1.);
#1482=DIRECTION('',(1.,0.,0.));
#1483=CARTESIAN_POINT('',(-55.75,50.,41.5));
#1484=CARTESIAN_POINT('',(-55.75,50.,41.5));
#1485=VECTOR('',#1486,1.);
#1486=DIRECTION('',(0.,-1.,0.));
#1487=CARTESIAN_POINT('',(55.75,50.,41.5));
#1488=CARTESIAN_POINT('',(-55.75,50.,41.5));
#1489=VECTOR('',#1490,1.);
#1490=DIRECTION('',(1.,0.,0.));
#1491=CARTESIAN_POINT('',(55.75,41.5,41.5));
#1492=CARTESIAN_POINT('',(55.75,41.5,41.5));
#1493=VECTOR('',#1494,1.);
#1494=DIRECTION('',(0.,1.,0.));
#1495=CARTESIAN_POINT('',(50.,41.5,41.5));
#1496=CARTESIAN_POINT('',(50.,41.5,41.5));
#1497=VECTOR('',#1498,1.);
#1498=DIRECTION('',(1.,0.,0.));
#1499=CARTESIAN_POINT('',(50.,41.5,41.5));
#1500=VECTOR('',#1501,1.);
#1501=DIRECTION('',(0.,1.,0.));
#1502=CARTESIAN_POINT('',(-44.,-50.,1.5));
#1503=CARTESIAN_POINT('',(-44.,48.,1.5));
#1504=VECTOR('',#1505,1.);
#1505=DIRECTION('',(-1.45008721583694E-16,-1.,1.35945676484713E-17));
#1506=CARTESIAN_POINT('',(-44.,46.,44.));
#1507=CARTESIAN_POINT('',(-44.,46.,41.5));
#1508=VECTOR('',#1509,1.);
#1509=DIRECTION('',(0.,0.,1.));
#1510=CARTESIAN_POINT('',(-44.,-46.,44.));
#1511=CARTESIAN_POINT('',(-44.,-46.,44.));
#1512=VECTOR('',#1513,1.);
#1513=DIRECTION('',(1.54465812121761E-16,1.,0.));
#1514=CARTESIAN_POINT('',(-44.,-46.,41.5));
#1515=CARTESIAN_POINT('',(-44.,-46.,44.));
#1516=VECTOR('',#1517,1.);
#1517=DIRECTION('',(0.,0.,-1.));
#1518=CARTESIAN_POINT('',(-44.,-50.,41.5));
#1519=CARTESIAN_POINT('',(-44.,-50.,41.5));
#1520=VECTOR('',#1521,1.);
#1521=DIRECTION('',(0.,1.,0.));
#1522=CARTESIAN_POINT('',(-44.,-50.,41.5));
#1523=VECTOR('',#1524,1.);
#1524=DIRECTION('',(1.77635683940025E-16,0.,-1.));
#1525=CARTESIAN_POINT('',(-47.,-50.,1.5));
#1526=CARTESIAN_POINT('',(-44.,-50.,1.5));
#1527=VECTOR('',#1528,1.);
#1528=DIRECTION('',(-1.,0.,0.));
#1529=CARTESIAN_POINT('',(-47.,-50.,1.5));
#1530=VECTOR('',#1531,1.);
#1531=DIRECTION('',(0.,1.,0.));
#1532=CARTESIAN_POINT('',(-47.,-50.,1.5));
#1533=VECTOR('',#1534,1.);
#1534=DIRECTION('',(0.,0.,-1.));
#1535=CARTESIAN_POINT('',(44.,-50.,41.5));
#1536=CARTESIAN_POINT('',(44.,-50.,41.5));
#1537=VECTOR('',#1538,1.);
#1538=DIRECTION('',(-1.,0.,0.));
#1539=CARTESIAN_POINT('',(44.,-50.,1.5));
#1540=CARTESIAN_POINT('',(44.,-50.,1.5));
#1541=VECTOR('',#1542,1.);
#1542=DIRECTION('',(-3.5527136788005E-16,0.,1.));
#1543=CARTESIAN_POINT('',(47.,-50.,1.5));
#1544=CARTESIAN_POINT('',(47.,-50.,1.5));
#1545=VECTOR('',#1546,1.);
#1546=DIRECTION('',(-1.,0.,0.));
#1547=CARTESIAN_POINT('',(47.,-50.,-1.5));
#1548=CARTESIAN_POINT('',(47.,-50.,-1.5));
#1549=VECTOR('',#1550,1.);
#1550=DIRECTION('',(0.,0.,1.));
#1551=CARTESIAN_POINT('',(50.,-50.,-1.5));
#1552=CARTESIAN_POINT('',(50.,-50.,-1.5));
#1553=VECTOR('',#1554,1.);
#1554=DIRECTION('',(-1.,0.,1.48029736616688E-16));
#1555=CARTESIAN_POINT('',(50.,-50.,41.5));
#1556=CARTESIAN_POINT('',(50.,-50.,-1.5));
#1557=VECTOR('',#1558,1.);
#1558=DIRECTION('',(0.,0.,1.));
#1559=CARTESIAN_POINT('',(55.75,-50.,41.5));
#1560=CARTESIAN_POINT('',(50.,-50.,41.5));
#1561=VECTOR('',#1562,1.);
#1562=DIRECTION('',(1.,0.,0.));
#1563=CARTESIAN_POINT('',(55.75,-50.,49.));
#1564=CARTESIAN_POINT('',(55.75,-50.,41.5));
#1565=VECTOR('',#1566,1.);
#1566=DIRECTION('',(-9.473903143468E-16,0.,1.));
#1567=CARTESIAN_POINT('',(-55.75,-50.,49.));
#1568=CARTESIAN_POINT('',(-55.75,-50.,49.));
#1569=VECTOR('',#1570,1.);
#1570=DIRECTION('',(1.,0.,-6.37258058977669E-17));
#1571=CARTESIAN_POINT('',(-55.75,-50.,41.5));
#1572=CARTESIAN_POINT('',(-55.75,-50.,41.5));
#1573=VECTOR('',#1574,1.);
#1574=DIRECTION('',(0.,0.,1.));
#1575=CARTESIAN_POINT('',(-55.75,-50.,41.5));
#1576=VECTOR('',#1577,1.);
#1577=DIRECTION('',(1.,0.,0.));
#1578=CARTESIAN_POINT('',(-55.75,-41.5,41.5));
#1579=CARTESIAN_POINT('',(-55.75,-41.5,41.5));
#1580=VECTOR('',#1581,1.);
#1581=DIRECTION('',(0.,-1.,0.));
#1582=CARTESIAN_POINT('',(-50.,-41.5,41.5));
#1583=VECTOR('',#1584,1.);
#1584=DIRECTION('',(-1.,0.,0.));
#1585=CARTESIAN_POINT('',(-55.75,-41.5,50.));
#1586=CARTESIAN_POINT('',(-55.75,-41.5,41.5));
#1587=VECTOR('',#1588,1.);
#1588=DIRECTION('',(0.,0.,1.));
#1589=CARTESIAN_POINT('',(-50.,-41.5,50.));
#1590=VECTOR('',#1591,1.);
#1591=DIRECTION('',(-1.,0.,0.));
#1592=CARTESIAN_POINT('',(55.75,49.,50.));
#1593=CARTESIAN_POINT('',(-55.75,49.,50.));
#1594=CARTESIAN_POINT('',(55.75,49.,50.));
#1595=VECTOR('',#1596,1.);
#1596=DIRECTION('',(-1.,-6.37258058977669E-17,0.));
#1597=CARTESIAN_POINT('',(-55.75,41.5,50.));
#1598=CARTESIAN_POINT('',(-55.75,49.,50.));
#1599=VECTOR('',#1600,1.);
#1600=DIRECTION('',(0.,-1.,0.));
#1601=CARTESIAN_POINT('',(-55.75,41.5,50.));
#1602=VECTOR('',#1603,1.);
#1603=DIRECTION('',(1.,0.,0.));
#1604=CARTESIAN_POINT('',(-55.75,-49.,50.));
#1605=CARTESIAN_POINT('',(-55.75,-41.5,50.));
#1606=VECTOR('',#1607,1.);
#1607=DIRECTION('',(0.,-1.,0.));
#1608=CARTESIAN_POINT('',(55.75,-49.,50.));
#1609=CARTESIAN_POINT('',(-55.75,-49.,50.));
#1610=VECTOR('',#1611,1.);
#1611=DIRECTION('',(1.,6.37258058977669E-17,0.));
#1612=CARTESIAN_POINT('',(55.75,-41.5,50.));
#1613=CARTESIAN_POINT('',(55.75,-49.,50.));
#1614=VECTOR('',#1615,1.);
#1615=DIRECTION('',(0.,1.,0.));
#1616=CARTESIAN_POINT('',(50.,-41.5,50.));
#1617=CARTESIAN_POINT('',(55.75,-41.5,50.));
#1618=VECTOR('',#1619,1.);
#1619=DIRECTION('',(-1.,0.,0.));
#1620=CARTESIAN_POINT('',(50.,41.5,50.));
#1621=CARTESIAN_POINT('',(50.,-41.5,50.));
#1622=VECTOR('',#1623,1.);
#1623=DIRECTION('',(0.,1.,0.));
#1624=CARTESIAN_POINT('',(55.75,41.5,50.));
#1625=CARTESIAN_POINT('',(50.,41.5,50.));
#1626=VECTOR('',#1627,1.);
#1627=DIRECTION('',(1.,0.,0.));
#1628=CARTESIAN_POINT('',(55.75,41.5,50.));
#1629=VECTOR('',#1630,1.);
#1630=DIRECTION('',(0.,1.,0.));
#1631=CARTESIAN_POINT('',(-55.75,41.5,41.5));
#1632=VECTOR('',#1633,1.);
#1633=DIRECTION('',(0.,0.,1.));
#1634=CARTESIAN_POINT('',(47.,48.,1.5));
#1635=CARTESIAN_POINT('',(44.,48.,1.5));
#1636=CARTESIAN_POINT('',(47.,48.,1.5));
#1637=VECTOR('',#1638,1.);
#1638=DIRECTION('',(-1.,0.,0.));
#1639=CARTESIAN_POINT('',(44.,48.,41.5));
#1640=VECTOR('',#1641,1.);
#1641=DIRECTION('',(3.5527136788005E-16,-1.77635683940025E-16,-1.));
#1642=CARTESIAN_POINT('',(50.,48.,-1.5));
#1643=CARTESIAN_POINT('',(50.,48.,-1.5));
#1644=VECTOR('',#1645,1.);
#1645=DIRECTION('',(0.,3.30484993376791E-16,1.));
#1646=CARTESIAN_POINT('',(47.,48.,-1.5));
#1647=CARTESIAN_POINT('',(50.,48.,-1.5));
#1648=VECTOR('',#1649,1.);
#1649=DIRECTION('',(-1.,0.,1.48029736616688E-16));
#1650=CARTESIAN_POINT('',(47.,48.,-1.5));
#1651=VECTOR('',#1652,1.);
#1652=DIRECTION('',(0.,0.,1.));
#1653=CARTESIAN_POINT('',(44.,-50.,1.5));
#1654=VECTOR('',#1655,1.);
#1655=DIRECTION('',(0.,1.,-1.35945676484713E-17));
#1656=CARTESIAN_POINT('',(44.,-46.,41.5));
#1657=CARTESIAN_POINT('',(44.,-46.,41.5));
#1658=VECTOR('',#1659,1.);
#1659=DIRECTION('',(0.,-1.,0.));
#1660=CARTESIAN_POINT('',(44.,-46.,44.));
#1661=CARTESIAN_POINT('',(44.,-46.,41.5));
#1662=VECTOR('',#1663,1.);
#1663=DIRECTION('',(0.,0.,1.));
#1664=CARTESIAN_POINT('',(44.,46.,44.));
#1665=CARTESIAN_POINT('',(44.,46.,44.));
#1666=VECTOR('',#1667,1.);
#1667=DIRECTION('',(0.,-1.,0.));
#1668=CARTESIAN_POINT('',(44.,46.,44.));
#1669=VECTOR('',#1670,1.);
#1670=DIRECTION('',(0.,0.,-1.));
#1671=CARTESIAN_POINT('',(44.,46.,44.));
#1672=VECTOR('',#1673,1.);
#1673=DIRECTION('',(-1.,0.,0.));
#1674=CARTESIAN_POINT('',(-56.75,49.,42.5));
#1675=CARTESIAN_POINT('',(-56.75,42.5,42.5));
#1676=CARTESIAN_POINT('',(-56.75,49.,42.5));
#1677=VECTOR('',#1678,1.);
#1678=DIRECTION('',(0.,-1.,0.));
#1679=CARTESIAN_POINT('',(-56.75,49.,42.5));
#1680=VECTOR('',#1681,1.);
#1681=DIRECTION('',(0.577350269189623,0.577350269189627,-0.577350269189627));
#1682=CARTESIAN_POINT('',(-56.75,42.5,42.5));
#1683=VECTOR('',#1684,1.);
#1684=DIRECTION('',(0.577350269189626,-0.577350269189626,-0.577350269189626));
#1685=CARTESIAN_POINT('',(-55.75,50.,49.));
#1686=CARTESIAN_POINT('',(-55.75,50.,41.5));
#1687=VECTOR('',#1688,1.);
#1688=DIRECTION('',(9.473903143468E-16,0.,1.));
#1689=CARTESIAN_POINT('',(55.75,50.,49.));
#1690=CARTESIAN_POINT('',(55.75,50.,49.));
#1691=VECTOR('',#1692,1.);
#1692=DIRECTION('',(-1.,0.,-6.37258058977669E-17));
#1693=CARTESIAN_POINT('',(55.75,50.,41.5));
#1694=VECTOR('',#1695,1.);
#1695=DIRECTION('',(0.,0.,1.));
#1696=CARTESIAN_POINT('',(56.75,42.5,42.5));
#1697=CARTESIAN_POINT('',(56.75,49.,42.5));
#1698=CARTESIAN_POINT('',(56.75,42.5,42.5));
#1699=VECTOR('',#1700,1.);
#1700=DIRECTION('',(0.,1.,0.));
#1701=CARTESIAN_POINT('',(55.75,41.5,41.5));
#1702=VECTOR('',#1703,1.);
#1703=DIRECTION('',(0.577350269189619,0.577350269189627,0.577350269189631));
#1704=CARTESIAN_POINT('',(56.75,49.,42.5));
#1705=VECTOR('',#1706,1.);
#1706=DIRECTION('',(-0.577350269189626,0.577350269189626,-0.577350269189626));
#1707=CARTESIAN_POINT('',(55.75,41.5,41.5));
#1708=VECTOR('',#1709,1.);
#1709=DIRECTION('',(-8.35932630306E-16,0.,1.));
#1710=CARTESIAN_POINT('',(50.,41.5,50.));
#1711=VECTOR('',#1712,1.);
#1712=DIRECTION('',(0.,0.,-1.));
#1713=CARTESIAN_POINT('',(50.,48.,-1.5));
#1714=VECTOR('',#1715,1.);
#1715=DIRECTION('',(0.,-1.,0.));
#1716=CARTESIAN_POINT('',(50.,-41.5,41.5));
#1717=CARTESIAN_POINT('',(50.,-41.5,41.5));
#1718=VECTOR('',#1719,1.);
#1719=DIRECTION('',(0.,-8.35932630306E-16,1.));
#1720=CARTESIAN_POINT('',(50.,-50.,41.5));
#1721=VECTOR('',#1722,1.);
#1722=DIRECTION('',(0.,1.,0.));
#1723=CARTESIAN_POINT('',(-44.,-46.,44.));
#1724=VECTOR('',#1725,1.);
#1725=DIRECTION('',(1.,0.,0.));
#1726=CARTESIAN_POINT('',(-44.,-46.,41.5));
#1727=VECTOR('',#1728,1.);
#1728=DIRECTION('',(1.,0.,8.07434927000114E-17));
#1729=CARTESIAN_POINT('',(47.,-50.,1.5));
#1730=VECTOR('',#1731,1.);
#1731=DIRECTION('',(0.,1.,0.));
#1732=CARTESIAN_POINT('',(47.,-50.,-1.5));
#1733=VECTOR('',#1734,1.);
#1734=DIRECTION('',(0.,1.,0.));
#1735=CARTESIAN_POINT('',(55.75,-41.5,41.5));
#1736=CARTESIAN_POINT('',(55.75,-41.5,41.5));
#1737=VECTOR('',#1738,1.);
#1738=DIRECTION('',(-1.,0.,0.));
#1739=CARTESIAN_POINT('',(55.75,-50.,41.5));
#1740=VECTOR('',#1741,1.);
#1741=DIRECTION('',(0.,1.,0.));
#1742=CARTESIAN_POINT('',(56.0428932188134,-49.7071067811866,49.7071067811866));
#1743=CARTESIAN_POINT('',(56.0428932188134,-49.7071067811866,49.7071067811866));
#1744=CARTESIAN_POINT('',(55.8528504210243,-49.8971495789757,49.5170639833974));
#1745=CARTESIAN_POINT('',(55.75,-50.,49.2687611020647));
#1746=CARTESIAN_POINT('',(55.75,-50.,49.));
#1747=CARTESIAN_POINT('',(56.75,-49.,42.5));
#1748=CARTESIAN_POINT('',(56.75,-49.,42.5));
#1749=VECTOR('',#1750,1.);
#1750=DIRECTION('',(-0.57735026918962,-0.577350269189628,-0.577350269189628));
#1751=CARTESIAN_POINT('',(56.75,-49.,49.));
#1752=CARTESIAN_POINT('',(56.75,-49.,42.5));
#1753=VECTOR('',#1754,1.);
#1754=DIRECTION('',(0.,0.,1.));
#1755=CARTESIAN_POINT('',(56.0428932188135,-49.7071067811865,49.7071067811865));
#1756=VECTOR('',#1757,1.);
#1757=DIRECTION('',(0.577350269189622,0.577350269189628,-0.577350269189628));
#1758=CARTESIAN_POINT('',(56.0428932188134,-49.7071067811865,49.7071067811866));
#1759=CARTESIAN_POINT('',(55.8528504210243,-49.5170639833974,49.8971495789757));
#1760=CARTESIAN_POINT('',(55.75,-49.2687611020647,50.));
#1761=CARTESIAN_POINT('',(55.75,-49.,50.));
#1762=CARTESIAN_POINT('',(-56.0428932188134,-49.7071067811866,49.7071067811866));
#1763=CARTESIAN_POINT('',(-56.0428932188135,-49.7071067811865,49.7071067811865));
#1764=CARTESIAN_POINT('',(-55.8528504210243,-49.5170639833974,49.8971495789757));
#1765=CARTESIAN_POINT('',(-55.75,-49.2687611020647,50.));
#1766=CARTESIAN_POINT('',(-55.75,-49.,50.));
#1767=CARTESIAN_POINT('',(-56.0428932188134,-49.7071067811866,49.7071067811866));
#1768=CARTESIAN_POINT('',(-55.8528504210243,-49.8971495789757,49.5170639833974));
#1769=CARTESIAN_POINT('',(-55.75,-50.,49.2687611020647));
#1770=CARTESIAN_POINT('',(-55.75,-50.,49.));
#1771=CARTESIAN_POINT('',(-56.75,-49.,49.));
#1772=CARTESIAN_POINT('',(-56.75,-49.,49.));
#1773=VECTOR('',#1774,1.);
#1774=DIRECTION('',(0.577350269189626,-0.577350269189626,0.577350269189626));
#1775=CARTESIAN_POINT('',(-56.75,-49.,42.5));
#1776=CARTESIAN_POINT('',(-56.75,-49.,42.5));
#1777=VECTOR('',#1778,1.);
#1778=DIRECTION('',(0.,0.,1.));
#1779=CARTESIAN_POINT('',(-56.75,-49.,42.5));
#1780=VECTOR('',#1781,1.);
#1781=DIRECTION('',(0.577350269189626,-0.577350269189626,-0.577350269189626));
#1782=CARTESIAN_POINT('',(-56.75,-42.5,42.5));
#1783=CARTESIAN_POINT('',(-56.75,-42.5,42.5));
#1784=VECTOR('',#1785,1.);
#1785=DIRECTION('',(0.,-1.,0.));
#1786=CARTESIAN_POINT('',(-55.75,-41.5,41.5));
#1787=VECTOR('',#1788,1.);
#1788=DIRECTION('',(-0.577350269189627,-0.577350269189623,0.577350269189627));
#1789=CARTESIAN_POINT('',(-56.75,-42.5,49.));
#1790=CARTESIAN_POINT('',(-56.75,-42.5,42.5));
#1791=VECTOR('',#1792,1.);
#1792=DIRECTION('',(0.,0.,1.));
#1793=CARTESIAN_POINT('',(-56.75,-42.5,49.));
#1794=VECTOR('',#1795,1.);
#1795=DIRECTION('',(0.577350269189627,0.577350269189623,0.577350269189627));
#1796=CARTESIAN_POINT('',(-56.0428932188134,49.7071067811866,49.7071067811866));
#1797=CARTESIAN_POINT('',(-56.0428932188134,49.7071067811866,49.7071067811866));
#1798=CARTESIAN_POINT('',(-55.8528504210243,49.8971495789757,49.5170639833974));
#1799=CARTESIAN_POINT('',(-55.75,50.,49.2687611020647));
#1800=CARTESIAN_POINT('',(-55.75,50.,49.));
#1801=CARTESIAN_POINT('',(-56.0428932188134,49.7071067811865,49.7071067811866));
#1802=CARTESIAN_POINT('',(-55.8528504210243,49.5170639833974,49.8971495789757));
#1803=CARTESIAN_POINT('',(-55.75,49.2687611020647,50.));
#1804=CARTESIAN_POINT('',(-55.75,49.,50.));
#1805=CARTESIAN_POINT('',(56.0428932188134,49.7071067811866,49.7071067811866));
#1806=CARTESIAN_POINT('',(56.0428932188135,49.7071067811865,49.7071067811865));
#1807=CARTESIAN_POINT('',(55.8528504210243,49.5170639833974,49.8971495789757));
#1808=CARTESIAN_POINT('',(55.75,49.2687611020647,50.));
#1809=CARTESIAN_POINT('',(55.75,49.,50.));
#1810=CARTESIAN_POINT('',(56.0428932188134,49.7071067811866,49.7071067811866));
#1811=CARTESIAN_POINT('',(55.8528504210243,49.8971495789757,49.5170639833974));
#1812=CARTESIAN_POINT('',(55.75,50.,49.2687611020647));
#1813=CARTESIAN_POINT('',(55.75,50.,49.));
#1814=CARTESIAN_POINT('',(-56.75,49.,49.));
#1815=CARTESIAN_POINT('',(-56.0428932188135,49.7071067811865,49.7071067811865));
#1816=VECTOR('',#1817,1.);
#1817=DIRECTION('',(-0.577350269189622,-0.577350269189628,-0.577350269189628));
#1818=CARTESIAN_POINT('',(-56.75,42.5,49.));
#1819=CARTESIAN_POINT('',(-56.75,49.,49.));
#1820=VECTOR('',#1821,1.);
#1821=DIRECTION('',(0.,-1.,0.));
#1822=CARTESIAN_POINT('',(-56.75,42.5,49.));
#1823=VECTOR('',#1824,1.);
#1824=DIRECTION('',(0.577350269189626,-0.577350269189626,0.577350269189626));
#1825=CARTESIAN_POINT('',(-56.75,-42.5,49.));
#1826=VECTOR('',#1827,1.);
#1827=DIRECTION('',(0.,-1.,0.));
#1828=CARTESIAN_POINT('',(56.75,-42.5,49.));
#1829=CARTESIAN_POINT('',(56.75,-49.,49.));
#1830=VECTOR('',#1831,1.);
#1831=DIRECTION('',(0.,1.,0.));
#1832=CARTESIAN_POINT('',(56.75,-42.5,49.));
#1833=VECTOR('',#1834,1.);
#1834=DIRECTION('',(-0.577350269189626,0.577350269189626,0.577350269189626));
#1835=CARTESIAN_POINT('',(55.75,-41.5,41.5));
#1836=VECTOR('',#1837,1.);
#1837=DIRECTION('',(0.,0.,1.));
#1838=CARTESIAN_POINT('',(56.75,42.5,49.));
#1839=CARTESIAN_POINT('',(56.75,42.5,49.));
#1840=VECTOR('',#1841,1.);
#1841=DIRECTION('',(-0.577350269189626,-0.577350269189626,0.577350269189626));
#1842=CARTESIAN_POINT('',(56.75,49.,49.));
#1843=CARTESIAN_POINT('',(56.75,42.5,49.));
#1844=VECTOR('',#1845,1.);
#1845=DIRECTION('',(0.,1.,0.));
#1846=CARTESIAN_POINT('',(56.75,49.,49.));
#1847=VECTOR('',#1848,1.);
#1848=DIRECTION('',(-0.577350269189626,0.577350269189626,0.577350269189626));
#1849=CARTESIAN_POINT('',(-56.75,42.5,42.5));
#1850=VECTOR('',#1851,1.);
#1851=DIRECTION('',(0.,0.,1.));
#1852=CARTESIAN_POINT('',(-56.75,49.,42.5));
#1853=VECTOR('',#1854,1.);
#1854=DIRECTION('',(0.,0.,1.));
#1855=CARTESIAN_POINT('',(56.75,49.,42.5));
#1856=VECTOR('',#1857,1.);
#1857=DIRECTION('',(0.,0.,1.));
#1858=CARTESIAN_POINT('',(56.75,42.5,42.5));
#1859=VECTOR('',#1860,1.);
#1860=DIRECTION('',(0.,0.,1.));
#1861=CARTESIAN_POINT('',(56.75,-42.5,42.5));
#1862=CARTESIAN_POINT('',(56.75,-49.,42.5));
#1863=VECTOR('',#1864,1.);
#1864=DIRECTION('',(0.,1.,0.));
#1865=CARTESIAN_POINT('',(56.75,-42.5,42.5));
#1866=VECTOR('',#1867,1.);
#1867=DIRECTION('',(-0.577350269189623,0.577350269189627,-0.577350269189627));
#1868=CARTESIAN_POINT('',(56.75,-42.5,42.5));
#1869=VECTOR('',#1870,1.);
#1870=DIRECTION('',(0.,0.,1.));
ENDSEC;
END-ISO-10303-21;
