ISO-10303-21;
HEADER;
FILE_DESCRIPTION(('STEP AP203'),
    '1');
FILE_NAME('cubesatV2',
    '2026-02-16T19:31:28',
    ('dima'),
    (''),
    'C3D Converter',
    'C3D Toolkit',
    '');
/**/
FILE_SCHEMA(('CONFIG_CONTROL_DESIGN'));
ENDSEC;

DATA;
#1=PRODUCT_DEFINITION('','UNSPECIFIED',#28,#31);
#2=SHAPE_DEFINITION_REPRESENTATION(#26,#3);
#3=SHAPE_REPRESENTATION('NONE',(#4),#8);
#4=AXIS2_PLACEMENT_3D('',#5,#6,#7);
#5=CARTESIAN_POINT('',(0.,0.,0.));
#6=DIRECTION('',(0.,0.,1.));
#7=DIRECTION('',(1.,0.,0.));
#8=(GEOMETRIC_REPRESENTATION_CONTEXT(3)GLOBAL_UNCERTAINTY_ASSIGNED_CONTEXT((#10))
GLOBAL_UNIT_ASSIGNED_CONTEXT((#9,#11,#12))REPRESENTATION_CONTEXT('NONE','NONE'));
#9=(LENGTH_UNIT()NAMED_UNIT(*)SI_UNIT(.MILLI.,.METRE.));
#10=UNCERTAINTY_MEASURE_WITH_UNIT(LENGTH_MEASURE(1.E-5),#9,'NONE','NONE');
#11=(NAMED_UNIT(*)PLANE_ANGLE_UNIT()SI_UNIT($,.RADIAN.));
#12=(NAMED_UNIT(*)SI_UNIT($,.STERADIAN.)SOLID_ANGLE_UNIT());
#13=MANIFOLD_SOLID_BREP('',#14);
#14=CLOSED_SHELL('',(#53,#62,#71,#80,#89,#98,#107,#116,#125,#134,#143,#152,#161,
#170,#179,#188,#197,#206,#215,#224,#233,#242,#251,#260,#269,#278,#287,#296,#305,
#314,#323,#332,#341,#350,#359,#368,#377,#386,#395,#404,#413,#422,#431,#440,#449,
#458,#467,#476,#485,#494,#503,#512,#521,#530));
#15=COLOUR_RGB('',0.564705882352941,0.564705882352941,0.564705882352941);
#16=FILL_AREA_STYLE_COLOUR('',#15);
#17=FILL_AREA_STYLE($,(#16));
#18=SURFACE_STYLE_FILL_AREA(#17);
#19=SURFACE_SIDE_STYLE('',(#18));
#20=SURFACE_STYLE_USAGE(.BOTH.,#19);
#21=PRESENTATION_STYLE_ASSIGNMENT((#20));
#22=MECHANICAL_DESIGN_GEOMETRIC_PRESENTATION_REPRESENTATION('NONE',(#23,#61,#70,
#79,#88,#97,#106,#115,#124,#133,#142,#151,#160,#169,#178,#187,#196,#205,#214,#223,
#232,#241,#250,#259,#268,#277,#286,#295,#304,#313,#322,#331,#340,#349,#358,#367,
#376,#385,#394,#403,#412,#421,#430,#439,#448,#457,#466,#475,#484,#493,#502,#511,
#520,#529,#538),#8);
#23=STYLED_ITEM('',(#21),#13);
#24=ADVANCED_BREP_SHAPE_REPRESENTATION('NONE',(#13),#8);
#25=SHAPE_REPRESENTATION_RELATIONSHIP('','',#3,#24);
#26=PRODUCT_DEFINITION_SHAPE('NONE','NONE',#1);
#27=MECHANICAL_CONTEXT('NONE',#32,'mechanical');
#28=PRODUCT_DEFINITION_FORMATION_WITH_SPECIFIED_SOURCE('ANY','UNSPECIFIED',#29,.NOT_KNOWN.);
#29=PRODUCT('','\X2\04210431043E0440043A0430\X0\','NONE',(#27));
#30=PRODUCT_RELATED_PRODUCT_CATEGORY('assembly','',(#29));
#31=DESIGN_CONTEXT('detailed design',#32,'design');
#32=APPLICATION_CONTEXT('configuration controlled 3d designs of mechanical parts and assemblies');
#33=APPLICATION_PROTOCOL_DEFINITION('international standard','config_control_design',
1994,#32);
#34=CC_DESIGN_DATE_AND_TIME_ASSIGNMENT(#35,#39,(#1));
#35=DATE_AND_TIME(#36,#37);
#36=CALENDAR_DATE(0,1,1);
#37=LOCAL_TIME(0,0,0.,#38);
#38=COORDINATED_UNIVERSAL_TIME_OFFSET(0,0,.AHEAD.);
#39=DATE_TIME_ROLE('creation_date');
#40=CC_DESIGN_APPROVAL(#41,(#1));
#41=APPROVAL(#42,'UNSPECIFIED');
#42=APPROVAL_STATUS('not_yet_approved');
#43=APPROVAL_DATE_TIME(#44,#41);
#44=DATE_AND_TIME(#45,#46);
#45=CALENDAR_DATE(0,1,1);
#46=LOCAL_TIME(0,0,0.,#47);
#47=COORDINATED_UNIVERSAL_TIME_OFFSET(0,0,.AHEAD.);
#48=PERSON('UNSPECIFIED','dima','UNSPECIFIED',('UNSPECIFIED'),('UNSPECIFIED'),('UNSPECIFIED'));
#49=ORGANIZATION('UNSPECIFIED','UNSPECIFIED','UNSPECIFIED');
#50=PERSON_AND_ORGANIZATION(#48,#49);
#51=PERSON_AND_ORGANIZATION_ROLE('creator');
#52=CC_DESIGN_PERSON_AND_ORGANIZATION_ASSIGNMENT(#50,#51,(#28,#1));
#53=ADVANCED_FACE('',(#539,#541),#543,.F.);
#54=COLOUR_RGB('',0.564705882352941,0.564705882352941,0.564705882352941);
#55=FILL_AREA_STYLE_COLOUR('',#54);
#56=FILL_AREA_STYLE($,(#55));
#57=SURFACE_STYLE_FILL_AREA(#56);
#58=SURFACE_SIDE_STYLE('',(#57));
#59=SURFACE_STYLE_USAGE(.BOTH.,#58);
#60=PRESENTATION_STYLE_ASSIGNMENT((#59));
#61=STYLED_ITEM('',(#60),#53);
#62=ADVANCED_FACE('',(#548,#550),#552,.T.);
#63=COLOUR_RGB('',0.564705882352941,0.564705882352941,0.564705882352941);
#64=FILL_AREA_STYLE_COLOUR('',#63);
#65=FILL_AREA_STYLE($,(#64));
#66=SURFACE_STYLE_FILL_AREA(#65);
#67=SURFACE_SIDE_STYLE('',(#66));
#68=SURFACE_STYLE_USAGE(.BOTH.,#67);
#69=PRESENTATION_STYLE_ASSIGNMENT((#68));
#70=STYLED_ITEM('',(#69),#62);
#71=ADVANCED_FACE('',(#557,#559),#561,.F.);
#72=COLOUR_RGB('',0.564705882352941,0.564705882352941,0.564705882352941);
#73=FILL_AREA_STYLE_COLOUR('',#72);
#74=FILL_AREA_STYLE($,(#73));
#75=SURFACE_STYLE_FILL_AREA(#74);
#76=SURFACE_SIDE_STYLE('',(#75));
#77=SURFACE_STYLE_USAGE(.BOTH.,#76);
#78=PRESENTATION_STYLE_ASSIGNMENT((#77));
#79=STYLED_ITEM('',(#78),#71);
#80=ADVANCED_FACE('',(#566),#568,.F.);
#81=COLOUR_RGB('',0.564705882352941,0.564705882352941,0.564705882352941);
#82=FILL_AREA_STYLE_COLOUR('',#81);
#83=FILL_AREA_STYLE($,(#82));
#84=SURFACE_STYLE_FILL_AREA(#83);
#85=SURFACE_SIDE_STYLE('',(#84));
#86=SURFACE_STYLE_USAGE(.BOTH.,#85);
#87=PRESENTATION_STYLE_ASSIGNMENT((#86));
#88=STYLED_ITEM('',(#87),#80);
#89=ADVANCED_FACE('',(#573),#575,.T.);
#90=COLOUR_RGB('',0.564705882352941,0.564705882352941,0.564705882352941);
#91=FILL_AREA_STYLE_COLOUR('',#90);
#92=FILL_AREA_STYLE($,(#91));
#93=SURFACE_STYLE_FILL_AREA(#92);
#94=SURFACE_SIDE_STYLE('',(#93));
#95=SURFACE_STYLE_USAGE(.BOTH.,#94);
#96=PRESENTATION_STYLE_ASSIGNMENT((#95));
#97=STYLED_ITEM('',(#96),#89);
#98=ADVANCED_FACE('',(#580),#582,.F.);
#99=COLOUR_RGB('',0.564705882352941,0.564705882352941,0.564705882352941);
#100=FILL_AREA_STYLE_COLOUR('',#99);
#101=FILL_AREA_STYLE($,(#100));
#102=SURFACE_STYLE_FILL_AREA(#101);
#103=SURFACE_SIDE_STYLE('',(#102));
#104=SURFACE_STYLE_USAGE(.BOTH.,#103);
#105=PRESENTATION_STYLE_ASSIGNMENT((#104));
#106=STYLED_ITEM('',(#105),#98);
#107=ADVANCED_FACE('',(#587,#589,#591),#593,.T.);
#108=COLOUR_RGB('',0.564705882352941,0.564705882352941,0.564705882352941);
#109=FILL_AREA_STYLE_COLOUR('',#108);
#110=FILL_AREA_STYLE($,(#109));
#111=SURFACE_STYLE_FILL_AREA(#110);
#112=SURFACE_SIDE_STYLE('',(#111));
#113=SURFACE_STYLE_USAGE(.BOTH.,#112);
#114=PRESENTATION_STYLE_ASSIGNMENT((#113));
#115=STYLED_ITEM('',(#114),#107);
#116=ADVANCED_FACE('',(#598),#600,.F.);
#117=COLOUR_RGB('',0.564705882352941,0.564705882352941,0.564705882352941);
#118=FILL_AREA_STYLE_COLOUR('',#117);
#119=FILL_AREA_STYLE($,(#118));
#120=SURFACE_STYLE_FILL_AREA(#119);
#121=SURFACE_SIDE_STYLE('',(#120));
#122=SURFACE_STYLE_USAGE(.BOTH.,#121);
#123=PRESENTATION_STYLE_ASSIGNMENT((#122));
#124=STYLED_ITEM('',(#123),#116);
#125=ADVANCED_FACE('',(#605),#607,.F.);
#126=COLOUR_RGB('',0.564705882352941,0.564705882352941,0.564705882352941);
#127=FILL_AREA_STYLE_COLOUR('',#126);
#128=FILL_AREA_STYLE($,(#127));
#129=SURFACE_STYLE_FILL_AREA(#128);
#130=SURFACE_SIDE_STYLE('',(#129));
#131=SURFACE_STYLE_USAGE(.BOTH.,#130);
#132=PRESENTATION_STYLE_ASSIGNMENT((#131));
#133=STYLED_ITEM('',(#132),#125);
#134=ADVANCED_FACE('',(#612),#614,.F.);
#135=COLOUR_RGB('',0.564705882352941,0.564705882352941,0.564705882352941);
#136=FILL_AREA_STYLE_COLOUR('',#135);
#137=FILL_AREA_STYLE($,(#136));
#138=SURFACE_STYLE_FILL_AREA(#137);
#139=SURFACE_SIDE_STYLE('',(#138));
#140=SURFACE_STYLE_USAGE(.BOTH.,#139);
#141=PRESENTATION_STYLE_ASSIGNMENT((#140));
#142=STYLED_ITEM('',(#141),#134);
#143=ADVANCED_FACE('',(#619),#621,.T.);
#144=COLOUR_RGB('',0.564705882352941,0.564705882352941,0.564705882352941);
#145=FILL_AREA_STYLE_COLOUR('',#144);
#146=FILL_AREA_STYLE($,(#145));
#147=SURFACE_STYLE_FILL_AREA(#146);
#148=SURFACE_SIDE_STYLE('',(#147));
#149=SURFACE_STYLE_USAGE(.BOTH.,#148);
#150=PRESENTATION_STYLE_ASSIGNMENT((#149));
#151=STYLED_ITEM('',(#150),#143);
#152=ADVANCED_FACE('',(#626),#628,.T.);
#153=COLOUR_RGB('',0.564705882352941,0.564705882352941,0.564705882352941);
#154=FILL_AREA_STYLE_COLOUR('',#153);
#155=FILL_AREA_STYLE($,(#154));
#156=SURFACE_STYLE_FILL_AREA(#155);
#157=SURFACE_SIDE_STYLE('',(#156));
#158=SURFACE_STYLE_USAGE(.BOTH.,#157);
#159=PRESENTATION_STYLE_ASSIGNMENT((#158));
#160=STYLED_ITEM('',(#159),#152);
#161=ADVANCED_FACE('',(#633),#635,.T.);
#162=COLOUR_RGB('',0.564705882352941,0.564705882352941,0.564705882352941);
#163=FILL_AREA_STYLE_COLOUR('',#162);
#164=FILL_AREA_STYLE($,(#163));
#165=SURFACE_STYLE_FILL_AREA(#164);
#166=SURFACE_SIDE_STYLE('',(#165));
#167=SURFACE_STYLE_USAGE(.BOTH.,#166);
#168=PRESENTATION_STYLE_ASSIGNMENT((#167));
#169=STYLED_ITEM('',(#168),#161);
#170=ADVANCED_FACE('',(#640),#642,.F.);
#171=COLOUR_RGB('',0.564705882352941,0.564705882352941,0.564705882352941);
#172=FILL_AREA_STYLE_COLOUR('',#171);
#173=FILL_AREA_STYLE($,(#172));
#174=SURFACE_STYLE_FILL_AREA(#173);
#175=SURFACE_SIDE_STYLE('',(#174));
#176=SURFACE_STYLE_USAGE(.BOTH.,#175);
#177=PRESENTATION_STYLE_ASSIGNMENT((#176));
#178=STYLED_ITEM('',(#177),#170);
#179=ADVANCED_FACE('',(#647),#649,.F.);
#180=COLOUR_RGB('',0.564705882352941,0.564705882352941,0.564705882352941);
#181=FILL_AREA_STYLE_COLOUR('',#180);
#182=FILL_AREA_STYLE($,(#181));
#183=SURFACE_STYLE_FILL_AREA(#182);
#184=SURFACE_SIDE_STYLE('',(#183));
#185=SURFACE_STYLE_USAGE(.BOTH.,#184);
#186=PRESENTATION_STYLE_ASSIGNMENT((#185));
#187=STYLED_ITEM('',(#186),#179);
#188=ADVANCED_FACE('',(#654),#656,.F.);
#189=COLOUR_RGB('',0.564705882352941,0.564705882352941,0.564705882352941);
#190=FILL_AREA_STYLE_COLOUR('',#189);
#191=FILL_AREA_STYLE($,(#190));
#192=SURFACE_STYLE_FILL_AREA(#191);
#193=SURFACE_SIDE_STYLE('',(#192));
#194=SURFACE_STYLE_USAGE(.BOTH.,#193);
#195=PRESENTATION_STYLE_ASSIGNMENT((#194));
#196=STYLED_ITEM('',(#195),#188);
#197=ADVANCED_FACE('',(#661,#663,#665),#667,.F.);
#198=COLOUR_RGB('',0.564705882352941,0.564705882352941,0.564705882352941);
#199=FILL_AREA_STYLE_COLOUR('',#198);
#200=FILL_AREA_STYLE($,(#199));
#201=SURFACE_STYLE_FILL_AREA(#200);
#202=SURFACE_SIDE_STYLE('',(#201));
#203=SURFACE_STYLE_USAGE(.BOTH.,#202);
#204=PRESENTATION_STYLE_ASSIGNMENT((#203));
#205=STYLED_ITEM('',(#204),#197);
#206=ADVANCED_FACE('',(#672),#674,.F.);
#207=COLOUR_RGB('',0.564705882352941,0.564705882352941,0.564705882352941);
#208=FILL_AREA_STYLE_COLOUR('',#207);
#209=FILL_AREA_STYLE($,(#208));
#210=SURFACE_STYLE_FILL_AREA(#209);
#211=SURFACE_SIDE_STYLE('',(#210));
#212=SURFACE_STYLE_USAGE(.BOTH.,#211);
#213=PRESENTATION_STYLE_ASSIGNMENT((#212));
#214=STYLED_ITEM('',(#213),#206);
#215=ADVANCED_FACE('',(#679),#681,.F.);
#216=COLOUR_RGB('',0.564705882352941,0.564705882352941,0.564705882352941);
#217=FILL_AREA_STYLE_COLOUR('',#216);
#218=FILL_AREA_STYLE($,(#217));
#219=SURFACE_STYLE_FILL_AREA(#218);
#220=SURFACE_SIDE_STYLE('',(#219));
#221=SURFACE_STYLE_USAGE(.BOTH.,#220);
#222=PRESENTATION_STYLE_ASSIGNMENT((#221));
#223=STYLED_ITEM('',(#222),#215);
#224=ADVANCED_FACE('',(#686,#688),#690,.F.);
#225=COLOUR_RGB('',0.564705882352941,0.564705882352941,0.564705882352941);
#226=FILL_AREA_STYLE_COLOUR('',#225);
#227=FILL_AREA_STYLE($,(#226));
#228=SURFACE_STYLE_FILL_AREA(#227);
#229=SURFACE_SIDE_STYLE('',(#228));
#230=SURFACE_STYLE_USAGE(.BOTH.,#229);
#231=PRESENTATION_STYLE_ASSIGNMENT((#230));
#232=STYLED_ITEM('',(#231),#224);
#233=ADVANCED_FACE('',(#695),#697,.F.);
#234=COLOUR_RGB('',0.564705882352941,0.564705882352941,0.564705882352941);
#235=FILL_AREA_STYLE_COLOUR('',#234);
#236=FILL_AREA_STYLE($,(#235));
#237=SURFACE_STYLE_FILL_AREA(#236);
#238=SURFACE_SIDE_STYLE('',(#237));
#239=SURFACE_STYLE_USAGE(.BOTH.,#238);
#240=PRESENTATION_STYLE_ASSIGNMENT((#239));
#241=STYLED_ITEM('',(#240),#233);
#242=ADVANCED_FACE('',(#702),#704,.F.);
#243=COLOUR_RGB('',0.564705882352941,0.564705882352941,0.564705882352941);
#244=FILL_AREA_STYLE_COLOUR('',#243);
#245=FILL_AREA_STYLE($,(#244));
#246=SURFACE_STYLE_FILL_AREA(#245);
#247=SURFACE_SIDE_STYLE('',(#246));
#248=SURFACE_STYLE_USAGE(.BOTH.,#247);
#249=PRESENTATION_STYLE_ASSIGNMENT((#248));
#250=STYLED_ITEM('',(#249),#242);
#251=ADVANCED_FACE('',(#709,#711),#713,.F.);
#252=COLOUR_RGB('',0.564705882352941,0.564705882352941,0.564705882352941);
#253=FILL_AREA_STYLE_COLOUR('',#252);
#254=FILL_AREA_STYLE($,(#253));
#255=SURFACE_STYLE_FILL_AREA(#254);
#256=SURFACE_SIDE_STYLE('',(#255));
#257=SURFACE_STYLE_USAGE(.BOTH.,#256);
#258=PRESENTATION_STYLE_ASSIGNMENT((#257));
#259=STYLED_ITEM('',(#258),#251);
#260=ADVANCED_FACE('',(#718,#720),#722,.F.);
#261=COLOUR_RGB('',0.564705882352941,0.564705882352941,0.564705882352941);
#262=FILL_AREA_STYLE_COLOUR('',#261);
#263=FILL_AREA_STYLE($,(#262));
#264=SURFACE_STYLE_FILL_AREA(#263);
#265=SURFACE_SIDE_STYLE('',(#264));
#266=SURFACE_STYLE_USAGE(.BOTH.,#265);
#267=PRESENTATION_STYLE_ASSIGNMENT((#266));
#268=STYLED_ITEM('',(#267),#260);
#269=ADVANCED_FACE('',(#727),#729,.F.);
#270=COLOUR_RGB('',0.564705882352941,0.564705882352941,0.564705882352941);
#271=FILL_AREA_STYLE_COLOUR('',#270);
#272=FILL_AREA_STYLE($,(#271));
#273=SURFACE_STYLE_FILL_AREA(#272);
#274=SURFACE_SIDE_STYLE('',(#273));
#275=SURFACE_STYLE_USAGE(.BOTH.,#274);
#276=PRESENTATION_STYLE_ASSIGNMENT((#275));
#277=STYLED_ITEM('',(#276),#269);
#278=ADVANCED_FACE('',(#734),#736,.T.);
#279=COLOUR_RGB('',0.564705882352941,0.564705882352941,0.564705882352941);
#280=FILL_AREA_STYLE_COLOUR('',#279);
#281=FILL_AREA_STYLE($,(#280));
#282=SURFACE_STYLE_FILL_AREA(#281);
#283=SURFACE_SIDE_STYLE('',(#282));
#284=SURFACE_STYLE_USAGE(.BOTH.,#283);
#285=PRESENTATION_STYLE_ASSIGNMENT((#284));
#286=STYLED_ITEM('',(#285),#278);
#287=ADVANCED_FACE('',(#741),#743,.F.);
#288=COLOUR_RGB('',0.564705882352941,0.564705882352941,0.564705882352941);
#289=FILL_AREA_STYLE_COLOUR('',#288);
#290=FILL_AREA_STYLE($,(#289));
#291=SURFACE_STYLE_FILL_AREA(#290);
#292=SURFACE_SIDE_STYLE('',(#291));
#293=SURFACE_STYLE_USAGE(.BOTH.,#292);
#294=PRESENTATION_STYLE_ASSIGNMENT((#293));
#295=STYLED_ITEM('',(#294),#287);
#296=ADVANCED_FACE('',(#748),#750,.T.);
#297=COLOUR_RGB('',0.564705882352941,0.564705882352941,0.564705882352941);
#298=FILL_AREA_STYLE_COLOUR('',#297);
#299=FILL_AREA_STYLE($,(#298));
#300=SURFACE_STYLE_FILL_AREA(#299);
#301=SURFACE_SIDE_STYLE('',(#300));
#302=SURFACE_STYLE_USAGE(.BOTH.,#301);
#303=PRESENTATION_STYLE_ASSIGNMENT((#302));
#304=STYLED_ITEM('',(#303),#296);
#305=ADVANCED_FACE('',(#755),#757,.T.);
#306=COLOUR_RGB('',0.564705882352941,0.564705882352941,0.564705882352941);
#307=FILL_AREA_STYLE_COLOUR('',#306);
#308=FILL_AREA_STYLE($,(#307));
#309=SURFACE_STYLE_FILL_AREA(#308);
#310=SURFACE_SIDE_STYLE('',(#309));
#311=SURFACE_STYLE_USAGE(.BOTH.,#310);
#312=PRESENTATION_STYLE_ASSIGNMENT((#311));
#313=STYLED_ITEM('',(#312),#305);
#314=ADVANCED_FACE('',(#762),#764,.T.);
#315=COLOUR_RGB('',0.564705882352941,0.564705882352941,0.564705882352941);
#316=FILL_AREA_STYLE_COLOUR('',#315);
#317=FILL_AREA_STYLE($,(#316));
#318=SURFACE_STYLE_FILL_AREA(#317);
#319=SURFACE_SIDE_STYLE('',(#318));
#320=SURFACE_STYLE_USAGE(.BOTH.,#319);
#321=PRESENTATION_STYLE_ASSIGNMENT((#320));
#322=STYLED_ITEM('',(#321),#314);
#323=ADVANCED_FACE('',(#769),#771,.T.);
#324=COLOUR_RGB('',0.564705882352941,0.564705882352941,0.564705882352941);
#325=FILL_AREA_STYLE_COLOUR('',#324);
#326=FILL_AREA_STYLE($,(#325));
#327=SURFACE_STYLE_FILL_AREA(#326);
#328=SURFACE_SIDE_STYLE('',(#327));
#329=SURFACE_STYLE_USAGE(.BOTH.,#328);
#330=PRESENTATION_STYLE_ASSIGNMENT((#329));
#331=STYLED_ITEM('',(#330),#323);
#332=ADVANCED_FACE('',(#776),#778,.F.);
#333=COLOUR_RGB('',0.564705882352941,0.564705882352941,0.564705882352941);
#334=FILL_AREA_STYLE_COLOUR('',#333);
#335=FILL_AREA_STYLE($,(#334));
#336=SURFACE_STYLE_FILL_AREA(#335);
#337=SURFACE_SIDE_STYLE('',(#336));
#338=SURFACE_STYLE_USAGE(.BOTH.,#337);
#339=PRESENTATION_STYLE_ASSIGNMENT((#338));
#340=STYLED_ITEM('',(#339),#332);
#341=ADVANCED_FACE('',(#783),#785,.T.);
#342=COLOUR_RGB('',0.564705882352941,0.564705882352941,0.564705882352941);
#343=FILL_AREA_STYLE_COLOUR('',#342);
#344=FILL_AREA_STYLE($,(#343));
#345=SURFACE_STYLE_FILL_AREA(#344);
#346=SURFACE_SIDE_STYLE('',(#345));
#347=SURFACE_STYLE_USAGE(.BOTH.,#346);
#348=PRESENTATION_STYLE_ASSIGNMENT((#347));
#349=STYLED_ITEM('',(#348),#341);
#350=ADVANCED_FACE('',(#790),#792,.T.);
#351=COLOUR_RGB('',0.564705882352941,0.564705882352941,0.564705882352941);
#352=FILL_AREA_STYLE_COLOUR('',#351);
#353=FILL_AREA_STYLE($,(#352));
#354=SURFACE_STYLE_FILL_AREA(#353);
#355=SURFACE_SIDE_STYLE('',(#354));
#356=SURFACE_STYLE_USAGE(.BOTH.,#355);
#357=PRESENTATION_STYLE_ASSIGNMENT((#356));
#358=STYLED_ITEM('',(#357),#350);
#359=ADVANCED_FACE('',(#797),#799,.T.);
#360=COLOUR_RGB('',0.564705882352941,0.564705882352941,0.564705882352941);
#361=FILL_AREA_STYLE_COLOUR('',#360);
#362=FILL_AREA_STYLE($,(#361));
#363=SURFACE_STYLE_FILL_AREA(#362);
#364=SURFACE_SIDE_STYLE('',(#363));
#365=SURFACE_STYLE_USAGE(.BOTH.,#364);
#366=PRESENTATION_STYLE_ASSIGNMENT((#365));
#367=STYLED_ITEM('',(#366),#359);
#368=ADVANCED_FACE('',(#804),#806,.T.);
#369=COLOUR_RGB('',0.564705882352941,0.564705882352941,0.564705882352941);
#370=FILL_AREA_STYLE_COLOUR('',#369);
#371=FILL_AREA_STYLE($,(#370));
#372=SURFACE_STYLE_FILL_AREA(#371);
#373=SURFACE_SIDE_STYLE('',(#372));
#374=SURFACE_STYLE_USAGE(.BOTH.,#373);
#375=PRESENTATION_STYLE_ASSIGNMENT((#374));
#376=STYLED_ITEM('',(#375),#368);
#377=ADVANCED_FACE('',(#811),#813,.F.);
#378=COLOUR_RGB('',0.564705882352941,0.564705882352941,0.564705882352941);
#379=FILL_AREA_STYLE_COLOUR('',#378);
#380=FILL_AREA_STYLE($,(#379));
#381=SURFACE_STYLE_FILL_AREA(#380);
#382=SURFACE_SIDE_STYLE('',(#381));
#383=SURFACE_STYLE_USAGE(.BOTH.,#382);
#384=PRESENTATION_STYLE_ASSIGNMENT((#383));
#385=STYLED_ITEM('',(#384),#377);
#386=ADVANCED_FACE('',(#818),#820,.T.);
#387=COLOUR_RGB('',0.564705882352941,0.564705882352941,0.564705882352941);
#388=FILL_AREA_STYLE_COLOUR('',#387);
#389=FILL_AREA_STYLE($,(#388));
#390=SURFACE_STYLE_FILL_AREA(#389);
#391=SURFACE_SIDE_STYLE('',(#390));
#392=SURFACE_STYLE_USAGE(.BOTH.,#391);
#393=PRESENTATION_STYLE_ASSIGNMENT((#392));
#394=STYLED_ITEM('',(#393),#386);
#395=ADVANCED_FACE('',(#825,#827),#829,.T.);
#396=COLOUR_RGB('',0.564705882352941,0.564705882352941,0.564705882352941);
#397=FILL_AREA_STYLE_COLOUR('',#396);
#398=FILL_AREA_STYLE($,(#397));
#399=SURFACE_STYLE_FILL_AREA(#398);
#400=SURFACE_SIDE_STYLE('',(#399));
#401=SURFACE_STYLE_USAGE(.BOTH.,#400);
#402=PRESENTATION_STYLE_ASSIGNMENT((#401));
#403=STYLED_ITEM('',(#402),#395);
#404=ADVANCED_FACE('',(#834),#836,.F.);
#405=COLOUR_RGB('',0.564705882352941,0.564705882352941,0.564705882352941);
#406=FILL_AREA_STYLE_COLOUR('',#405);
#407=FILL_AREA_STYLE($,(#406));
#408=SURFACE_STYLE_FILL_AREA(#407);
#409=SURFACE_SIDE_STYLE('',(#408));
#410=SURFACE_STYLE_USAGE(.BOTH.,#409);
#411=PRESENTATION_STYLE_ASSIGNMENT((#410));
#412=STYLED_ITEM('',(#411),#404);
#413=ADVANCED_FACE('',(#841),#843,.T.);
#414=COLOUR_RGB('',0.564705882352941,0.564705882352941,0.564705882352941);
#415=FILL_AREA_STYLE_COLOUR('',#414);
#416=FILL_AREA_STYLE($,(#415));
#417=SURFACE_STYLE_FILL_AREA(#416);
#418=SURFACE_SIDE_STYLE('',(#417));
#419=SURFACE_STYLE_USAGE(.BOTH.,#418);
#420=PRESENTATION_STYLE_ASSIGNMENT((#419));
#421=STYLED_ITEM('',(#420),#413);
#422=ADVANCED_FACE('',(#848),#850,.T.);
#423=COLOUR_RGB('',0.564705882352941,0.564705882352941,0.564705882352941);
#424=FILL_AREA_STYLE_COLOUR('',#423);
#425=FILL_AREA_STYLE($,(#424));
#426=SURFACE_STYLE_FILL_AREA(#425);
#427=SURFACE_SIDE_STYLE('',(#426));
#428=SURFACE_STYLE_USAGE(.BOTH.,#427);
#429=PRESENTATION_STYLE_ASSIGNMENT((#428));
#430=STYLED_ITEM('',(#429),#422);
#431=ADVANCED_FACE('',(#855),#857,.T.);
#432=COLOUR_RGB('',0.564705882352941,0.564705882352941,0.564705882352941);
#433=FILL_AREA_STYLE_COLOUR('',#432);
#434=FILL_AREA_STYLE($,(#433));
#435=SURFACE_STYLE_FILL_AREA(#434);
#436=SURFACE_SIDE_STYLE('',(#435));
#437=SURFACE_STYLE_USAGE(.BOTH.,#436);
#438=PRESENTATION_STYLE_ASSIGNMENT((#437));
#439=STYLED_ITEM('',(#438),#431);
#440=ADVANCED_FACE('',(#862),#864,.T.);
#441=COLOUR_RGB('',0.564705882352941,0.564705882352941,0.564705882352941);
#442=FILL_AREA_STYLE_COLOUR('',#441);
#443=FILL_AREA_STYLE($,(#442));
#444=SURFACE_STYLE_FILL_AREA(#443);
#445=SURFACE_SIDE_STYLE('',(#444));
#446=SURFACE_STYLE_USAGE(.BOTH.,#445);
#447=PRESENTATION_STYLE_ASSIGNMENT((#446));
#448=STYLED_ITEM('',(#447),#440);
#449=ADVANCED_FACE('',(#869),#871,.F.);
#450=COLOUR_RGB('',0.564705882352941,0.564705882352941,0.564705882352941);
#451=FILL_AREA_STYLE_COLOUR('',#450);
#452=FILL_AREA_STYLE($,(#451));
#453=SURFACE_STYLE_FILL_AREA(#452);
#454=SURFACE_SIDE_STYLE('',(#453));
#455=SURFACE_STYLE_USAGE(.BOTH.,#454);
#456=PRESENTATION_STYLE_ASSIGNMENT((#455));
#457=STYLED_ITEM('',(#456),#449);
#458=ADVANCED_FACE('',(#876),#878,.T.);
#459=COLOUR_RGB('',0.564705882352941,0.564705882352941,0.564705882352941);
#460=FILL_AREA_STYLE_COLOUR('',#459);
#461=FILL_AREA_STYLE($,(#460));
#462=SURFACE_STYLE_FILL_AREA(#461);
#463=SURFACE_SIDE_STYLE('',(#462));
#464=SURFACE_STYLE_USAGE(.BOTH.,#463);
#465=PRESENTATION_STYLE_ASSIGNMENT((#464));
#466=STYLED_ITEM('',(#465),#458);
#467=ADVANCED_FACE('',(#883),#885,.F.);
#468=COLOUR_RGB('',0.564705882352941,0.564705882352941,0.564705882352941);
#469=FILL_AREA_STYLE_COLOUR('',#468);
#470=FILL_AREA_STYLE($,(#469));
#471=SURFACE_STYLE_FILL_AREA(#470);
#472=SURFACE_SIDE_STYLE('',(#471));
#473=SURFACE_STYLE_USAGE(.BOTH.,#472);
#474=PRESENTATION_STYLE_ASSIGNMENT((#473));
#475=STYLED_ITEM('',(#474),#467);
#476=ADVANCED_FACE('',(#890),#892,.T.);
#477=COLOUR_RGB('',0.564705882352941,0.564705882352941,0.564705882352941);
#478=FILL_AREA_STYLE_COLOUR('',#477);
#479=FILL_AREA_STYLE($,(#478));
#480=SURFACE_STYLE_FILL_AREA(#479);
#481=SURFACE_SIDE_STYLE('',(#480));
#482=SURFACE_STYLE_USAGE(.BOTH.,#481);
#483=PRESENTATION_STYLE_ASSIGNMENT((#482));
#484=STYLED_ITEM('',(#483),#476);
#485=ADVANCED_FACE('',(#897),#899,.T.);
#486=COLOUR_RGB('',0.564705882352941,0.564705882352941,0.564705882352941);
#487=FILL_AREA_STYLE_COLOUR('',#486);
#488=FILL_AREA_STYLE($,(#487));
#489=SURFACE_STYLE_FILL_AREA(#488);
#490=SURFACE_SIDE_STYLE('',(#489));
#491=SURFACE_STYLE_USAGE(.BOTH.,#490);
#492=PRESENTATION_STYLE_ASSIGNMENT((#491));
#493=STYLED_ITEM('',(#492),#485);
#494=ADVANCED_FACE('',(#904),#906,.T.);
#495=COLOUR_RGB('',0.564705882352941,0.564705882352941,0.564705882352941);
#496=FILL_AREA_STYLE_COLOUR('',#495);
#497=FILL_AREA_STYLE($,(#496));
#498=SURFACE_STYLE_FILL_AREA(#497);
#499=SURFACE_SIDE_STYLE('',(#498));
#500=SURFACE_STYLE_USAGE(.BOTH.,#499);
#501=PRESENTATION_STYLE_ASSIGNMENT((#500));
#502=STYLED_ITEM('',(#501),#494);
#503=ADVANCED_FACE('',(#911),#913,.T.);
#504=COLOUR_RGB('',0.564705882352941,0.564705882352941,0.564705882352941);
#505=FILL_AREA_STYLE_COLOUR('',#504);
#506=FILL_AREA_STYLE($,(#505));
#507=SURFACE_STYLE_FILL_AREA(#506);
#508=SURFACE_SIDE_STYLE('',(#507));
#509=SURFACE_STYLE_USAGE(.BOTH.,#508);
#510=PRESENTATION_STYLE_ASSIGNMENT((#509));
#511=STYLED_ITEM('',(#510),#503);
#512=ADVANCED_FACE('',(#918),#920,.F.);
#513=COLOUR_RGB('',0.564705882352941,0.564705882352941,0.564705882352941);
#514=FILL_AREA_STYLE_COLOUR('',#513);
#515=FILL_AREA_STYLE($,(#514));
#516=SURFACE_STYLE_FILL_AREA(#515);
#517=SURFACE_SIDE_STYLE('',(#516));
#518=SURFACE_STYLE_USAGE(.BOTH.,#517);
#519=PRESENTATION_STYLE_ASSIGNMENT((#518));
#520=STYLED_ITEM('',(#519),#512);
#521=ADVANCED_FACE('',(#925),#927,.T.);
#522=COLOUR_RGB('',0.564705882352941,0.564705882352941,0.564705882352941);
#523=FILL_AREA_STYLE_COLOUR('',#522);
#524=FILL_AREA_STYLE($,(#523));
#525=SURFACE_STYLE_FILL_AREA(#524);
#526=SURFACE_SIDE_STYLE('',(#525));
#527=SURFACE_STYLE_USAGE(.BOTH.,#526);
#528=PRESENTATION_STYLE_ASSIGNMENT((#527));
#529=STYLED_ITEM('',(#528),#521);
#530=ADVANCED_FACE('',(#932,#934),#936,.F.);
#531=COLOUR_RGB('',0.564705882352941,0.564705882352941,0.564705882352941);
#532=FILL_AREA_STYLE_COLOUR('',#531);
#533=FILL_AREA_STYLE($,(#532));
#534=SURFACE_STYLE_FILL_AREA(#533);
#535=SURFACE_SIDE_STYLE('',(#534));
#536=SURFACE_STYLE_USAGE(.BOTH.,#535);
#537=PRESENTATION_STYLE_ASSIGNMENT((#536));
#538=STYLED_ITEM('',(#537),#530);
#539=FACE_BOUND('',#540,.T.);
#540=EDGE_LOOP('',(#941,#942,#943,#944,#945,#946,#947,#948,#949,#950,#951,#952,#953,
#954));
#541=FACE_BOUND('',#542,.T.);
#542=EDGE_LOOP('',(#955));
#543=PLANE('',#544);
#544=AXIS2_PLACEMENT_3D('',#545,#546,#547);
#545=CARTESIAN_POINT('',(-24.,43.,-43.));
#546=DIRECTION('',(0.,1.,0.));
#547=DIRECTION('',(-1.,0.,0.));
#548=FACE_BOUND('',#549,.T.);
#549=EDGE_LOOP('',(#956,#957,#958,#959,#960,#961,#962,#963));
#550=FACE_BOUND('',#551,.T.);
#551=EDGE_LOOP('',(#964));
#552=PLANE('',#553);
#553=AXIS2_PLACEMENT_3D('',#554,#555,#556);
#554=CARTESIAN_POINT('',(-23.,44.,-44.));
#555=DIRECTION('',(0.,1.,0.));
#556=DIRECTION('',(-1.,0.,0.));
#557=FACE_OUTER_BOUND('',#558,.T.);
#558=EDGE_LOOP('',(#965));
#559=FACE_OUTER_BOUND('',#560,.T.);
#560=EDGE_LOOP('',(#966));
#561=CYLINDRICAL_SURFACE('',#562,1.);
#562=AXIS2_PLACEMENT_3D('',#563,#564,#565);
#563=CARTESIAN_POINT('',(-33.5,34.,-29.));
#564=DIRECTION('',(0.,1.,0.));
#565=DIRECTION('',(-1.,0.,-1.22464679914735E-16));
#566=FACE_BOUND('',#567,.T.);
#567=EDGE_LOOP('',(#967,#968,#969,#970,#971,#972));
#568=PLANE('',#569);
#569=AXIS2_PLACEMENT_3D('',#570,#571,#572);
#570=CARTESIAN_POINT('',(-35.5,40.,-34.));
#571=DIRECTION('',(-1.,5.55111512312578E-17,0.));
#572=DIRECTION('',(5.55111512312578E-17,1.,0.));
#573=FACE_BOUND('',#574,.T.);
#574=EDGE_LOOP('',(#973,#974,#975,#976));
#575=PLANE('',#576);
#576=AXIS2_PLACEMENT_3D('',#577,#578,#579);
#577=CARTESIAN_POINT('',(-33.5,42.,-34.));
#578=DIRECTION('',(0.,0.,-1.));
#579=DIRECTION('',(-6.12323399573677E-17,-1.,0.));
#580=FACE_BOUND('',#581,.T.);
#581=EDGE_LOOP('',(#977,#978,#979,#980,#981,#982));
#582=PLANE('',#583);
#583=AXIS2_PLACEMENT_3D('',#584,#585,#586);
#584=CARTESIAN_POINT('',(-31.5,44.,-34.));
#585=DIRECTION('',(1.,-5.55111512312578E-17,0.));
#586=DIRECTION('',(-5.55111512312578E-17,-1.,0.));
#587=FACE_BOUND('',#588,.T.);
#588=EDGE_LOOP('',(#983,#984,#985,#986,#987,#988,#989,#990,#991,#992,#993,#994));
#589=FACE_BOUND('',#590,.T.);
#590=EDGE_LOOP('',(#995));
#591=FACE_BOUND('',#592,.T.);
#592=EDGE_LOOP('',(#996));
#593=PLANE('',#594);
#594=AXIS2_PLACEMENT_3D('',#595,#596,#597);
#595=CARTESIAN_POINT('',(-33.5,4.99999999999997,-43.));
#596=DIRECTION('',(0.,0.,1.));
#597=DIRECTION('',(6.12323399573677E-17,-1.,0.));
#598=FACE_BOUND('',#599,.T.);
#599=EDGE_LOOP('',(#997,#998,#999,#1000,#1001,#1002));
#600=CYLINDRICAL_SURFACE('',#601,5.);
#601=AXIS2_PLACEMENT_3D('',#602,#603,#604);
#602=CARTESIAN_POINT('',(-29.,-53.,-38.));
#603=DIRECTION('',(4.59402630879375E-17,-1.,0.));
#604=DIRECTION('',(-1.77635683940025E-16,-8.16063005401047E-33,-1.));
#605=FACE_BOUND('',#606,.T.);
#606=EDGE_LOOP('',(#1003,#1004,#1005,#1006,#1007,#1008,#1009,#1010));
#607=PLANE('',#608);
#608=AXIS2_PLACEMENT_3D('',#609,#610,#611);
#609=CARTESIAN_POINT('',(-24.,-33.,-43.));
#610=DIRECTION('',(1.,4.67462326157961E-17,0.));
#611=DIRECTION('',(-4.67462326157961E-17,1.,0.));
#612=FACE_BOUND('',#613,.T.);
#613=EDGE_LOOP('',(#1011,#1012,#1013,#1014));
#614=CYLINDRICAL_SURFACE('',#615,1.);
#615=AXIS2_PLACEMENT_3D('',#616,#617,#618);
#616=CARTESIAN_POINT('',(-19.,42.,-28.));
#617=DIRECTION('',(1.,0.,0.));
#618=DIRECTION('',(0.,0.,-1.));
#619=FACE_BOUND('',#620,.T.);
#620=EDGE_LOOP('',(#1015,#1016,#1017,#1018,#1019,#1020,#1021,#1022,#1023,#1024,#1025,
#1026,#1027,#1028,#1029,#1030,#1031,#1032,#1033,#1034));
#621=PLANE('',#622);
#622=AXIS2_PLACEMENT_3D('',#623,#624,#625);
#623=CARTESIAN_POINT('',(-23.,-34.,-44.));
#624=DIRECTION('',(1.,0.,0.));
#625=DIRECTION('',(0.,1.,0.));
#626=FACE_BOUND('',#627,.T.);
#627=EDGE_LOOP('',(#1035,#1036,#1037,#1038));
#628=PLANE('',#629);
#629=AXIS2_PLACEMENT_3D('',#630,#631,#632);
#630=CARTESIAN_POINT('',(-33.5,4.99999999999997,-24.));
#631=DIRECTION('',(0.,0.,1.));
#632=DIRECTION('',(1.,0.,0.));
#633=FACE_BOUND('',#634,.T.);
#634=EDGE_LOOP('',(#1039,#1040,#1041,#1042,#1043,#1044,#1045,#1046,#1047,#1048,#1049,
#1050,#1051,#1052,#1053,#1054,#1055,#1056,#1057,#1058));
#635=PLANE('',#636);
#636=AXIS2_PLACEMENT_3D('',#637,#638,#639);
#637=CARTESIAN_POINT('',(-44.,44.,-44.));
#638=DIRECTION('',(-1.,0.,0.));
#639=DIRECTION('',(0.,-1.,0.));
#640=FACE_BOUND('',#641,.T.);
#641=EDGE_LOOP('',(#1059,#1060,#1061,#1062));
#642=CYLINDRICAL_SURFACE('',#643,1.);
#643=AXIS2_PLACEMENT_3D('',#644,#645,#646);
#644=CARTESIAN_POINT('',(-35.,42.,-28.));
#645=DIRECTION('',(1.,0.,0.));
#646=DIRECTION('',(0.,0.,-1.));
#647=FACE_BOUND('',#648,.T.);
#648=EDGE_LOOP('',(#1063,#1064,#1065,#1066,#1067,#1068,#1069,#1070));
#649=PLANE('',#650);
#650=AXIS2_PLACEMENT_3D('',#651,#652,#653);
#651=CARTESIAN_POINT('',(-43.,43.,-43.));
#652=DIRECTION('',(-1.,-4.67462326157961E-17,0.));
#653=DIRECTION('',(4.67462326157961E-17,-1.,0.));
#654=FACE_BOUND('',#655,.T.);
#655=EDGE_LOOP('',(#1071,#1072,#1073,#1074,#1075,#1076));
#656=CYLINDRICAL_SURFACE('',#657,5.);
#657=AXIS2_PLACEMENT_3D('',#658,#659,#660);
#658=CARTESIAN_POINT('',(-38.,63.,-38.));
#659=DIRECTION('',(-4.59402630879375E-17,1.,0.));
#660=DIRECTION('',(1.77635683940025E-16,8.16063005401047E-33,-1.));
#661=FACE_BOUND('',#662,.T.);
#662=EDGE_LOOP('',(#1077,#1078,#1079,#1080,#1081,#1082,#1083,#1084,#1085,#1086,#1087,
#1088));
#663=FACE_BOUND('',#664,.T.);
#664=EDGE_LOOP('',(#1089));
#665=FACE_BOUND('',#666,.T.);
#666=EDGE_LOOP('',(#1090));
#667=PLANE('',#668);
#668=AXIS2_PLACEMENT_3D('',#669,#670,#671);
#669=CARTESIAN_POINT('',(-33.5,4.99999999999997,-44.));
#670=DIRECTION('',(0.,0.,1.));
#671=DIRECTION('',(1.,0.,0.));
#672=FACE_BOUND('',#673,.T.);
#673=EDGE_LOOP('',(#1091,#1092,#1093,#1094));
#674=PLANE('',#675);
#675=AXIS2_PLACEMENT_3D('',#676,#677,#678);
#676=CARTESIAN_POINT('',(-31.5,40.,-34.));
#677=DIRECTION('',(0.,-1.,0.));
#678=DIRECTION('',(-1.,0.,0.));
#679=FACE_BOUND('',#680,.T.);
#680=EDGE_LOOP('',(#1095,#1096,#1097,#1098,#1099,#1100));
#681=PLANE('',#682);
#682=AXIS2_PLACEMENT_3D('',#683,#684,#685);
#683=CARTESIAN_POINT('',(-31.5,-30.,-34.));
#684=DIRECTION('',(1.,1.66533453693773E-16,0.));
#685=DIRECTION('',(1.66533453693773E-16,-1.,0.));
#686=FACE_BOUND('',#687,.T.);
#687=EDGE_LOOP('',(#1101,#1102,#1103,#1104,#1105,#1106,#1107,#1108,#1109,#1110,#1111,
#1112,#1113,#1114));
#688=FACE_BOUND('',#689,.T.);
#689=EDGE_LOOP('',(#1115));
#690=PLANE('',#691);
#691=AXIS2_PLACEMENT_3D('',#692,#693,#694);
#692=CARTESIAN_POINT('',(-43.,-33.,-43.));
#693=DIRECTION('',(0.,-1.,0.));
#694=DIRECTION('',(1.,0.,0.));
#695=FACE_BOUND('',#696,.T.);
#696=EDGE_LOOP('',(#1116,#1117,#1118,#1119,#1120,#1121));
#697=PLANE('',#698);
#698=AXIS2_PLACEMENT_3D('',#699,#700,#701);
#699=CARTESIAN_POINT('',(-35.5,-34.,-34.));
#700=DIRECTION('',(-1.,-1.66533453693773E-16,0.));
#701=DIRECTION('',(-1.66533453693773E-16,1.,0.));
#702=FACE_BOUND('',#703,.T.);
#703=EDGE_LOOP('',(#1122,#1123,#1124,#1125));
#704=PLANE('',#705);
#705=AXIS2_PLACEMENT_3D('',#706,#707,#708);
#706=CARTESIAN_POINT('',(-35.5,-30.,-34.));
#707=DIRECTION('',(0.,1.,0.));
#708=DIRECTION('',(1.,0.,0.));
#709=FACE_OUTER_BOUND('',#710,.T.);
#710=EDGE_LOOP('',(#1126));
#711=FACE_OUTER_BOUND('',#712,.T.);
#712=EDGE_LOOP('',(#1127));
#713=CYLINDRICAL_SURFACE('',#714,1.5);
#714=AXIS2_PLACEMENT_3D('',#715,#716,#717);
#715=CARTESIAN_POINT('',(-33.5,-24.,-34.));
#716=DIRECTION('',(0.,0.,-1.));
#717=DIRECTION('',(-6.12323399573676E-17,1.,0.));
#718=FACE_OUTER_BOUND('',#719,.T.);
#719=EDGE_LOOP('',(#1128));
#720=FACE_OUTER_BOUND('',#721,.T.);
#721=EDGE_LOOP('',(#1129));
#722=CYLINDRICAL_SURFACE('',#723,1.5);
#723=AXIS2_PLACEMENT_3D('',#724,#725,#726);
#724=CARTESIAN_POINT('',(-33.5,34.,-34.));
#725=DIRECTION('',(0.,0.,-1.));
#726=DIRECTION('',(1.,1.22464679914735E-16,0.));
#727=FACE_BOUND('',#728,.T.);
#728=EDGE_LOOP('',(#1130,#1131,#1132,#1133,#1134,#1135,#1136,#1137));
#729=PLANE('',#730);
#730=AXIS2_PLACEMENT_3D('',#731,#732,#733);
#731=CARTESIAN_POINT('',(-24.,-33.,-43.));
#732=DIRECTION('',(1.,4.67462326157961E-17,0.));
#733=DIRECTION('',(-4.67462326157961E-17,1.,0.));
#734=FACE_BOUND('',#735,.T.);
#735=EDGE_LOOP('',(#1138,#1139,#1140,#1141));
#736=PLANE('',#737);
#737=AXIS2_PLACEMENT_3D('',#738,#739,#740);
#738=CARTESIAN_POINT('',(-23.5,4.99999999999997,-38.));
#739=DIRECTION('',(0.,0.,1.));
#740=DIRECTION('',(6.12323399573677E-17,-1.,0.));
#741=FACE_BOUND('',#742,.T.);
#742=EDGE_LOOP('',(#1142,#1143,#1144,#1145));
#743=PLANE('',#744);
#744=AXIS2_PLACEMENT_3D('',#745,#746,#747);
#745=CARTESIAN_POINT('',(-23.,18.,-38.));
#746=DIRECTION('',(0.,1.,0.));
#747=DIRECTION('',(-1.,0.,0.));
#748=FACE_BOUND('',#749,.T.);
#749=EDGE_LOOP('',(#1146,#1147,#1148,#1149));
#750=CYLINDRICAL_SURFACE('',#751,1.);
#751=AXIS2_PLACEMENT_3D('',#752,#753,#754);
#752=CARTESIAN_POINT('',(-28.,19.,-35.));
#753=DIRECTION('',(1.,0.,0.));
#754=DIRECTION('',(0.,0.,1.));
#755=FACE_BOUND('',#756,.T.);
#756=EDGE_LOOP('',(#1150,#1151,#1152,#1153));
#757=PLANE('',#758);
#758=AXIS2_PLACEMENT_3D('',#759,#760,#761);
#759=CARTESIAN_POINT('',(-23.5,23.,-34.));
#760=DIRECTION('',(0.,0.,1.));
#761=DIRECTION('',(6.12323399573677E-17,-1.,0.));
#762=FACE_BOUND('',#763,.T.);
#763=EDGE_LOOP('',(#1154,#1155,#1156,#1157));
#764=PLANE('',#765);
#765=AXIS2_PLACEMENT_3D('',#766,#767,#768);
#766=CARTESIAN_POINT('',(-31.,28.,-34.));
#767=DIRECTION('',(0.,-0.707106781186547,0.707106781186547));
#768=DIRECTION('',(1.,0.,0.));
#769=FACE_BOUND('',#770,.T.);
#770=EDGE_LOOP('',(#1158,#1159,#1160,#1161));
#771=PLANE('',#772);
#772=AXIS2_PLACEMENT_3D('',#773,#774,#775);
#773=CARTESIAN_POINT('',(-33.5,4.99999999999997,-29.));
#774=DIRECTION('',(0.,0.,1.));
#775=DIRECTION('',(6.12323399573677E-17,-1.,0.));
#776=FACE_BOUND('',#777,.T.);
#777=EDGE_LOOP('',(#1162,#1163,#1164,#1165));
#778=PLANE('',#779);
#779=AXIS2_PLACEMENT_3D('',#780,#781,#782);
#780=CARTESIAN_POINT('',(-24.,-8.00000000000003,-38.));
#781=DIRECTION('',(0.,-1.,0.));
#782=DIRECTION('',(1.,0.,0.));
#783=FACE_BOUND('',#784,.T.);
#784=EDGE_LOOP('',(#1166,#1167,#1168,#1169));
#785=CYLINDRICAL_SURFACE('',#786,1.);
#786=AXIS2_PLACEMENT_3D('',#787,#788,#789);
#787=CARTESIAN_POINT('',(-19.,-9.00000000000003,-35.));
#788=DIRECTION('',(-1.,0.,0.));
#789=DIRECTION('',(0.,0.,1.));
#790=FACE_BOUND('',#791,.T.);
#791=EDGE_LOOP('',(#1170,#1171,#1172,#1173));
#792=PLANE('',#793);
#793=AXIS2_PLACEMENT_3D('',#794,#795,#796);
#794=CARTESIAN_POINT('',(-23.5,-13.,-34.));
#795=DIRECTION('',(0.,0.,1.));
#796=DIRECTION('',(6.12323399573677E-17,-1.,0.));
#797=FACE_BOUND('',#798,.T.);
#798=EDGE_LOOP('',(#1174,#1175,#1176,#1177));
#799=PLANE('',#800);
#800=AXIS2_PLACEMENT_3D('',#801,#802,#803);
#801=CARTESIAN_POINT('',(-16.,-18.,-34.));
#802=DIRECTION('',(0.,0.707106781186547,0.707106781186547));
#803=DIRECTION('',(-1.,0.,0.));
#804=FACE_BOUND('',#805,.T.);
#805=EDGE_LOOP('',(#1178,#1179,#1180,#1181));
#806=PLANE('',#807);
#807=AXIS2_PLACEMENT_3D('',#808,#809,#810);
#808=CARTESIAN_POINT('',(-23.5,-25.5,-29.));
#809=DIRECTION('',(0.,0.,1.));
#810=DIRECTION('',(6.12323399573677E-17,-1.,0.));
#811=FACE_BOUND('',#812,.T.);
#812=EDGE_LOOP('',(#1182,#1183,#1184,#1185));
#813=CYLINDRICAL_SURFACE('',#814,1.);
#814=AXIS2_PLACEMENT_3D('',#815,#816,#817);
#815=CARTESIAN_POINT('',(-32.,-32.,-28.));
#816=DIRECTION('',(-1.,0.,0.));
#817=DIRECTION('',(0.,0.,-1.));
#818=FACE_BOUND('',#819,.T.);
#819=EDGE_LOOP('',(#1186,#1187,#1188,#1189));
#820=PLANE('',#821);
#821=AXIS2_PLACEMENT_3D('',#822,#823,#824);
#822=CARTESIAN_POINT('',(-33.5,4.99999999999997,-24.));
#823=DIRECTION('',(0.,0.,1.));
#824=DIRECTION('',(1.,0.,0.));
#825=FACE_BOUND('',#826,.T.);
#826=EDGE_LOOP('',(#1190,#1191,#1192,#1193,#1194,#1195,#1196,#1197));
#827=FACE_BOUND('',#828,.T.);
#828=EDGE_LOOP('',(#1198));
#829=PLANE('',#830);
#830=AXIS2_PLACEMENT_3D('',#831,#832,#833);
#831=CARTESIAN_POINT('',(-44.,-34.,-44.));
#832=DIRECTION('',(0.,-1.,0.));
#833=DIRECTION('',(1.,0.,0.));
#834=FACE_BOUND('',#835,.T.);
#835=EDGE_LOOP('',(#1199,#1200,#1201,#1202));
#836=CYLINDRICAL_SURFACE('',#837,1.);
#837=AXIS2_PLACEMENT_3D('',#838,#839,#840);
#838=CARTESIAN_POINT('',(-48.,-32.,-28.));
#839=DIRECTION('',(-1.,0.,0.));
#840=DIRECTION('',(0.,0.,-1.));
#841=FACE_BOUND('',#842,.T.);
#842=EDGE_LOOP('',(#1203,#1204,#1205,#1206));
#843=PLANE('',#844);
#844=AXIS2_PLACEMENT_3D('',#845,#846,#847);
#845=CARTESIAN_POINT('',(-33.5,4.99999999999997,-29.));
#846=DIRECTION('',(0.,0.,1.));
#847=DIRECTION('',(6.12323399573677E-17,-1.,0.));
#848=FACE_BOUND('',#849,.T.);
#849=EDGE_LOOP('',(#1207,#1208,#1209,#1210));
#850=PLANE('',#851);
#851=AXIS2_PLACEMENT_3D('',#852,#853,#854);
#852=CARTESIAN_POINT('',(-36.,-18.,-34.));
#853=DIRECTION('',(0.,0.707106781186548,0.707106781186548));
#854=DIRECTION('',(-1.,0.,0.));
#855=FACE_BOUND('',#856,.T.);
#856=EDGE_LOOP('',(#1211,#1212,#1213,#1214));
#857=PLANE('',#858);
#858=AXIS2_PLACEMENT_3D('',#859,#860,#861);
#859=CARTESIAN_POINT('',(-43.5,-13.,-34.));
#860=DIRECTION('',(0.,0.,1.));
#861=DIRECTION('',(6.12323399573677E-17,-1.,0.));
#862=FACE_BOUND('',#863,.T.);
#863=EDGE_LOOP('',(#1215,#1216,#1217,#1218));
#864=CYLINDRICAL_SURFACE('',#865,1.);
#865=AXIS2_PLACEMENT_3D('',#866,#867,#868);
#866=CARTESIAN_POINT('',(-39.,-9.00000000000003,-35.));
#867=DIRECTION('',(-1.,0.,0.));
#868=DIRECTION('',(0.,0.,1.));
#869=FACE_BOUND('',#870,.T.);
#870=EDGE_LOOP('',(#1219,#1220,#1221,#1222));
#871=PLANE('',#872);
#872=AXIS2_PLACEMENT_3D('',#873,#874,#875);
#873=CARTESIAN_POINT('',(-44.,-8.00000000000003,-38.));
#874=DIRECTION('',(0.,-1.,0.));
#875=DIRECTION('',(1.,0.,0.));
#876=FACE_BOUND('',#877,.T.);
#877=EDGE_LOOP('',(#1223,#1224,#1225,#1226));
#878=PLANE('',#879);
#879=AXIS2_PLACEMENT_3D('',#880,#881,#882);
#880=CARTESIAN_POINT('',(-43.5,4.99999999999997,-38.));
#881=DIRECTION('',(0.,0.,1.));
#882=DIRECTION('',(6.12323399573677E-17,-1.,0.));
#883=FACE_BOUND('',#884,.T.);
#884=EDGE_LOOP('',(#1227,#1228,#1229,#1230));
#885=PLANE('',#886);
#886=AXIS2_PLACEMENT_3D('',#887,#888,#889);
#887=CARTESIAN_POINT('',(-43.,18.,-38.));
#888=DIRECTION('',(0.,1.,0.));
#889=DIRECTION('',(-1.,0.,0.));
#890=FACE_BOUND('',#891,.T.);
#891=EDGE_LOOP('',(#1231,#1232,#1233,#1234));
#892=CYLINDRICAL_SURFACE('',#893,1.);
#893=AXIS2_PLACEMENT_3D('',#894,#895,#896);
#894=CARTESIAN_POINT('',(-48.,19.,-35.));
#895=DIRECTION('',(1.,0.,0.));
#896=DIRECTION('',(0.,0.,1.));
#897=FACE_BOUND('',#898,.T.);
#898=EDGE_LOOP('',(#1235,#1236,#1237,#1238));
#899=PLANE('',#900);
#900=AXIS2_PLACEMENT_3D('',#901,#902,#903);
#901=CARTESIAN_POINT('',(-43.5,23.,-34.));
#902=DIRECTION('',(0.,0.,1.));
#903=DIRECTION('',(6.12323399573677E-17,-1.,0.));
#904=FACE_BOUND('',#905,.T.);
#905=EDGE_LOOP('',(#1239,#1240,#1241,#1242));
#906=PLANE('',#907);
#907=AXIS2_PLACEMENT_3D('',#908,#909,#910);
#908=CARTESIAN_POINT('',(-51.,28.,-34.));
#909=DIRECTION('',(0.,-0.707106781186547,0.707106781186547));
#910=DIRECTION('',(1.,0.,0.));
#911=FACE_BOUND('',#912,.T.);
#912=EDGE_LOOP('',(#1243,#1244,#1245,#1246));
#913=PLANE('',#914);
#914=AXIS2_PLACEMENT_3D('',#915,#916,#917);
#915=CARTESIAN_POINT('',(-33.5,4.99999999999997,-29.));
#916=DIRECTION('',(0.,0.,1.));
#917=DIRECTION('',(6.12323399573677E-17,-1.,0.));
#918=FACE_BOUND('',#919,.T.);
#919=EDGE_LOOP('',(#1247,#1248,#1249,#1250,#1251,#1252,#1253,#1254));
#920=PLANE('',#921);
#921=AXIS2_PLACEMENT_3D('',#922,#923,#924);
#922=CARTESIAN_POINT('',(-43.,43.,-43.));
#923=DIRECTION('',(-1.,-4.67462326157961E-17,0.));
#924=DIRECTION('',(4.67462326157961E-17,-1.,0.));
#925=FACE_BOUND('',#926,.T.);
#926=EDGE_LOOP('',(#1255,#1256,#1257,#1258));
#927=PLANE('',#928);
#928=AXIS2_PLACEMENT_3D('',#929,#930,#931);
#929=CARTESIAN_POINT('',(-33.5,-32.,-34.));
#930=DIRECTION('',(0.,0.,-1.));
#931=DIRECTION('',(1.,1.22464679914735E-16,0.));
#932=FACE_OUTER_BOUND('',#933,.T.);
#933=EDGE_LOOP('',(#1259));
#934=FACE_OUTER_BOUND('',#935,.T.);
#935=EDGE_LOOP('',(#1260));
#936=CYLINDRICAL_SURFACE('',#937,1.);
#937=AXIS2_PLACEMENT_3D('',#938,#939,#940);
#938=CARTESIAN_POINT('',(-33.5,-43.,-29.));
#939=DIRECTION('',(0.,1.,0.));
#940=DIRECTION('',(-1.,0.,-1.22464679914735E-16));
#941=ORIENTED_EDGE('',*,*,#1261,.T.);
#942=ORIENTED_EDGE('',*,*,#1262,.T.);
#943=ORIENTED_EDGE('',*,*,#1263,.T.);
#944=ORIENTED_EDGE('',*,*,#1264,.F.);
#945=ORIENTED_EDGE('',*,*,#1265,.F.);
#946=ORIENTED_EDGE('',*,*,#1266,.T.);
#947=ORIENTED_EDGE('',*,*,#1267,.F.);
#948=ORIENTED_EDGE('',*,*,#1268,.F.);
#949=ORIENTED_EDGE('',*,*,#1269,.F.);
#950=ORIENTED_EDGE('',*,*,#1270,.F.);
#951=ORIENTED_EDGE('',*,*,#1271,.F.);
#952=ORIENTED_EDGE('',*,*,#1272,.F.);
#953=ORIENTED_EDGE('',*,*,#1273,.F.);
#954=ORIENTED_EDGE('',*,*,#1274,.F.);
#955=ORIENTED_EDGE('',*,*,#1275,.T.);
#956=ORIENTED_EDGE('',*,*,#1276,.T.);
#957=ORIENTED_EDGE('',*,*,#1277,.T.);
#958=ORIENTED_EDGE('',*,*,#1278,.T.);
#959=ORIENTED_EDGE('',*,*,#1279,.F.);
#960=ORIENTED_EDGE('',*,*,#1280,.F.);
#961=ORIENTED_EDGE('',*,*,#1281,.T.);
#962=ORIENTED_EDGE('',*,*,#1282,.T.);
#963=ORIENTED_EDGE('',*,*,#1283,.T.);
#964=ORIENTED_EDGE('',*,*,#1284,.T.);
#965=ORIENTED_EDGE('',*,*,#1284,.F.);
#966=ORIENTED_EDGE('',*,*,#1275,.F.);
#967=ORIENTED_EDGE('',*,*,#1261,.F.);
#968=ORIENTED_EDGE('',*,*,#1285,.F.);
#969=ORIENTED_EDGE('',*,*,#1286,.T.);
#970=ORIENTED_EDGE('',*,*,#1287,.F.);
#971=ORIENTED_EDGE('',*,*,#1276,.F.);
#972=ORIENTED_EDGE('',*,*,#1288,.F.);
#973=ORIENTED_EDGE('',*,*,#1262,.F.);
#974=ORIENTED_EDGE('',*,*,#1288,.T.);
#975=ORIENTED_EDGE('',*,*,#1283,.F.);
#976=ORIENTED_EDGE('',*,*,#1289,.T.);
#977=ORIENTED_EDGE('',*,*,#1263,.F.);
#978=ORIENTED_EDGE('',*,*,#1289,.F.);
#979=ORIENTED_EDGE('',*,*,#1282,.F.);
#980=ORIENTED_EDGE('',*,*,#1290,.F.);
#981=ORIENTED_EDGE('',*,*,#1291,.F.);
#982=ORIENTED_EDGE('',*,*,#1292,.F.);
#983=ORIENTED_EDGE('',*,*,#1293,.T.);
#984=ORIENTED_EDGE('',*,*,#1294,.T.);
#985=ORIENTED_EDGE('',*,*,#1295,.T.);
#986=ORIENTED_EDGE('',*,*,#1264,.T.);
#987=ORIENTED_EDGE('',*,*,#1292,.T.);
#988=ORIENTED_EDGE('',*,*,#1296,.T.);
#989=ORIENTED_EDGE('',*,*,#1285,.T.);
#990=ORIENTED_EDGE('',*,*,#1274,.T.);
#991=ORIENTED_EDGE('',*,*,#1297,.T.);
#992=ORIENTED_EDGE('',*,*,#1298,.T.);
#993=ORIENTED_EDGE('',*,*,#1299,.T.);
#994=ORIENTED_EDGE('',*,*,#1300,.T.);
#995=ORIENTED_EDGE('',*,*,#1301,.T.);
#996=ORIENTED_EDGE('',*,*,#1302,.T.);
#997=ORIENTED_EDGE('',*,*,#1303,.T.);
#998=ORIENTED_EDGE('',*,*,#1304,.T.);
#999=ORIENTED_EDGE('',*,*,#1305,.T.);
#1000=ORIENTED_EDGE('',*,*,#1265,.T.);
#1001=ORIENTED_EDGE('',*,*,#1295,.F.);
#1002=ORIENTED_EDGE('',*,*,#1306,.T.);
#1003=ORIENTED_EDGE('',*,*,#1305,.F.);
#1004=ORIENTED_EDGE('',*,*,#1307,.T.);
#1005=ORIENTED_EDGE('',*,*,#1308,.F.);
#1006=ORIENTED_EDGE('',*,*,#1309,.T.);
#1007=ORIENTED_EDGE('',*,*,#1310,.F.);
#1008=ORIENTED_EDGE('',*,*,#1311,.T.);
#1009=ORIENTED_EDGE('',*,*,#1312,.F.);
#1010=ORIENTED_EDGE('',*,*,#1266,.F.);
#1011=ORIENTED_EDGE('',*,*,#1267,.T.);
#1012=ORIENTED_EDGE('',*,*,#1312,.T.);
#1013=ORIENTED_EDGE('',*,*,#1313,.F.);
#1014=ORIENTED_EDGE('',*,*,#1314,.T.);
#1015=ORIENTED_EDGE('',*,*,#1314,.F.);
#1016=ORIENTED_EDGE('',*,*,#1315,.T.);
#1017=ORIENTED_EDGE('',*,*,#1316,.F.);
#1018=ORIENTED_EDGE('',*,*,#1317,.T.);
#1019=ORIENTED_EDGE('',*,*,#1318,.F.);
#1020=ORIENTED_EDGE('',*,*,#1319,.T.);
#1021=ORIENTED_EDGE('',*,*,#1320,.T.);
#1022=ORIENTED_EDGE('',*,*,#1321,.T.);
#1023=ORIENTED_EDGE('',*,*,#1322,.F.);
#1024=ORIENTED_EDGE('',*,*,#1323,.T.);
#1025=ORIENTED_EDGE('',*,*,#1324,.F.);
#1026=ORIENTED_EDGE('',*,*,#1325,.T.);
#1027=ORIENTED_EDGE('',*,*,#1326,.F.);
#1028=ORIENTED_EDGE('',*,*,#1327,.T.);
#1029=ORIENTED_EDGE('',*,*,#1328,.F.);
#1030=ORIENTED_EDGE('',*,*,#1329,.F.);
#1031=ORIENTED_EDGE('',*,*,#1330,.T.);
#1032=ORIENTED_EDGE('',*,*,#1280,.T.);
#1033=ORIENTED_EDGE('',*,*,#1331,.F.);
#1034=ORIENTED_EDGE('',*,*,#1268,.T.);
#1035=ORIENTED_EDGE('',*,*,#1331,.T.);
#1036=ORIENTED_EDGE('',*,*,#1279,.T.);
#1037=ORIENTED_EDGE('',*,*,#1332,.T.);
#1038=ORIENTED_EDGE('',*,*,#1269,.T.);
#1039=ORIENTED_EDGE('',*,*,#1333,.F.);
#1040=ORIENTED_EDGE('',*,*,#1270,.T.);
#1041=ORIENTED_EDGE('',*,*,#1332,.F.);
#1042=ORIENTED_EDGE('',*,*,#1278,.F.);
#1043=ORIENTED_EDGE('',*,*,#1334,.T.);
#1044=ORIENTED_EDGE('',*,*,#1335,.T.);
#1045=ORIENTED_EDGE('',*,*,#1336,.F.);
#1046=ORIENTED_EDGE('',*,*,#1337,.T.);
#1047=ORIENTED_EDGE('',*,*,#1338,.F.);
#1048=ORIENTED_EDGE('',*,*,#1339,.T.);
#1049=ORIENTED_EDGE('',*,*,#1340,.F.);
#1050=ORIENTED_EDGE('',*,*,#1341,.T.);
#1051=ORIENTED_EDGE('',*,*,#1342,.F.);
#1052=ORIENTED_EDGE('',*,*,#1343,.T.);
#1053=ORIENTED_EDGE('',*,*,#1344,.T.);
#1054=ORIENTED_EDGE('',*,*,#1345,.T.);
#1055=ORIENTED_EDGE('',*,*,#1346,.F.);
#1056=ORIENTED_EDGE('',*,*,#1347,.T.);
#1057=ORIENTED_EDGE('',*,*,#1348,.F.);
#1058=ORIENTED_EDGE('',*,*,#1349,.T.);
#1059=ORIENTED_EDGE('',*,*,#1271,.T.);
#1060=ORIENTED_EDGE('',*,*,#1333,.T.);
#1061=ORIENTED_EDGE('',*,*,#1350,.F.);
#1062=ORIENTED_EDGE('',*,*,#1351,.T.);
#1063=ORIENTED_EDGE('',*,*,#1352,.F.);
#1064=ORIENTED_EDGE('',*,*,#1272,.T.);
#1065=ORIENTED_EDGE('',*,*,#1351,.F.);
#1066=ORIENTED_EDGE('',*,*,#1353,.T.);
#1067=ORIENTED_EDGE('',*,*,#1354,.F.);
#1068=ORIENTED_EDGE('',*,*,#1355,.T.);
#1069=ORIENTED_EDGE('',*,*,#1356,.F.);
#1070=ORIENTED_EDGE('',*,*,#1357,.T.);
#1071=ORIENTED_EDGE('',*,*,#1352,.T.);
#1072=ORIENTED_EDGE('',*,*,#1358,.T.);
#1073=ORIENTED_EDGE('',*,*,#1359,.T.);
#1074=ORIENTED_EDGE('',*,*,#1360,.T.);
#1075=ORIENTED_EDGE('',*,*,#1297,.F.);
#1076=ORIENTED_EDGE('',*,*,#1273,.T.);
#1077=ORIENTED_EDGE('',*,*,#1361,.T.);
#1078=ORIENTED_EDGE('',*,*,#1362,.T.);
#1079=ORIENTED_EDGE('',*,*,#1363,.T.);
#1080=ORIENTED_EDGE('',*,*,#1364,.F.);
#1081=ORIENTED_EDGE('',*,*,#1334,.F.);
#1082=ORIENTED_EDGE('',*,*,#1277,.F.);
#1083=ORIENTED_EDGE('',*,*,#1287,.T.);
#1084=ORIENTED_EDGE('',*,*,#1365,.T.);
#1085=ORIENTED_EDGE('',*,*,#1290,.T.);
#1086=ORIENTED_EDGE('',*,*,#1281,.F.);
#1087=ORIENTED_EDGE('',*,*,#1330,.F.);
#1088=ORIENTED_EDGE('',*,*,#1366,.F.);
#1089=ORIENTED_EDGE('',*,*,#1367,.T.);
#1090=ORIENTED_EDGE('',*,*,#1368,.T.);
#1091=ORIENTED_EDGE('',*,*,#1296,.F.);
#1092=ORIENTED_EDGE('',*,*,#1291,.T.);
#1093=ORIENTED_EDGE('',*,*,#1365,.F.);
#1094=ORIENTED_EDGE('',*,*,#1286,.F.);
#1095=ORIENTED_EDGE('',*,*,#1361,.F.);
#1096=ORIENTED_EDGE('',*,*,#1369,.F.);
#1097=ORIENTED_EDGE('',*,*,#1370,.F.);
#1098=ORIENTED_EDGE('',*,*,#1371,.F.);
#1099=ORIENTED_EDGE('',*,*,#1293,.F.);
#1100=ORIENTED_EDGE('',*,*,#1372,.T.);
#1101=ORIENTED_EDGE('',*,*,#1371,.T.);
#1102=ORIENTED_EDGE('',*,*,#1373,.T.);
#1103=ORIENTED_EDGE('',*,*,#1374,.T.);
#1104=ORIENTED_EDGE('',*,*,#1298,.F.);
#1105=ORIENTED_EDGE('',*,*,#1360,.F.);
#1106=ORIENTED_EDGE('',*,*,#1375,.T.);
#1107=ORIENTED_EDGE('',*,*,#1376,.F.);
#1108=ORIENTED_EDGE('',*,*,#1337,.F.);
#1109=ORIENTED_EDGE('',*,*,#1377,.F.);
#1110=ORIENTED_EDGE('',*,*,#1327,.F.);
#1111=ORIENTED_EDGE('',*,*,#1378,.F.);
#1112=ORIENTED_EDGE('',*,*,#1379,.F.);
#1113=ORIENTED_EDGE('',*,*,#1306,.F.);
#1114=ORIENTED_EDGE('',*,*,#1294,.F.);
#1115=ORIENTED_EDGE('',*,*,#1380,.T.);
#1116=ORIENTED_EDGE('',*,*,#1363,.F.);
#1117=ORIENTED_EDGE('',*,*,#1381,.F.);
#1118=ORIENTED_EDGE('',*,*,#1299,.F.);
#1119=ORIENTED_EDGE('',*,*,#1374,.F.);
#1120=ORIENTED_EDGE('',*,*,#1382,.F.);
#1121=ORIENTED_EDGE('',*,*,#1383,.F.);
#1122=ORIENTED_EDGE('',*,*,#1362,.F.);
#1123=ORIENTED_EDGE('',*,*,#1372,.F.);
#1124=ORIENTED_EDGE('',*,*,#1300,.F.);
#1125=ORIENTED_EDGE('',*,*,#1381,.T.);
#1126=ORIENTED_EDGE('',*,*,#1301,.F.);
#1127=ORIENTED_EDGE('',*,*,#1367,.F.);
#1128=ORIENTED_EDGE('',*,*,#1302,.F.);
#1129=ORIENTED_EDGE('',*,*,#1368,.F.);
#1130=ORIENTED_EDGE('',*,*,#1303,.F.);
#1131=ORIENTED_EDGE('',*,*,#1379,.T.);
#1132=ORIENTED_EDGE('',*,*,#1384,.F.);
#1133=ORIENTED_EDGE('',*,*,#1385,.T.);
#1134=ORIENTED_EDGE('',*,*,#1386,.F.);
#1135=ORIENTED_EDGE('',*,*,#1387,.T.);
#1136=ORIENTED_EDGE('',*,*,#1388,.F.);
#1137=ORIENTED_EDGE('',*,*,#1389,.T.);
#1138=ORIENTED_EDGE('',*,*,#1304,.F.);
#1139=ORIENTED_EDGE('',*,*,#1390,.T.);
#1140=ORIENTED_EDGE('',*,*,#1320,.F.);
#1141=ORIENTED_EDGE('',*,*,#1391,.T.);
#1142=ORIENTED_EDGE('',*,*,#1392,.T.);
#1143=ORIENTED_EDGE('',*,*,#1307,.F.);
#1144=ORIENTED_EDGE('',*,*,#1391,.F.);
#1145=ORIENTED_EDGE('',*,*,#1319,.F.);
#1146=ORIENTED_EDGE('',*,*,#1392,.F.);
#1147=ORIENTED_EDGE('',*,*,#1318,.T.);
#1148=ORIENTED_EDGE('',*,*,#1393,.T.);
#1149=ORIENTED_EDGE('',*,*,#1308,.T.);
#1150=ORIENTED_EDGE('',*,*,#1393,.F.);
#1151=ORIENTED_EDGE('',*,*,#1317,.F.);
#1152=ORIENTED_EDGE('',*,*,#1394,.T.);
#1153=ORIENTED_EDGE('',*,*,#1309,.F.);
#1154=ORIENTED_EDGE('',*,*,#1394,.F.);
#1155=ORIENTED_EDGE('',*,*,#1316,.T.);
#1156=ORIENTED_EDGE('',*,*,#1395,.T.);
#1157=ORIENTED_EDGE('',*,*,#1310,.T.);
#1158=ORIENTED_EDGE('',*,*,#1313,.T.);
#1159=ORIENTED_EDGE('',*,*,#1311,.F.);
#1160=ORIENTED_EDGE('',*,*,#1395,.F.);
#1161=ORIENTED_EDGE('',*,*,#1315,.F.);
#1162=ORIENTED_EDGE('',*,*,#1396,.T.);
#1163=ORIENTED_EDGE('',*,*,#1321,.F.);
#1164=ORIENTED_EDGE('',*,*,#1390,.F.);
#1165=ORIENTED_EDGE('',*,*,#1389,.F.);
#1166=ORIENTED_EDGE('',*,*,#1396,.F.);
#1167=ORIENTED_EDGE('',*,*,#1388,.T.);
#1168=ORIENTED_EDGE('',*,*,#1397,.T.);
#1169=ORIENTED_EDGE('',*,*,#1322,.T.);
#1170=ORIENTED_EDGE('',*,*,#1397,.F.);
#1171=ORIENTED_EDGE('',*,*,#1387,.F.);
#1172=ORIENTED_EDGE('',*,*,#1398,.T.);
#1173=ORIENTED_EDGE('',*,*,#1323,.F.);
#1174=ORIENTED_EDGE('',*,*,#1398,.F.);
#1175=ORIENTED_EDGE('',*,*,#1386,.T.);
#1176=ORIENTED_EDGE('',*,*,#1399,.T.);
#1177=ORIENTED_EDGE('',*,*,#1324,.T.);
#1178=ORIENTED_EDGE('',*,*,#1400,.T.);
#1179=ORIENTED_EDGE('',*,*,#1325,.F.);
#1180=ORIENTED_EDGE('',*,*,#1399,.F.);
#1181=ORIENTED_EDGE('',*,*,#1385,.F.);
#1182=ORIENTED_EDGE('',*,*,#1378,.T.);
#1183=ORIENTED_EDGE('',*,*,#1326,.T.);
#1184=ORIENTED_EDGE('',*,*,#1400,.F.);
#1185=ORIENTED_EDGE('',*,*,#1384,.T.);
#1186=ORIENTED_EDGE('',*,*,#1336,.T.);
#1187=ORIENTED_EDGE('',*,*,#1401,.T.);
#1188=ORIENTED_EDGE('',*,*,#1328,.T.);
#1189=ORIENTED_EDGE('',*,*,#1377,.T.);
#1190=ORIENTED_EDGE('',*,*,#1369,.T.);
#1191=ORIENTED_EDGE('',*,*,#1366,.T.);
#1192=ORIENTED_EDGE('',*,*,#1329,.T.);
#1193=ORIENTED_EDGE('',*,*,#1401,.F.);
#1194=ORIENTED_EDGE('',*,*,#1335,.F.);
#1195=ORIENTED_EDGE('',*,*,#1364,.T.);
#1196=ORIENTED_EDGE('',*,*,#1383,.T.);
#1197=ORIENTED_EDGE('',*,*,#1402,.T.);
#1198=ORIENTED_EDGE('',*,*,#1403,.T.);
#1199=ORIENTED_EDGE('',*,*,#1376,.T.);
#1200=ORIENTED_EDGE('',*,*,#1404,.T.);
#1201=ORIENTED_EDGE('',*,*,#1405,.F.);
#1202=ORIENTED_EDGE('',*,*,#1338,.T.);
#1203=ORIENTED_EDGE('',*,*,#1405,.T.);
#1204=ORIENTED_EDGE('',*,*,#1406,.F.);
#1205=ORIENTED_EDGE('',*,*,#1407,.F.);
#1206=ORIENTED_EDGE('',*,*,#1339,.F.);
#1207=ORIENTED_EDGE('',*,*,#1408,.F.);
#1208=ORIENTED_EDGE('',*,*,#1340,.T.);
#1209=ORIENTED_EDGE('',*,*,#1407,.T.);
#1210=ORIENTED_EDGE('',*,*,#1409,.T.);
#1211=ORIENTED_EDGE('',*,*,#1410,.F.);
#1212=ORIENTED_EDGE('',*,*,#1341,.F.);
#1213=ORIENTED_EDGE('',*,*,#1408,.T.);
#1214=ORIENTED_EDGE('',*,*,#1411,.F.);
#1215=ORIENTED_EDGE('',*,*,#1412,.F.);
#1216=ORIENTED_EDGE('',*,*,#1342,.T.);
#1217=ORIENTED_EDGE('',*,*,#1410,.T.);
#1218=ORIENTED_EDGE('',*,*,#1413,.T.);
#1219=ORIENTED_EDGE('',*,*,#1412,.T.);
#1220=ORIENTED_EDGE('',*,*,#1414,.F.);
#1221=ORIENTED_EDGE('',*,*,#1415,.F.);
#1222=ORIENTED_EDGE('',*,*,#1343,.F.);
#1223=ORIENTED_EDGE('',*,*,#1358,.F.);
#1224=ORIENTED_EDGE('',*,*,#1416,.T.);
#1225=ORIENTED_EDGE('',*,*,#1344,.F.);
#1226=ORIENTED_EDGE('',*,*,#1415,.T.);
#1227=ORIENTED_EDGE('',*,*,#1417,.T.);
#1228=ORIENTED_EDGE('',*,*,#1345,.F.);
#1229=ORIENTED_EDGE('',*,*,#1416,.F.);
#1230=ORIENTED_EDGE('',*,*,#1357,.F.);
#1231=ORIENTED_EDGE('',*,*,#1417,.F.);
#1232=ORIENTED_EDGE('',*,*,#1356,.T.);
#1233=ORIENTED_EDGE('',*,*,#1418,.T.);
#1234=ORIENTED_EDGE('',*,*,#1346,.T.);
#1235=ORIENTED_EDGE('',*,*,#1418,.F.);
#1236=ORIENTED_EDGE('',*,*,#1355,.F.);
#1237=ORIENTED_EDGE('',*,*,#1419,.T.);
#1238=ORIENTED_EDGE('',*,*,#1347,.F.);
#1239=ORIENTED_EDGE('',*,*,#1419,.F.);
#1240=ORIENTED_EDGE('',*,*,#1354,.T.);
#1241=ORIENTED_EDGE('',*,*,#1420,.T.);
#1242=ORIENTED_EDGE('',*,*,#1348,.T.);
#1243=ORIENTED_EDGE('',*,*,#1350,.T.);
#1244=ORIENTED_EDGE('',*,*,#1349,.F.);
#1245=ORIENTED_EDGE('',*,*,#1420,.F.);
#1246=ORIENTED_EDGE('',*,*,#1353,.F.);
#1247=ORIENTED_EDGE('',*,*,#1359,.F.);
#1248=ORIENTED_EDGE('',*,*,#1414,.T.);
#1249=ORIENTED_EDGE('',*,*,#1413,.F.);
#1250=ORIENTED_EDGE('',*,*,#1411,.T.);
#1251=ORIENTED_EDGE('',*,*,#1409,.F.);
#1252=ORIENTED_EDGE('',*,*,#1406,.T.);
#1253=ORIENTED_EDGE('',*,*,#1404,.F.);
#1254=ORIENTED_EDGE('',*,*,#1375,.F.);
#1255=ORIENTED_EDGE('',*,*,#1402,.F.);
#1256=ORIENTED_EDGE('',*,*,#1382,.T.);
#1257=ORIENTED_EDGE('',*,*,#1373,.F.);
#1258=ORIENTED_EDGE('',*,*,#1370,.T.);
#1259=ORIENTED_EDGE('',*,*,#1380,.F.);
#1260=ORIENTED_EDGE('',*,*,#1403,.F.);
#1261=EDGE_CURVE('',#1421,#1422,#1423,.T.);
#1262=EDGE_CURVE('',#1422,#1424,#1425,.F.);
#1263=EDGE_CURVE('',#1424,#1426,#1427,.T.);
#1264=EDGE_CURVE('',#1428,#1426,#1429,.T.);
#1265=EDGE_CURVE('',#1430,#1428,#1431,.F.);
#1266=EDGE_CURVE('',#1430,#1432,#1433,.T.);
#1267=EDGE_CURVE('',#1434,#1432,#1435,.T.);
#1268=EDGE_CURVE('',#1436,#1434,#1437,.F.);
#1269=EDGE_CURVE('',#1438,#1436,#1439,.F.);
#1270=EDGE_CURVE('',#1440,#1438,#1441,.F.);
#1271=EDGE_CURVE('',#1442,#1440,#1443,.T.);
#1272=EDGE_CURVE('',#1444,#1442,#1445,.T.);
#1273=EDGE_CURVE('',#1446,#1444,#1447,.F.);
#1274=EDGE_CURVE('',#1421,#1446,#1448,.T.);
#1275=EDGE_CURVE('',#1449,#1449,#1450,.T.);
#1276=EDGE_CURVE('',#1451,#1452,#1453,.F.);
#1277=EDGE_CURVE('',#1452,#1454,#1455,.T.);
#1278=EDGE_CURVE('',#1454,#1456,#1457,.T.);
#1279=EDGE_CURVE('',#1458,#1456,#1459,.T.);
#1280=EDGE_CURVE('',#1460,#1458,#1461,.T.);
#1281=EDGE_CURVE('',#1460,#1462,#1463,.T.);
#1282=EDGE_CURVE('',#1462,#1464,#1465,.F.);
#1283=EDGE_CURVE('',#1464,#1451,#1466,.T.);
#1284=EDGE_CURVE('',#1467,#1467,#1468,.F.);
#1285=EDGE_CURVE('',#1469,#1421,#1470,.F.);
#1286=EDGE_CURVE('',#1469,#1471,#1472,.T.);
#1287=EDGE_CURVE('',#1452,#1471,#1473,.T.);
#1288=EDGE_CURVE('',#1422,#1451,#1474,.T.);
#1289=EDGE_CURVE('',#1464,#1424,#1475,.T.);
#1290=EDGE_CURVE('',#1476,#1462,#1477,.T.);
#1291=EDGE_CURVE('',#1478,#1476,#1479,.T.);
#1292=EDGE_CURVE('',#1426,#1478,#1480,.F.);
#1293=EDGE_CURVE('',#1481,#1482,#1483,.F.);
#1294=EDGE_CURVE('',#1482,#1484,#1485,.T.);
#1295=EDGE_CURVE('',#1484,#1428,#1486,.T.);
#1296=EDGE_CURVE('',#1478,#1469,#1487,.F.);
#1297=EDGE_CURVE('',#1446,#1488,#1489,.T.);
#1298=EDGE_CURVE('',#1488,#1490,#1491,.T.);
#1299=EDGE_CURVE('',#1490,#1492,#1493,.F.);
#1300=EDGE_CURVE('',#1492,#1481,#1494,.F.);
#1301=EDGE_CURVE('',#1495,#1495,#1496,.T.);
#1302=EDGE_CURVE('',#1497,#1497,#1498,.T.);
#1303=EDGE_CURVE('',#1499,#1500,#1501,.T.);
#1304=EDGE_CURVE('',#1500,#1502,#1503,.F.);
#1305=EDGE_CURVE('',#1502,#1430,#1504,.T.);
#1306=EDGE_CURVE('',#1484,#1499,#1505,.F.);
#1307=EDGE_CURVE('',#1502,#1506,#1507,.T.);
#1308=EDGE_CURVE('',#1508,#1506,#1509,.F.);
#1309=EDGE_CURVE('',#1508,#1510,#1511,.F.);
#1310=EDGE_CURVE('',#1512,#1510,#1513,.F.);
#1311=EDGE_CURVE('',#1512,#1514,#1515,.F.);
#1312=EDGE_CURVE('',#1432,#1514,#1516,.F.);
#1313=EDGE_CURVE('',#1517,#1514,#1518,.T.);
#1314=EDGE_CURVE('',#1517,#1434,#1519,.F.);
#1315=EDGE_CURVE('',#1517,#1520,#1521,.T.);
#1316=EDGE_CURVE('',#1522,#1520,#1523,.F.);
#1317=EDGE_CURVE('',#1522,#1524,#1525,.T.);
#1318=EDGE_CURVE('',#1526,#1524,#1527,.F.);
#1319=EDGE_CURVE('',#1526,#1528,#1529,.F.);
#1320=EDGE_CURVE('',#1528,#1530,#1531,.T.);
#1321=EDGE_CURVE('',#1530,#1532,#1533,.F.);
#1322=EDGE_CURVE('',#1534,#1532,#1535,.F.);
#1323=EDGE_CURVE('',#1534,#1536,#1537,.T.);
#1324=EDGE_CURVE('',#1538,#1536,#1539,.F.);
#1325=EDGE_CURVE('',#1538,#1540,#1541,.T.);
#1326=EDGE_CURVE('',#1542,#1540,#1543,.F.);
#1327=EDGE_CURVE('',#1542,#1544,#1545,.F.);
#1328=EDGE_CURVE('',#1546,#1544,#1547,.T.);
#1329=EDGE_CURVE('',#1548,#1546,#1549,.T.);
#1330=EDGE_CURVE('',#1548,#1460,#1550,.T.);
#1331=EDGE_CURVE('',#1436,#1458,#1551,.T.);
#1332=EDGE_CURVE('',#1456,#1438,#1552,.T.);
#1333=EDGE_CURVE('',#1440,#1553,#1554,.F.);
#1334=EDGE_CURVE('',#1454,#1555,#1556,.T.);
#1335=EDGE_CURVE('',#1555,#1557,#1558,.T.);
#1336=EDGE_CURVE('',#1559,#1557,#1560,.T.);
#1337=EDGE_CURVE('',#1559,#1561,#1562,.F.);
#1338=EDGE_CURVE('',#1563,#1561,#1564,.F.);
#1339=EDGE_CURVE('',#1563,#1565,#1566,.T.);
#1340=EDGE_CURVE('',#1567,#1565,#1568,.F.);
#1341=EDGE_CURVE('',#1567,#1569,#1570,.T.);
#1342=EDGE_CURVE('',#1571,#1569,#1572,.F.);
#1343=EDGE_CURVE('',#1571,#1573,#1574,.F.);
#1344=EDGE_CURVE('',#1573,#1575,#1576,.T.);
#1345=EDGE_CURVE('',#1575,#1577,#1578,.F.);
#1346=EDGE_CURVE('',#1579,#1577,#1580,.F.);
#1347=EDGE_CURVE('',#1579,#1581,#1582,.T.);
#1348=EDGE_CURVE('',#1583,#1581,#1584,.F.);
#1349=EDGE_CURVE('',#1583,#1553,#1585,.T.);
#1350=EDGE_CURVE('',#1586,#1553,#1587,.T.);
#1351=EDGE_CURVE('',#1586,#1442,#1588,.F.);
#1352=EDGE_CURVE('',#1444,#1589,#1590,.T.);
#1353=EDGE_CURVE('',#1586,#1591,#1592,.F.);
#1354=EDGE_CURVE('',#1593,#1591,#1594,.F.);
#1355=EDGE_CURVE('',#1593,#1595,#1596,.F.);
#1356=EDGE_CURVE('',#1597,#1595,#1598,.F.);
#1357=EDGE_CURVE('',#1597,#1589,#1599,.T.);
#1358=EDGE_CURVE('',#1589,#1600,#1601,.F.);
#1359=EDGE_CURVE('',#1600,#1602,#1603,.T.);
#1360=EDGE_CURVE('',#1602,#1488,#1604,.F.);
#1361=EDGE_CURVE('',#1605,#1606,#1607,.T.);
#1362=EDGE_CURVE('',#1606,#1608,#1609,.T.);
#1363=EDGE_CURVE('',#1608,#1610,#1611,.T.);
#1364=EDGE_CURVE('',#1555,#1610,#1612,.T.);
#1365=EDGE_CURVE('',#1471,#1476,#1613,.T.);
#1366=EDGE_CURVE('',#1605,#1548,#1614,.T.);
#1367=EDGE_CURVE('',#1615,#1615,#1616,.F.);
#1368=EDGE_CURVE('',#1617,#1617,#1618,.F.);
#1369=EDGE_CURVE('',#1619,#1605,#1620,.F.);
#1370=EDGE_CURVE('',#1621,#1619,#1622,.T.);
#1371=EDGE_CURVE('',#1482,#1621,#1623,.T.);
#1372=EDGE_CURVE('',#1481,#1606,#1624,.T.);
#1373=EDGE_CURVE('',#1621,#1625,#1626,.F.);
#1374=EDGE_CURVE('',#1625,#1490,#1627,.T.);
#1375=EDGE_CURVE('',#1602,#1628,#1629,.T.);
#1376=EDGE_CURVE('',#1561,#1628,#1630,.T.);
#1377=EDGE_CURVE('',#1544,#1559,#1631,.F.);
#1378=EDGE_CURVE('',#1632,#1542,#1633,.T.);
#1379=EDGE_CURVE('',#1499,#1632,#1634,.T.);
#1380=EDGE_CURVE('',#1635,#1635,#1636,.F.);
#1381=EDGE_CURVE('',#1492,#1608,#1637,.T.);
#1382=EDGE_CURVE('',#1638,#1625,#1639,.T.);
#1383=EDGE_CURVE('',#1610,#1638,#1640,.F.);
#1384=EDGE_CURVE('',#1641,#1632,#1642,.F.);
#1385=EDGE_CURVE('',#1641,#1643,#1644,.F.);
#1386=EDGE_CURVE('',#1645,#1643,#1646,.F.);
#1387=EDGE_CURVE('',#1645,#1647,#1648,.F.);
#1388=EDGE_CURVE('',#1649,#1647,#1650,.F.);
#1389=EDGE_CURVE('',#1649,#1500,#1651,.T.);
#1390=EDGE_CURVE('',#1500,#1530,#1652,.T.);
#1391=EDGE_CURVE('',#1528,#1502,#1653,.T.);
#1392=EDGE_CURVE('',#1526,#1506,#1654,.F.);
#1393=EDGE_CURVE('',#1524,#1508,#1655,.F.);
#1394=EDGE_CURVE('',#1522,#1510,#1656,.T.);
#1395=EDGE_CURVE('',#1520,#1512,#1657,.F.);
#1396=EDGE_CURVE('',#1649,#1532,#1658,.F.);
#1397=EDGE_CURVE('',#1647,#1534,#1659,.F.);
#1398=EDGE_CURVE('',#1645,#1536,#1660,.T.);
#1399=EDGE_CURVE('',#1643,#1538,#1661,.F.);
#1400=EDGE_CURVE('',#1641,#1540,#1662,.T.);
#1401=EDGE_CURVE('',#1557,#1546,#1663,.T.);
#1402=EDGE_CURVE('',#1638,#1619,#1664,.T.);
#1403=EDGE_CURVE('',#1665,#1665,#1666,.T.);
#1404=EDGE_CURVE('',#1628,#1667,#1668,.F.);
#1405=EDGE_CURVE('',#1563,#1667,#1669,.T.);
#1406=EDGE_CURVE('',#1670,#1667,#1671,.F.);
#1407=EDGE_CURVE('',#1565,#1670,#1672,.F.);
#1408=EDGE_CURVE('',#1567,#1673,#1674,.T.);
#1409=EDGE_CURVE('',#1670,#1673,#1675,.F.);
#1410=EDGE_CURVE('',#1569,#1676,#1677,.F.);
#1411=EDGE_CURVE('',#1676,#1673,#1678,.F.);
#1412=EDGE_CURVE('',#1571,#1679,#1680,.F.);
#1413=EDGE_CURVE('',#1676,#1679,#1681,.F.);
#1414=EDGE_CURVE('',#1600,#1679,#1682,.T.);
#1415=EDGE_CURVE('',#1573,#1600,#1683,.T.);
#1416=EDGE_CURVE('',#1589,#1575,#1684,.T.);
#1417=EDGE_CURVE('',#1597,#1577,#1685,.F.);
#1418=EDGE_CURVE('',#1595,#1579,#1686,.F.);
#1419=EDGE_CURVE('',#1593,#1581,#1687,.T.);
#1420=EDGE_CURVE('',#1591,#1583,#1688,.F.);
#1421=VERTEX_POINT('',#1689);
#1422=VERTEX_POINT('',#1690);
#1423=LINE('',#1691,#1692);
#1424=VERTEX_POINT('',#1694);
#1425=LINE('',#1695,#1696);
#1426=VERTEX_POINT('',#1698);
#1427=LINE('',#1699,#1700);
#1428=VERTEX_POINT('',#1702);
#1429=LINE('',#1703,#1704);
#1430=VERTEX_POINT('',#1706);
#1431=CIRCLE('',#1707,5.);
#1432=VERTEX_POINT('',#1711);
#1433=LINE('',#1712,#1713);
#1434=VERTEX_POINT('',#1715);
#1435=LINE('',#1716,#1717);
#1436=VERTEX_POINT('',#1719);
#1437=LINE('',#1720,#1721);
#1438=VERTEX_POINT('',#1723);
#1439=LINE('',#1724,#1725);
#1440=VERTEX_POINT('',#1727);
#1441=LINE('',#1728,#1729);
#1442=VERTEX_POINT('',#1731);
#1443=LINE('',#1732,#1733);
#1444=VERTEX_POINT('',#1735);
#1445=LINE('',#1736,#1737);
#1446=VERTEX_POINT('',#1739);
#1447=CIRCLE('',#1740,5.);
#1448=LINE('',#1744,#1745);
#1449=VERTEX_POINT('',#1747);
#1450=CIRCLE('',#1748,1.);
#1451=VERTEX_POINT('',#1752);
#1452=VERTEX_POINT('',#1753);
#1453=LINE('',#1754,#1755);
#1454=VERTEX_POINT('',#1757);
#1455=LINE('',#1758,#1759);
#1456=VERTEX_POINT('',#1761);
#1457=LINE('',#1762,#1763);
#1458=VERTEX_POINT('',#1765);
#1459=LINE('',#1766,#1767);
#1460=VERTEX_POINT('',#1769);
#1461=LINE('',#1770,#1771);
#1462=VERTEX_POINT('',#1773);
#1463=LINE('',#1774,#1775);
#1464=VERTEX_POINT('',#1777);
#1465=LINE('',#1778,#1779);
#1466=LINE('',#1781,#1782);
#1467=VERTEX_POINT('',#1784);
#1468=CIRCLE('',#1785,1.);
#1469=VERTEX_POINT('',#1789);
#1470=LINE('',#1790,#1791);
#1471=VERTEX_POINT('',#1793);
#1472=LINE('',#1794,#1795);
#1473=LINE('',#1797,#1798);
#1474=LINE('',#1800,#1801);
#1475=LINE('',#1803,#1804);
#1476=VERTEX_POINT('',#1806);
#1477=LINE('',#1807,#1808);
#1478=VERTEX_POINT('',#1810);
#1479=LINE('',#1811,#1812);
#1480=LINE('',#1814,#1815);
#1481=VERTEX_POINT('',#1817);
#1482=VERTEX_POINT('',#1818);
#1483=LINE('',#1819,#1820);
#1484=VERTEX_POINT('',#1822);
#1485=LINE('',#1823,#1824);
#1486=LINE('',#1826,#1827);
#1487=LINE('',#1829,#1830);
#1488=VERTEX_POINT('',#1832);
#1489=LINE('',#1833,#1834);
#1490=VERTEX_POINT('',#1836);
#1491=LINE('',#1837,#1838);
#1492=VERTEX_POINT('',#1840);
#1493=LINE('',#1841,#1842);
#1494=LINE('',#1844,#1845);
#1495=VERTEX_POINT('',#1847);
#1496=CIRCLE('',#1848,1.5);
#1497=VERTEX_POINT('',#1852);
#1498=CIRCLE('',#1853,1.5);
#1499=VERTEX_POINT('',#1857);
#1500=VERTEX_POINT('',#1858);
#1501=LINE('',#1859,#1860);
#1502=VERTEX_POINT('',#1862);
#1503=LINE('',#1863,#1864);
#1504=LINE('',#1866,#1867);
#1505=CIRCLE('',#1869,5.);
#1506=VERTEX_POINT('',#1873);
#1507=LINE('',#1874,#1875);
#1508=VERTEX_POINT('',#1877);
#1509=CIRCLE('',#1878,1.);
#1510=VERTEX_POINT('',#1882);
#1511=LINE('',#1883,#1884);
#1512=VERTEX_POINT('',#1886);
#1513=LINE('',#1887,#1888);
#1514=VERTEX_POINT('',#1890);
#1515=LINE('',#1891,#1892);
#1516=CIRCLE('',#1894,1.);
#1517=VERTEX_POINT('',#1898);
#1518=LINE('',#1899,#1900);
#1519=CIRCLE('',#1902,1.);
#1520=VERTEX_POINT('',#1906);
#1521=LINE('',#1907,#1908);
#1522=VERTEX_POINT('',#1910);
#1523=LINE('',#1911,#1912);
#1524=VERTEX_POINT('',#1914);
#1525=LINE('',#1915,#1916);
#1526=VERTEX_POINT('',#1918);
#1527=CIRCLE('',#1919,1.);
#1528=VERTEX_POINT('',#1923);
#1529=LINE('',#1924,#1925);
#1530=VERTEX_POINT('',#1927);
#1531=LINE('',#1928,#1929);
#1532=VERTEX_POINT('',#1931);
#1533=LINE('',#1932,#1933);
#1534=VERTEX_POINT('',#1935);
#1535=CIRCLE('',#1936,1.);
#1536=VERTEX_POINT('',#1940);
#1537=LINE('',#1941,#1942);
#1538=VERTEX_POINT('',#1944);
#1539=LINE('',#1945,#1946);
#1540=VERTEX_POINT('',#1948);
#1541=LINE('',#1949,#1950);
#1542=VERTEX_POINT('',#1952);
#1543=CIRCLE('',#1953,1.);
#1544=VERTEX_POINT('',#1957);
#1545=LINE('',#1958,#1959);
#1546=VERTEX_POINT('',#1961);
#1547=LINE('',#1962,#1963);
#1548=VERTEX_POINT('',#1965);
#1549=LINE('',#1966,#1967);
#1550=LINE('',#1969,#1970);
#1551=LINE('',#1972,#1973);
#1552=LINE('',#1975,#1976);
#1553=VERTEX_POINT('',#1978);
#1554=CIRCLE('',#1979,1.);
#1555=VERTEX_POINT('',#1983);
#1556=LINE('',#1984,#1985);
#1557=VERTEX_POINT('',#1987);
#1558=LINE('',#1988,#1989);
#1559=VERTEX_POINT('',#1991);
#1560=LINE('',#1992,#1993);
#1561=VERTEX_POINT('',#1995);
#1562=LINE('',#1996,#1997);
#1563=VERTEX_POINT('',#1999);
#1564=CIRCLE('',#2000,1.);
#1565=VERTEX_POINT('',#2004);
#1566=LINE('',#2005,#2006);
#1567=VERTEX_POINT('',#2008);
#1568=LINE('',#2009,#2010);
#1569=VERTEX_POINT('',#2012);
#1570=LINE('',#2013,#2014);
#1571=VERTEX_POINT('',#2016);
#1572=CIRCLE('',#2017,1.);
#1573=VERTEX_POINT('',#2021);
#1574=LINE('',#2022,#2023);
#1575=VERTEX_POINT('',#2025);
#1576=LINE('',#2026,#2027);
#1577=VERTEX_POINT('',#2029);
#1578=LINE('',#2030,#2031);
#1579=VERTEX_POINT('',#2033);
#1580=CIRCLE('',#2034,1.);
#1581=VERTEX_POINT('',#2038);
#1582=LINE('',#2039,#2040);
#1583=VERTEX_POINT('',#2042);
#1584=LINE('',#2043,#2044);
#1585=LINE('',#2046,#2047);
#1586=VERTEX_POINT('',#2049);
#1587=LINE('',#2050,#2051);
#1588=CIRCLE('',#2053,1.);
#1589=VERTEX_POINT('',#2057);
#1590=LINE('',#2058,#2059);
#1591=VERTEX_POINT('',#2061);
#1592=LINE('',#2062,#2063);
#1593=VERTEX_POINT('',#2065);
#1594=LINE('',#2066,#2067);
#1595=VERTEX_POINT('',#2069);
#1596=LINE('',#2070,#2071);
#1597=VERTEX_POINT('',#2073);
#1598=CIRCLE('',#2074,1.);
#1599=LINE('',#2078,#2079);
#1600=VERTEX_POINT('',#2081);
#1601=LINE('',#2082,#2083);
#1602=VERTEX_POINT('',#2085);
#1603=LINE('',#2086,#2087);
#1604=CIRCLE('',#2089,5.);
#1605=VERTEX_POINT('',#2093);
#1606=VERTEX_POINT('',#2094);
#1607=LINE('',#2095,#2096);
#1608=VERTEX_POINT('',#2098);
#1609=LINE('',#2099,#2100);
#1610=VERTEX_POINT('',#2102);
#1611=LINE('',#2103,#2104);
#1612=LINE('',#2106,#2107);
#1613=LINE('',#2109,#2110);
#1614=LINE('',#2112,#2113);
#1615=VERTEX_POINT('',#2115);
#1616=CIRCLE('',#2116,1.5);
#1617=VERTEX_POINT('',#2120);
#1618=CIRCLE('',#2121,1.5);
#1619=VERTEX_POINT('',#2125);
#1620=LINE('',#2126,#2127);
#1621=VERTEX_POINT('',#2129);
#1622=LINE('',#2130,#2131);
#1623=LINE('',#2133,#2134);
#1624=LINE('',#2136,#2137);
#1625=VERTEX_POINT('',#2139);
#1626=LINE('',#2140,#2141);
#1627=LINE('',#2143,#2144);
#1628=VERTEX_POINT('',#2146);
#1629=LINE('',#2147,#2148);
#1630=LINE('',#2150,#2151);
#1631=LINE('',#2153,#2154);
#1632=VERTEX_POINT('',#2156);
#1633=LINE('',#2157,#2158);
#1634=LINE('',#2160,#2161);
#1635=VERTEX_POINT('',#2163);
#1636=CIRCLE('',#2164,1.);
#1637=LINE('',#2168,#2169);
#1638=VERTEX_POINT('',#2171);
#1639=LINE('',#2172,#2173);
#1640=LINE('',#2175,#2176);
#1641=VERTEX_POINT('',#2178);
#1642=CIRCLE('',#2179,1.);
#1643=VERTEX_POINT('',#2183);
#1644=LINE('',#2184,#2185);
#1645=VERTEX_POINT('',#2187);
#1646=LINE('',#2188,#2189);
#1647=VERTEX_POINT('',#2191);
#1648=LINE('',#2192,#2193);
#1649=VERTEX_POINT('',#2195);
#1650=CIRCLE('',#2196,1.);
#1651=LINE('',#2200,#2201);
#1652=LINE('',#2203,#2204);
#1653=LINE('',#2206,#2207);
#1654=LINE('',#2209,#2210);
#1655=LINE('',#2212,#2213);
#1656=LINE('',#2215,#2216);
#1657=LINE('',#2218,#2219);
#1658=LINE('',#2221,#2222);
#1659=LINE('',#2224,#2225);
#1660=LINE('',#2227,#2228);
#1661=LINE('',#2230,#2231);
#1662=LINE('',#2233,#2234);
#1663=LINE('',#2236,#2237);
#1664=LINE('',#2239,#2240);
#1665=VERTEX_POINT('',#2242);
#1666=CIRCLE('',#2243,1.);
#1667=VERTEX_POINT('',#2247);
#1668=CIRCLE('',#2248,1.);
#1669=LINE('',#2252,#2253);
#1670=VERTEX_POINT('',#2255);
#1671=LINE('',#2256,#2257);
#1672=LINE('',#2259,#2260);
#1673=VERTEX_POINT('',#2262);
#1674=LINE('',#2263,#2264);
#1675=LINE('',#2266,#2267);
#1676=VERTEX_POINT('',#2269);
#1677=LINE('',#2270,#2271);
#1678=LINE('',#2273,#2274);
#1679=VERTEX_POINT('',#2276);
#1680=LINE('',#2277,#2278);
#1681=CIRCLE('',#2280,1.);
#1682=LINE('',#2284,#2285);
#1683=LINE('',#2287,#2288);
#1684=LINE('',#2290,#2291);
#1685=LINE('',#2293,#2294);
#1686=LINE('',#2296,#2297);
#1687=LINE('',#2299,#2300);
#1688=LINE('',#2302,#2303);
#1689=CARTESIAN_POINT('',(-35.5,43.,-43.));
#1690=CARTESIAN_POINT('',(-35.5,43.,-34.));
#1691=CARTESIAN_POINT('',(-35.5,43.,-43.));
#1692=VECTOR('',#1693,1.);
#1693=DIRECTION('',(0.,0.,1.));
#1694=CARTESIAN_POINT('',(-31.5,43.,-34.));
#1695=CARTESIAN_POINT('',(-31.5,43.,-34.));
#1696=VECTOR('',#1697,1.);
#1697=DIRECTION('',(-1.,0.,0.));
#1698=CARTESIAN_POINT('',(-31.5,43.,-43.));
#1699=CARTESIAN_POINT('',(-31.5,43.,-34.));
#1700=VECTOR('',#1701,1.);
#1701=DIRECTION('',(0.,0.,-1.));
#1702=CARTESIAN_POINT('',(-29.,43.,-43.));
#1703=CARTESIAN_POINT('',(-29.,43.,-43.));
#1704=VECTOR('',#1705,1.);
#1705=DIRECTION('',(-1.,0.,0.));
#1706=CARTESIAN_POINT('',(-24.,43.,-38.));
#1707=AXIS2_PLACEMENT_3D('',#1708,#1709,#1710);
#1708=CARTESIAN_POINT('',(-29.,43.,-38.));
#1709=DIRECTION('',(0.,-1.,0.));
#1710=DIRECTION('',(0.,0.,-1.));
#1711=CARTESIAN_POINT('',(-24.,43.,-28.));
#1712=CARTESIAN_POINT('',(-24.,43.,-38.));
#1713=VECTOR('',#1714,1.);
#1714=DIRECTION('',(0.,0.,1.));
#1715=CARTESIAN_POINT('',(-23.,43.,-28.));
#1716=CARTESIAN_POINT('',(-23.,43.,-28.));
#1717=VECTOR('',#1718,1.);
#1718=DIRECTION('',(-1.,0.,0.));
#1719=CARTESIAN_POINT('',(-23.,43.,-24.));
#1720=CARTESIAN_POINT('',(-23.,43.,-28.));
#1721=VECTOR('',#1722,1.);
#1722=DIRECTION('',(0.,0.,1.));
#1723=CARTESIAN_POINT('',(-44.,43.,-24.));
#1724=CARTESIAN_POINT('',(-23.,43.,-24.));
#1725=VECTOR('',#1726,1.);
#1726=DIRECTION('',(-1.,0.,0.));
#1727=CARTESIAN_POINT('',(-44.,43.,-28.));
#1728=CARTESIAN_POINT('',(-44.,43.,-24.));
#1729=VECTOR('',#1730,1.);
#1730=DIRECTION('',(0.,0.,-1.));
#1731=CARTESIAN_POINT('',(-43.,43.,-28.));
#1732=CARTESIAN_POINT('',(-43.,43.,-28.));
#1733=VECTOR('',#1734,1.);
#1734=DIRECTION('',(-1.,0.,0.));
#1735=CARTESIAN_POINT('',(-43.,43.,-38.));
#1736=CARTESIAN_POINT('',(-43.,43.,-38.));
#1737=VECTOR('',#1738,1.);
#1738=DIRECTION('',(0.,0.,1.));
#1739=CARTESIAN_POINT('',(-38.,43.,-43.));
#1740=AXIS2_PLACEMENT_3D('',#1741,#1742,#1743);
#1741=CARTESIAN_POINT('',(-38.,43.,-38.));
#1742=DIRECTION('',(0.,-1.,0.));
#1743=DIRECTION('',(-1.,0.,0.));
#1744=CARTESIAN_POINT('',(-35.5,43.,-43.));
#1745=VECTOR('',#1746,1.);
#1746=DIRECTION('',(-1.,0.,0.));
#1747=CARTESIAN_POINT('',(-34.5,43.,-29.));
#1748=AXIS2_PLACEMENT_3D('',#1749,#1750,#1751);
#1749=CARTESIAN_POINT('',(-33.5,43.,-29.));
#1750=DIRECTION('',(0.,1.,0.));
#1751=DIRECTION('',(-1.,0.,-1.22464679914735E-16));
#1752=CARTESIAN_POINT('',(-35.5,44.,-34.));
#1753=CARTESIAN_POINT('',(-35.5,44.,-44.));
#1754=CARTESIAN_POINT('',(-35.5,44.,-44.));
#1755=VECTOR('',#1756,1.);
#1756=DIRECTION('',(0.,0.,1.));
#1757=CARTESIAN_POINT('',(-44.,44.,-44.));
#1758=CARTESIAN_POINT('',(-35.5,44.,-44.));
#1759=VECTOR('',#1760,1.);
#1760=DIRECTION('',(-1.,0.,0.));
#1761=CARTESIAN_POINT('',(-44.,44.,-24.));
#1762=CARTESIAN_POINT('',(-44.,44.,-44.));
#1763=VECTOR('',#1764,1.);
#1764=DIRECTION('',(0.,0.,1.));
#1765=CARTESIAN_POINT('',(-23.,44.,-24.));
#1766=CARTESIAN_POINT('',(-23.,44.,-24.));
#1767=VECTOR('',#1768,1.);
#1768=DIRECTION('',(-1.,0.,0.));
#1769=CARTESIAN_POINT('',(-23.,44.,-44.));
#1770=CARTESIAN_POINT('',(-23.,44.,-44.));
#1771=VECTOR('',#1772,1.);
#1772=DIRECTION('',(0.,0.,1.));
#1773=CARTESIAN_POINT('',(-31.5,44.,-44.));
#1774=CARTESIAN_POINT('',(-23.,44.,-44.));
#1775=VECTOR('',#1776,1.);
#1776=DIRECTION('',(-1.,0.,0.));
#1777=CARTESIAN_POINT('',(-31.5,44.,-34.));
#1778=CARTESIAN_POINT('',(-31.5,44.,-34.));
#1779=VECTOR('',#1780,1.);
#1780=DIRECTION('',(0.,0.,-1.));
#1781=CARTESIAN_POINT('',(-31.5,44.,-34.));
#1782=VECTOR('',#1783,1.);
#1783=DIRECTION('',(-1.,0.,0.));
#1784=CARTESIAN_POINT('',(-34.5,44.,-29.));
#1785=AXIS2_PLACEMENT_3D('',#1786,#1787,#1788);
#1786=CARTESIAN_POINT('',(-33.5,44.,-29.));
#1787=DIRECTION('',(0.,1.,0.));
#1788=DIRECTION('',(-1.,0.,-1.22464679914735E-16));
#1789=CARTESIAN_POINT('',(-35.5,40.,-43.));
#1790=CARTESIAN_POINT('',(-35.5,43.,-43.));
#1791=VECTOR('',#1792,1.);
#1792=DIRECTION('',(0.,-1.,0.));
#1793=CARTESIAN_POINT('',(-35.5,40.,-44.));
#1794=CARTESIAN_POINT('',(-35.5,40.,-43.));
#1795=VECTOR('',#1796,1.);
#1796=DIRECTION('',(0.,0.,-1.));
#1797=CARTESIAN_POINT('',(-35.5,44.,-44.));
#1798=VECTOR('',#1799,1.);
#1799=DIRECTION('',(0.,-1.,0.));
#1800=CARTESIAN_POINT('',(-35.5,43.,-34.));
#1801=VECTOR('',#1802,1.);
#1802=DIRECTION('',(0.,1.,0.));
#1803=CARTESIAN_POINT('',(-31.5,44.,-34.));
#1804=VECTOR('',#1805,1.);
#1805=DIRECTION('',(0.,-1.,0.));
#1806=CARTESIAN_POINT('',(-31.5,40.,-44.));
#1807=CARTESIAN_POINT('',(-31.5,40.,-44.));
#1808=VECTOR('',#1809,1.);
#1809=DIRECTION('',(0.,1.,0.));
#1810=CARTESIAN_POINT('',(-31.5,40.,-43.));
#1811=CARTESIAN_POINT('',(-31.5,40.,-43.));
#1812=VECTOR('',#1813,1.);
#1813=DIRECTION('',(0.,0.,-1.));
#1814=CARTESIAN_POINT('',(-31.5,40.,-43.));
#1815=VECTOR('',#1816,1.);
#1816=DIRECTION('',(0.,1.,0.));
#1817=CARTESIAN_POINT('',(-31.5,-30.,-43.));
#1818=CARTESIAN_POINT('',(-31.5,-33.,-43.));
#1819=CARTESIAN_POINT('',(-31.5,-33.,-43.));
#1820=VECTOR('',#1821,1.);
#1821=DIRECTION('',(0.,1.,0.));
#1822=CARTESIAN_POINT('',(-29.,-33.,-43.));
#1823=CARTESIAN_POINT('',(-31.5,-33.,-43.));
#1824=VECTOR('',#1825,1.);
#1825=DIRECTION('',(1.,0.,0.));
#1826=CARTESIAN_POINT('',(-29.,-33.,-43.));
#1827=VECTOR('',#1828,1.);
#1828=DIRECTION('',(0.,1.,0.));
#1829=CARTESIAN_POINT('',(-35.5,40.,-43.));
#1830=VECTOR('',#1831,1.);
#1831=DIRECTION('',(1.,0.,0.));
#1832=CARTESIAN_POINT('',(-38.,-33.,-43.));
#1833=CARTESIAN_POINT('',(-38.,43.,-43.));
#1834=VECTOR('',#1835,1.);
#1835=DIRECTION('',(0.,-1.,0.));
#1836=CARTESIAN_POINT('',(-35.5,-33.,-43.));
#1837=CARTESIAN_POINT('',(-38.,-33.,-43.));
#1838=VECTOR('',#1839,1.);
#1839=DIRECTION('',(1.,0.,0.));
#1840=CARTESIAN_POINT('',(-35.5,-30.,-43.));
#1841=CARTESIAN_POINT('',(-35.5,-30.,-43.));
#1842=VECTOR('',#1843,1.);
#1843=DIRECTION('',(0.,-1.,0.));
#1844=CARTESIAN_POINT('',(-31.5,-30.,-43.));
#1845=VECTOR('',#1846,1.);
#1846=DIRECTION('',(-1.,0.,0.));
#1847=CARTESIAN_POINT('',(-33.5,-22.5,-43.));
#1848=AXIS2_PLACEMENT_3D('',#1849,#1850,#1851);
#1849=CARTESIAN_POINT('',(-33.5,-24.,-43.));
#1850=DIRECTION('',(0.,0.,-1.));
#1851=DIRECTION('',(-6.12323399573676E-17,1.,0.));
#1852=CARTESIAN_POINT('',(-32.,34.,-43.));
#1853=AXIS2_PLACEMENT_3D('',#1854,#1855,#1856);
#1854=CARTESIAN_POINT('',(-33.5,34.,-43.));
#1855=DIRECTION('',(0.,0.,-1.));
#1856=DIRECTION('',(1.,1.22464679914735E-16,0.));
#1857=CARTESIAN_POINT('',(-24.,-33.,-38.));
#1858=CARTESIAN_POINT('',(-24.,-8.00000000000003,-38.));
#1859=CARTESIAN_POINT('',(-24.,-33.,-38.));
#1860=VECTOR('',#1861,1.);
#1861=DIRECTION('',(0.,1.,0.));
#1862=CARTESIAN_POINT('',(-24.,18.,-38.));
#1863=CARTESIAN_POINT('',(-24.,18.,-38.));
#1864=VECTOR('',#1865,1.);
#1865=DIRECTION('',(0.,-1.,0.));
#1866=CARTESIAN_POINT('',(-24.,18.,-38.));
#1867=VECTOR('',#1868,1.);
#1868=DIRECTION('',(0.,1.,0.));
#1869=AXIS2_PLACEMENT_3D('',#1870,#1871,#1872);
#1870=CARTESIAN_POINT('',(-29.,-33.,-38.));
#1871=DIRECTION('',(0.,1.,0.));
#1872=DIRECTION('',(1.,0.,0.));
#1873=CARTESIAN_POINT('',(-24.,18.,-35.));
#1874=CARTESIAN_POINT('',(-24.,18.,-38.));
#1875=VECTOR('',#1876,1.);
#1876=DIRECTION('',(0.,0.,1.));
#1877=CARTESIAN_POINT('',(-24.,19.,-34.));
#1878=AXIS2_PLACEMENT_3D('',#1879,#1880,#1881);
#1879=CARTESIAN_POINT('',(-24.,19.,-35.));
#1880=DIRECTION('',(-1.,-4.67462326157961E-17,0.));
#1881=DIRECTION('',(4.67462326157961E-17,-1.,0.));
#1882=CARTESIAN_POINT('',(-24.,28.,-34.));
#1883=CARTESIAN_POINT('',(-24.,28.,-34.));
#1884=VECTOR('',#1885,1.);
#1885=DIRECTION('',(0.,-1.,0.));
#1886=CARTESIAN_POINT('',(-24.,33.,-29.));
#1887=CARTESIAN_POINT('',(-24.,28.,-34.));
#1888=VECTOR('',#1889,1.);
#1889=DIRECTION('',(0.,0.707106781186547,0.707106781186547));
#1890=CARTESIAN_POINT('',(-24.,42.,-29.));
#1891=CARTESIAN_POINT('',(-24.,42.,-29.));
#1892=VECTOR('',#1893,1.);
#1893=DIRECTION('',(0.,-1.,0.));
#1894=AXIS2_PLACEMENT_3D('',#1895,#1896,#1897);
#1895=CARTESIAN_POINT('',(-24.,42.,-28.));
#1896=DIRECTION('',(1.,4.67462326157961E-17,0.));
#1897=DIRECTION('',(0.,0.,-1.));
#1898=CARTESIAN_POINT('',(-23.,42.,-29.));
#1899=CARTESIAN_POINT('',(-23.,42.,-29.));
#1900=VECTOR('',#1901,1.);
#1901=DIRECTION('',(-1.,0.,0.));
#1902=AXIS2_PLACEMENT_3D('',#1903,#1904,#1905);
#1903=CARTESIAN_POINT('',(-23.,42.,-28.));
#1904=DIRECTION('',(-1.,0.,0.));
#1905=DIRECTION('',(0.,1.,0.));
#1906=CARTESIAN_POINT('',(-23.,33.,-29.));
#1907=CARTESIAN_POINT('',(-23.,42.,-29.));
#1908=VECTOR('',#1909,1.);
#1909=DIRECTION('',(0.,-1.,0.));
#1910=CARTESIAN_POINT('',(-23.,28.,-34.));
#1911=CARTESIAN_POINT('',(-23.,33.,-29.));
#1912=VECTOR('',#1913,1.);
#1913=DIRECTION('',(0.,-0.707106781186547,-0.707106781186547));
#1914=CARTESIAN_POINT('',(-23.,19.,-34.));
#1915=CARTESIAN_POINT('',(-23.,28.,-34.));
#1916=VECTOR('',#1917,1.);
#1917=DIRECTION('',(0.,-1.,0.));
#1918=CARTESIAN_POINT('',(-23.,18.,-35.));
#1919=AXIS2_PLACEMENT_3D('',#1920,#1921,#1922);
#1920=CARTESIAN_POINT('',(-23.,19.,-35.));
#1921=DIRECTION('',(1.,0.,0.));
#1922=DIRECTION('',(0.,0.,1.));
#1923=CARTESIAN_POINT('',(-23.,18.,-38.));
#1924=CARTESIAN_POINT('',(-23.,18.,-38.));
#1925=VECTOR('',#1926,1.);
#1926=DIRECTION('',(0.,0.,1.));
#1927=CARTESIAN_POINT('',(-23.,-8.00000000000003,-38.));
#1928=CARTESIAN_POINT('',(-23.,18.,-38.));
#1929=VECTOR('',#1930,1.);
#1930=DIRECTION('',(0.,-1.,0.));
#1931=CARTESIAN_POINT('',(-23.,-8.00000000000003,-35.));
#1932=CARTESIAN_POINT('',(-23.,-8.00000000000003,-35.));
#1933=VECTOR('',#1934,1.);
#1934=DIRECTION('',(0.,0.,-1.));
#1935=CARTESIAN_POINT('',(-23.,-9.00000000000003,-34.));
#1936=AXIS2_PLACEMENT_3D('',#1937,#1938,#1939);
#1937=CARTESIAN_POINT('',(-23.,-9.00000000000003,-35.));
#1938=DIRECTION('',(1.,0.,0.));
#1939=DIRECTION('',(0.,1.,0.));
#1940=CARTESIAN_POINT('',(-23.,-18.,-34.));
#1941=CARTESIAN_POINT('',(-23.,-9.00000000000003,-34.));
#1942=VECTOR('',#1943,1.);
#1943=DIRECTION('',(0.,-1.,0.));
#1944=CARTESIAN_POINT('',(-23.,-23.,-29.));
#1945=CARTESIAN_POINT('',(-23.,-18.,-34.));
#1946=VECTOR('',#1947,1.);
#1947=DIRECTION('',(0.,-0.707106781186547,0.707106781186547));
#1948=CARTESIAN_POINT('',(-23.,-32.,-29.));
#1949=CARTESIAN_POINT('',(-23.,-23.,-29.));
#1950=VECTOR('',#1951,1.);
#1951=DIRECTION('',(0.,-1.,0.));
#1952=CARTESIAN_POINT('',(-23.,-33.,-28.));
#1953=AXIS2_PLACEMENT_3D('',#1954,#1955,#1956);
#1954=CARTESIAN_POINT('',(-23.,-32.,-28.));
#1955=DIRECTION('',(-1.,0.,0.));
#1956=DIRECTION('',(0.,0.,-1.));
#1957=CARTESIAN_POINT('',(-23.,-33.,-24.));
#1958=CARTESIAN_POINT('',(-23.,-33.,-24.));
#1959=VECTOR('',#1960,1.);
#1960=DIRECTION('',(0.,0.,-1.));
#1961=CARTESIAN_POINT('',(-23.,-34.,-24.));
#1962=CARTESIAN_POINT('',(-23.,-34.,-24.));
#1963=VECTOR('',#1964,1.);
#1964=DIRECTION('',(0.,1.,0.));
#1965=CARTESIAN_POINT('',(-23.,-34.,-44.));
#1966=CARTESIAN_POINT('',(-23.,-34.,-44.));
#1967=VECTOR('',#1968,1.);
#1968=DIRECTION('',(0.,0.,1.));
#1969=CARTESIAN_POINT('',(-23.,-34.,-44.));
#1970=VECTOR('',#1971,1.);
#1971=DIRECTION('',(0.,1.,0.));
#1972=CARTESIAN_POINT('',(-23.,43.,-24.));
#1973=VECTOR('',#1974,1.);
#1974=DIRECTION('',(0.,1.,0.));
#1975=CARTESIAN_POINT('',(-44.,44.,-24.));
#1976=VECTOR('',#1977,1.);
#1977=DIRECTION('',(0.,-1.,0.));
#1978=CARTESIAN_POINT('',(-44.,42.,-29.));
#1979=AXIS2_PLACEMENT_3D('',#1980,#1981,#1982);
#1980=CARTESIAN_POINT('',(-44.,42.,-28.));
#1981=DIRECTION('',(1.,0.,0.));
#1982=DIRECTION('',(0.,7.105427357601E-15,-1.));
#1983=CARTESIAN_POINT('',(-44.,-34.,-44.));
#1984=CARTESIAN_POINT('',(-44.,44.,-44.));
#1985=VECTOR('',#1986,1.);
#1986=DIRECTION('',(0.,-1.,0.));
#1987=CARTESIAN_POINT('',(-44.,-34.,-24.));
#1988=CARTESIAN_POINT('',(-44.,-34.,-44.));
#1989=VECTOR('',#1990,1.);
#1990=DIRECTION('',(0.,0.,1.));
#1991=CARTESIAN_POINT('',(-44.,-33.,-24.));
#1992=CARTESIAN_POINT('',(-44.,-33.,-24.));
#1993=VECTOR('',#1994,1.);
#1994=DIRECTION('',(0.,-1.,0.));
#1995=CARTESIAN_POINT('',(-44.,-33.,-28.));
#1996=CARTESIAN_POINT('',(-44.,-33.,-28.));
#1997=VECTOR('',#1998,1.);
#1998=DIRECTION('',(0.,0.,1.));
#1999=CARTESIAN_POINT('',(-44.,-32.,-29.));
#2000=AXIS2_PLACEMENT_3D('',#2001,#2002,#2003);
#2001=CARTESIAN_POINT('',(-44.,-32.,-28.));
#2002=DIRECTION('',(1.,0.,0.));
#2003=DIRECTION('',(0.,-1.,0.));
#2004=CARTESIAN_POINT('',(-44.,-23.,-29.));
#2005=CARTESIAN_POINT('',(-44.,-32.,-29.));
#2006=VECTOR('',#2007,1.);
#2007=DIRECTION('',(0.,1.,0.));
#2008=CARTESIAN_POINT('',(-44.,-18.,-34.));
#2009=CARTESIAN_POINT('',(-44.,-23.,-29.));
#2010=VECTOR('',#2011,1.);
#2011=DIRECTION('',(0.,0.707106781186547,-0.707106781186547));
#2012=CARTESIAN_POINT('',(-44.,-9.00000000000003,-34.));
#2013=CARTESIAN_POINT('',(-44.,-18.,-34.));
#2014=VECTOR('',#2015,1.);
#2015=DIRECTION('',(0.,1.,0.));
#2016=CARTESIAN_POINT('',(-44.,-8.00000000000003,-35.));
#2017=AXIS2_PLACEMENT_3D('',#2018,#2019,#2020);
#2018=CARTESIAN_POINT('',(-44.,-9.00000000000003,-35.));
#2019=DIRECTION('',(-1.,0.,0.));
#2020=DIRECTION('',(0.,0.,1.));
#2021=CARTESIAN_POINT('',(-44.,-8.00000000000003,-38.));
#2022=CARTESIAN_POINT('',(-44.,-8.00000000000003,-38.));
#2023=VECTOR('',#2024,1.);
#2024=DIRECTION('',(0.,0.,1.));
#2025=CARTESIAN_POINT('',(-44.,18.,-38.));
#2026=CARTESIAN_POINT('',(-44.,-8.00000000000003,-38.));
#2027=VECTOR('',#2028,1.);
#2028=DIRECTION('',(0.,1.,0.));
#2029=CARTESIAN_POINT('',(-44.,18.,-35.));
#2030=CARTESIAN_POINT('',(-44.,18.,-35.));
#2031=VECTOR('',#2032,1.);
#2032=DIRECTION('',(0.,0.,-1.));
#2033=CARTESIAN_POINT('',(-44.,19.,-34.));
#2034=AXIS2_PLACEMENT_3D('',#2035,#2036,#2037);
#2035=CARTESIAN_POINT('',(-44.,19.,-35.));
#2036=DIRECTION('',(-1.,0.,0.));
#2037=DIRECTION('',(0.,-1.,0.));
#2038=CARTESIAN_POINT('',(-44.,28.,-34.));
#2039=CARTESIAN_POINT('',(-44.,19.,-34.));
#2040=VECTOR('',#2041,1.);
#2041=DIRECTION('',(0.,1.,0.));
#2042=CARTESIAN_POINT('',(-44.,33.,-29.));
#2043=CARTESIAN_POINT('',(-44.,28.,-34.));
#2044=VECTOR('',#2045,1.);
#2045=DIRECTION('',(0.,0.707106781186547,0.707106781186547));
#2046=CARTESIAN_POINT('',(-44.,33.,-29.));
#2047=VECTOR('',#2048,1.);
#2048=DIRECTION('',(0.,1.,0.));
#2049=CARTESIAN_POINT('',(-43.,42.,-29.));
#2050=CARTESIAN_POINT('',(-43.,42.,-29.));
#2051=VECTOR('',#2052,1.);
#2052=DIRECTION('',(-1.,0.,0.));
#2053=AXIS2_PLACEMENT_3D('',#2054,#2055,#2056);
#2054=CARTESIAN_POINT('',(-43.,42.,-28.));
#2055=DIRECTION('',(-1.,-4.67462326157961E-17,0.));
#2056=DIRECTION('',(-4.67462326157961E-17,1.,0.));
#2057=CARTESIAN_POINT('',(-43.,18.,-38.));
#2058=CARTESIAN_POINT('',(-43.,43.,-38.));
#2059=VECTOR('',#2060,1.);
#2060=DIRECTION('',(0.,-1.,0.));
#2061=CARTESIAN_POINT('',(-43.,33.,-29.));
#2062=CARTESIAN_POINT('',(-43.,33.,-29.));
#2063=VECTOR('',#2064,1.);
#2064=DIRECTION('',(0.,1.,0.));
#2065=CARTESIAN_POINT('',(-43.,28.,-34.));
#2066=CARTESIAN_POINT('',(-43.,33.,-29.));
#2067=VECTOR('',#2068,1.);
#2068=DIRECTION('',(0.,-0.707106781186547,-0.707106781186547));
#2069=CARTESIAN_POINT('',(-43.,19.,-34.));
#2070=CARTESIAN_POINT('',(-43.,19.,-34.));
#2071=VECTOR('',#2072,1.);
#2072=DIRECTION('',(0.,1.,0.));
#2073=CARTESIAN_POINT('',(-43.,18.,-35.));
#2074=AXIS2_PLACEMENT_3D('',#2075,#2076,#2077);
#2075=CARTESIAN_POINT('',(-43.,19.,-35.));
#2076=DIRECTION('',(1.,4.67462326157961E-17,0.));
#2077=DIRECTION('',(0.,0.,1.));
#2078=CARTESIAN_POINT('',(-43.,18.,-35.));
#2079=VECTOR('',#2080,1.);
#2080=DIRECTION('',(0.,0.,-1.));
#2081=CARTESIAN_POINT('',(-43.,-8.00000000000003,-38.));
#2082=CARTESIAN_POINT('',(-43.,-8.00000000000003,-38.));
#2083=VECTOR('',#2084,1.);
#2084=DIRECTION('',(0.,1.,0.));
#2085=CARTESIAN_POINT('',(-43.,-33.,-38.));
#2086=CARTESIAN_POINT('',(-43.,-8.00000000000003,-38.));
#2087=VECTOR('',#2088,1.);
#2088=DIRECTION('',(0.,-1.,0.));
#2089=AXIS2_PLACEMENT_3D('',#2090,#2091,#2092);
#2090=CARTESIAN_POINT('',(-38.,-33.,-38.));
#2091=DIRECTION('',(0.,1.,0.));
#2092=DIRECTION('',(0.,0.,-1.));
#2093=CARTESIAN_POINT('',(-31.5,-34.,-44.));
#2094=CARTESIAN_POINT('',(-31.5,-30.,-44.));
#2095=CARTESIAN_POINT('',(-31.5,-34.,-44.));
#2096=VECTOR('',#2097,1.);
#2097=DIRECTION('',(0.,1.,0.));
#2098=CARTESIAN_POINT('',(-35.5,-30.,-44.));
#2099=CARTESIAN_POINT('',(-31.5,-30.,-44.));
#2100=VECTOR('',#2101,1.);
#2101=DIRECTION('',(-1.,0.,0.));
#2102=CARTESIAN_POINT('',(-35.5,-34.,-44.));
#2103=CARTESIAN_POINT('',(-35.5,-30.,-44.));
#2104=VECTOR('',#2105,1.);
#2105=DIRECTION('',(0.,-1.,0.));
#2106=CARTESIAN_POINT('',(-44.,-34.,-44.));
#2107=VECTOR('',#2108,1.);
#2108=DIRECTION('',(1.,0.,0.));
#2109=CARTESIAN_POINT('',(-35.5,40.,-44.));
#2110=VECTOR('',#2111,1.);
#2111=DIRECTION('',(1.,0.,0.));
#2112=CARTESIAN_POINT('',(-31.5,-34.,-44.));
#2113=VECTOR('',#2114,1.);
#2114=DIRECTION('',(1.,0.,0.));
#2115=CARTESIAN_POINT('',(-33.5,-22.5,-44.));
#2116=AXIS2_PLACEMENT_3D('',#2117,#2118,#2119);
#2117=CARTESIAN_POINT('',(-33.5,-24.,-44.));
#2118=DIRECTION('',(0.,0.,-1.));
#2119=DIRECTION('',(-6.12323399573676E-17,1.,0.));
#2120=CARTESIAN_POINT('',(-32.,34.,-44.));
#2121=AXIS2_PLACEMENT_3D('',#2122,#2123,#2124);
#2122=CARTESIAN_POINT('',(-33.5,34.,-44.));
#2123=DIRECTION('',(0.,0.,-1.));
#2124=DIRECTION('',(1.,1.22464679914735E-16,0.));
#2125=CARTESIAN_POINT('',(-31.5,-34.,-34.));
#2126=CARTESIAN_POINT('',(-31.5,-34.,-44.));
#2127=VECTOR('',#2128,1.);
#2128=DIRECTION('',(0.,0.,1.));
#2129=CARTESIAN_POINT('',(-31.5,-33.,-34.));
#2130=CARTESIAN_POINT('',(-31.5,-33.,-34.));
#2131=VECTOR('',#2132,1.);
#2132=DIRECTION('',(0.,-1.,0.));
#2133=CARTESIAN_POINT('',(-31.5,-33.,-43.));
#2134=VECTOR('',#2135,1.);
#2135=DIRECTION('',(0.,0.,1.));
#2136=CARTESIAN_POINT('',(-31.5,-30.,-43.));
#2137=VECTOR('',#2138,1.);
#2138=DIRECTION('',(0.,0.,-1.));
#2139=CARTESIAN_POINT('',(-35.5,-33.,-34.));
#2140=CARTESIAN_POINT('',(-35.5,-33.,-34.));
#2141=VECTOR('',#2142,1.);
#2142=DIRECTION('',(1.,0.,0.));
#2143=CARTESIAN_POINT('',(-35.5,-33.,-34.));
#2144=VECTOR('',#2145,1.);
#2145=DIRECTION('',(0.,0.,-1.));
#2146=CARTESIAN_POINT('',(-43.,-33.,-28.));
#2147=CARTESIAN_POINT('',(-43.,-33.,-38.));
#2148=VECTOR('',#2149,1.);
#2149=DIRECTION('',(0.,0.,1.));
#2150=CARTESIAN_POINT('',(-44.,-33.,-28.));
#2151=VECTOR('',#2152,1.);
#2152=DIRECTION('',(1.,0.,0.));
#2153=CARTESIAN_POINT('',(-44.,-33.,-24.));
#2154=VECTOR('',#2155,1.);
#2155=DIRECTION('',(1.,0.,0.));
#2156=CARTESIAN_POINT('',(-24.,-33.,-28.));
#2157=CARTESIAN_POINT('',(-24.,-33.,-28.));
#2158=VECTOR('',#2159,1.);
#2159=DIRECTION('',(1.,0.,0.));
#2160=CARTESIAN_POINT('',(-24.,-33.,-38.));
#2161=VECTOR('',#2162,1.);
#2162=DIRECTION('',(0.,0.,1.));
#2163=CARTESIAN_POINT('',(-34.5,-33.,-29.));
#2164=AXIS2_PLACEMENT_3D('',#2165,#2166,#2167);
#2165=CARTESIAN_POINT('',(-33.5,-33.,-29.));
#2166=DIRECTION('',(0.,1.,0.));
#2167=DIRECTION('',(-1.,0.,-1.22464679914735E-16));
#2168=CARTESIAN_POINT('',(-35.5,-30.,-43.));
#2169=VECTOR('',#2170,1.);
#2170=DIRECTION('',(0.,0.,-1.));
#2171=CARTESIAN_POINT('',(-35.5,-34.,-34.));
#2172=CARTESIAN_POINT('',(-35.5,-34.,-34.));
#2173=VECTOR('',#2174,1.);
#2174=DIRECTION('',(0.,1.,0.));
#2175=CARTESIAN_POINT('',(-35.5,-34.,-34.));
#2176=VECTOR('',#2177,1.);
#2177=DIRECTION('',(0.,0.,-1.));
#2178=CARTESIAN_POINT('',(-24.,-32.,-29.));
#2179=AXIS2_PLACEMENT_3D('',#2180,#2181,#2182);
#2180=CARTESIAN_POINT('',(-24.,-32.,-28.));
#2181=DIRECTION('',(1.,4.67462326157961E-17,0.));
#2182=DIRECTION('',(4.67462326157961E-17,-1.,0.));
#2183=CARTESIAN_POINT('',(-24.,-23.,-29.));
#2184=CARTESIAN_POINT('',(-24.,-23.,-29.));
#2185=VECTOR('',#2186,1.);
#2186=DIRECTION('',(0.,-1.,0.));
#2187=CARTESIAN_POINT('',(-24.,-18.,-34.));
#2188=CARTESIAN_POINT('',(-24.,-23.,-29.));
#2189=VECTOR('',#2190,1.);
#2190=DIRECTION('',(0.,0.707106781186547,-0.707106781186547));
#2191=CARTESIAN_POINT('',(-24.,-9.00000000000003,-34.));
#2192=CARTESIAN_POINT('',(-24.,-9.00000000000003,-34.));
#2193=VECTOR('',#2194,1.);
#2194=DIRECTION('',(0.,-1.,0.));
#2195=CARTESIAN_POINT('',(-24.,-8.00000000000003,-35.));
#2196=AXIS2_PLACEMENT_3D('',#2197,#2198,#2199);
#2197=CARTESIAN_POINT('',(-24.,-9.00000000000003,-35.));
#2198=DIRECTION('',(-1.,-4.67462326157961E-17,0.));
#2199=DIRECTION('',(0.,0.,1.));
#2200=CARTESIAN_POINT('',(-24.,-8.00000000000003,-35.));
#2201=VECTOR('',#2202,1.);
#2202=DIRECTION('',(0.,0.,-1.));
#2203=CARTESIAN_POINT('',(-24.,-8.00000000000003,-38.));
#2204=VECTOR('',#2205,1.);
#2205=DIRECTION('',(1.,0.,0.));
#2206=CARTESIAN_POINT('',(-23.,18.,-38.));
#2207=VECTOR('',#2208,1.);
#2208=DIRECTION('',(-1.,0.,0.));
#2209=CARTESIAN_POINT('',(-24.,18.,-35.));
#2210=VECTOR('',#2211,1.);
#2211=DIRECTION('',(1.,0.,0.));
#2212=CARTESIAN_POINT('',(-24.,19.,-34.));
#2213=VECTOR('',#2214,1.);
#2214=DIRECTION('',(1.,0.,0.));
#2215=CARTESIAN_POINT('',(-23.,28.,-34.));
#2216=VECTOR('',#2217,1.);
#2217=DIRECTION('',(-1.,0.,0.));
#2218=CARTESIAN_POINT('',(-24.,33.,-29.));
#2219=VECTOR('',#2220,1.);
#2220=DIRECTION('',(1.,0.,0.));
#2221=CARTESIAN_POINT('',(-23.,-8.00000000000003,-35.));
#2222=VECTOR('',#2223,1.);
#2223=DIRECTION('',(-1.,0.,0.));
#2224=CARTESIAN_POINT('',(-23.,-9.00000000000003,-34.));
#2225=VECTOR('',#2226,1.);
#2226=DIRECTION('',(-1.,0.,0.));
#2227=CARTESIAN_POINT('',(-24.,-18.,-34.));
#2228=VECTOR('',#2229,1.);
#2229=DIRECTION('',(1.,0.,0.));
#2230=CARTESIAN_POINT('',(-23.,-23.,-29.));
#2231=VECTOR('',#2232,1.);
#2232=DIRECTION('',(-1.,0.,0.));
#2233=CARTESIAN_POINT('',(-24.,-32.,-29.));
#2234=VECTOR('',#2235,1.);
#2235=DIRECTION('',(1.,0.,0.));
#2236=CARTESIAN_POINT('',(-44.,-34.,-24.));
#2237=VECTOR('',#2238,1.);
#2238=DIRECTION('',(1.,0.,0.));
#2239=CARTESIAN_POINT('',(-35.5,-34.,-34.));
#2240=VECTOR('',#2241,1.);
#2241=DIRECTION('',(1.,0.,0.));
#2242=CARTESIAN_POINT('',(-34.5,-34.,-29.));
#2243=AXIS2_PLACEMENT_3D('',#2244,#2245,#2246);
#2244=CARTESIAN_POINT('',(-33.5,-34.,-29.));
#2245=DIRECTION('',(0.,1.,0.));
#2246=DIRECTION('',(-1.,0.,-1.22464679914735E-16));
#2247=CARTESIAN_POINT('',(-43.,-32.,-29.));
#2248=AXIS2_PLACEMENT_3D('',#2249,#2250,#2251);
#2249=CARTESIAN_POINT('',(-43.,-32.,-28.));
#2250=DIRECTION('',(-1.,-4.67462326157961E-17,0.));
#2251=DIRECTION('',(0.,0.,-1.));
#2252=CARTESIAN_POINT('',(-44.,-32.,-29.));
#2253=VECTOR('',#2254,1.);
#2254=DIRECTION('',(1.,0.,0.));
#2255=CARTESIAN_POINT('',(-43.,-23.,-29.));
#2256=CARTESIAN_POINT('',(-43.,-32.,-29.));
#2257=VECTOR('',#2258,1.);
#2258=DIRECTION('',(0.,1.,0.));
#2259=CARTESIAN_POINT('',(-43.,-23.,-29.));
#2260=VECTOR('',#2261,1.);
#2261=DIRECTION('',(-1.,0.,0.));
#2262=CARTESIAN_POINT('',(-43.,-18.,-34.));
#2263=CARTESIAN_POINT('',(-44.,-18.,-34.));
#2264=VECTOR('',#2265,1.);
#2265=DIRECTION('',(1.,0.,0.));
#2266=CARTESIAN_POINT('',(-43.,-18.,-34.));
#2267=VECTOR('',#2268,1.);
#2268=DIRECTION('',(0.,-0.707106781186547,0.707106781186547));
#2269=CARTESIAN_POINT('',(-43.,-9.00000000000003,-34.));
#2270=CARTESIAN_POINT('',(-43.,-9.00000000000003,-34.));
#2271=VECTOR('',#2272,1.);
#2272=DIRECTION('',(-1.,0.,0.));
#2273=CARTESIAN_POINT('',(-43.,-18.,-34.));
#2274=VECTOR('',#2275,1.);
#2275=DIRECTION('',(0.,1.,0.));
#2276=CARTESIAN_POINT('',(-43.,-8.00000000000003,-35.));
#2277=CARTESIAN_POINT('',(-43.,-8.00000000000003,-35.));
#2278=VECTOR('',#2279,1.);
#2279=DIRECTION('',(-1.,0.,0.));
#2280=AXIS2_PLACEMENT_3D('',#2281,#2282,#2283);
#2281=CARTESIAN_POINT('',(-43.,-9.00000000000003,-35.));
#2282=DIRECTION('',(1.,4.67462326157961E-17,0.));
#2283=DIRECTION('',(-4.67462326157961E-17,1.,0.));
#2284=CARTESIAN_POINT('',(-43.,-8.00000000000003,-38.));
#2285=VECTOR('',#2286,1.);
#2286=DIRECTION('',(0.,0.,1.));
#2287=CARTESIAN_POINT('',(-44.,-8.00000000000003,-38.));
#2288=VECTOR('',#2289,1.);
#2289=DIRECTION('',(1.,0.,0.));
#2290=CARTESIAN_POINT('',(-43.,18.,-38.));
#2291=VECTOR('',#2292,1.);
#2292=DIRECTION('',(-1.,0.,0.));
#2293=CARTESIAN_POINT('',(-44.,18.,-35.));
#2294=VECTOR('',#2295,1.);
#2295=DIRECTION('',(1.,0.,0.));
#2296=CARTESIAN_POINT('',(-44.,19.,-34.));
#2297=VECTOR('',#2298,1.);
#2298=DIRECTION('',(1.,0.,0.));
#2299=CARTESIAN_POINT('',(-43.,28.,-34.));
#2300=VECTOR('',#2301,1.);
#2301=DIRECTION('',(-1.,0.,0.));
#2302=CARTESIAN_POINT('',(-44.,33.,-29.));
#2303=VECTOR('',#2304,1.);
#2304=DIRECTION('',(1.,0.,0.));
ENDSEC;
END-ISO-10303-21;
